<?xml version="1.0" encoding="UTF-8"?>
<svg width="37px" height="27px" viewBox="0 0 37 27" version="1.1" xmlns="http://www.w3.org/2000/svg" xmlns:xlink="http://www.w3.org/1999/xlink">
    <!-- Generator: Sketch 50.2 (55047) - http://www.bohemiancoding.com/sketch -->
    <title>BDRC - browe collection - white</title>
    <desc>Created with Sketch.</desc>
    <defs>
        <polygon id="path-1" points="0 0.294575836 2.45826149 0.294575836 2.45826149 2.75297677 0 2.75297677"></polygon>
        <polygon id="path-3" points="0 0.330691879 2.45826149 0.330691879 2.45826149 2.7883956 0 2.7883956"></polygon>
        <polygon id="path-5" points="0 0.258668959 2.45826149 0.258668959 2.45826149 2.71693045 0 2.71693045"></polygon>
        <polygon id="path-7" points="0 0.258668959 2.45826149 0.258668959 2.45826149 2.71693045 0 2.71693045"></polygon>
        <polygon id="path-9" points="0 0.258668959 2.45826149 0.258668959 2.45826149 2.71693045 0 2.71693045"></polygon>
    </defs>
    <g id="BDRC---browe-collection---white" stroke="none" stroke-width="1" fill="none" fill-rule="evenodd">
        <g id="menu_mirador02" transform="translate(6.000000, 6.000000)">
            <g id="Group-5" transform="translate(0.034258, 0.228385)">
                <g id="Group-3" transform="translate(0.000000, 5.318959)">
                    <mask id="mask-2" fill="white">
                        <use xlink:href="#path-1"></use>
                    </mask>
                    <g id="Clip-2"></g>
                    <path d="M11.229061,0.294575836 C11.9081542,0.294575836 12.4582615,0.844683136 12.4582615,1.5237763 C12.4582615,2.20217225 11.9081542,2.75297677 11.229061,2.75297677 C10.5499679,2.75297677 9.99986056,2.20217225 9.99986056,1.5237763 C9.99986056,0.844683136 10.5499679,0.294575836 11.229061,0.294575836" id="Fill-1" fill="#D73449" mask="url(#mask-2)"></path>
                </g>
                <g id="Group-6" transform="translate(0.000000, 10.199505)">
                    <mask id="mask-4" fill="white">
                        <use xlink:href="#path-3"></use>
                    </mask>
                    <g id="Clip-5"></g>
                </g>
                <path d="M6.14565373,2.74572568 L22.5338313,2.74572568 C22.9863277,2.74572568 23.3530659,2.37898748 23.3530659,1.9264911 C23.3530659,1.47399473 22.9863277,1.10655931 22.5338313,1.10655931 L6.14565373,1.10655931 C5.69315736,1.10655931 5.32641916,1.47399473 5.32641916,1.9264911 C5.32641916,2.37898748 5.69315736,2.74572568 6.14565373,2.74572568" id="Fill-7" fill="#343434"></path>
                <path d="M22.7461591,6.02343091 L10.606837,6.02343091 C10.2716564,6.02343091 10,6.39016911 10,6.84266548 C10,7.29516185 10.2716564,7.66259727 10.606837,7.66259727 L22.7461591,7.66259727 C23.0813397,7.66259727 23.3529961,7.29516185 23.3529961,6.84266548 C23.3529961,6.39016911 23.0813397,6.02343091 22.7461591,6.02343091" id="Fill-9" fill="#343434"></path>
                <path d="M22.7461591,11.0234309 L10.606837,11.0234309 C10.2716564,11.0234309 10,11.3901691 10,11.8426655 C10,12.2951619 10.2716564,12.6625973 10.606837,12.6625973 L22.7461591,12.6625973 C23.0813397,12.6625973 23.3529961,12.2951619 23.3529961,11.8426655 C23.3529961,11.3901691 23.0813397,11.0234309 22.7461591,11.0234309" id="Fill-9" fill="#343434"></path>
                <g id="Group-13" transform="translate(0.000000, 0.438413)">
                    <mask id="mask-6" fill="white">
                        <use xlink:href="#path-5"></use>
                    </mask>
                    <g id="Clip-12"></g>
                    <path d="M1.22906102,0.258529514 C1.90815419,0.258529514 2.45826149,0.809334035 2.45826149,1.4884272 C2.45826149,2.16682315 1.90815419,2.71693045 1.22906102,2.71693045 C0.549967856,2.71693045 -0.000139444183,2.16682315 -0.000139444183,1.4884272 C-0.000139444183,0.809334035 0.549967856,0.258529514 1.22906102,0.258529514" id="Fill-11" fill="#343434" mask="url(#mask-6)"></path>
                    <text id="343434" mask="url(#mask-6)" font-family="NotoSans-Medium, Noto Sans" font-size="14" font-weight="400" fill="#4A4A4A">
                        <tspan x="-6.03425775" y="82.3332025">343434</tspan>
                    </text>
                </g>
                <g id="Group-13" transform="translate(5.000000, 5.438413)">
                    <mask id="mask-8" fill="white">
                        <use xlink:href="#path-7"></use>
                    </mask>
                    <g id="Clip-12"></g>
                    <path d="M1.22906102,0.258529514 C1.90815419,0.258529514 2.45826149,0.809334035 2.45826149,1.4884272 C2.45826149,2.16682315 1.90815419,2.71693045 1.22906102,2.71693045 C0.549967856,2.71693045 -0.000139444183,2.16682315 -0.000139444183,1.4884272 C-0.000139444183,0.809334035 0.549967856,0.258529514 1.22906102,0.258529514" id="Fill-11" fill="#343434" mask="url(#mask-8)"></path>
                </g>
                <g id="Group-13" transform="translate(5.000000, 10.438413)">
                    <mask id="mask-10" fill="white">
                        <use xlink:href="#path-9"></use>
                    </mask>
                    <g id="Clip-12"></g>
                    <path d="M1.22906102,0.258529514 C1.90815419,0.258529514 2.45826149,0.809334035 2.45826149,1.4884272 C2.45826149,2.16682315 1.90815419,2.71693045 1.22906102,2.71693045 C0.549967856,2.71693045 -0.000139444183,2.16682315 -0.000139444183,1.4884272 C-0.000139444183,0.809334035 0.549967856,0.258529514 1.22906102,0.258529514" id="Fill-11" fill="#343434" mask="url(#mask-10)"></path>
                </g>
            </g>
        </g>
    </g>
</svg>