<?xml version="1.0" encoding="UTF-8" standalone="no"?>
<svg
   xmlns:dc="http://purl.org/dc/elements/1.1/"
   xmlns:cc="http://creativecommons.org/ns#"
   xmlns:rdf="http://www.w3.org/1999/02/22-rdf-syntax-ns#"
   xmlns:svg="http://www.w3.org/2000/svg"
   xmlns="http://www.w3.org/2000/svg"
   xmlns:sodipodi="http://sodipodi.sourceforge.net/DTD/sodipodi-0.dtd"
   xmlns:inkscape="http://www.inkscape.org/namespaces/inkscape"
   width="41.5"
   height="41.5"
   viewBox="0 0 41.5 41.5"
   version="1.1"
   id="svg14"
   sodipodi:docname="Telecharger_PDF.svg"
   inkscape:version="0.92.4 (5da689c313, 2019-01-14)">
  <metadata
     id="metadata18">
    <rdf:RDF>
      <cc:Work
         rdf:about="">
        <dc:format>image/svg+xml</dc:format>
        <dc:type
           rdf:resource="http://purl.org/dc/dcmitype/StillImage" />
      </cc:Work>
    </rdf:RDF>
  </metadata>
  <sodipodi:namedview
     pagecolor="#ffffff"
     bordercolor="#666666"
     borderopacity="1"
     objecttolerance="10"
     gridtolerance="10"
     guidetolerance="10"
     inkscape:pageopacity="0"
     inkscape:pageshadow="2"
     inkscape:window-width="640"
     inkscape:window-height="480"
     id="namedview16"
     showgrid="false"
     inkscape:zoom="5.9"
     inkscape:cx="20.75"
     inkscape:cy="20.75"
     inkscape:window-x="1"
     inkscape:window-y="1"
     inkscape:window-maximized="0"
     inkscape:current-layer="svg14" />
  <!-- Generator: Sketch 50.2 (55047) - http://www.bohemiancoding.com/sketch -->
  <title
     id="title2">Icon/24*24/Telecharger_PDF</title>
  <desc
     id="desc4">Created with Sketch.</desc>
  <defs
     id="defs6" />
  <g
     id="Icon/24*24/Telecharger_PDF"
     style="fill:none;fill-rule:evenodd;stroke:none;stroke-width:1"
     transform="translate(0.75,0.75)">
    <g
       id="g11">
      <circle
         id="Oval"
         cx="20"
         cy="20"
         r="20"
         style="stroke:#020202;stroke-width:1.5" />
      <path
         d="m 28.40625,17 c -0.32775,0 -0.59375,0.263529 -0.59375,0.588235 v 7.647059 c 0,0.323529 -0.267187,0.588235 -0.59375,0.588235 h -15.4375 c -0.32775,0 -0.59375,-0.264706 -0.59375,-0.588235 V 17.588235 C 11.1875,17.263529 10.9215,17 10.59375,17 10.266,17 10,17.263529 10,17.588235 v 7.647059 C 10,26.208235 10.799188,27 11.78125,27 h 15.4375 C 28.200813,27 29,26.208235 29,25.235294 V 17.588235 C 29,17.263529 28.734,17 28.40625,17"
         id="Fill-1"
         inkscape:connector-curvature="0"
         style="fill:#111111;stroke:#1c1e20;stroke-width:0.30000001" />
      <path
         d="M 16.4375,17.545455 C 16.196,17.545455 16,17.341818 16,17.090909 c 0,-0.114545 0.04462,-0.216364 0.112,-0.296363 l -0.0035,-0.0027 3.0625,-3.636364 0.0035,0.0027 C 19.254125,13.063636 19.36875,13 19.5,13 c 0.13125,0 0.245875,0.06364 0.3255,0.158182 l 0.0035,-0.0027 3.0625,3.636364 -0.0035,0.0027 c 0.06737,0.08 0.112,0.181818 0.112,0.296363 0,0.250909 -0.196,0.454546 -0.4375,0.454546 -0.13125,0 -0.245875,-0.06273 -0.3255,-0.158182 l -0.0035,0.0027 -2.296,-2.725455 v 7.88091 C 19.9375,22.796364 19.7415,23 19.5,23 19.2585,23 19.0625,22.796364 19.0625,22.545455 v -7.88091 L 16.7665,17.39 16.763,17.387273 c -0.07963,0.09455 -0.19425,0.158182 -0.3255,0.158182 z"
         id="Fill-3"
         transform="rotate(-180,19.5,18)"
         inkscape:connector-curvature="0"
         style="fill:#111111;stroke:#1c1e20;stroke-width:0.60000002" />
    </g>
  </g>
</svg>
