<?xml version="1.0" encoding="UTF-8"?>
<svg width="91px" height="91px" viewBox="0 0 91 91" version="1.1" xmlns="http://www.w3.org/2000/svg" xmlns:xlink="http://www.w3.org/1999/xlink">
    <!-- Generator: Sketch 50.2 (55047) - http://www.bohemiancoding.com/sketch -->
    <title>donation</title>
    <desc>Created with Sketch.</desc>
    <defs></defs>
    <g id="donation" stroke="none" stroke-width="1" fill="none" fill-rule="evenodd">
        <circle id="Oval" fill="#D73449" cx="45.5" cy="45.5" r="45.5"></circle>
        <path d="M29.1663949,42.8669883 L34.4454123,49.217715 C34.9402295,49.8105194 35.8475878,49.3871218 35.8475878,48.6250298 L35.8475878,27.1169288 C35.8475878,25.8468549 36.9198465,24.7459495 38.1571217,24.7459495 C39.3942808,24.7459495 40.4665395,25.8468549 40.4665395,27.1169288 L40.4665395,47.6088277 C40.4665395,48.1169288 40.7965724,48.4556231 41.2915057,48.4556231 C41.7863229,48.4556231 42.1162397,48.1169288 42.1162397,47.6088277 L42.1162397,27.2016321 L42.1162397,22.1209793 C42.1162397,20.8507863 43.1884984,19.75 44.4257736,19.75 C45.6630487,19.75 46.7353075,20.8507863 46.7353075,22.1209793 L46.7353075,30.6733977 L46.7353075,47.6935311 C46.7353075,48.2016321 47.0652243,48.5403264 47.5600415,48.5403264 C48.0549748,48.5403264 48.3850077,48.2016321 48.3850077,47.6935311 L48.3850077,30.6733977 C48.3850077,29.4032047 49.4572664,28.3024184 50.6944255,28.3024184 C51.9317006,28.3024184 53.0039593,29.4032047 53.0039593,30.6733977 L53.0039593,35.7540505 L53.0039593,47.6935311 C53.0039593,48.2016321 53.3338762,48.5403264 53.8288094,48.5403264 C54.3237427,48.5403264 54.6536595,48.2016321 54.6536595,47.6935311 L54.6536595,35.7540505 C54.6536595,34.4839766 55.7259183,33.3830712 56.9631934,33.3830712 C58.2004686,33.3830712 59.2727273,34.4839766 59.2727273,35.7540505 L59.2727273,57.6854301 C59.2727273,65.7298666 52.9214511,72.25 45.0856073,72.25 C39.3117726,72.25 34.1153794,68.6936502 31.970862,63.1895997 L25.3721772,46.5080415 C24.2999185,43.9677746 24.7124596,43.3749702 25.5371937,42.528294 C26.6094524,41.5967953 28.1766444,41.6814987 29.1663949,42.8669883 Z M30.3475094,63.9030562 C32.832796,70.0969737 38.6319537,74 45.0937224,74 C53.8752706,74 61,66.7030741 61,57.7090193 L61,35.7333672 C61,33.5272309 59.1773243,31.6607115 57.0234015,31.6607115 C56.1120636,31.6607115 55.366466,31.9150958 54.7037384,32.4242225 L54.7037384,30.6424581 C54.7037384,28.3515669 52.8811793,26.569683 50.7271398,26.569683 C49.8159186,26.569683 49.0703209,26.8243061 48.4075933,27.3334328 L48.4075933,22.072775 C48.4075933,19.8667582 46.5849177,18 44.4309948,18 C42.2770719,18 40.4543962,19.8667582 40.4543962,22.072775 L40.4543962,23.8546589 C39.7917852,23.3454128 38.9632009,23.0909091 38.1348497,23.0909091 C35.8980568,23.0909091 34.1582512,24.9575479 34.1582512,27.1636841 L34.1582512,46.4241927 L30.3475094,41.8424103 C28.856314,40.0606459 26.2051706,39.7212678 24.2997414,41.4182773 C22.725676,43.0304125 22.642806,44.4727989 23.7197674,47.2728168 L30.3475094,63.9030562 Z" id="Fill-3" fill="#FFFFFF"></path>
        <path d="M45.0342347,53.3182861 C45.3137332,53.489935 45.6862668,53.489935 46.0589314,53.3182861 C46.8038676,52.8889828 47.642232,52.6313284 48.4804654,52.6313284 C51.0883316,52.6313284 53.137332,54.606196 53.137332,56.9242406 C53.137332,60.8737343 47.2696984,64.9092337 45.5000655,66.0253739 C43.7304326,64.9092337 37.8627991,60.8737343 37.8627991,56.9242406 C37.9559652,54.606196 40.0049656,52.6313284 42.6128318,52.6313284 C43.4509341,52.6313284 44.3824647,52.8889828 45.0342347,53.3182861 Z M45.5000655,68 C45.6862668,68 45.8725991,67.914236 45.9657653,67.8283512 C46.3382989,67.6567023 55,62.5050627 55,57.0101254 C55,53.6615838 52.0197312,51 48.4804654,51 C47.4558997,51 46.431465,51.2576545 45.5000655,51.6869578 C44.568666,51.2576545 43.5441003,51 42.5196657,51 C38.8872337,51 36,53.7474686 36,57.0101254 C36.0931662,62.5050627 44.6618322,67.5708175 45.0342347,67.8283512 C45.220567,67.914236 45.3137332,68 45.5000655,68 Z" id="Fill-1" fill="#FFFFFF"></path>
    </g>
</svg>