<svg xmlns="http://www.w3.org/2000/svg" width="30" height="21" viewBox="0 0 30 21"><defs><clipPath id="r905a"><path d="M3.604 15.198h22.642l2.663 5.08h-9.928l-.697-1.344a.346.346 0 0 0-.313-.184h-6.09a.348.348 0 0 0-.329.212l-.682 1.316H.942zM3.754.722h22.352v13.764H3.755zM3.4 0c-.192 0-.342.156-.342.368v14.377L.054 20.462a.373.373 0 0 0 .136.495c.055.029.11.043.164.043h29.142c.191 0 .341-.156.341-.368a.336.336 0 0 0-.054-.198l-2.99-5.689V.368c0-.212-.15-.368-.342-.368z"/></clipPath><clipPath id="r905b"><path d="M12.522 4.29c-.164 0-.292.148-.292.337 0 .189.128.35.292.35h7.881c.164 0 .292-.162.292-.35 0-.189-.128-.337-.292-.337z"/></clipPath><clipPath id="r905c"><path d="M9.454 4.33c-.16 0-.284.169-.284.384s.125.399.284.399h1.067c.17 0 .295-.184.295-.399 0-.215-.125-.384-.295-.384z"/></clipPath><clipPath id="r905d"><path d="M11.12 6.62c-.166 0-.31.164-.31.355 0 .191.144.341.31.341h8.897c.167 0 .299-.15.299-.34 0-.192-.132-.356-.299-.356z"/></clipPath><clipPath id="r905e"><path d="M11.251 8.98c-.169 0-.301.169-.301.384s.132.4.301.4h8.758c.169 0 .301-.185.301-.4 0-.215-.132-.384-.3-.384z"/></clipPath><clipPath id="r905f"><path d="M11.06 11.32c-.167 0-.31.185-.31.4 0 .214.143.383.31.383h8.957c.167 0 .298-.169.298-.384 0-.214-.131-.399-.298-.399z"/></clipPath></defs><g><g><g opacity="1"><path d="M3.604 15.198h22.642l2.663 5.08h-9.928l-.697-1.344a.346.346 0 0 0-.313-.184h-6.09a.348.348 0 0 0-.329.212l-.682 1.316H.942zM3.754.722h22.352v13.764H3.755zM3.4 0c-.192 0-.342.156-.342.368v14.377L.054 20.462a.373.373 0 0 0 .136.495c.055.029.11.043.164.043h29.142c.191 0 .341-.156.341-.368a.336.336 0 0 0-.054-.198l-2.99-5.689V.368c0-.212-.15-.368-.342-.368z"/></g><g clip-path="url(#r905a)" opacity="1"><path fill="#343434" d="M-2.62-56.37h35.091v-26.25H-2.62z"/></g></g><g opacity="1"><g><g opacity="1"/><g clip-path="url(#r905b)" opacity="1"><path fill="#343434" d="M9.98 7.478h12.965V1.79H9.98z"/></g></g><g><g opacity="1"><g/><g clip-path="url(#r905c)"><path fill="#343434" d="M6.99 7.962h6.02V1.48H6.99z"/></g></g><g opacity="1"><g/><g clip-path="url(#r905d)"><path fill="#343434" d="M8.51 9.851h14.107V4.09H8.51z"/></g></g><g opacity="1"><path fill="none" stroke="#fefefe" stroke-miterlimit="20" stroke-width=".1" d="M11.568 7.42c-.171 0-.318-.164-.318-.373 0-.208.147-.387.318-.387h9.126c.171 0 .306.179.306.387 0 .209-.135.373-.306.373z"/></g><g opacity="1"><g/><g clip-path="url(#r905e)"><path fill="#343434" d="M9 11.472h14.003V4.99H9z"/></g></g><g opacity="1"><g/><g clip-path="url(#r905f)"><path fill="#343434" d="M8.45 14.952h14.167V8.47H8.45z"/></g></g></g></g></g></svg>