<?xml version="1.0" encoding="UTF-8" standalone="no"?>
<!-- Created with Inkscape (http://www.inkscape.org/) -->

<svg
   xmlns:dc="http://purl.org/dc/elements/1.1/"
   xmlns:cc="http://creativecommons.org/ns#"
   xmlns:rdf="http://www.w3.org/1999/02/22-rdf-syntax-ns#"
   xmlns:svg="http://www.w3.org/2000/svg"
   xmlns="http://www.w3.org/2000/svg"
   xmlns:sodipodi="http://sodipodi.sourceforge.net/DTD/sodipodi-0.dtd"
   xmlns:inkscape="http://www.inkscape.org/namespaces/inkscape"
   width="17.979376mm"
   height="27.562775mm"
   viewBox="0 0 17.979376 27.562775"
   version="1.1"
   id="svg4283"
   inkscape:version="0.92.4 (5da689c313, 2019-01-14)"
   sodipodi:docname="fair_use.svg">
  <defs
     id="defs4277" />
  <sodipodi:namedview
     id="base"
     pagecolor="#ffffff"
     bordercolor="#666666"
     borderopacity="1.0"
     inkscape:pageopacity="0.0"
     inkscape:pageshadow="2"
     inkscape:zoom="2.8"
     inkscape:cx="29.691056"
     inkscape:cy="103.51568"
     inkscape:document-units="mm"
     inkscape:current-layer="layer1"
     showgrid="false"
     fit-margin-top="1"
     fit-margin-right="1"
     fit-margin-bottom="1"
     fit-margin-left="1"
     inkscape:window-width="1918"
     inkscape:window-height="1054"
     inkscape:window-x="1"
     inkscape:window-y="1"
     inkscape:window-maximized="1" />
  <metadata
     id="metadata4280">
    <rdf:RDF>
      <cc:Work
         rdf:about="">
        <dc:format>image/svg+xml</dc:format>
        <dc:type
           rdf:resource="http://purl.org/dc/dcmitype/StillImage" />
        <dc:title></dc:title>
      </cc:Work>
    </rdf:RDF>
  </metadata>
  <g
     inkscape:label="Calque 1"
     inkscape:groupmode="layer"
     id="layer1"
     transform="translate(56.614688,-148.65909)">
    <g
       id="g340"
       transform="matrix(0.35277777,0,0,-0.35277777,-44.966622,166.71822)">
      <path
         d="m 0,0 c 0,1.736 -0.001,3.473 0.003,5.209 0,0.107 -0.024,0.135 -0.134,0.135 -1.224,-0.005 -2.45,-0.005 -3.676,0 -0.121,0 -0.151,-0.026 -0.151,-0.15 0.004,-3.275 0.003,-6.549 0.004,-9.823 0,-0.183 -0.007,-0.366 -0.031,-0.546 -0.265,-1.967 -2.041,-3.356 -4.011,-3.084 -1.498,0.207 -2.485,1.077 -2.973,2.508 -0.171,0.5 -0.159,1.021 -0.16,1.541 0,0.109 0.025,0.139 0.137,0.139 1.773,-0.004 3.547,-0.002 5.319,-0.006 0.117,0 0.155,0.019 0.154,0.148 -0.005,1.221 -0.005,2.443 0,3.664 0.001,0.126 -0.034,0.151 -0.154,0.151 -1.768,-0.005 -3.537,-0.002 -5.306,-0.007 -0.129,0 -0.152,0.037 -0.15,0.155 0.007,0.426 0.008,0.852 0,1.278 -0.003,0.123 0.027,0.154 0.151,0.153 1.778,-0.005 3.554,-0.003 5.332,-0.004 0.085,0 0.127,0.007 0.127,0.114 -0.004,1.217 -0.003,2.435 -10e-4,3.652 0,0.088 -0.019,0.116 -0.113,0.116 -3.112,-0.003 -6.224,-0.003 -9.336,0 -0.09,0 -0.114,-0.021 -0.114,-0.113 0.003,-3.339 10e-4,-6.678 0.004,-10.018 0,-0.602 0.079,-1.196 0.229,-1.78 0.821,-3.19 3.552,-5.453 6.849,-5.668 1.51,-0.098 2.936,0.218 4.228,0.998 2.396,1.447 3.678,3.588 3.761,6.394 0.048,1.613 0.009,3.229 0.009,4.844 z"
         style="fill:#231f20;fill-opacity:1;fill-rule:nonzero;stroke:none"
         id="path342"
         inkscape:connector-curvature="0" />
    </g>
    <g
       id="g344"
       transform="matrix(0.35277777,0,0,-0.35277777,-44.966622,166.71822)">
      <path
         d="m 0,0 c 0,1.736 -0.001,3.473 0.003,5.209 0,0.107 -0.024,0.135 -0.134,0.135 -1.224,-0.005 -2.45,-0.005 -3.676,0 -0.121,0 -0.151,-0.026 -0.151,-0.15 0.004,-3.275 0.003,-6.549 0.004,-9.823 0,-0.183 -0.007,-0.366 -0.031,-0.546 -0.265,-1.967 -2.041,-3.356 -4.011,-3.084 -1.498,0.207 -2.485,1.077 -2.973,2.508 -0.171,0.5 -0.159,1.021 -0.16,1.541 0,0.109 0.025,0.139 0.137,0.139 1.773,-0.004 3.547,-0.002 5.319,-0.006 0.117,0 0.155,0.019 0.154,0.148 -0.005,1.221 -0.005,2.443 0,3.664 0.001,0.126 -0.034,0.151 -0.154,0.151 -1.768,-0.005 -3.537,-0.002 -5.306,-0.007 -0.129,0 -0.152,0.037 -0.15,0.155 0.007,0.426 0.008,0.852 0,1.278 -0.003,0.123 0.027,0.154 0.151,0.153 1.778,-0.005 3.554,-0.003 5.332,-0.004 0.085,0 0.127,0.007 0.127,0.114 -0.004,1.217 -0.003,2.435 -10e-4,3.652 0,0.088 -0.019,0.116 -0.113,0.116 -3.112,-0.003 -6.224,-0.003 -9.336,0 -0.09,0 -0.114,-0.021 -0.114,-0.113 0.003,-3.339 10e-4,-6.678 0.004,-10.018 0,-0.602 0.079,-1.196 0.229,-1.78 0.821,-3.19 3.552,-5.453 6.849,-5.668 1.51,-0.098 2.936,0.218 4.228,0.998 2.396,1.447 3.678,3.588 3.761,6.394 0.048,1.613 0.009,3.229 0.009,4.844 z"
         style="fill:none;stroke:#ffffff;stroke-width:1;stroke-linecap:butt;stroke-linejoin:miter;stroke-miterlimit:10;stroke-dasharray:none;stroke-opacity:1"
         id="path346"
         inkscape:connector-curvature="0" />
    </g>
    <g
       id="g360"
       transform="matrix(0.35277777,0,0,-0.35277777,-54.006553,167.22393)">
      <path
         d="M 0,0 C 0.026,10.024 8.191,18.146 18.184,18.089 28.19,18.031 36.225,9.876 36.185,-0.181 36.145,-10.125 28.037,-18.185 18.083,-18.178 8.067,-18.17 -0.026,-10.035 0,0 m 14.059,-22.343 c 0.357,-0.067 0.756,-0.003 1.032,-0.328 h 6.058 c 0.622,0.493 1.412,0.397 2.116,0.565 15.333,3.658 22.37,21.257 13.728,34.45 -0.584,0.893 -0.826,1.759 -0.818,2.812 0.035,5.578 0.058,11.159 0.002,16.739 C 36.094,40.209 30.45,47.271 22.376,49.268 12.095,51.809 1.663,44.795 0.163,34.313 0.045,33.489 -0.1,32.643 0.169,31.75 1.555,31.56 2.917,31.609 4.204,31.7 c 0.427,0.34 0.32,0.742 0.35,1.096 0.648,7.263 6.729,12.656 14.05,12.449 7.11,-0.202 12.95,-6.111 13.062,-13.306 0.067,-4.251 0.018,-8.503 0.016,-12.753 0,-0.255 0.054,-0.528 -0.168,-0.777 -0.516,-0.055 -0.835,0.359 -1.218,0.602 C 16.484,27.79 -1.756,19.643 -4.275,3.471 -6.248,-9.178 2.319,-20.193 14.059,-22.343"
         style="fill:#110f0d;fill-opacity:1;fill-rule:evenodd;stroke:none"
         id="path362"
         inkscape:connector-curvature="0" />
    </g>
    <g
       id="g364"
       transform="matrix(0.35277777,0,0,-0.35277777,-47.622792,173.63683)">
      <path
         d="m 0,0 c -9.954,-0.006 -18.061,8.054 -18.101,17.997 -0.041,10.057 7.994,18.212 18,18.27 C 9.893,36.325 18.058,28.203 18.083,18.178 18.109,8.143 10.016,0.008 0,0 m 22.358,21.649 c -2.519,16.172 -20.759,24.319 -34.57,15.54 -0.384,-0.243 -0.703,-0.657 -1.219,-0.602 -0.222,0.249 -0.168,0.522 -0.168,0.777 -0.002,4.25 -0.051,8.503 0.016,12.754 0.113,7.194 5.952,13.103 13.062,13.305 7.322,0.207 13.403,-5.186 14.05,-12.448 0.031,-0.354 -0.077,-0.757 0.35,-1.097 1.288,-0.09 2.649,-0.14 4.035,0.05 0.269,0.893 0.124,1.739 0.006,2.563 -1.499,10.482 -11.932,17.496 -22.213,14.955 -8.074,-1.997 -13.717,-9.058 -13.801,-17.373 -0.056,-5.58 -0.033,-11.16 0.002,-16.739 0.008,-1.053 -0.234,-1.919 -0.818,-2.812 C -27.552,17.33 -20.514,-0.27 -5.182,-3.928 -4.477,-4.096 -3.688,-4 -3.066,-4.493 h 6.058 c 0.276,0.325 0.676,0.262 1.032,0.328 11.74,2.15 20.307,13.165 18.334,25.814"
         style="fill:#110f0d;fill-opacity:1;fill-rule:evenodd;stroke:none"
         id="path366"
         inkscape:connector-curvature="0" />
    </g>
  </g>
</svg>
