<?xml version="1.0" encoding="UTF-8" standalone="no"?>
<svg
   xmlns:dc="http://purl.org/dc/elements/1.1/"
   xmlns:cc="http://creativecommons.org/ns#"
   xmlns:rdf="http://www.w3.org/1999/02/22-rdf-syntax-ns#"
   xmlns:svg="http://www.w3.org/2000/svg"
   xmlns="http://www.w3.org/2000/svg"
   xmlns:sodipodi="http://sodipodi.sourceforge.net/DTD/sodipodi-0.dtd"
   xmlns:inkscape="http://www.inkscape.org/namespaces/inkscape"
   width="15.60231"
   height="24.264423"
   viewBox="0 0 15.60231 24.264423"
   version="1.1"
   id="svg11"
   sodipodi:docname="fav.svg"
   inkscape:version="0.92.4 (5da689c313, 2019-01-14)">
  <metadata
     id="metadata15">
    <rdf:RDF>
      <cc:Work
         rdf:about="">
        <dc:format>image/svg+xml</dc:format>
        <dc:type
           rdf:resource="http://purl.org/dc/dcmitype/StillImage" />
        <dc:title>PIN</dc:title>
      </cc:Work>
    </rdf:RDF>
  </metadata>
  <sodipodi:namedview
     pagecolor="#ffffff"
     bordercolor="#666666"
     borderopacity="1"
     objecttolerance="10"
     gridtolerance="10"
     guidetolerance="10"
     inkscape:pageopacity="0"
     inkscape:pageshadow="2"
     inkscape:window-width="640"
     inkscape:window-height="480"
     id="namedview13"
     showgrid="false"
     inkscape:zoom="5.2444444"
     inkscape:cx="13.199219"
     inkscape:cy="13.398392"
     inkscape:window-x="1"
     inkscape:window-y="1"
     inkscape:window-maximized="0"
     inkscape:current-layer="svg11" />
  <!-- Generator: Sketch 50.2 (55047) - http://www.bohemiancoding.com/sketch -->
  <title
     id="title2">PIN</title>
  <desc
     id="desc4">Created with Sketch.</desc>
  <defs
     id="defs6" />
  <g
     id="PIN"
     style="fill:none;fill-rule:evenodd;stroke:none;stroke-width:1"
     transform="translate(-5.8007806,-11.633968)">
    <g
       id="noun_Pin_468151"
       transform="rotate(-19,49.334007,8.2556823)"
       style="fill:#000000;fill-rule:nonzero;stroke:#000000;stroke-width:0.75">
      <path
         d="M 18.983111,5.1828889 C 17.385333,3.5802222 15.784222,1.9813333 14.181778,0.38333333 14.046222,0.24777778 13.894667,0.12755556 13.750222,0 H 13.583556 C 13.478,0.08866667 13.366,0.17044444 13.268444,0.26711111 12.809333,0.72111111 12.353778,1.1788889 11.897111,1.636 c -0.294444,0.2948889 -0.293333,0.4386667 0,0.7293333 0.210445,0.2077778 0.418222,0.418 0.63,0.6293334 -0.04133,0.047111 -0.06289,0.074222 -0.08711,0.098444 C 11.281333,4.252 10.123778,5.4122222 8.9597778,6.5657778 8.8971111,6.6282222 8.7793333,6.6648889 8.6871111,6.6653333 7.6175556,6.672 6.5486667,6.6715556 5.4788889,6.668 5.2875556,6.6675556 5.1344444,6.7235556 4.9977778,6.8644444 c -0.372,0.384 -0.7546667,0.7573334 -1.132,1.1362223 C 3.614,8.2537778 3.6162222,8.4191111 3.8688889,8.6713333 4.994,9.7955556 6.1184444,10.919333 7.2426667,12.043556 7.28,12.081333 7.3122222,12.124889 7.3833333,12.208 c -0.079778,0.05889 -0.1602222,0.104667 -0.2235555,0.167556 -2.2595556,2.257333 -4.5186667,4.516222 -6.77600002,6.776 -0.136,0.136222 -0.25644445,0.288 -0.38377778,0.432 V 20 h 0.37511111 c 0.10555556,-0.07489 0.22444445,-0.136222 0.31444445,-0.226667 2.32000004,-2.314889 4.63666664,-4.632889 6.95377774,-6.95 0.061778,-0.06089 0.1251111,-0.12 0.1893334,-0.181555 0.046889,0.04244 0.072889,0.06489 0.097556,0.08933 1.1288889,1.128889 2.2582213,2.258222 3.3862213,3.388 0.27,0.27 0.427112,0.270222 0.700446,-0.0024 0.363333,-0.362889 0.722666,-0.730445 1.09111,-1.088 0.161111,-0.155334 0.228667,-0.326445 0.226668,-0.553111 -0.0091,-1.041556 -0.0013,-2.082889 -0.0073,-3.124223 -6.66e-4,-0.149555 0.03867,-0.256666 0.147112,-0.364 1.128889,-1.1204441 2.251334,-2.2459997 3.375777,-3.3699997 0.04733,-0.047333 0.09889,-0.090222 0.160667,-0.1464444 0.236444,0.2393333 0.457555,0.4691111 0.684889,0.6917778 0.218222,0.2135555 0.392,0.2106666 0.610666,-0.00311 C 18.475111,7.9944444 18.643111,7.8284444 18.807111,7.6588889 19.206222,7.246 19.602889,6.8306667 20,6.4166667 V 6.25 C 19.662,5.8937778 19.330444,5.5304444 18.983111,5.1828889 Z M 17.956222,7.4871111 C 17.791556,7.3231111 17.586444,7.1204444 17.383778,6.9155556 17.072222,6.6006667 16.935333,6.598 16.626,6.9073333 c -1.241778,1.2417778 -2.482889,2.4851111 -3.727333,3.7242227 -0.157556,0.156222 -0.234889,0.322222 -0.232667,0.55 0.0091,1.055111 0.0073,2.110222 -0.0013,3.165333 -0.0013,0.103111 -0.05333,0.228 -0.124223,0.303555 -0.276888,0.298889 -0.570666,0.582 -0.846,0.858223 C 9.2891111,13.102889 6.9011111,10.714222 4.4991111,8.3117778 4.8033333,8.0055556 5.1215556,7.6793333 5.4486667,7.3633333 5.4882222,7.3251111 5.5788889,7.3315556 5.6457778,7.3315556 6.7077778,7.3295556 7.77,7.3275556 8.832,7.3324444 9.0391111,7.3335556 9.2,7.2726667 9.3493333,7.1217778 10.596222,5.8664444 11.850222,4.6164444 13.102,3.3646667 13.397556,3.0686667 13.398,2.9248889 13.1042,2.6357778 12.896889,2.432 12.69,2.2284444 12.499556,2.0415556 12.904667,1.638 13.295333,1.2491111 13.670444,0.87511111 15.472667,2.6797778 17.304,4.5144444 19.112,6.3253333 18.757333,6.6828889 18.368444,7.0735556 17.956222,7.4871111 Z"
         id="Shape"
         inkscape:connector-curvature="0" />
    </g>
  </g>
</svg>
