<?xml version="1.0" encoding="UTF-8" standalone="no"?>
<svg
   xmlns:dc="http://purl.org/dc/elements/1.1/"
   xmlns:cc="http://creativecommons.org/ns#"
   xmlns:rdf="http://www.w3.org/1999/02/22-rdf-syntax-ns#"
   xmlns:svg="http://www.w3.org/2000/svg"
   xmlns="http://www.w3.org/2000/svg"
   xmlns:sodipodi="http://sodipodi.sourceforge.net/DTD/sodipodi-0.dtd"
   xmlns:inkscape="http://www.inkscape.org/namespaces/inkscape"
   version="1.0"
   width="1280.000000pt"
   height="1280.000000pt"
   viewBox="0 0 1280.000000 1280.000000"
   preserveAspectRatio="xMidYMid meet"
   id="svg8"
   sodipodi:docname="forbidden.svg"
   inkscape:version="0.92.4 (5da689c313, 2019-01-14)">
  <defs
     id="defs12" />
  <sodipodi:namedview
     pagecolor="#ffffff"
     bordercolor="#666666"
     borderopacity="1"
     objecttolerance="10"
     gridtolerance="10"
     guidetolerance="10"
     inkscape:pageopacity="0"
     inkscape:pageshadow="2"
     inkscape:window-width="838"
     inkscape:window-height="480"
     id="namedview10"
     showgrid="false"
     inkscape:zoom="0.13828125"
     inkscape:cx="853.33333"
     inkscape:cy="853.33333"
     inkscape:window-x="1"
     inkscape:window-y="1"
     inkscape:window-maximized="0"
     inkscape:current-layer="g6" />
  <metadata
     id="metadata2">
Created by potrace 1.15, written by Peter Selinger 2001-2017
<rdf:RDF>
  <cc:Work
     rdf:about="">
    <dc:format>image/svg+xml</dc:format>
    <dc:type
       rdf:resource="http://purl.org/dc/dcmitype/StillImage" />
  </cc:Work>
</rdf:RDF>
</metadata>
  <g
     transform="translate(0.000000,1280.000000) scale(0.100000,-0.100000)"
     fill="#000000"
     stroke="none"
     id="g6">
    <path
       d="M6035 12789 c-1890 -112 -3621 -1041 -4757 -2554 -1087 -1447 -1509 -3313 -1153 -5090 405 -2014 1749 -3711 3615 -4565 1872 -856 4051 -757 5837 266 1606 920 2734 2485 3098 4299 303 1511 46 3094 -721 4432 -971 1696 -2665 2858 -4589 3148 -444 67 -908 89 -1330 64z m815 -1355 c785 -76 1522 -319 2184 -720 129 -78 328 -213 405 -274 l32 -25 -3544 -3543 -3544 -3544 -65 89 c-480 657 -800 1447 -922 2278 -49 331 -65 816 -37 1110 63 670 227 1256 516 1840 494 999 1281 1786 2280 2280 648 320 1319 493 2050 529 130 6 489 -5 645 -20z m3697 -2143 c438 -622 741 -1396 857 -2186 49 -331 65 -816 37 -1110 -63 -670 -227 -1256 -516 -1840 -643 -1303 -1793 -2245 -3215 -2636 -659 -181 -1365 -221 -2050 -118 -812 123 -1596 443 -2243 917 l-89 65 3544 3544 3543 3544 25 -32 c14 -17 62 -83 107 -148z"
       id="path4"
       style="fill:#414042;fill-opacity:1" />
  </g>
</svg>
