<?xml version="1.0" encoding="UTF-8"?>
<svg width="24px" height="27px" viewBox="0 0 24 27" version="1.1" xmlns="http://www.w3.org/2000/svg" xmlns:xlink="http://www.w3.org/1999/xlink">
    <!-- Generator: Sketch 50.2 (55047) - http://www.bohemiancoding.com/sketch -->
    <title>help</title>
    <desc>Created with Sketch.</desc>
    <defs>
        <polygon id="path-1" points="0 962 1326.81043 962 1326.81043 0 0 0"></polygon>
    </defs>
    <g id="help" stroke="none" stroke-width="1" fill="none" fill-rule="evenodd">
        <path d="M3,14 C3,9.02943725 7.02943725,5 12,5 C16.9705627,5 21,9.02943725 21,14 C21,18.9705627 16.9705627,23 12,23 C7.02943725,23 3,18.9705627 3,14 Z" id="Path" fill="#D73449"></path>
        <polygon id="Path" stroke="#FFFFFF" fill="#FFFFFF" points="11 19 11 18 12 18 12 19"></polygon>
        <path d="M11.1389597,16 C11.1138404,15.5544591 11.1751813,15.1083837 11.3202147,14.6819018 C11.5533639,14.3081804 11.8642111,13.9785646 12.235716,13.7111239 C12.5996449,13.3339243 12.94168,12.9399637 13.2604464,12.5308256 C13.4704666,12.2335496 13.5765534,11.8861313 13.564919,11.5337233 C13.5936354,11.1420468 13.4456006,10.7565397 13.1544911,10.4649007 C12.8365472,10.2006631 12.412534,10.0655303 11.9812447,10.0909873 C11.5757689,10.080624 11.1784654,10.19516 10.8547258,10.415744 C10.5448959,10.6322484 10.3898321,11.2358283 10.3898321,11.6554064 L9.02283037,11.6554064 L9.00050833,11.6159198 C8.98651985,10.9121461 9.26122976,10.062514 9.82553092,9.63863814 C10.4361152,9.2003421 11.2007966,8.97452015 11.9803518,9.00228706 C12.9345446,9.00228706 13.6755371,9.22201487 14.2033294,9.66147049 C14.7505486,10.1418902 15.0396457,10.8131004 14.9956129,11.5009522 C14.9999538,12.0514616 14.8215536,12.5905338 14.4833965,13.0487171 C14.0910349,13.5706876 13.636419,14.0522408 13.1277047,14.4847377 C12.9119407,14.6571297 12.7481058,14.8760624 12.6515011,15.1210888 C12.5850066,15.4099257 12.5569304,15.7048909 12.5678679,15.9997314 L11.1389597,16 Z" id="Path" fill="#FFFFFF"></path>
        <g id="Group" transform="translate(-667.000000, 1.000000)">
            <g id="Group-5">
                <mask id="mask-2" fill="white">
                    <use xlink:href="#path-1"></use>
                </mask>
                <g id="Clip-4"></g>
            </g>
        </g>
    </g>
</svg>