<?xml version="1.0" encoding="UTF-8"?>
<svg width="41px" height="33px" viewBox="0 0 41 33" version="1.1" xmlns="http://www.w3.org/2000/svg" xmlns:xlink="http://www.w3.org/1999/xlink">
    <!-- Generator: Sketch 51.3 (57544) - http://www.bohemiancoding.com/sketch -->
    <title>Group 27</title>
    <desc>Created with Sketch.</desc>
    <defs>
        <path d="M1.06526316,0.894736842 C0.581052632,0.894736842 0.158947368,1.29894737 0.158947368,1.76 L0.158947368,23.0968421 C0.158947368,23.5568421 0.581052632,23.9610526 1.06526316,23.9610526 L31.9189474,23.9610526 C32.4021053,23.9610526 32.8252632,23.5568421 32.8252632,23.0968421 L32.8252632,1.76 C32.8252632,1.29894737 32.4021053,0.894736842 31.9189474,0.894736842 L1.06526316,0.894736842 Z M1.97263158,22.2315789 L31.0105263,22.2315789 L31.0105263,2.62526316 L1.97263158,2.62526316 L1.97263158,22.2315789 Z" id="path-1"></path>
        <path d="M29.0968421,1.74105263 C29.0389474,2.20315789 29.3831579,2.60736842 29.8431579,2.66526316 L30.9894737,2.78 L28.9821053,22.2084211 L1.90526316,19.3831579 L1.90526316,19.0378947 C1.96315789,18.5747368 1.62,18.1726316 1.16,18.1147368 C0.702105263,18.0568421 0.3,18.4031579 0.242105263,18.8642105 L0.127368421,20.0736842 C0.0705263158,20.5357895 0.414736842,20.9978947 0.872631579,21.0557895 L29.6126316,24.0526316 L29.7284211,24.0526316 C30.1863158,24.0526316 30.5305263,23.7073684 30.5884211,23.3031579 L32.7684211,2.14631579 C32.8252632,1.91578947 32.7684211,1.68421053 32.5957895,1.51157895 C32.4810526,1.33894737 32.2515789,1.22315789 32.0231579,1.22315789 L30.0147368,0.991578947 C29.9810526,0.987368421 29.9484211,0.985263158 29.9147368,0.985263158 C29.4989474,0.985263158 29.1494737,1.31473684 29.0968421,1.74105263 Z" id="path-3"></path>
        <path d="M29.0968421,1.74105263 C29.0389474,2.20315789 29.3831579,2.60736842 29.8431579,2.66526316 L30.9894737,2.78 L28.9821053,22.2084211 L1.90526316,19.3831579 L1.90526316,19.0378947 C1.96315789,18.5747368 1.62,18.1726316 1.16,18.1147368 C0.702105263,18.0568421 0.3,18.4031579 0.242105263,18.8642105 L0.127368421,20.0736842 C0.0705263158,20.5357895 0.414736842,20.9978947 0.872631579,21.0557895 L29.6126316,24.0526316 L29.7284211,24.0526316 C30.1863158,24.0526316 30.5305263,23.7073684 30.5884211,23.3031579 L32.7684211,2.14631579 C32.8252632,1.91578947 32.7684211,1.68421053 32.5957895,1.51157895 C32.4810526,1.33894737 32.2515789,1.22315789 32.0231579,1.22315789 L30.0147368,0.991578947 C29.9810526,0.988421053 29.9484211,0.985263158 29.9147368,0.985263158 C29.4989474,0.985263158 29.1505263,1.31473684 29.0968421,1.74105263 Z" id="path-5"></path>
        <path d="M29.0968421,1.74105263 C29.0389474,2.20315789 29.3831579,2.60736842 29.8431579,2.66526316 L30.9894737,2.78 L28.9821053,22.2084211 L1.90526316,19.3831579 L1.90526316,19.0378947 C1.96315789,18.5747368 1.62,18.1726316 1.16,18.1147368 C0.702105263,18.0568421 0.3,18.4031579 0.242105263,18.8642105 L0.127368421,20.0736842 C0.0705263158,20.5357895 0.414736842,20.9978947 0.872631579,21.0557895 L29.6126316,24.0526316 L29.7284211,24.0526316 C30.1863158,24.0526316 30.5305263,23.7073684 30.5884211,23.3031579 L32.7684211,2.14631579 C32.8252632,1.91578947 32.7684211,1.68421053 32.5957895,1.51157895 C32.4810526,1.33894737 32.2515789,1.22315789 32.0231579,1.22315789 L30.0147368,0.991578947 C29.9810526,0.987368421 29.9484211,0.985263158 29.9147368,0.985263158 C29.4989474,0.985263158 29.1494737,1.31473684 29.0968421,1.74105263 Z" id="path-7"></path>
        <path d="M10.2252632,0.964210526 C7.35368421,0.964210526 1.37157895,4.85473684 0.701052632,5.31052632 C0.366315789,5.51789474 0.317894737,5.80736842 0.557894737,6.09684211 C0.797894737,6.38736842 1.22842105,6.46947368 1.56315789,6.26315789 C3.28526316,5.10421053 8.21578947,2.20631579 10.2252632,2.20631579 C11.6126316,2.20631579 14.3410526,3.98631579 16.1115789,5.26947368 C17.8336842,6.51157895 18.6957895,7.00736842 19.3663158,7.04947368 L19.5568421,7.04947368 C21.3757895,7.04947368 25.1568421,5.02105263 25.9231579,4.60736842 C26.2568421,4.4 26.3526316,4.02842105 26.1610526,3.73789474 C25.9231579,3.44842105 25.4915789,3.40631579 25.1568421,3.57263158 C23.3378947,4.56526316 20.4189474,5.93157895 19.5568421,5.84842105 C19.2231579,5.80736842 18.0263158,4.97894737 17.0684211,4.31789474 C14.7715789,2.70315789 12.1873684,0.964210526 10.2726316,0.964210526 L10.2252632,0.964210526 Z" id="path-9"></path>
        <path d="M0.012,3.329 C0.012,5.007 1.403,6.372 3.116,6.372 C4.774,6.372 6.219,5.007 6.219,3.329 C6.219,1.648 4.828,0.285 3.116,0.285 C1.403,0.285 0.012,1.648 0.012,3.329 Z M1.617,3.381 C1.617,2.541 2.313,1.911 3.116,1.911 C3.919,1.911 4.613,2.541 4.613,3.381 C4.613,4.22 3.972,4.85 3.116,4.85 C2.26,4.85 1.617,4.22 1.617,3.381 Z" id="path-11"></path>
    </defs>
    <g id="Symbols" stroke="none" stroke-width="1" fill="none" fill-rule="evenodd">
        <g id="image" transform="translate(1.000000, 0.000000)">
            <g id="Group-27">
                <g id="Group-11">
                    <path d="M32.8256842,23.4123158 C32.8256842,23.8723158 32.4025263,24.2765263 31.9183158,24.2765263 L1.06568421,24.2765263 C0.581473684,24.2765263 0.158315789,23.8723158 0.158315789,23.4123158 L0.158315789,2.07547368 C0.158315789,1.61442105 0.581473684,1.21021053 1.06568421,1.21021053 L31.9183158,1.21021053 C32.4025263,1.21021053 32.8256842,1.61442105 32.8256842,2.07547368 L32.8256842,23.4123158 Z M1.97305263,22.5470526 L31.0109474,22.5470526 L31.0109474,2.94073684 L1.97305263,2.94073684 L1.97305263,22.5470526 Z" id="Fill-1" fill="#B6B5B6"></path>
                    <g id="Group-8" transform="translate(0.000000, 0.315789)">
                        <mask id="mask-2" fill="white">
                            <use xlink:href="#path-1"></use>
                        </mask>
                        <g id="Clip-4"></g>
                        <polygon id="Fill-3" fill="#B6B5B6" mask="url(#mask-2)" points="-670.368421 244.052632 218.052632 244.052632 218.052632 -551.736842 -670.368421 -551.736842"></polygon>
                        <polygon id="Fill-5" fill="#152631" mask="url(#mask-2)" points="-5.10526316 29.2242105 38.0884211 29.2242105 38.0884211 -4.36842105 -5.10526316 -4.36842105"></polygon>
                        <polygon id="Stroke-6" stroke="#FEFEFE" stroke-width="0.2" mask="url(#mask-2)" points="-5.10526316 29.2242105 38.0884211 29.2242105 38.0884211 -4.36842105 -5.10526316 -4.36842105"></polygon>
                        <polygon id="Stroke-7" stroke="#FEFEFE" stroke-width="0.2" mask="url(#mask-2)" points="-670.368421 244.052632 218.052632 244.052632 218.052632 -551.736842 -670.368421 -551.736842"></polygon>
                    </g>
                    <g id="Group-13" transform="translate(0.000000, 0.315789)" stroke="#E3E3E3">
                        <path d="M33.7128649,23.7207568 C33.7128649,24.1931892 33.2782703,24.6083243 32.780973,24.6083243 L1.09448649,24.6083243 C0.597189189,24.6083243 0.162594595,24.1931892 0.162594595,23.7207568 L0.162594595,1.80724324 C0.162594595,1.33372973 0.597189189,0.918594595 1.09448649,0.918594595 L32.780973,0.918594595 C33.2782703,0.918594595 33.7128649,1.33372973 33.7128649,1.80724324 L33.7128649,23.7207568 Z M2.02637838,22.8321081 L31.8490811,22.8321081 L31.8490811,2.69589189 L2.02637838,2.69589189 L2.02637838,22.8321081 Z" id="Stroke-9" stroke-width="0.5"></path>
                        <path d="M35.9367568,31.1890811 L35.8189189,31.1890811 L6.30216216,28.1101622 C5.83081081,28.0517838 5.47837838,27.5771892 5.53675676,27.1036757 L5.65459459,25.8604324 C5.71297297,25.3869189 6.12594595,25.0323243 6.5972973,25.0907027 C7.06864865,25.1501622 7.42216216,25.5642162 7.3627027,26.0377297 L7.3627027,26.3934054 L35.1713514,29.295027 L37.232973,9.34151351 L36.0545946,9.22367568 C35.5832432,9.16421622 35.2297297,8.74908108 35.2881081,8.27556757 C35.3475676,7.80205405 35.7594595,7.44637838 36.2308108,7.50583784 L38.2935135,7.74367568 C38.5281081,7.74367568 38.7648649,7.86151351 38.8827027,8.03881081 C39.0589189,8.21610811 39.1172973,8.45394595 39.0589189,8.68962162 L36.82,30.4193514 C36.7616216,30.8344865 36.4081081,31.1890811 35.9367568,31.1890811" id="Fill-11" stroke-width="1.5" fill="#152631"></path>
                    </g>
                    <g id="Group-16" transform="translate(5.263158, 6.631579)">
                        <mask id="mask-4" fill="white">
                            <use xlink:href="#path-3"></use>
                        </mask>
                        <g id="Clip-15"></g>
                        <polygon id="Fill-14" fill="#B6B5B6" mask="url(#mask-4)" points="-675.631579 237.736842 212.789474 237.736842 212.789474 -558.052632 -675.631579 -558.052632"></polygon>
                    </g>
                    <g id="Group-20" transform="translate(5.263158, 6.631579)">
                        <mask id="mask-6" fill="white">
                            <use xlink:href="#path-5"></use>
                        </mask>
                        <g id="Clip-18"></g>
                        <polygon id="Fill-17" fill="#B6B5B6" mask="url(#mask-6)" points="-5.14105263 29.3157895 38.0536842 29.3157895 38.0536842 -4.27684211 -5.14105263 -4.27684211"></polygon>
                        <polygon id="Stroke-19" stroke="#FEFEFE" stroke-width="0.3" mask="url(#mask-6)" points="-5.14105263 29.3157895 38.0536842 29.3157895 38.0536842 -4.27684211 -5.14105263 -4.27684211"></polygon>
                    </g>
                    <g id="Group-23" transform="translate(5.263158, 6.631579)">
                        <mask id="mask-8" fill="white">
                            <use xlink:href="#path-7"></use>
                        </mask>
                        <g id="Clip-22"></g>
                        <polygon id="Stroke-21" stroke="#FEFEFE" stroke-width="0.3" mask="url(#mask-8)" points="-675.631579 237.736842 212.789474 237.736842 212.789474 -558.052632 -675.631579 -558.052632"></polygon>
                    </g>
                    <g id="Group-28" transform="translate(3.157895, 6.631579)">
                        <path d="M31.8331579,24.0525263 L31.7184211,24.0525263 L2.97842105,21.0546316 C2.51947368,20.9977895 2.17631579,20.5356842 2.23315789,20.0746316 L2.34789474,18.8641053 C2.40473684,18.4030526 2.80684211,18.0577895 3.26578947,18.1146316 C3.72473684,18.1725263 4.06894737,18.5756842 4.01105263,19.0367368 L4.01105263,19.3830526 L31.0878947,22.2083158 L33.0952632,2.77989474 L31.9478947,2.66515789 C31.4889474,2.60726316 31.1447368,2.20305263 31.2015789,1.742 C31.2594737,1.28094737 31.6605263,0.934631579 32.1194737,0.992526316 L34.1278947,1.22410526 C34.3563158,1.22410526 34.5868421,1.33884211 34.7015789,1.51147368 C34.8731579,1.68410526 34.93,1.91568421 34.8731579,2.14515789 L32.6931579,23.3030526 C32.6363158,23.7072632 32.2921053,24.0525263 31.8331579,24.0525263 Z" id="Stroke-24" stroke="#FFFFFF" stroke-width="0.5" fill="#152631"></path>
                        <path d="M19.5572632,9.15421053 L19.3656842,9.15421053 C18.6962105,9.11315789 17.8341053,8.61631579 16.112,7.37526316 C14.3404211,6.09210526 11.6130526,4.31105263 10.2256842,4.31105263 C8.21515789,4.31105263 3.28568421,7.20894737 1.56252632,8.36789474 C1.22778947,8.57421053 0.797263158,8.49210526 0.558315789,8.20263158 C0.318315789,7.91210526 0.366736842,7.62263158 0.701473684,7.41631579 C1.372,6.96052632 7.35410526,3.07 10.2256842,3.07 L10.2730526,3.07 C12.1877895,3.07 14.772,4.80789474 17.0688421,6.42263158 C18.0256842,7.08473684 19.2225263,7.91210526 19.5572632,7.95315789 C20.4193684,8.03631579 23.3383158,6.67105263 25.1572632,5.67736842 C25.492,5.51210526 25.9225263,5.55315789 26.1614737,5.84263158 C26.3530526,6.13315789 26.2572632,6.50473684 25.9225263,6.71210526 C25.1572632,7.12578947 21.3762105,9.15421053 19.5572632,9.15421053" id="Fill-26" fill="#B6B5B6"></path>
                    </g>
                    <g id="Group-34" transform="translate(3.157895, 8.736842)">
                        <mask id="mask-10" fill="white">
                            <use xlink:href="#path-9"></use>
                        </mask>
                        <g id="Clip-30"></g>
                        <polygon id="Fill-29" fill="#B6B5B6" mask="url(#mask-10)" points="-530.198947 187.297895 172.833684 187.297895 172.833684 -442.432632 -530.198947 -442.432632"></polygon>
                        <polygon id="Fill-31" fill="#B6B5B6" mask="url(#mask-10)" points="-3.75684211 11.2147368 30.4242105 11.2147368 30.4242105 -3.19894737 -3.75684211 -3.19894737"></polygon>
                        <polygon id="Stroke-32" stroke="#FEFEFE" stroke-width="0.1" mask="url(#mask-10)" points="-3.75684211 11.2147368 30.4242105 11.2147368 30.4242105 -3.19894737 -3.75684211 -3.19894737"></polygon>
                        <polygon id="Stroke-33" stroke="#FEFEFE" stroke-width="0.1" mask="url(#mask-10)" points="-530.198947 187.297895 172.833684 187.297895 172.833684 -442.432632 -530.198947 -442.432632"></polygon>
                    </g>
                    <g id="Group-39" transform="translate(3.157895, 3.473684)">
                        <path d="M19.5572632,12.3121053 L19.3656842,12.3121053 C18.6962105,12.2710526 17.8341053,11.7742105 16.112,10.5331579 C14.3404211,9.25 11.6130526,7.46894737 10.2256842,7.46894737 C8.21515789,7.46894737 3.28568421,10.3668421 1.56252632,11.5257895 C1.22778947,11.7321053 0.797263158,11.65 0.558315789,11.3605263 C0.318315789,11.07 0.366736842,10.7805263 0.701473684,10.5742105 C1.372,10.1184211 7.35410526,6.22789474 10.2256842,6.22789474 L10.2730526,6.22789474 C12.1877895,6.22789474 14.772,7.96578947 17.0688421,9.58052632 C18.0256842,10.2426316 19.2225263,11.07 19.5572632,11.1110526 C20.4193684,11.1942105 23.3383158,9.82894737 25.1572632,8.83526316 C25.492,8.67 25.9225263,8.71105263 26.1614737,9.00052632 C26.3530526,9.29105263 26.2572632,9.66263158 25.9225263,9.87 C25.1572632,10.2836842 21.3762105,12.3121053 19.5572632,12.3121053 Z" id="Stroke-35" stroke="#152631" stroke-width="0.1" fill="#152631"></path>
                        <path d="M21.1742105,6.70663158 C19.3721053,6.70663158 17.9068421,5.27084211 17.9068421,3.50347368 C17.9068421,1.73505263 19.3721053,0.299263158 21.1742105,0.299263158 C22.9763158,0.299263158 24.4415789,1.73505263 24.4415789,3.50347368 C24.4415789,5.27084211 22.9205263,6.70663158 21.1742105,6.70663158 M21.1742105,2.01189474 C20.3289474,2.01189474 19.5973684,2.67505263 19.5973684,3.55926316 C19.5973684,4.44242105 20.2731579,5.10557895 21.1742105,5.10557895 C22.0752632,5.10557895 22.7510526,4.44242105 22.7510526,3.55926316 C22.7510526,2.67505263 22.0194737,2.01189474 21.1742105,2.01189474" id="Fill-37" fill="#B6B5B6"></path>
                    </g>
                </g>
                <g id="Group-45" transform="translate(20.000000, 3.000000)">
                    <mask id="mask-12" fill="white">
                        <use xlink:href="#path-11"></use>
                    </mask>
                    <g id="Clip-41"></g>
                    <polygon id="Fill-40" fill="#B6B5B6" mask="url(#mask-12)" points="-656.85 228.85 187.15 228.85 187.15 -527.15 -656.85 -527.15"></polygon>
                    <polygon id="Fill-42" fill="#B6B5B6" mask="url(#mask-12)" points="-4.988 11.371 11.219 11.371 11.219 -4.716 -4.988 -4.716"></polygon>
                    <polygon id="Stroke-43" stroke="#FEFEFE" stroke-width="0.3" mask="url(#mask-12)" points="-4.988 11.371 11.219 11.371 11.219 -4.716 -4.988 -4.716"></polygon>
                    <polygon id="Stroke-44" stroke="#FEFEFE" stroke-width="0.3" mask="url(#mask-12)" points="-656.85 228.85 187.15 228.85 187.15 -527.15 -656.85 -527.15"></polygon>
                </g>
                <path d="M23,10 C21.3453608,10 20,8.65549532 20,7.00049285 C20,5.34450468 21.3453608,4 23,4 C24.6546392,4 26,5.34450468 26,7.00049285 C26,8.65549532 24.6034149,10 23,10 Z M23,5.60374569 C22.2239046,5.60374569 21.5521907,6.22474125 21.5521907,7.05273534 C21.5521907,7.87974372 22.1726804,8.50073928 23,8.50073928 C23.8273196,8.50073928 24.4478093,7.87974372 24.4478093,7.05273534 C24.4478093,6.22474125 23.7760954,5.60374569 23,5.60374569 Z" id="Stroke-46" stroke="#FEFEFE" stroke-width="0.3" fill="#152631"></path>
            </g>
        </g>
    </g>
</svg>