<svg xmlns="http://www.w3.org/2000/svg" width="35" height="28" viewBox="0 0 35 28"><defs><clipPath id="4zs5a"><path d="M2.681 2.501h24.683v16.665H2.681zm-.77-1.471c-.412 0-.771.344-.771.735v18.137c0 .39.359.734.77.734h26.226c.41 0 .77-.343.77-.734V1.765c0-.391-.36-.735-.77-.735z"/></clipPath><clipPath id="4zs5b"><path d="M30.21 7.112c-.05.393.243.737.634.786l.974.098-1.706 16.514-23.016-2.402v-.293c.05-.394-.242-.736-.633-.785-.39-.05-.731.245-.78.637l-.098 1.028c-.048.393.244.786.634.835l24.429 2.547h.098a.74.74 0 0 0 .731-.637L33.33 7.457a.556.556 0 0 0-.147-.54.6.6 0 0 0-.486-.245l-1.708-.197a.677.677 0 0 0-.085-.005c-.353 0-.65.28-.695.642z"/></clipPath><clipPath id="4zs5c"><path d="M30.21 7.112c-.05.393.243.737.634.786l.974.098-1.706 16.514-23.016-2.402v-.293c.05-.394-.242-.736-.633-.785-.39-.05-.731.245-.78.637l-.098 1.028c-.048.393.244.786.634.835l24.429 2.547h.098a.74.74 0 0 0 .731-.637L33.33 7.457a.556.556 0 0 0-.147-.54.6.6 0 0 0-.486-.245l-1.708-.197c-.028-.002-.056-.005-.085-.005-.353 0-.65.28-.695.642z"/></clipPath><clipPath id="4zs5d"><path d="M30.21 7.112c-.05.393.243.737.634.786l.974.098-1.706 16.514-23.016-2.402v-.293c.05-.394-.242-.736-.633-.785-.39-.05-.731.245-.78.637l-.098 1.028c-.048.393.244.786.634.835l24.429 2.547h.098a.74.74 0 0 0 .731-.637L33.33 7.457a.556.556 0 0 0-.147-.54.6.6 0 0 0-.486-.245l-1.708-.197a.677.677 0 0 0-.085-.005c-.353 0-.65.28-.695.642z"/></clipPath><clipPath id="4zs5e"><path d="M12.375 8.25c-2.441 0-7.526 3.307-8.096 3.694-.284.177-.326.423-.122.669.204.247.57.316.855.141 1.464-.985 5.655-3.448 7.363-3.448 1.179 0 3.498 1.513 5.003 2.603 1.464 1.056 2.197 1.478 2.767 1.513h.162c1.546 0 4.76-1.724 5.41-2.075.285-.177.366-.492.203-.74-.202-.245-.569-.281-.853-.14-1.547.844-4.028 2.005-4.76 1.935-.284-.035-1.301-.74-2.116-1.301-1.952-1.373-4.148-2.851-5.776-2.851z"/></clipPath><clipPath id="4zs5f"><path d="M20.648 4.175c.683 0 1.273.534 1.273 1.247 0 .711-.545 1.246-1.273 1.246-.727 0-1.274-.535-1.274-1.246 0-.713.592-1.247 1.274-1.247zm0 3.789c1.41 0 2.638-1.16 2.638-2.587 0-1.428-1.182-2.587-2.638-2.587S18.01 3.949 18.01 5.377c0 1.427 1.182 2.587 2.638 2.587z"/></clipPath></defs><g><g><g><g><path fill="#343434" d="M2.673 2.501h24.682v16.665H2.673zm26.224-.736c0-.391-.36-.735-.771-.735H1.901c-.411 0-.771.344-.771.735v18.137c0 .39.36.734.771.734h26.225c.412 0 .771-.343.771-.734z"/></g><g><g/><g clip-path="url(#4zs5a)"><path fill="#b6b5b6" d="M-568.81 207.711h755.158V-468.71H-568.81z"/></g><g clip-path="url(#4zs5a)"><path fill="#152631" d="M-3.34 25.114h36.715V-3.44H-3.34z"/></g><g clip-path="url(#4zs5a)"><path fill="none" stroke="#f2f2f2" stroke-miterlimit="20" stroke-width=".2" d="M-3.34 25.114v0h36.715v0V-3.44v0H-3.34v0z"/></g><g clip-path="url(#4zs5a)"><path fill="none" stroke="#fefefe" stroke-miterlimit="20" stroke-width=".2" d="M-568.81 207.711v0h755.158v0-676.421 0H-568.81v0z"/></g></g><g><g><path fill="#0a0a0a" d="M2.724 2.56h25.35v17.116H2.724zm26.934-.755c0-.402-.37-.755-.792-.755H1.932c-.423 0-.792.353-.792.755v18.627c0 .401.37.754.792.754h26.934c.422 0 .792-.353.792-.754z"/><path fill="none" stroke="#efefef" stroke-miterlimit="20" stroke-width=".7" d="M2.724 2.56h25.35v17.116H2.724zm26.934-.755c0-.402-.37-.755-.792-.755H1.932c-.423 0-.792.353-.792.755v18.627c0 .401.37.754.792.754h26.934c.422 0 .792-.353.792-.754z"/></g><g><path fill="#152631" d="M31.545 26.776h-.1L6.356 24.16c-.4-.05-.7-.453-.65-.855l.1-1.057c.05-.403.4-.704.8-.654.401.05.702.402.651.805v.302l23.638 2.466 1.752-16.96-1.001-.1c-.401-.05-.702-.404-.652-.806.05-.403.4-.705.801-.654l1.754.202c.199 0 .4.1.5.25.15.151.2.353.15.554l-1.903 18.47a.758.758 0 0 1-.75.654"/><path fill="none" stroke="#efefef" stroke-miterlimit="20" stroke-width="1.5" d="M31.545 26.776v0h-.1v0L6.356 24.16c-.4-.05-.7-.453-.65-.855l.1-1.057c.05-.403.4-.704.8-.654.401.05.702.402.651.805v.302l23.638 2.466v0l1.752-16.96v0l-1.001-.1c-.401-.05-.702-.404-.652-.806.05-.403.4-.705.801-.654l1.754.202c.199 0 .4.1.5.25.15.151.2.353.15.554l-1.903 18.47a.758.758 0 0 1-.75.654"/></g></g><g><g/><g clip-path="url(#4zs5b)"><path fill="#b6b5b6" d="M-568.81 207.711h755.158V-468.71H-568.81z"/></g></g><g><g/><g clip-path="url(#4zs5c)"><path fill="#b6b5b6" d="M1.1 30.554h36.716V2H1.1z"/></g><g clip-path="url(#4zs5c)"><path fill="none" stroke="#fefefe" stroke-miterlimit="20" stroke-width=".3" d="M1.1 30.554v0h36.716v0V2v0H1.1v0z"/></g></g><g><g/><g clip-path="url(#4zs5d)"><path fill="none" stroke="#fefefe" stroke-miterlimit="20" stroke-width=".3" d="M-568.81 207.711v0h755.158v0-676.421 0H-568.81v0z"/></g></g><g><g><path fill="#152631" d="M30.745 26.086h-.097l-24.43-2.548c-.39-.048-.681-.441-.633-.833l.098-1.029c.048-.392.39-.685.78-.637.39.05.683.392.633.784v.294l23.016 2.402 1.706-16.514-.975-.098c-.39-.05-.683-.393-.635-.785.05-.391.39-.686.78-.637l1.708.197a.6.6 0 0 1 .487.244c.146.147.195.344.146.54l-1.853 17.983a.738.738 0 0 1-.73.637z"/><path fill="none" stroke="#efefef" stroke-miterlimit="20" stroke-width=".5" d="M30.745 26.086h-.097v0l-24.43-2.548c-.39-.048-.681-.441-.633-.833l.098-1.029c.048-.392.39-.685.78-.637.39.05.683.392.633.784v.294l23.016 2.402v0l1.706-16.514v0l-.975-.098c-.39-.05-.683-.393-.635-.785.05-.391.39-.686.78-.637l1.708.197a.6.6 0 0 1 .487.244c.146.147.195.344.146.54l-1.853 17.983a.738.738 0 0 1-.73.637z"/></g><g><path fill="#b6b5b6" d="M20.307 13.422h-.163c-.57-.035-1.302-.458-2.766-1.513-1.506-1.09-3.824-2.604-5.003-2.604-1.71 0-5.9 2.463-7.364 3.448a.662.662 0 0 1-.854-.14c-.204-.247-.162-.493.122-.669.57-.387 5.655-3.694 8.096-3.694h.04c1.628 0 3.824 1.477 5.776 2.85.814.563 1.831 1.266 2.116 1.3.732.071 3.213-1.09 4.76-1.934.284-.14.65-.105.853.14.163.248.082.564-.203.74-.65.351-3.864 2.076-5.41 2.076"/></g></g><g><g/><g clip-path="url(#4zs5e)"><path fill="#b6b5b6" d="M-446.98 166.631h597.578V-368.64H-446.98z"/></g><g clip-path="url(#4zs5e)"><path fill="#b6b5b6" d="M.49 16.962h29.054V4.71H.49z"/></g><g clip-path="url(#4zs5e)"><path fill="none" stroke="#fefefe" stroke-miterlimit="20" stroke-width=".1" d="M.49 16.962v0h29.054v0V4.71v0H.49v0z"/></g><g clip-path="url(#4zs5e)"><path fill="none" stroke="#fefefe" stroke-miterlimit="20" stroke-width=".1" d="M-446.98 166.631v0h597.578v0-535.271 0H-446.98v0z"/></g></g><g><g><path fill="#152631" d="M20.307 13.422h-.163c-.57-.035-1.302-.458-2.766-1.513-1.506-1.09-3.824-2.604-5.003-2.604-1.71 0-5.9 2.463-7.364 3.448a.662.662 0 0 1-.854-.14c-.204-.247-.162-.493.122-.669.57-.387 5.655-3.694 8.096-3.694h.04c1.628 0 3.824 1.477 5.776 2.85.814.563 1.831 1.266 2.116 1.3.732.071 3.213-1.09 4.76-1.934.284-.14.65-.105.853.14.163.248.082.564-.203.74-.65.351-3.864 2.076-5.41 2.076z"/><path fill="none" stroke="#152631" stroke-miterlimit="20" stroke-width=".1" d="M20.307 13.422h-.163c-.57-.035-1.302-.458-2.766-1.513-1.506-1.09-3.824-2.604-5.003-2.604-1.71 0-5.9 2.463-7.364 3.448a.662.662 0 0 1-.854-.14c-.204-.247-.162-.493.122-.669.57-.387 5.655-3.694 8.096-3.694h.04c1.628 0 3.824 1.477 5.776 2.85.814.563 1.831 1.266 2.116 1.3.732.071 3.213-1.09 4.76-1.934.284-.14.65-.105.853.14.163.248.082.564-.203.74-.65.351-3.864 2.076-5.41 2.076z"/></g><g><path fill="#b6b5b6" d="M21.687 4.663c.719 0 1.34.565 1.34 1.318 0 .752-.574 1.317-1.34 1.317-.766 0-1.34-.565-1.34-1.317 0-.753.622-1.318 1.34-1.318m0 3.993c1.485 0 2.778-1.22 2.778-2.722 0-1.504-1.246-2.724-2.778-2.724S18.91 4.43 18.91 5.934c0 1.502 1.245 2.722 2.777 2.722"/></g></g></g><g><g/><g clip-path="url(#4zs5f)"><path fill="#b6b5b6" d="M-540.32 197.07h717.4v-642.6h-717.4z"/></g><g clip-path="url(#4zs5f)"><path fill="#b6b5b6" d="M13.76 12.214h13.776V-1.46H13.76z"/></g><g clip-path="url(#4zs5f)"><path fill="none" stroke="#efefef" stroke-miterlimit="20" stroke-width=".3" d="M13.76 12.214v0h13.776v0V-1.46v0H13.76v0z"/></g><g clip-path="url(#4zs5f)"><path fill="none" stroke="#fefefe" stroke-miterlimit="20" stroke-width=".3" d="M-540.32 197.07v0h717.4v0-642.6 0h-717.4v0z"/></g></g><g><path fill="#152631" d="M21.78 6c0 .706-.527 1.236-1.23 1.236S19.32 6.706 19.32 6a1.231 1.231 0 1 1 2.46 0zm1.32-.05a2.552 2.552 0 0 0-2.55-2.55A2.552 2.552 0 0 0 18 5.95a2.552 2.552 0 0 0 2.55 2.55c1.363 0 2.55-1.143 2.55-2.55z"/><path fill="none" stroke="#fefefe" stroke-miterlimit="20" stroke-width=".3" d="M21.78 6c0 .706-.527 1.236-1.23 1.236S19.32 6.706 19.32 6a1.231 1.231 0 1 1 2.46 0zm1.32-.05a2.552 2.552 0 0 0-2.55-2.55A2.552 2.552 0 0 0 18 5.95a2.552 2.552 0 0 0 2.55 2.55c1.363 0 2.55-1.143 2.55-2.55z"/></g></g></g></svg>