<svg xmlns="http://www.w3.org/2000/svg" width="41" height="33" viewBox="0 0 41 33"><defs><clipPath id="tt0pa"><path d="M2.974 2.94h29.038v19.607H2.974zm-.908-1.73c-.484 0-.906.404-.906.865v21.337c0 .46.422.864.906.864H32.92c.483 0 .906-.404.906-.864V2.075c0-.46-.423-.865-.906-.865z"/></clipPath><clipPath id="tt0pb"><path d="M35.356 8.376c-.058.462.286.866.746.924l1.146.115-2.007 19.428-27.077-2.825v-.345c.058-.464-.285-.866-.745-.924-.458-.057-.86.289-.918.75l-.115 1.21c-.057.462.288.924.745.982l28.74 2.996h.116a.87.87 0 0 0 .86-.75l2.18-21.156a.654.654 0 0 0-.172-.635.705.705 0 0 0-.573-.288l-2.008-.232a.797.797 0 0 0-.1-.006c-.416 0-.766.33-.818.756z"/></clipPath><clipPath id="tt0pc"><path d="M35.356 8.376c-.058.462.286.866.746.924l1.146.115-2.007 19.428-27.077-2.825v-.345c.058-.464-.285-.866-.745-.924-.458-.057-.86.289-.918.75l-.115 1.21c-.057.462.288.924.745.982l28.74 2.996h.116a.87.87 0 0 0 .86-.75l2.18-21.156a.654.654 0 0 0-.172-.635.705.705 0 0 0-.573-.288l-2.008-.232c-.034-.003-.067-.006-.1-.006-.416 0-.765.33-.818.756z"/></clipPath><clipPath id="tt0pd"><path d="M35.356 8.376c-.058.462.286.866.746.924l1.146.115-2.007 19.428-27.077-2.825v-.345c.058-.464-.285-.866-.745-.924-.458-.057-.86.289-.918.75l-.115 1.21c-.057.462.288.924.745.982l28.74 2.996h.116a.87.87 0 0 0 .86-.75l2.18-21.156a.654.654 0 0 0-.172-.635.705.705 0 0 0-.573-.288l-2.008-.232a.797.797 0 0 0-.1-.006c-.416 0-.766.33-.818.756z"/></clipPath><clipPath id="tt0pe"><path d="M14.387 9.7c-2.871 0-8.853 3.89-9.524 4.346-.335.208-.383.497-.143.787a.78.78 0 0 0 1.005.166c1.722-1.159 6.653-4.057 8.662-4.057 1.388 0 4.116 1.78 5.887 3.063 1.722 1.242 2.584 1.738 3.254 1.78h.19c1.82 0 5.6-2.028 6.367-2.442.334-.207.43-.579.238-.87-.238-.289-.67-.33-1.004-.165-1.82.993-4.738 2.36-5.6 2.276-.334-.04-1.53-.87-2.489-1.53-2.296-1.615-4.88-3.354-6.795-3.354z"/></clipPath><clipPath id="tt0pf"><path d="M2.974 2.94h29.038v19.607H2.974zm-.908-1.73c-.484 0-.906.404-.906.865v21.337c0 .46.422.864.906.864H32.92c.483 0 .906-.404.906-.864V2.075c0-.46-.423-.865-.906-.865z"/></clipPath><clipPath id="tt0pg"><path d="M35.356 8.376c-.058.462.286.866.746.924l1.146.115-2.007 19.428-27.077-2.825v-.345c.058-.464-.285-.866-.745-.924-.458-.057-.86.289-.918.75l-.115 1.21c-.057.462.288.924.745.982l28.74 2.996h.116a.87.87 0 0 0 .86-.75l2.18-21.156a.654.654 0 0 0-.172-.635.705.705 0 0 0-.573-.288l-2.008-.232a.797.797 0 0 0-.1-.006c-.416 0-.766.33-.818.756z"/></clipPath><clipPath id="tt0ph"><path d="M35.356 8.376c-.058.462.286.866.746.924l1.146.115-2.007 19.428-27.077-2.825v-.345c.058-.464-.285-.866-.745-.924-.458-.057-.86.289-.918.75l-.115 1.21c-.057.462.288.924.745.982l28.74 2.996h.116a.87.87 0 0 0 .86-.75l2.18-21.156a.654.654 0 0 0-.172-.635.705.705 0 0 0-.573-.288l-2.008-.232c-.034-.003-.067-.006-.1-.006-.416 0-.765.33-.818.756z"/></clipPath><clipPath id="tt0pi"><path d="M35.356 8.376c-.058.462.286.866.746.924l1.146.115-2.007 19.428-27.077-2.825v-.345c.058-.464-.285-.866-.745-.924-.458-.057-.86.289-.918.75l-.115 1.21c-.057.462.288.924.745.982l28.74 2.996h.116a.87.87 0 0 0 .86-.75l2.18-21.156a.654.654 0 0 0-.172-.635.705.705 0 0 0-.573-.288l-2.008-.232a.797.797 0 0 0-.1-.006c-.416 0-.766.33-.818.756z"/></clipPath><clipPath id="tt0pj"><path d="M14.387 9.7c-2.871 0-8.853 3.89-9.524 4.346-.335.208-.383.497-.143.787a.78.78 0 0 0 1.005.166c1.722-1.159 6.653-4.057 8.662-4.057 1.388 0 4.116 1.78 5.887 3.063 1.722 1.242 2.584 1.738 3.254 1.78h.19c1.82 0 5.6-2.028 6.367-2.442.334-.207.43-.579.238-.87-.238-.289-.67-.33-1.004-.165-1.82.993-4.738 2.36-5.6 2.276-.334-.04-1.53-.87-2.489-1.53-2.296-1.615-4.88-3.354-6.795-3.354z"/></clipPath><clipPath id="tt0pk"><path d="M24.109 4.913c.8 0 1.492.631 1.492 1.473 0 .84-.639 1.471-1.492 1.471s-1.494-.63-1.494-1.471c0-.842.694-1.473 1.494-1.473zm.005 4.464c1.658 0 3.103-1.365 3.103-3.043 0-1.681-1.391-3.044-3.103-3.044-1.713 0-3.104 1.363-3.104 3.044 0 1.678 1.391 3.043 3.104 3.043z"/></clipPath></defs><g><g><g><path fill="#b6b5b6" d="M2.975 2.94h29.038v19.607H2.975zm30.852-.865c0-.46-.423-.865-.907-.865H2.067c-.484 0-.907.404-.907.865v21.337c0 .46.423.864.907.864H32.92c.484 0 .907-.404.907-.864z"/></g><g><g/><g clip-path="url(#tt0pa)"><path fill="#b6b5b6" d="M-669.37 244.37h888.421v-795.79H-669.37z"/></g><g clip-path="url(#tt0pa)"><path fill="#152631" d="M-4.11 29.543h43.194V-4.05H-4.11z"/></g><g clip-path="url(#tt0pa)"><path fill="none" stroke="#fefefe" stroke-miterlimit="20" stroke-width=".2" d="M-4.11 29.543v0h43.194v0V-4.05v0H-4.11v0z"/></g><g clip-path="url(#tt0pa)"><path fill="none" stroke="#fefefe" stroke-miterlimit="20" stroke-width=".2" d="M-669.37 244.37v0h888.421v0-795.79 0H-669.37v0z"/></g></g><g><g><path fill="none" stroke="#fefefe" stroke-miterlimit="20" stroke-width=".5" d="M3.024 3.007h29.832v20.127H3.024zM34.71 2.12c0-.474-.434-.889-.932-.889H2.092c-.497 0-.932.415-.932.889v21.913c0 .473.435.888.932.888h31.686c.498 0 .932-.415.932-.888z"/></g><g><path fill="#152631" d="M36.936 31.51h-.118L7.302 28.43c-.472-.058-.824-.532-.766-1.006l.118-1.243c.059-.473.472-.828.943-.77.471.06.825.474.765.947v.356l27.809 2.902 2.062-19.954-1.179-.118c-.471-.06-.825-.474-.766-.948.06-.473.471-.829.942-.77l2.063.238c.235 0 .471.118.59.295a.672.672 0 0 1 .175.651L37.82 30.74a.892.892 0 0 1-.884.77"/><path fill="none" stroke="#fff" stroke-miterlimit="20" stroke-width="1.5" d="M36.936 31.51v0h-.118v0L7.302 28.43c-.472-.058-.824-.532-.766-1.006l.118-1.243c.059-.473.472-.828.943-.77.471.06.825.474.765.947v.356l27.809 2.902v0l2.062-19.954v0l-1.179-.118c-.471-.06-.825-.474-.766-.948.06-.473.471-.829.942-.77l2.063.238c.235 0 .471.118.59.295a.672.672 0 0 1 .175.651L37.82 30.74a.892.892 0 0 1-.884.77"/></g></g><g><g/><g clip-path="url(#tt0pb)"><path fill="#b6b5b6" d="M-669.37 244.37h888.421v-795.79H-669.37z"/></g></g><g><g/><g clip-path="url(#tt0pc)"><path fill="#b6b5b6" d="M1.12 35.943h43.195V2.35H1.12z"/></g><g clip-path="url(#tt0pc)"><path fill="none" stroke="#fefefe" stroke-miterlimit="20" stroke-width=".3" d="M1.12 35.943v0h43.195v0V2.35v0H1.12v0z"/></g></g><g><g/><g clip-path="url(#tt0pd)"><path fill="none" stroke="#fefefe" stroke-miterlimit="20" stroke-width=".3" d="M-669.37 244.37v0h888.421v0-795.79 0H-669.37v0z"/></g></g><g><g><path fill="#152631" d="M35.986 30.686h-.115l-28.74-2.998c-.459-.056-.802-.519-.745-.98l.115-1.21c.057-.461.459-.806.918-.75.459.058.803.461.745.923v.346l27.077 2.825 2.007-19.428-1.147-.115c-.46-.058-.803-.462-.746-.923.057-.461.459-.808.917-.75l2.009.232c.228 0 .459.115.574.287a.655.655 0 0 1 .171.634l-2.18 21.158a.869.869 0 0 1-.86.75z"/><path fill="none" stroke="#fff" stroke-miterlimit="20" stroke-width=".5" d="M35.986 30.686h-.115v0l-28.74-2.998c-.459-.056-.802-.519-.745-.98l.115-1.21c.057-.461.459-.806.918-.75.459.058.803.461.745.923v.346l27.077 2.825v0l2.007-19.428v0l-1.147-.115c-.46-.058-.803-.462-.746-.923.057-.461.459-.808.917-.75l2.009.232c.228 0 .459.115.574.287a.655.655 0 0 1 .171.634l-2.18 21.158a.869.869 0 0 1-.86.75z"/></g><g><path fill="#b6b5b6" d="M23.719 15.784h-.192c-.67-.04-1.531-.538-3.253-1.779-1.772-1.283-4.5-3.064-5.887-3.064-2.01 0-6.94 2.898-8.663 4.057a.779.779 0 0 1-1.004-.165c-.24-.29-.192-.58.143-.787.67-.455 6.653-4.346 9.524-4.346h.048c1.914 0 4.499 1.738 6.795 3.353.957.662 2.154 1.49 2.489 1.53.862.083 3.78-1.282 5.6-2.276.335-.165.765-.124 1.004.166.192.29.096.662-.239.87-.765.413-4.546 2.441-6.365 2.441"/></g></g><g><g/><g clip-path="url(#tt0pe)"><path fill="#b6b5b6" d="M-526.04 196.03h703.033V-433.7H-526.04z"/></g><g clip-path="url(#tt0pe)"><path fill="#b6b5b6" d="M.4 19.954h34.181V5.54H.4z"/></g><g clip-path="url(#tt0pe)"><path fill="none" stroke="#fefefe" stroke-miterlimit="20" stroke-width=".1" d="M.4 19.954v0h34.181v0V5.54v0H.4v0z"/></g><g clip-path="url(#tt0pe)"><path fill="none" stroke="#fefefe" stroke-miterlimit="20" stroke-width=".1" d="M-526.04 196.03v0h703.033v0-629.73 0H-526.04v0z"/></g></g><g><g><path fill="#152631" d="M23.719 15.784h-.192c-.67-.04-1.531-.538-3.253-1.779-1.772-1.283-4.5-3.064-5.887-3.064-2.01 0-6.94 2.898-8.663 4.057a.779.779 0 0 1-1.004-.165c-.24-.29-.192-.58.143-.787.67-.455 6.653-4.346 9.524-4.346h.048c1.914 0 4.499 1.738 6.795 3.353.957.662 2.154 1.49 2.489 1.53.862.083 3.78-1.282 5.6-2.276.335-.165.765-.124 1.004.166.192.29.096.662-.239.87-.765.413-4.546 2.441-6.365 2.441z"/><path fill="none" stroke="#152631" stroke-miterlimit="20" stroke-width=".1" d="M23.719 15.784h-.192c-.67-.04-1.531-.538-3.253-1.779-1.772-1.283-4.5-3.064-5.887-3.064-2.01 0-6.94 2.898-8.663 4.057a.779.779 0 0 1-1.004-.165c-.24-.29-.192-.58.143-.787.67-.455 6.653-4.346 9.524-4.346h.048c1.914 0 4.499 1.738 6.795 3.353.957.662 2.154 1.49 2.489 1.53.862.083 3.78-1.282 5.6-2.276.335-.165.765-.124 1.004.166.192.29.096.662-.239.87-.765.413-4.546 2.441-6.365 2.441z"/></g><g><path fill="#b6b5b6" d="M25.327 5.483c.844 0 1.575.665 1.575 1.552 0 .886-.675 1.551-1.575 1.551-.9 0-1.574-.665-1.574-1.551 0-.887.73-1.552 1.574-1.552m0 4.694c1.747 0 3.268-1.435 3.268-3.203 0-1.768-1.466-3.204-3.268-3.204-1.802 0-3.267 1.436-3.267 3.204 0 1.768 1.465 3.203 3.267 3.203"/></g></g></g><g><g><g><path fill="#b6b5b6" d="M2.975 2.94h29.038v19.607H2.975zm30.852-.865c0-.46-.423-.865-.907-.865H2.067c-.484 0-.907.404-.907.865v21.337c0 .46.423.864.907.864H32.92c.484 0 .907-.404.907-.864z"/></g><g><g/><g clip-path="url(#tt0pf)"><path fill="#b6b5b6" d="M-669.37 244.37h888.421v-795.79H-669.37z"/></g><g clip-path="url(#tt0pf)"><path fill="#152631" d="M-4.11 29.543h43.194V-4.05H-4.11z"/></g><g clip-path="url(#tt0pf)"><path fill="none" stroke="#fefefe" stroke-miterlimit="20" stroke-width=".2" d="M-4.11 29.543v0h43.194v0V-4.05v0H-4.11v0z"/></g><g clip-path="url(#tt0pf)"><path fill="none" stroke="#fefefe" stroke-miterlimit="20" stroke-width=".2" d="M-669.37 244.37v0h888.421v0-795.79 0H-669.37v0z"/></g></g><g><g><path fill="none" stroke="#fefefe" stroke-miterlimit="20" stroke-width=".5" d="M3.024 3.007h29.832v20.127H3.024zM34.71 2.12c0-.474-.434-.889-.932-.889H2.092c-.497 0-.932.415-.932.889v21.913c0 .473.435.888.932.888h31.686c.498 0 .932-.415.932-.888z"/></g><g><path fill="#152631" d="M36.936 31.51h-.118L7.302 28.43c-.472-.058-.824-.532-.766-1.006l.118-1.243c.059-.473.472-.828.943-.77.471.06.825.474.765.947v.356l27.809 2.902 2.062-19.954-1.179-.118c-.471-.06-.825-.474-.766-.948.06-.473.471-.829.942-.77l2.063.238c.235 0 .471.118.59.295a.672.672 0 0 1 .175.651L37.82 30.74a.892.892 0 0 1-.884.77"/><path fill="none" stroke="#fff" stroke-miterlimit="20" stroke-width="1.5" d="M36.936 31.51v0h-.118v0L7.302 28.43c-.472-.058-.824-.532-.766-1.006l.118-1.243c.059-.473.472-.828.943-.77.471.06.825.474.765.947v.356l27.809 2.902v0l2.062-19.954v0l-1.179-.118c-.471-.06-.825-.474-.766-.948.06-.473.471-.829.942-.77l2.063.238c.235 0 .471.118.59.295a.672.672 0 0 1 .175.651L37.82 30.74a.892.892 0 0 1-.884.77"/></g></g><g><g/><g clip-path="url(#tt0pg)"><path fill="#b6b5b6" d="M-669.37 244.37h888.421v-795.79H-669.37z"/></g></g><g><g/><g clip-path="url(#tt0ph)"><path fill="#b6b5b6" d="M1.12 35.943h43.195V2.35H1.12z"/></g><g clip-path="url(#tt0ph)"><path fill="none" stroke="#fefefe" stroke-miterlimit="20" stroke-width=".3" d="M1.12 35.943v0h43.195v0V2.35v0H1.12v0z"/></g></g><g><g/><g clip-path="url(#tt0pi)"><path fill="none" stroke="#fefefe" stroke-miterlimit="20" stroke-width=".3" d="M-669.37 244.37v0h888.421v0-795.79 0H-669.37v0z"/></g></g><g><g><path fill="#152631" d="M35.986 30.686h-.115l-28.74-2.998c-.459-.056-.802-.519-.745-.98l.115-1.21c.057-.461.459-.806.918-.75.459.058.803.461.745.923v.346l27.077 2.825 2.007-19.428-1.147-.115c-.46-.058-.803-.462-.746-.923.057-.461.459-.808.917-.75l2.009.232c.228 0 .459.115.574.287a.655.655 0 0 1 .171.634l-2.18 21.158a.869.869 0 0 1-.86.75z"/><path fill="none" stroke="#fff" stroke-miterlimit="20" stroke-width=".5" d="M35.986 30.686h-.115v0l-28.74-2.998c-.459-.056-.802-.519-.745-.98l.115-1.21c.057-.461.459-.806.918-.75.459.058.803.461.745.923v.346l27.077 2.825v0l2.007-19.428v0l-1.147-.115c-.46-.058-.803-.462-.746-.923.057-.461.459-.808.917-.75l2.009.232c.228 0 .459.115.574.287a.655.655 0 0 1 .171.634l-2.18 21.158a.869.869 0 0 1-.86.75z"/></g><g><path fill="#b6b5b6" d="M23.719 15.784h-.192c-.67-.04-1.531-.538-3.253-1.779-1.772-1.283-4.5-3.064-5.887-3.064-2.01 0-6.94 2.898-8.663 4.057a.779.779 0 0 1-1.004-.165c-.24-.29-.192-.58.143-.787.67-.455 6.653-4.346 9.524-4.346h.048c1.914 0 4.499 1.738 6.795 3.353.957.662 2.154 1.49 2.489 1.53.862.083 3.78-1.282 5.6-2.276.335-.165.765-.124 1.004.166.192.29.096.662-.239.87-.765.413-4.546 2.441-6.365 2.441"/></g></g><g><g/><g clip-path="url(#tt0pj)"><path fill="#b6b5b6" d="M-526.04 196.03h703.033V-433.7H-526.04z"/></g><g clip-path="url(#tt0pj)"><path fill="#b6b5b6" d="M.4 19.954h34.181V5.54H.4z"/></g><g clip-path="url(#tt0pj)"><path fill="none" stroke="#fefefe" stroke-miterlimit="20" stroke-width=".1" d="M.4 19.954v0h34.181v0V5.54v0H.4v0z"/></g><g clip-path="url(#tt0pj)"><path fill="none" stroke="#fefefe" stroke-miterlimit="20" stroke-width=".1" d="M-526.04 196.03v0h703.033v0-629.73 0H-526.04v0z"/></g></g><g><g><path fill="#152631" d="M23.719 15.784h-.192c-.67-.04-1.531-.538-3.253-1.779-1.772-1.283-4.5-3.064-5.887-3.064-2.01 0-6.94 2.898-8.663 4.057a.779.779 0 0 1-1.004-.165c-.24-.29-.192-.58.143-.787.67-.455 6.653-4.346 9.524-4.346h.048c1.914 0 4.499 1.738 6.795 3.353.957.662 2.154 1.49 2.489 1.53.862.083 3.78-1.282 5.6-2.276.335-.165.765-.124 1.004.166.192.29.096.662-.239.87-.765.413-4.546 2.441-6.365 2.441z"/><path fill="none" stroke="#152631" stroke-miterlimit="20" stroke-width=".1" d="M23.719 15.784h-.192c-.67-.04-1.531-.538-3.253-1.779-1.772-1.283-4.5-3.064-5.887-3.064-2.01 0-6.94 2.898-8.663 4.057a.779.779 0 0 1-1.004-.165c-.24-.29-.192-.58.143-.787.67-.455 6.653-4.346 9.524-4.346h.048c1.914 0 4.499 1.738 6.795 3.353.957.662 2.154 1.49 2.489 1.53.862.083 3.78-1.282 5.6-2.276.335-.165.765-.124 1.004.166.192.29.096.662-.239.87-.765.413-4.546 2.441-6.365 2.441z"/></g><g><path fill="#b6b5b6" d="M25.327 5.483c.844 0 1.575.665 1.575 1.552 0 .886-.675 1.551-1.575 1.551-.9 0-1.574-.665-1.574-1.551 0-.887.73-1.552 1.574-1.552m0 4.694c1.747 0 3.268-1.435 3.268-3.203 0-1.768-1.466-3.204-3.268-3.204-1.802 0-3.267 1.436-3.267 3.204 0 1.768 1.465 3.203 3.267 3.203"/></g></g></g><g><g/><g clip-path="url(#tt0pk)"><path fill="#b6b5b6" d="M-635.85 231.85h844v-756h-844z"/></g><g clip-path="url(#tt0pk)"><path fill="#b6b5b6" d="M16.01 14.367h16.207V-1.72H16.01z"/></g><g clip-path="url(#tt0pk)"><path fill="none" stroke="#fefefe" stroke-miterlimit="20" stroke-width=".3" d="M16.01 14.367v0h16.207v0V-1.72v0H16.01v0z"/></g><g clip-path="url(#tt0pk)"><path fill="none" stroke="#fefefe" stroke-miterlimit="20" stroke-width=".3" d="M-635.85 231.85v0h844v0-756 0h-844v0z"/></g></g><g><path fill="#152631" d="M25.448 7.053c0 .827-.62 1.448-1.448 1.448-.827 0-1.448-.621-1.448-1.448 0-.828.672-1.45 1.448-1.45.776 0 1.448.622 1.448 1.45zM27 7c0-1.655-1.345-3-3-3s-3 1.345-3 3c0 1.656 1.345 3 3 3 1.603 0 3-1.345 3-3z"/><path fill="none" stroke="#fefefe" stroke-miterlimit="20" stroke-width=".3" d="M25.448 7.053c0 .827-.62 1.448-1.448 1.448-.827 0-1.448-.621-1.448-1.448 0-.828.672-1.45 1.448-1.45.776 0 1.448.622 1.448 1.45zM27 7c0-1.655-1.345-3-3-3s-3 1.345-3 3c0 1.656 1.345 3 3 3 1.603 0 3-1.345 3-3z"/></g></g></g></svg>