<svg xmlns="http://www.w3.org/2000/svg" width="24" height="19" viewBox="0 0 24 19"><defs><clipPath id="wtu3a"><path d="M6.46 4.28h12.322v8.28H6.46z"/></clipPath><clipPath id="wtu3b"><path d="M9.58 4.14h6.082v4.344H9.58z"/></clipPath><clipPath id="wtu3c"><path d="M1.653 2.124c-.93.21 0 1.851 0 1.851h21.372s.91-1.624 0-1.851c-2.586-.644-6.477-.944-10.397-.944-4.122 0-8.275.332-10.975.944"/></clipPath><clipPath id="wtu3d"><path d="M1.653 2.124c-.93.21 0 1.851 0 1.851h21.372s.91-1.624 0-1.851c-2.586-.644-6.477-.944-10.398-.944-4.12 0-8.274.332-10.974.944z"/></clipPath><clipPath id="wtu3e"><path d="M1.507 14.11s-.893 1.394 0 1.588c5.207 1.133 15.808 1.024 20.981 0 .912-.18 0-1.588 0-1.588"/></clipPath><clipPath id="wtu3f"><path d="M1.507 14.11s-.893 1.394 0 1.588c5.207 1.133 15.808 1.024 20.981 0 .912-.18 0-1.588 0-1.588z"/></clipPath></defs><g><g opacity="1"><g><path fill="none" stroke="#343434" stroke-miterlimit="20" stroke-width="1.2" d="M2 15v0h20v0V4v0H2v0z"/></g><g><g opacity="1"/><g clip-path="url(#wtu3a)" opacity="1"><path fill="none" stroke="#b6b5b6" stroke-miterlimit="20" stroke-width="1.2" d="M6.46 12.55v0h12.322v0-8.28 0H6.46v0z"/></g><g clip-path="url(#wtu3a)" opacity="1"><path fill="none" stroke="#b6b5b6" stroke-miterlimit="20" stroke-width="1.2" d="M-544.96 284.418v0h650.005v0-521.638 0H-544.96v0z"/></g></g><g><path fill="none" stroke="#343434" stroke-miterlimit="20" stroke-width="1.2" d="M6 12v0h12v0-8 0H6v0z"/></g><g><g opacity="1"/><g clip-path="url(#wtu3b)" opacity="1"><path fill="none" stroke="#b6b5b6" stroke-miterlimit="20" stroke-width="1.2" d="M9.58 8.484v0h6.082v0V4.14v0H9.58v0z"/></g><g clip-path="url(#wtu3b)" opacity="1"><path fill="none" stroke="#b6b5b6" stroke-miterlimit="20" stroke-width="1.2" d="M-537.82 298.108v0h641.672v0-547.398 0H-537.82v0z"/></g></g><g><path fill="none" stroke="#343434" stroke-miterlimit="20" stroke-width="1.2" d="M9 8v0h6v0-4 0H9v0z"/></g><g><g opacity="1"/><g clip-path="url(#wtu3c)" opacity="1"><path fill="none" stroke="#b6b5b6" stroke-miterlimit="20" stroke-width="1.2" d="M23.022 2.12v1.852H1.65v0V2.12v0"/></g></g><g><g opacity="1"/><g clip-path="url(#wtu3d)" opacity="1"><path fill="none" stroke="#b6b5b6" stroke-miterlimit="20" stroke-width="1.2" d="M-442.75 36.305v0H87.764v0-63.645 0H-442.75v0z"/></g></g><g><path fill="none" stroke="#343434" stroke-miterlimit="20" stroke-width="1.2" d="M1.41 2.013C6.633.73 17.34.596 22.599 2.013c.902.243 0 1.987 0 1.987v0H1.409v0s-.921-1.761 0-1.987z"/></g><g transform="rotate(-180 12 16.5)"><path fill="none" stroke="#343434" stroke-miterlimit="20" stroke-width="1.2" d="M1.41 16.013c5.223-1.282 15.93-1.417 21.189 0 .902.243 0 1.987 0 1.987v0H1.409v0s-.921-1.761 0-1.987z"/></g><g><g opacity="1"><g/><g clip-path="url(#wtu3e)"><path fill="none" stroke="#b6b5b6" stroke-miterlimit="20" stroke-width="1.2" d="M1.51 15.698v0-1.588 0h20.98v1.588"/></g></g><g opacity="1"/><g clip-path="url(#wtu3f)" opacity="1"><path fill="none" stroke="#b6b5b6" stroke-miterlimit="20" stroke-width="1.2" d="M-62.05 40.957v0h520.802v0-54.567 0H-62.05v0z"/></g></g></g></g></svg>