<?xml version="1.0" encoding="UTF-8" standalone="no"?>
<svg
   xmlns:dc="http://purl.org/dc/elements/1.1/"
   xmlns:cc="http://creativecommons.org/ns#"
   xmlns:rdf="http://www.w3.org/1999/02/22-rdf-syntax-ns#"
   xmlns:svg="http://www.w3.org/2000/svg"
   xmlns="http://www.w3.org/2000/svg"
   xmlns:sodipodi="http://sodipodi.sourceforge.net/DTD/sodipodi-0.dtd"
   xmlns:inkscape="http://www.inkscape.org/namespaces/inkscape"
   width="40.766617"
   height="40.202156"
   viewBox="0 0 40.766617 40.202156"
   version="1.1"
   id="svg71"
   sodipodi:docname="LANGUEkm.svg"
   inkscape:version="0.92.4 (5da689c313, 2019-01-14)">
  <metadata
     id="metadata77">
    <rdf:RDF>
      <cc:Work
         rdf:about="">
        <dc:format>image/svg+xml</dc:format>
        <dc:type
           rdf:resource="http://purl.org/dc/dcmitype/StillImage" />
        <dc:title></dc:title>
      </cc:Work>
    </rdf:RDF>
  </metadata>
  <defs
     id="defs75" />
  <sodipodi:namedview
     pagecolor="#ffffff"
     bordercolor="#666666"
     borderopacity="1"
     objecttolerance="10"
     gridtolerance="10"
     guidetolerance="10"
     inkscape:pageopacity="0"
     inkscape:pageshadow="2"
     inkscape:window-width="1918"
     inkscape:window-height="1054"
     id="namedview73"
     showgrid="false"
     fit-margin-top="0"
     fit-margin-left="0"
     fit-margin-right="0"
     fit-margin-bottom="0"
     inkscape:zoom="6.3786924"
     inkscape:cx="122.56766"
     inkscape:cy="58.808328"
     inkscape:window-x="1"
     inkscape:window-y="1"
     inkscape:window-maximized="1"
     inkscape:current-layer="text81" />
  <path
     d="m 31.766618,16.202157 h -4 l -9,24 h 4 l 2.25,-6 h 9.5 l 2.25,6 h 4 z m -5.25,14 3.25,-8.67 3.25,8.67 z"
     id="path69"
     inkscape:connector-curvature="0"
     sodipodi:nodetypes="ccccccccccccc" />
  <g
     aria-label="ក"
     style="font-style:normal;font-weight:normal;font-size:49.68300247px;line-height:1.25;font-family:sans-serif;letter-spacing:0px;word-spacing:0px;fill:#000000;fill-opacity:1;stroke:none;stroke-width:0.4657782"
     id="text81">
    <path
       d="M 8.7738037e-8,3.3287605 V -7.0953369e-7 H 21.860521 V 3.3287605 Z m 0,25.7854785 v -14.55712 q 0,-3.924957 2.732565112261963,-5.8625943 2.7822482,-1.9873201 8.1976958,-1.9873201 5.46513,0 8.197695,1.9873201 2.732565,1.9376373 2.732565,5.8625943 v 14.55712 h -4.570836 v -14.55712 q 0,-2.235735 -1.589856,-3.378444 -1.540173,-1.142709 -4.769568,-1.142709 -3.1797125,0 -4.7695686,1.142709 -1.5898561,1.142709 -1.5898561,3.378444 v 14.55712 z"
       style="stroke-width:0.4657782"
       id="path65" />
  </g>
</svg>
