<?xml version="1.0" encoding="UTF-8" standalone="no"?>
<svg
   xmlns:dc="http://purl.org/dc/elements/1.1/"
   xmlns:cc="http://creativecommons.org/ns#"
   xmlns:rdf="http://www.w3.org/1999/02/22-rdf-syntax-ns#"
   xmlns:svg="http://www.w3.org/2000/svg"
   xmlns="http://www.w3.org/2000/svg"
   xmlns:sodipodi="http://sodipodi.sourceforge.net/DTD/sodipodi-0.dtd"
   xmlns:inkscape="http://www.inkscape.org/namespaces/inkscape"
   width="26.601562"
   height="16.335938"
   viewBox="0 0 26.601562 16.335938"
   version="1.1"
   id="svg13"
   sodipodi:docname="LANGUE.svg"
   inkscape:version="0.92.4 (5da689c313, 2019-01-14)">
  <metadata
     id="metadata17">
    <rdf:RDF>
      <cc:Work
         rdf:about="">
        <dc:format>image/svg+xml</dc:format>
        <dc:type
           rdf:resource="http://purl.org/dc/dcmitype/StillImage" />
      </cc:Work>
    </rdf:RDF>
  </metadata>
  <sodipodi:namedview
     pagecolor="#ffffff"
     bordercolor="#666666"
     borderopacity="1"
     objecttolerance="10"
     gridtolerance="10"
     guidetolerance="10"
     inkscape:pageopacity="0"
     inkscape:pageshadow="2"
     inkscape:window-width="836"
     inkscape:window-height="480"
     id="namedview15"
     showgrid="false"
     inkscape:zoom="5.2444444"
     inkscape:cx="18.601562"
     inkscape:cy="1.5"
     inkscape:window-x="1"
     inkscape:window-y="1"
     inkscape:window-maximized="0"
     inkscape:current-layer="LANGUE" />
  <!-- Generator: Sketch 50.2 (55047) - http://www.bohemiancoding.com/sketch -->
  <title
     id="title2">LANGUE</title>
  <desc
     id="desc4">Created with Sketch.</desc>
  <defs
     id="defs6" />
  <g
     id="LANGUE"
     style="fill:none;fill-rule:evenodd;stroke:none;stroke-width:1"
     transform="translate(-0.3984375,-7.6640625)"
     inkscape:export-xdpi="96"
     inkscape:export-ydpi="96">
    <g
       id="Group-19"
       transform="translate(0,7)">
      <path
         d="m 27,16.998347 h -2.094611 c -0.207322,0.0126 -0.412999,-0.04726 -0.580831,-0.165403 -0.146442,-0.118144 -0.261621,-0.264643 -0.335665,-0.433196 l -1.352529,-3.577417 h -7.272728 l -1.454545,3.53646 c -0.06911,0.160677 -0.177705,0.305601 -0.31921,0.417444 -0.162896,0.130747 -0.370218,0.200058 -0.582477,0.193757 H 11 L 17.617853,1 h 2.749485 z"
         id="Fill-1"
         inkscape:connector-curvature="0"
         style="fill:#152631" />
      <path
         d="M 22,10.985028 19.587219,4.8232481 C 19.354059,4.2276981 19.15544,3.6171761 18.991364,3 18.901554,3.3626534 18.803109,3.7003535 18.701209,4.014764 L 18.411054,4.83822 16,11 Z"
         id="Fill-3"
         inkscape:connector-curvature="0"
         style="fill:#fefefe" />
      <path
         d="m 11.820313,8.0546875 0.226562,3.0859375 -0.445312,0.40625 L 9.7265625,11.242188 10,8.0390625 v -0.6875 C 9.6718734,7.4817715 9.3411475,7.546875 9.0078125,7.546875 8.6432273,7.546875 8.2552104,7.48698 7.84375,7.3671875 7.875,7.4973965 7.890625,7.6302077 7.890625,7.765625 c 0,0.5677112 -0.1497381,1.0598938 -0.4492188,1.4765625 C 7.1419256,9.6588563 6.7447941,9.9765614 6.25,10.195313 5.7552059,10.414064 5.2083363,10.523438 4.609375,10.523438 3.8281211,10.523438 3.0755245,10.346356 2.3515625,9.9921875 1.6276005,9.6380191 0.97656539,9.1250034 0.3984375,8.453125 l 0.71875,-0.78125 C 1.5963566,8.1302106 2.0950495,8.4765613 2.6132813,8.7109375 3.131513,8.9453137 3.6197894,9.0625 4.078125,9.0625 4.6197944,9.0625 5.0598941,8.9192723 5.3984375,8.6328125 5.7369809,8.3463527 5.90625,7.9453151 5.90625,7.4296875 5.90625,7.1744779 5.8177092,6.9348969 5.640625,6.7109375 5.4635408,6.486978 5.2057309,6.3125006 4.8671875,6.1875 4.367185,6.3697926 3.7421912,6.5182286 2.9921875,6.6328125 L 2.53125,5.2890625 2.765625,4.6484375 C 4.6666762,4.3932279 5.6171875,3.8333377 5.6171875,2.96875 c 0,-0.5104192 -0.3046845,-0.765625 -0.9140625,-0.765625 -0.3854186,0 -0.7903625,0.089843 -1.2148437,0.2695313 C 3.0638,2.6523446 2.6536478,2.9140608 2.2578125,3.2578125 L 1.6328125,2.96875 1.0859375,1.3671875 C 2.122401,0.89843516 3.0781206,0.6640625 3.953125,0.6640625 c 1.0156301,0 1.8320282,0.24739336 2.4492187,0.7421875 0.6171906,0.4947941 0.9257813,1.1536417 0.9257813,1.9765625 0,0.9062545 -0.3828087,1.6276015 -1.1484375,2.1640625 0.8958378,0.2864598 1.6614552,0.4296875 2.296875,0.4296875 C 9.0286486,5.9765625 9.536456,5.8437513 10,5.578125 V 2.421875 H 8.4140625 L 8.015625,1.2265625 8.1796875,0.7421875 h 5.2109375 l 0.398438,1.203125 -0.203125,0.4765625 h -1.765625 z"
         id="अ"
         inkscape:connector-curvature="0"
         style="fill:#152631" />
    </g>
  </g>
</svg>
