<?xml version="1.0" encoding="UTF-8" standalone="no"?>
<svg
   xmlns:dc="http://purl.org/dc/elements/1.1/"
   xmlns:cc="http://creativecommons.org/ns#"
   xmlns:rdf="http://www.w3.org/1999/02/22-rdf-syntax-ns#"
   xmlns:svg="http://www.w3.org/2000/svg"
   xmlns="http://www.w3.org/2000/svg"
   xmlns:sodipodi="http://sodipodi.sourceforge.net/DTD/sodipodi-0.dtd"
   xmlns:inkscape="http://www.inkscape.org/namespaces/inkscape"
   width="26.601562"
   height="16.335938"
   viewBox="0 0 26.601562 16.335938"
   version="1.1"
   id="svg13"
   sodipodi:docname="LANGUEb.svg"
   inkscape:version="0.92.4 (5da689c313, 2019-01-14)">
  <metadata
     id="metadata17">
    <rdf:RDF>
      <cc:Work
         rdf:about="">
        <dc:format>image/svg+xml</dc:format>
        <dc:type
           rdf:resource="http://purl.org/dc/dcmitype/StillImage" />
        <dc:title>LANGUE</dc:title>
      </cc:Work>
    </rdf:RDF>
  </metadata>
  <sodipodi:namedview
     pagecolor="#ffffff"
     bordercolor="#666666"
     borderopacity="1"
     objecttolerance="10"
     gridtolerance="10"
     guidetolerance="10"
     inkscape:pageopacity="0"
     inkscape:pageshadow="2"
     inkscape:window-width="836"
     inkscape:window-height="480"
     id="namedview15"
     showgrid="false"
     inkscape:zoom="5.2444444"
     inkscape:cx="18.601562"
     inkscape:cy="1.5"
     inkscape:window-x="1"
     inkscape:window-y="1"
     inkscape:window-maximized="0"
     inkscape:current-layer="LANGUE" />
  <!-- Generator: Sketch 50.2 (55047) - http://www.bohemiancoding.com/sketch -->
  <title
     id="title2">LANGUE</title>
  <desc
     id="desc4">Created with Sketch.</desc>
  <defs
     id="defs6" />
  <g
     id="LANGUE"
     style="fill:#ffffff;fill-rule:evenodd;stroke:none;stroke-width:1"
     transform="translate(-0.3984375,-7.6640625)"
     inkscape:export-xdpi="96"
     inkscape:export-ydpi="96">
    <path
       style="fill:#ffffff"
       inkscape:connector-curvature="0"
       id="Fill-1"
       d="m 27,23.998347 h -2.094611 c -0.207322,0.0126 -0.412999,-0.04726 -0.580831,-0.165403 -0.146442,-0.118144 -0.261621,-0.264643 -0.335665,-0.433196 l -1.352529,-3.577417 h -7.272728 l -1.454545,3.53646 c -0.06911,0.160677 -0.177705,0.305601 -0.31921,0.417444 -0.162896,0.130747 -0.370218,0.200058 -0.582477,0.193757 H 11 L 17.617853,8 h 2.749485 z" />
    <path
       style="fill:#172832;fill-opacity:1"
       inkscape:connector-curvature="0"
       id="Fill-3"
       d="m 22,17.985028 -2.412781,-6.16178 C 19.354059,11.227698 19.15544,10.617176 18.991364,10 c -0.08981,0.362653 -0.188255,0.700354 -0.290155,1.014764 L 18.411054,11.83822 16,18 Z" />
    <path
       style="fill:#ffffff"
       inkscape:connector-curvature="0"
       id="अ"
       d="m 11.820313,15.054688 0.226562,3.085937 -0.445312,0.40625 L 9.7265625,18.242188 10,15.039063 v -0.6875 c -0.3281266,0.130209 -0.6588525,0.195312 -0.9921875,0.195312 -0.3645852,0 -0.7526021,-0.05989 -1.1640625,-0.179687 0.03125,0.130209 0.046875,0.26302 0.046875,0.398437 0,0.567711 -0.1497381,1.059894 -0.4492188,1.476562 C 7.1419256,16.658856 6.7447941,16.976561 6.25,17.195313 c -0.4947941,0.218751 -1.0416637,0.328125 -1.640625,0.328125 -0.7812539,0 -1.5338505,-0.177082 -2.2578125,-0.531251 -0.723962,-0.354168 -1.37499711,-0.867184 -1.953125,-1.539062 l 0.71875,-0.78125 c 0.4791691,0.458336 0.977862,0.804686 1.4960938,1.039063 0.5182317,0.234376 1.0065081,0.351562 1.4648437,0.351562 0.5416694,0 0.9817691,-0.143228 1.3203125,-0.429687 0.3385434,-0.28646 0.5078125,-0.687498 0.5078125,-1.203125 0,-0.25521 -0.088541,-0.494791 -0.265625,-0.71875 -0.1770842,-0.22396 -0.4348941,-0.398437 -0.7734375,-0.523438 -0.5000025,0.182293 -1.1249963,0.330729 -1.875,0.445313 L 2.53125,12.289063 2.765625,11.648438 c 1.9010512,-0.25521 2.8515625,-0.8151 2.8515625,-1.679688 0,-0.5104192 -0.3046845,-0.765625 -0.9140625,-0.765625 -0.3854186,0 -0.7903625,0.089843 -1.2148437,0.2695313 C 3.0638,9.6523446 2.6536478,9.9140608 2.2578125,10.257813 L 1.6328125,9.96875 1.0859375,8.3671875 C 2.122401,7.8984352 3.0781206,7.6640625 3.953125,7.6640625 c 1.0156301,0 1.8320282,0.2473934 2.4492187,0.7421875 0.6171906,0.4947941 0.9257813,1.1536417 0.9257813,1.976563 0,0.906254 -0.3828087,1.627601 -1.1484375,2.164062 0.8958378,0.28646 1.6614552,0.429688 2.296875,0.429688 0.5520861,0 1.0598935,-0.132812 1.5234375,-0.398438 V 9.421875 H 8.4140625 L 8.015625,8.2265625 8.1796875,7.7421875 h 5.2109375 l 0.398438,1.203125 -0.203125,0.4765625 h -1.765625 z" />
  </g>
</svg>
