<?xml version="1.0" encoding="UTF-8"?>
<svg width="24px" height="27px" viewBox="0 0 24 27" version="1.1" xmlns="http://www.w3.org/2000/svg" xmlns:xlink="http://www.w3.org/1999/xlink">
    <!-- Generator: Sketch 50.2 (55047) - http://www.bohemiancoding.com/sketch -->
    <title>help</title>
    <desc>Created with Sketch.</desc>
    <defs>
        <polygon id="path-1" points="0 0 9.97925532 0 9.97925532 10.428319 0 10.428319"></polygon>
    </defs>
    <g id="help" stroke="none" stroke-width="1" fill="none" fill-rule="evenodd">
        <g id="Page-1" transform="translate(6.000000, 7.000000)">
            <g id="Group-3" transform="translate(0.000000, 2.000000)">
                <mask id="mask-2" fill="white">
                    <use xlink:href="#path-1"></use>
                </mask>
                <g id="Clip-2"></g>
                <path d="M8.86579787,5.65019827 L8.86579787,7.50034854 L8.86579787,8.2898238 C8.86579787,8.44204362 8.87319149,8.59793205 8.85390957,8.74915133 L8.87369681,8.59973856 C8.85829787,8.70887992 8.83042553,8.81443604 8.78994681,8.91635133 C8.80824468,8.87057699 8.82654255,8.82485824 8.84484043,8.7791117 C8.80401596,8.87813657 8.75239362,8.97068577 8.69018617,9.05670372 C8.71896277,9.01726609 8.74773936,8.97782846 8.77651596,8.93841862 C8.71361702,9.02301915 8.64210106,9.09875386 8.56194149,9.16556715 C8.59992021,9.13468963 8.63789894,9.10386769 8.67585106,9.07296237 C8.59007979,9.14258271 8.49723404,9.20000213 8.3974734,9.24494269 C8.44337766,9.22487646 8.48930851,9.20483803 8.53521277,9.18485519 C8.43244681,9.22940665 8.32577128,9.25933923 8.21550532,9.27468072 C8.26484043,9.2680383 8.31420213,9.26139588 8.36356383,9.25472566 C8.23308511,9.27098431 8.09922872,9.26484215 7.96800532,9.26484215 L7.2437234,9.26484215 L4.98744681,9.26484215 L2.7343883,9.26484215 L2.01414894,9.26484215 C1.87893617,9.26484215 1.74114362,9.27109548 1.6068617,9.25239109 C1.65452128,9.25928364 1.70215426,9.2661762 1.74981383,9.27306875 C1.64539894,9.25697686 1.5443883,9.22787806 1.4468617,9.18555 C1.4906383,9.20469907 1.53441489,9.22379255 1.57819149,9.24294162 C1.48340426,9.20022447 1.39486702,9.14633471 1.3125266,9.08132793 C1.35026596,9.11137168 1.38800532,9.14141543 1.42574468,9.17148697 C1.34478723,9.10581316 1.27231383,9.0310512 1.20837766,8.94731223 L1.29696809,9.06634774 C1.23034574,8.97668896 1.17542553,8.87966516 1.13244681,8.7753875 C1.15159574,8.82341303 1.17077128,8.87138298 1.18994681,8.91938072 C1.14728723,8.81199029 1.11867021,8.70051436 1.10393617,8.58525864 C1.11031915,8.63684162 1.11667553,8.68839681 1.12303191,8.74000758 C1.1075,8.60365731 1.11340426,8.4637496 1.11340426,8.32664894 L1.11340426,7.56971875 L1.11340426,5.21190971 L1.11340426,2.85749136 L1.11340426,2.10481343 C1.11340426,1.96354388 1.10736702,1.81952287 1.12526596,1.67922606 C1.11867021,1.72903032 1.11207447,1.77880678 1.10547872,1.82861104 C1.12087766,1.71946968 1.14875,1.61391356 1.18920213,1.51199827 C1.17093085,1.55777261 1.15260638,1.60351915 1.13433511,1.64926569 C1.17515957,1.55021303 1.22672872,1.45766383 1.28896277,1.37164588 C1.26021277,1.41108351 1.23143617,1.45054894 1.20268617,1.48998657 C1.26553191,1.40535824 1.33707447,1.32959574 1.41723404,1.26281024 C1.37925532,1.29365997 1.3412766,1.32450971 1.30329787,1.35541503 C1.38912234,1.28579468 1.48196809,1.22837527 1.58172872,1.18343471 C1.53582447,1.20347314 1.48989362,1.22351157 1.44393617,1.24352221 C1.54672872,1.19897074 1.65337766,1.16906596 1.76369681,1.15369668 C1.71433511,1.1603113 1.6649734,1.16698152 1.6156383,1.17362394 C1.8299734,1.14694309 2.05369681,1.16353524 2.26885638,1.16353524 L3.43656915,1.16353524 L4.53856383,1.16353524 C4.84175532,1.16353524 5.09726064,0.904397473 5.09928191,0.585950399 C5.1012766,0.270671676 4.84981383,0 4.54656915,0 L2.7712766,0 L1.86611702,0 C1.71210106,0 1.56194149,0.0126456117 1.40893617,0.0407994681 C1.23218085,0.0732889628 1.05731383,0.15021875 0.901010638,0.239655186 C0.747367021,0.327563032 0.603457447,0.44804375 0.483856383,0.58150359 C0.159574468,0.943418218 0,1.41352926 0,1.90545745 L0,2.43501676 L0,4.58710532 L0,7.06761848 L0,8.52214176 C0,8.65065452 0.0146010638,8.77580439 0.0309574468,8.90384468 C0.054893617,9.0915 0.12662234,9.27365239 0.206462766,9.44174176 C0.284494681,9.60594016 0.398989362,9.75788205 0.521595745,9.88767327 C0.862473404,10.2485596 1.33625,10.4283218 1.81609043,10.4283218 L3.20795213,10.4283218 L5.58170213,10.4283218 L7.64106383,10.4283218 L8.14784574,10.4283218 C8.21167553,10.4283218 8.2750266,10.4273491 8.33875,10.4203453 C8.44917553,10.4082278 8.56026596,10.3940536 8.66787234,10.3644823 C8.77901596,10.3339383 8.88691489,10.2833003 8.99106383,10.2346355 C9.15183511,10.1595122 9.29797872,10.0411993 9.42702128,9.91824508 C9.68367021,9.67367061 9.87468085,9.31517447 9.93952128,8.9590129 C9.96824468,8.80129016 9.97925532,8.64631888 9.97925532,8.48728989 L9.97925532,7.54612287 L9.97925532,5.65925864 L9.97925532,5.65856383 C9.97925532,5.34170093 9.73125,5.07472566 9.42654255,5.07261343 C9.12481383,5.07052899 8.86579787,5.33333537 8.86579787,5.65019827" id="Fill-1" stroke="#D73449" fill="#D73449" mask="url(#mask-2)"></path>
            </g>
            <polygon stroke="#F0F0F0" stroke-width="0.3" fill="#D73449" points="7.24386684 -1.15463195e-14 7.24386684 1.70733675 9.51211268 1.70733675 6 5.80489117 7.024379 7 10.5366453 2.90253521 10.5366453 5.54882202 12 5.54882202 12 -1.15463195e-14"></polygon>
        </g>
    </g>
</svg>