<?xml version="1.0" encoding="UTF-8" standalone="no"?>
<svg
   xmlns:dc="http://purl.org/dc/elements/1.1/"
   xmlns:cc="http://creativecommons.org/ns#"
   xmlns:rdf="http://www.w3.org/1999/02/22-rdf-syntax-ns#"
   xmlns:svg="http://www.w3.org/2000/svg"
   xmlns="http://www.w3.org/2000/svg"
   xmlns:xlink="http://www.w3.org/1999/xlink"
   xmlns:sodipodi="http://sodipodi.sourceforge.net/DTD/sodipodi-0.dtd"
   xmlns:inkscape="http://www.inkscape.org/namespaces/inkscape"
   width="12.65"
   height="13.078321"
   viewBox="0 0 12.65 13.078321"
   version="1.1"
   id="svg19"
   sodipodi:docname="link-out_fit.svg"
   inkscape:version="0.92.4 (5da689c313, 2019-01-14)">
  <metadata
     id="metadata23">
    <rdf:RDF>
      <cc:Work
         rdf:about="">
        <dc:format>image/svg+xml</dc:format>
        <dc:type
           rdf:resource="http://purl.org/dc/dcmitype/StillImage" />
      </cc:Work>
    </rdf:RDF>
  </metadata>
  <sodipodi:namedview
     pagecolor="#ffffff"
     bordercolor="#666666"
     borderopacity="1"
     objecttolerance="10"
     gridtolerance="10"
     guidetolerance="10"
     inkscape:pageopacity="0"
     inkscape:pageshadow="2"
     inkscape:window-width="818"
     inkscape:window-height="480"
     id="namedview21"
     showgrid="false"
     inkscape:zoom="8.7407407"
     inkscape:cx="6.5"
     inkscape:cy="6.4283218"
     inkscape:window-x="1"
     inkscape:window-y="1"
     inkscape:window-maximized="0"
     inkscape:current-layer="svg19" />
  <!-- Generator: Sketch 50.2 (55047) - http://www.bohemiancoding.com/sketch -->
  <title
     id="title2">help</title>
  <desc
     id="desc4">Created with Sketch.</desc>
  <defs
     id="defs7">
    <polygon
       id="path-1"
       points="9.9792553,0 9.9792553,10.428319 0,10.428319 0,0 " />
  </defs>
  <g
     id="help"
     style="fill:none;fill-rule:evenodd;stroke:none;stroke-width:1"
     transform="translate(-5.5,-6.85)">
    <g
       id="Page-1"
       transform="translate(6,7)">
      <g
         id="Group-3"
         transform="translate(0,2)">
        <mask
           id="mask-2"
           fill="white">
          <use
             xlink:href="#path-1"
             id="use9"
             x="0"
             y="0"
             width="100%"
             height="100%" />
        </mask>
        <g
           id="Clip-2" />
        <path
           d="m 8.8657979,5.6501983 v 1.8501502 0.7894753 c 0,0.1522198 0.00739,0.3081083 -0.011888,0.4593275 l 0.019787,-0.1494127 c -0.015399,0.1091413 -0.043271,0.2146974 -0.08375,0.3166127 0.018298,-0.045774 0.036596,-0.091493 0.054894,-0.1372396 -0.040824,0.099025 -0.092447,0.1915741 -0.1546542,0.277592 0.028777,-0.039438 0.057553,-0.078875 0.08633,-0.1182851 -0.062899,0.084601 -0.1344149,0.1603353 -0.2145745,0.2271485 0.037979,-0.030878 0.075957,-0.061699 0.1139096,-0.092605 -0.085771,0.06962 -0.1786171,0.1270397 -0.2783777,0.1719803 0.045904,-0.020066 0.091835,-0.040105 0.1377394,-0.060087 -0.102766,0.044552 -0.2094415,0.074484 -0.3197075,0.089825 0.049335,-0.00664 0.098697,-0.013285 0.1480585,-0.019955 -0.1304787,0.016259 -0.2643351,0.010117 -0.3955585,0.010117 H 7.2437234 4.9874468 2.7343883 2.0141489 c -0.1352127,0 -0.2730053,0.00625 -0.4072872,-0.012451 0.04766,0.00689 0.095293,0.013785 0.1429521,0.020678 C 1.6453989,9.2569769 1.5443883,9.2278781 1.4468617,9.18555 1.4906387,9.204699 1.5344147,9.223793 1.5781915,9.242942 1.4834043,9.2002245 1.394867,9.1463347 1.3125266,9.0813279 1.350266,9.1113717 1.3880053,9.1414154 1.4257447,9.171487 1.3447872,9.1058132 1.2723138,9.0310512 1.2083777,8.9473122 l 0.08859,0.1190355 C 1.2303457,8.976689 1.1754255,8.8796652 1.1324468,8.7753875 c 0.019149,0.048025 0.038324,0.095995 0.0575,0.1439932 -0.04266,-0.1073904 -0.071277,-0.2188663 -0.086011,-0.3341221 0.00638,0.051583 0.012739,0.1031382 0.019096,0.154749 C 1.1075,8.6036573 1.1134043,8.4637496 1.1134043,8.3266489 V 7.5697187 5.2119097 2.8574914 2.1048134 c 0,-0.1412695 -0.00604,-0.2852905 0.011862,-0.4255873 -0.0066,0.049804 -0.013192,0.099581 -0.019787,0.1493849 0.015399,-0.1091413 0.043271,-0.2146974 0.083723,-0.3166127 -0.018271,0.045774 -0.036596,0.091521 -0.054867,0.1372674 0.040825,-0.099053 0.092394,-0.1916019 0.1546277,-0.2776198 -0.02875,0.039438 -0.057527,0.078903 -0.086277,0.1183407 0.062846,-0.084628 0.1343883,-0.1603909 0.2145478,-0.2271764 -0.037979,0.03085 -0.075957,0.061699 -0.1139361,0.092605 0.085824,-0.06962 0.1786702,-0.1270397 0.2784308,-0.1719803 -0.045904,0.020038 -0.091835,0.040077 -0.1377925,0.060087 0.1027925,-0.044551 0.2094415,-0.074456 0.3197606,-0.089825 -0.049362,0.00661 -0.098723,0.013285 -0.1480585,0.019927 0.2143351,-0.026681 0.4380585,-0.010089 0.6532181,-0.010089 H 3.436569 4.5385636 c 0.3031915,0 0.5586968,-0.25913773 0.5607181,-0.5775848 C 5.1012766,0.27067168 4.8498138,0 4.5465691,0 H 2.7712766 1.866117 C 1.7121011,0 1.5619415,0.01264561 1.4089362,0.04079947 1.2321808,0.07328896 1.0573138,0.15021875 0.90101064,0.23965519 0.74736702,0.32756303 0.60345745,0.44804375 0.48385638,0.58150359 0.15957447,0.94341822 0,1.4135293 0,1.9054574 V 2.4350168 4.5871053 7.0676185 8.5221418 C 0,8.6506545 0.01460106,8.7758044 0.03095745,8.9038447 0.05489362,9.0915 0.12662234,9.2736524 0.20646277,9.4417418 0.28449468,9.6059402 0.39898936,9.757882 0.52159575,9.8876733 0.8624734,10.24856 1.33625,10.428322 1.8160904,10.428322 h 1.3918617 2.37375 2.0593617 0.5067819 c 0.06383,0 0.1271809,-9.73e-4 0.1909043,-0.008 0.1104255,-0.01212 0.221516,-0.02629 0.3291223,-0.05586 0.1111437,-0.03054 0.2190426,-0.08118 0.3231915,-0.129846 0.1607713,-0.07512 0.3069149,-0.193437 0.4359575,-0.3163909 0.2566489,-0.2445745 0.4476596,-0.6030706 0.5125,-0.9592322 0.028723,-0.1577227 0.039734,-0.312694 0.039734,-0.471723 V 7.5461229 5.6592586 5.6585638 C 9.9792553,5.3417009 9.73125,5.0747257 9.4265426,5.0726134 9.1248138,5.070529 8.8657979,5.3333354 8.8657979,5.6501983"
           id="Fill-1"
           mask="url(#mask-2)"
           inkscape:connector-curvature="0"
           style="fill:#d73449;stroke:#d73449" />
      </g>
      <polygon
         points="9.5121127,1.7073368 6,5.8048912 7.024379,7 10.536645,2.9025352 10.536645,5.548822 12,5.548822 12,-1.154632e-14 7.2438668,-1.154632e-14 7.2438668,1.7073368 "
         id="polygon15"
         style="fill:#d73449;stroke:#f0f0f0;stroke-width:0.30000001" />
    </g>
  </g>
</svg>
