<?xml version="1.0" encoding="UTF-8"?>
<svg width="50px" height="50px" viewBox="0 0 50 50" version="1.1" xmlns="http://www.w3.org/2000/svg" xmlns:xlink="http://www.w3.org/1999/xlink">
    <!-- Generator: Sketch 61 (89581) - https://sketch.com -->
    <title>Group</title>
    <desc>Created with Sketch.</desc>
    <g id="Symbols" stroke="none" stroke-width="1" fill="none" fill-rule="evenodd">
        <g id="footersmall" transform="translate(-513.000000, -226.000000)">
            <g id="footer" transform="translate(0.000000, -98.000000)">
                <g id="Group-5" transform="translate(0.000000, 154.000000)">
                    <g id="Group" transform="translate(514.000000, 171.000000)">
                        <circle id="Oval-4" stroke="#FFFFFF" cx="24" cy="24" r="24"></circle>
                        <path d="M30.5764453,20.3636658 L22.0311252,28.9116466 L19.0614439,25.9407516 L27.6094246,17.3940311 C28.4005897,16.6002987 29.7853736,16.6016057 30.5777523,17.3940311 C30.9753187,17.7915042 31.1923301,18.3185119 31.1923301,18.879502 C31.1923301,19.4404921 30.9753187,19.9674531 30.5764453,20.3636658 L30.5764453,20.3636658 Z M18.4194187,27.1489482 L20.8228352,29.5524114 L17.1967982,30.7750319 L18.4194187,27.1489482 Z M31.5009727,16.4695037 C30.2168757,15.1841464 27.9716549,15.1828394 26.6836369,16.4695037 L17.6740926,25.4791414 C17.60216,25.5497669 17.5485257,25.637337 17.5184643,25.7314889 L15.5360938,31.6080215 C15.4537051,31.8446848 15.5151815,32.1036141 15.6917221,32.280108 C15.8171957,32.4056749 15.9832801,32.4710257 16.1545926,32.4710257 C16.2265252,32.4710257 16.2945368,32.4592626 16.3638086,32.4370433 L22.2403412,30.4546728 C22.3344931,30.4233044 22.4221098,30.3696701 22.4926887,30.2977375 L31.5009727,21.2881932 C32.1456118,20.6447677 32.5,19.7896055 32.5,18.879502 C32.5,17.9693984 32.1456118,17.1141896 31.5009727,16.4695037 L31.5009727,16.4695037 Z" id="Fill-1" fill="#FFFFFF"></path>
                    </g>
                </g>
            </g>
        </g>
    </g>
</svg>