<?xml version="1.0" encoding="UTF-8" standalone="no"?>
<svg
   xmlns:dc="http://purl.org/dc/elements/1.1/"
   xmlns:cc="http://creativecommons.org/ns#"
   xmlns:rdf="http://www.w3.org/1999/02/22-rdf-syntax-ns#"
   xmlns:svg="http://www.w3.org/2000/svg"
   xmlns="http://www.w3.org/2000/svg"
   xmlns:sodipodi="http://sodipodi.sourceforge.net/DTD/sodipodi-0.dtd"
   xmlns:inkscape="http://www.inkscape.org/namespaces/inkscape"
   width="28.9"
   height="28.9"
   viewBox="0 0 28.9 28.899999"
   version="1.1"
   id="svg11"
   sodipodi:docname="PLINK_small.svg"
   inkscape:version="0.92.4 (5da689c313, 2019-01-14)">
  <metadata
     id="metadata15">
    <rdf:RDF>
      <cc:Work
         rdf:about="">
        <dc:format>image/svg+xml</dc:format>
        <dc:type
           rdf:resource="http://purl.org/dc/dcmitype/StillImage" />
        <dc:title>history</dc:title>
        <dc:title>history</dc:title>
      </cc:Work>
    </rdf:RDF>
  </metadata>
  <sodipodi:namedview
     pagecolor="#ffffff"
     bordercolor="#666666"
     borderopacity="1"
     objecttolerance="10"
     gridtolerance="10"
     guidetolerance="10"
     inkscape:pageopacity="0"
     inkscape:pageshadow="2"
     inkscape:window-width="1132"
     inkscape:window-height="480"
     id="namedview13"
     showgrid="false"
     inkscape:zoom="4.17193"
     inkscape:cx="4.826915"
     inkscape:cy="34.140368"
     inkscape:window-x="1"
     inkscape:window-y="1"
     inkscape:window-maximized="0"
     inkscape:current-layer="history"
     fit-margin-top="0.2"
     fit-margin-left="0.2"
     fit-margin-right="0.2"
     fit-margin-bottom="0.2" />
  <!-- Generator: Sketch 50.2 (55047) - http://www.bohemiancoding.com/sketch -->
  <title
     id="title2">history</title>
  <desc
     id="desc4">Created with Sketch.</desc>
  <defs
     id="defs6" />
  <g
     id="history"
     style="fill:none;fill-rule:evenodd;stroke:none;stroke-width:1"
     transform="translate(-11.05,-6.05)">
    <circle
       id="Oval-8"
       cx="25.5"
       cy="20.5"
       r="13.5"
       style="stroke:#152631;stroke-width:1.5" />
    <path
       d="m 24.356923,17.093242 c -1.362697,1.239176 -1.362697,3.25099 0,4.490166 0.158142,0.147916 0.418154,0.151279 0.580815,0.0074 0.162866,-0.143808 0.166358,-0.380438 0.0083,-0.528354 -0.0027,-0.0024 -0.0053,-0.0049 -0.0083,-0.0074 -1.05093,-0.955668 -1.05093,-2.47779 0,-3.433458 l 2.904486,-2.641208 c 1.05093,-0.955855 2.724985,-0.955855 3.775915,0 1.05093,0.955482 1.05093,2.47779 0,3.433458 l -2.759283,2.509166 c -0.162661,0.143808 -0.166357,0.380251 -0.0083,0.528168 0.158347,0.147916 0.418359,0.151465 0.580814,0.0077 0.0029,-0.0027 0.0057,-0.005 0.0084,-0.0077 l 2.759283,-2.50898 c 1.362697,-1.239175 1.362697,-3.250991 0,-4.490166 -1.362902,-1.239176 -3.575053,-1.239176 -4.93775,0 z m -5.518566,5.018333 c -1.362697,1.239175 -1.362697,3.250991 0,4.490166 1.362698,1.238988 3.575053,1.238988 4.937544,0 l 2.904693,-2.641208 c 1.362697,-1.239176 1.362697,-3.250992 0,-4.490166 -0.158348,-0.14773 -0.41836,-0.151092 -0.581021,-0.0073 -0.162455,0.143994 -0.166152,0.380623 -0.0078,0.528354 0.0025,0.0024 0.0052,0.0049 0.0078,0.0073 1.050931,0.955482 1.050931,2.47779 0,3.433458 l -2.904486,2.641208 c -1.05093,0.955855 -2.724985,0.955855 -3.775915,0 -1.05093,-0.955668 -1.05093,-2.47779 0,-3.433458 l 2.759283,-2.509167 c 0.162867,-0.143807 0.166358,-0.380437 0.0083,-0.528353 -0.158142,-0.147918 -0.418359,-0.151279 -0.58102,-0.0073 l -0.008,0.0073 z"
       id="Line-7"
       inkscape:connector-curvature="0"
       style="stroke:#4a4a4a;stroke-width:1.40044081;stroke-linecap:square" />
  </g>
</svg>
