<?xml version="1.0" encoding="UTF-8" standalone="no"?>
<svg
   xmlns:dc="http://purl.org/dc/elements/1.1/"
   xmlns:cc="http://creativecommons.org/ns#"
   xmlns:rdf="http://www.w3.org/1999/02/22-rdf-syntax-ns#"
   xmlns:svg="http://www.w3.org/2000/svg"
   xmlns="http://www.w3.org/2000/svg"
   xmlns:sodipodi="http://sodipodi.sourceforge.net/DTD/sodipodi-0.dtd"
   xmlns:inkscape="http://www.inkscape.org/namespaces/inkscape"
   width="28.9"
   height="28.9"
   viewBox="0 0 28.9 28.899999"
   version="1.1"
   id="svg11"
   sodipodi:docname="PLINK.svg"
   inkscape:version="0.92.4 (5da689c313, 2019-01-14)">
  <metadata
     id="metadata15">
    <rdf:RDF>
      <cc:Work
         rdf:about="">
        <dc:format>image/svg+xml</dc:format>
        <dc:type
           rdf:resource="http://purl.org/dc/dcmitype/StillImage" />
        <dc:title>history</dc:title>
        <dc:title>history</dc:title>
      </cc:Work>
    </rdf:RDF>
  </metadata>
  <sodipodi:namedview
     pagecolor="#ffffff"
     bordercolor="#666666"
     borderopacity="1"
     objecttolerance="10"
     gridtolerance="10"
     guidetolerance="10"
     inkscape:pageopacity="0"
     inkscape:pageshadow="2"
     inkscape:window-width="1132"
     inkscape:window-height="480"
     id="namedview13"
     showgrid="false"
     inkscape:zoom="5.9"
     inkscape:cx="-19.516102"
     inkscape:cy="13.085592"
     inkscape:window-x="1"
     inkscape:window-y="1"
     inkscape:window-maximized="0"
     inkscape:current-layer="history"
     fit-margin-top="0.2"
     fit-margin-left="0.2"
     fit-margin-right="0.2"
     fit-margin-bottom="0.2" />
  <!-- Generator: Sketch 50.2 (55047) - http://www.bohemiancoding.com/sketch -->
  <title
     id="title2">history</title>
  <desc
     id="desc4">Created with Sketch.</desc>
  <defs
     id="defs6" />
  <g
     id="history"
     style="fill:none;fill-rule:evenodd;stroke:none;stroke-width:1"
     transform="translate(-11.05,-6.05)">
    <circle
       id="Oval-8"
       cx="25.5"
       cy="20.5"
       r="13.5"
       style="stroke:#152631;stroke-width:1.5" />
    <path
       d="m 24.689128,18.075042 c -0.973049,0.884847 -0.973049,2.321405 0,3.206252 0.112923,0.105621 0.298587,0.108022 0.414737,0.0053 0.116296,-0.102688 0.11879,-0.271656 0.0059,-0.377277 -0.0019,-0.0017 -0.0038,-0.0035 -0.0059,-0.0053 -0.750428,-0.682405 -0.750428,-1.769293 0,-2.451698 l 2.07398,-1.885983 c 0.750428,-0.682539 1.945805,-0.682539 2.696233,0 0.750428,0.682272 0.750428,1.769293 0,2.451698 l -1.970296,1.791697 c -0.11615,0.102688 -0.118789,0.271522 -0.0059,0.377144 0.11307,0.105621 0.298734,0.108155 0.414737,0.0055 0.0021,-0.0019 0.0041,-0.0036 0.006,-0.0055 l 1.970296,-1.791564 c 0.973049,-0.884847 0.973049,-2.321406 0,-3.206252 -0.973195,-0.884847 -2.552805,-0.884847 -3.525854,0 z m -3.940592,3.583395 c -0.973049,0.884847 -0.973049,2.321406 0,3.206252 0.973049,0.884713 2.552805,0.884713 3.525707,0 l 2.074127,-1.885983 c 0.973049,-0.884847 0.973049,-2.321406 0,-3.206252 -0.11307,-0.105488 -0.298734,-0.107889 -0.414884,-0.0052 -0.116003,0.102821 -0.118643,0.271788 -0.0056,0.377277 0.0018,0.0017 0.0037,0.0035 0.0056,0.0052 0.750429,0.682272 0.750429,1.769293 0,2.451698 l -2.07398,1.885983 c -0.750428,0.682539 -1.945805,0.682539 -2.696233,0 -0.750428,-0.682405 -0.750428,-1.769293 0,-2.451698 l 1.970296,-1.791698 c 0.116297,-0.102687 0.11879,-0.271655 0.0059,-0.377276 -0.112923,-0.105622 -0.298734,-0.108022 -0.414884,-0.0052 l -0.0057,0.0052 z"
       id="Line-7"
       inkscape:connector-curvature="0"
       style="stroke:#4a4a4a;stroke-linecap:square" />
  </g>
</svg>
