<?xml version="1.0" encoding="UTF-8"?>
<svg width="50px" height="50px" viewBox="0 0 50 50" version="1.1" xmlns="http://www.w3.org/2000/svg" xmlns:xlink="http://www.w3.org/1999/xlink">
    <!-- Generator: Sketch 61 (89581) - https://sketch.com -->
    <title>Group 3</title>
    <desc>Created with Sketch.</desc>
    <g id="Symbols" stroke="none" stroke-width="1" fill="none" fill-rule="evenodd">
        <g id="footersmall" transform="translate(-183.000000, -225.000000)" stroke="#FFFFFF">
            <g id="footer" transform="translate(0.000000, -98.000000)">
                <g id="Group-5" transform="translate(0.000000, 154.000000)">
                    <g id="Group-3" transform="translate(184.000000, 170.000000)">
                        <path d="M17.999951,29.8195064 L17.999951,15.1805927 C17.999951,15.050198 18.1118733,14.944494 18.2500437,14.944494 L26.7499423,14.944494 C26.8880077,14.944494 27.000035,15.050198 27.000035,15.1805927 L27.000035,18.2499752 C27.000035,18.5107646 27.2238796,18.7222718 27.4999055,18.7222718 L30.7500612,18.7222718 C30.8880217,18.7222718 30.999951,18.8278766 30.999951,18.9583705 L30.999951,29.8195064 C30.999951,29.949802 30.8880217,30.0556051 30.7500612,30.0556051 L18.2500437,30.0556051 C18.1118733,30.0556051 17.999951,29.949802 17.999951,29.8195064 L17.999951,29.8195064 Z M27.999986,16.0825473 C27.999986,15.8228487 28.159995,15.761469 28.3549665,15.9456081 L29.9400421,17.4425196 C30.1350137,17.6266587 30.0700232,17.7777778 29.7950471,17.7777778 L28.2499738,17.7777778 C28.1119083,17.7777778 27.999986,17.6720738 27.999986,17.5416791 L27.999986,16.0825473 Z M28.0599369,14.3353574 C27.8235982,14.1348569 27.522059,14.0166588 27.2049809,14 L17.4999755,14 C17.2237396,14 17,14.2115072 17,14.4722966 L17,30.5278026 C17,30.788592 17.2237396,31 17.4999755,31 L31.4999195,31 C31.7761554,31 32,30.788592 32,30.5278026 L32,18.5286133 C31.9824662,18.2291517 31.8571049,17.9442665 31.6450195,17.7211577 L28.0599369,14.3353574 Z" id="Fill-1" stroke-width="0.5" fill="#FFFFFF"></path>
                        <circle id="Oval-4" cx="24" cy="24" r="24"></circle>
                    </g>
                </g>
            </g>
        </g>
    </g>
</svg>