<?xml version="1.0" encoding="UTF-8" standalone="no"?>
<svg
   xmlns:dc="http://purl.org/dc/elements/1.1/"
   xmlns:cc="http://creativecommons.org/ns#"
   xmlns:rdf="http://www.w3.org/1999/02/22-rdf-syntax-ns#"
   xmlns:svg="http://www.w3.org/2000/svg"
   xmlns="http://www.w3.org/2000/svg"
   xmlns:xlink="http://www.w3.org/1999/xlink"
   xmlns:sodipodi="http://sodipodi.sourceforge.net/DTD/sodipodi-0.dtd"
   xmlns:inkscape="http://www.inkscape.org/namespaces/inkscape"
   width="37px"
   height="27px"
   viewBox="0 0 37 27"
   version="1.1"
   id="svg1322"
   sodipodi:docname="rec.svg"
   inkscape:version="0.92.4 (5da689c313, 2019-01-14)">
  <metadata
     id="metadata1326">
    <rdf:RDF>
      <cc:Work
         rdf:about="">
        <dc:format>image/svg+xml</dc:format>
        <dc:type
           rdf:resource="http://purl.org/dc/dcmitype/StillImage" />
      </cc:Work>
    </rdf:RDF>
  </metadata>
  <sodipodi:namedview
     pagecolor="#ffffff"
     bordercolor="#666666"
     borderopacity="1"
     objecttolerance="10"
     gridtolerance="10"
     guidetolerance="10"
     inkscape:pageopacity="0"
     inkscape:pageshadow="2"
     inkscape:window-width="1918"
     inkscape:window-height="1054"
     id="namedview1324"
     showgrid="false"
     inkscape:zoom="16.444444"
     inkscape:cx="18.5"
     inkscape:cy="9.1327362"
     inkscape:window-x="1"
     inkscape:window-y="1"
     inkscape:window-maximized="1"
     inkscape:current-layer="svg1322" />
  <!-- Generator: Sketch 50.2 (55047) - http://www.bohemiancoding.com/sketch -->
  <title
     id="title1266">BDRC - browe collection - white</title>
  <desc
     id="desc1268">Created with Sketch.</desc>
  <defs
     id="defs1275">
    <polygon
       id="path-1"
       points="0 0.294575836 2.45826149 0.294575836 2.45826149 2.75297677 0 2.75297677" />
    <polygon
       id="path-3"
       points="0 0.330691879 2.45826149 0.330691879 2.45826149 2.7883956 0 2.7883956" />
    <polygon
       id="path-5"
       points="0 0.258668959 2.45826149 0.258668959 2.45826149 2.71693045 0 2.71693045" />
    <polygon
       id="path-7"
       points="0 0.258668959 2.45826149 0.258668959 2.45826149 2.71693045 0 2.71693045" />
    <polygon
       id="path-9"
       points="0 0.258668959 2.45826149 0.258668959 2.45826149 2.71693045 0 2.71693045" />
  </defs>
  <g
     style="fill:none;fill-rule:evenodd;stroke:none;stroke-width:1"
     transform="translate(6.034258,16.42789)"
     id="Group-6">
    <mask
       fill="white"
       id="mask-4">
      <use
         height="100%"
         width="100%"
         y="0"
         x="0"
         id="use1283"
         xlink:href="#path-3" />
    </mask>
    <g
       id="Clip-5" />
  </g>
  <path
     style="fill:#d73449;fill-rule:evenodd;stroke:none;stroke-width:0.83857679"
     inkscape:connector-curvature="0"
     id="Fill-7"
     d="m 12.902885,6.0551918 h 16.388176 c 0.452497,0 0.819235,-0.2578943 0.819235,-0.5760948 0,-0.3182005 -0.366738,-0.5765851 -0.819235,-0.5765851 H 12.902885 c -0.452497,0 -0.819235,0.2583846 -0.819235,0.5765851 0,0.3182005 0.366738,0.5760948 0.819235,0.5760948" />
  <path
     style="fill:#d73449;fill-rule:evenodd;stroke:none;stroke-width:0.78600997"
     inkscape:connector-curvature="0"
     id="Fill-7-3-6-7-3-5"
     d="M 30.353367,20.057094 V 5.6591258 c 0,-0.3975449 -0.257894,-0.7197456 -0.576095,-0.7197456 -0.3182,0 -0.576585,0.3222007 -0.576585,0.7197456 V 20.057094 c 0,0.397544 0.258385,0.719744 0.576585,0.719744 0.318201,0 0.576095,-0.3222 0.576095,-0.719744" />
  <path
     style="fill:#d73449;fill-rule:evenodd;stroke:none;stroke-width:0.84430093"
     inkscape:connector-curvature="0"
     id="Fill-7-3-6-7-3-5-6"
     d="M 13.407421,20.019316 V 5.6766321 c 0,-0.3960186 -0.298711,-0.716982 -0.667273,-0.716982 -0.368561,0 -0.667839,0.3209634 -0.667839,0.716982 V 20.019316 c 0,0.396018 0.299278,0.716982 0.667839,0.716982 0.368562,0 0.667273,-0.320964 0.667273,-0.716982" />
  <path
     style="fill:#d73449;fill-rule:evenodd;stroke:none;stroke-width:0.88615793"
     inkscape:connector-curvature="0"
     id="Fill-7-2"
     d="m 12.976365,20.95472 h 16.554027 c 0.457076,0 0.827525,-0.285105 0.827525,-0.63688 0,-0.351774 -0.370449,-0.637422 -0.827525,-0.637422 H 12.976365 c -0.457077,0 -0.827526,0.285648 -0.827526,0.637422 0,0.351775 0.370449,0.63688 0.827526,0.63688" />
  <path
     style="fill:#d73449;fill-rule:evenodd;stroke:none;stroke-width:0.94271111"
     inkscape:connector-curvature="0"
     id="Fill-7-2-9"
     d="M 12.968074,10.610125 H 29.35625 c 0.452497,0 0.819235,-0.32592 0.819235,-0.7280572 0,-0.4021354 -0.366738,-0.7286774 -0.819235,-0.7286774 H 12.968074 c -0.452497,0 -0.819235,0.326542 -0.819235,0.7286774 0,0.4021372 0.366738,0.7280572 0.819235,0.7280572" />
  <path
     style="fill:#d73449;fill-rule:evenodd;stroke:none;stroke-width:0.43300119"
     inkscape:connector-curvature="0"
     id="Fill-7-3-6-7-3-5-1"
     d="M 24.779042,10.181384 V 5.5686177 c 0,-0.1273639 -0.244289,-0.2305893 -0.545703,-0.2305893 -0.301413,0 -0.546166,0.1032254 -0.546166,0.2305893 v 4.6127663 c 0,0.127363 0.244753,0.230589 0.546166,0.230589 0.301414,0 0.545703,-0.103226 0.545703,-0.230589" />
  <path
     style="fill:#d73449;fill-rule:evenodd;stroke:none;stroke-width:0.41166216"
     inkscape:connector-curvature="0"
     id="Fill-7-3-6-7-3-5-1-2"
     d="M 19.306069,9.7888708 V 5.8395086 c 0,-0.1090465 -0.257894,-0.1974262 -0.576095,-0.1974262 -0.3182,0 -0.576585,0.08838 -0.576585,0.1974262 v 3.9493622 c 0,0.109047 0.258385,0.197426 0.576585,0.197426 0.318201,0 0.576095,-0.08838 0.576095,-0.197426" />
</svg>
