<?xml version="1.0" encoding="UTF-8" standalone="no"?>
<!-- Created with Inkscape (http://www.inkscape.org/) -->

<svg
   xmlns:dc="http://purl.org/dc/elements/1.1/"
   xmlns:cc="http://creativecommons.org/ns#"
   xmlns:rdf="http://www.w3.org/1999/02/22-rdf-syntax-ns#"
   xmlns:svg="http://www.w3.org/2000/svg"
   xmlns="http://www.w3.org/2000/svg"
   xmlns:sodipodi="http://sodipodi.sourceforge.net/DTD/sodipodi-0.dtd"
   xmlns:inkscape="http://www.inkscape.org/namespaces/inkscape"
   width="17.979443mm"
   height="27.562775mm"
   viewBox="0 0 17.979443 27.562775"
   version="1.1"
   id="svg4913"
   inkscape:version="0.92.4 (5da689c313, 2019-01-14)"
   sodipodi:docname="sealed.svg">
  <defs
     id="defs4907" />
  <sodipodi:namedview
     id="base"
     pagecolor="#ffffff"
     bordercolor="#666666"
     borderopacity="1.0"
     inkscape:pageopacity="0.0"
     inkscape:pageshadow="2"
     inkscape:zoom="1.4"
     inkscape:cx="-315.43098"
     inkscape:cy="140.65853"
     inkscape:document-units="mm"
     inkscape:current-layer="layer1"
     showgrid="false"
     fit-margin-top="1"
     fit-margin-right="1"
     fit-margin-bottom="1"
     fit-margin-left="1"
     inkscape:window-width="1918"
     inkscape:window-height="1054"
     inkscape:window-x="1"
     inkscape:window-y="1"
     inkscape:window-maximized="1" />
  <metadata
     id="metadata4910">
    <rdf:RDF>
      <cc:Work
         rdf:about="">
        <dc:format>image/svg+xml</dc:format>
        <dc:type
           rdf:resource="http://purl.org/dc/dcmitype/StillImage" />
        <dc:title></dc:title>
      </cc:Work>
    </rdf:RDF>
  </metadata>
  <g
     inkscape:label="Calque 1"
     inkscape:groupmode="layer"
     id="layer1"
     transform="translate(-117.25433,-158.48647)">
    <g
       id="g264"
       transform="matrix(0.35277777,0,0,-0.35277777,119.86253,177.05131)">
      <path
         d="M 0,0 C 0.026,10.024 8.19,18.146 18.184,18.088 28.19,18.031 36.225,9.876 36.185,-0.181 36.145,-10.125 28.037,-18.185 18.083,-18.178 8.067,-18.17 -0.025,-10.035 0,0 m 14.059,-22.343 c 0.356,-0.067 0.756,-0.003 1.032,-0.328 h 6.057 c 0.623,0.493 1.412,0.397 2.117,0.564 15.333,3.658 22.37,21.258 13.728,34.45 -0.585,0.894 -0.826,1.76 -0.818,2.813 0.035,5.578 0.058,11.159 0.002,16.739 C 36.093,40.209 30.449,47.271 22.376,49.268 12.095,51.809 1.662,44.795 0.163,34.313 0.045,33.489 -0.1,32.643 0.169,31.75 1.555,31.56 2.916,31.609 4.204,31.7 c 0.427,0.34 0.319,0.742 0.35,1.096 0.648,7.263 6.728,12.655 14.05,12.448 7.11,-0.201 12.949,-6.11 13.062,-13.305 0.067,-4.251 0.018,-8.503 0.016,-12.754 0,-0.254 0.054,-0.527 -0.168,-0.776 -0.516,-0.056 -0.835,0.358 -1.219,0.602 -13.811,8.778 -32.051,0.632 -34.57,-15.54 -1.972,-12.649 6.594,-23.664 18.334,-25.814"
         style="fill:#110f0d;fill-opacity:1;fill-rule:evenodd;stroke:none"
         id="path266"
         inkscape:connector-curvature="0" />
    </g>
    <g
       id="g268"
       transform="matrix(0.35277777,0,0,-0.35277777,126.24629,183.46421)">
      <path
         d="m 0,0 c -9.954,-0.007 -18.062,8.054 -18.102,17.997 -0.04,10.057 7.995,18.212 18.001,18.27 C 9.893,36.324 18.057,28.203 18.083,18.178 18.108,8.143 10.016,0.008 0,0 m 22.358,21.649 c -2.519,16.172 -20.759,24.318 -34.571,15.54 -0.383,-0.244 -0.702,-0.658 -1.218,-0.602 -0.222,0.249 -0.168,0.522 -0.168,0.776 -0.002,4.251 -0.051,8.504 0.016,12.754 0.113,7.195 5.952,13.104 13.062,13.305 7.322,0.207 13.402,-5.185 14.05,-12.447 0.03,-0.354 -0.078,-0.757 0.35,-1.097 1.288,-0.09 2.649,-0.14 4.035,0.05 0.269,0.893 0.124,1.739 0.006,2.563 -1.499,10.482 -11.932,17.496 -22.213,14.955 -8.074,-1.997 -13.718,-9.058 -13.801,-17.373 -0.056,-5.58 -0.033,-11.16 0.002,-16.739 0.008,-1.053 -0.234,-1.919 -0.818,-2.813 -8.642,-13.191 -1.605,-30.792 13.728,-34.45 0.704,-0.167 1.494,-0.071 2.116,-0.564 h 6.058 c 0.276,0.325 0.676,0.262 1.032,0.328 C 15.764,-2.015 24.33,9 22.358,21.649"
         style="fill:#110f0d;fill-opacity:1;fill-rule:evenodd;stroke:none"
         id="path270"
         inkscape:connector-curvature="0" />
    </g>
    <g
       id="g272"
       transform="matrix(0.35277777,0,0,-0.35277777,126.24491,179.61223)">
      <path
         d="m 0,0 c -0.207,0 -0.375,-0.168 -0.375,-0.375 v -2.694 c 0,-0.207 0.168,-0.375 0.375,-0.375 0.207,0 0.375,0.168 0.375,0.375 v 2.694 C 0.375,-0.167 0.207,0 0,0"
         style="fill:#231f20;fill-opacity:1;fill-rule:nonzero;stroke:none"
         id="path274"
         inkscape:connector-curvature="0" />
    </g>
    <g
       id="g276"
       transform="matrix(0.35277777,0,0,-0.35277777,126.24491,179.61223)">
      <path
         d="m 0,0 c -0.207,0 -0.375,-0.168 -0.375,-0.375 v -2.694 c 0,-0.207 0.168,-0.375 0.375,-0.375 0.207,0 0.375,0.168 0.375,0.375 v 2.694 C 0.375,-0.167 0.207,0 0,0 Z"
         style="fill:none;stroke:#110f0e;stroke-width:0.40000001;stroke-linecap:butt;stroke-linejoin:miter;stroke-miterlimit:10;stroke-dasharray:none;stroke-opacity:1"
         id="path278"
         inkscape:connector-curvature="0" />
    </g>
    <g
       id="g280"
       transform="matrix(0.35277777,0,0,-0.35277777,126.24491,178.4819)">
      <path
         d="m 0,0 c -1.531,0 -2.777,-1.246 -2.777,-2.778 v -3.073 c 0,-0.207 0.168,-0.375 0.375,-0.375 0.207,0 0.375,0.168 0.375,0.375 v 3.073 c 0,1.118 0.909,2.028 2.027,2.028 1.119,0 2.028,-0.91 2.028,-2.028 v -3.073 c 0,-0.207 0.168,-0.375 0.375,-0.375 0.207,0 0.375,0.168 0.375,0.375 v 3.073 C 2.778,-1.246 1.532,0 0,0"
         style="fill:#231f20;fill-opacity:1;fill-rule:nonzero;stroke:none"
         id="path282"
         inkscape:connector-curvature="0" />
    </g>
    <g
       id="g284"
       transform="matrix(0.35277777,0,0,-0.35277777,126.24491,178.4819)">
      <path
         d="m 0,0 c -1.531,0 -2.777,-1.246 -2.777,-2.778 v -3.073 c 0,-0.207 0.168,-0.375 0.375,-0.375 0.207,0 0.375,0.168 0.375,0.375 v 3.073 c 0,1.118 0.909,2.028 2.027,2.028 1.119,0 2.028,-0.91 2.028,-2.028 v -3.073 c 0,-0.207 0.168,-0.375 0.375,-0.375 0.207,0 0.375,0.168 0.375,0.375 v 3.073 C 2.778,-1.246 1.532,0 0,0 Z"
         style="fill:none;stroke:#110f0e;stroke-width:0.40000001;stroke-linecap:butt;stroke-linejoin:miter;stroke-miterlimit:10;stroke-dasharray:none;stroke-opacity:1"
         id="path286"
         inkscape:connector-curvature="0" />
    </g>
    <g
       id="g288"
       transform="matrix(0.35277777,0,0,-0.35277777,126.24491,177.55688)">
      <path
         d="m 0,0 c -2.736,0 -4.963,-2.226 -4.963,-4.963 v -2.284 c 0,-0.207 0.168,-0.375 0.375,-0.375 0.207,0 0.375,0.168 0.375,0.375 v 2.284 c 0,2.323 1.891,4.213 4.213,4.213 2.323,0 4.213,-1.89 4.213,-4.213 v -2.284 c 0,-0.207 0.168,-0.375 0.375,-0.375 0.207,0 0.375,0.168 0.375,0.375 v 2.284 C 4.963,-2.227 2.737,0 0,0"
         style="fill:#231f20;fill-opacity:1;fill-rule:nonzero;stroke:none"
         id="path290"
         inkscape:connector-curvature="0" />
    </g>
    <g
       id="g292"
       transform="matrix(0.35277777,0,0,-0.35277777,126.24491,177.55688)">
      <path
         d="m 0,0 c -2.736,0 -4.963,-2.226 -4.963,-4.963 v -2.284 c 0,-0.207 0.168,-0.375 0.375,-0.375 0.207,0 0.375,0.168 0.375,0.375 v 2.284 c 0,2.323 1.891,4.213 4.213,4.213 2.323,0 4.213,-1.89 4.213,-4.213 v -2.284 c 0,-0.207 0.168,-0.375 0.375,-0.375 0.207,0 0.375,0.168 0.375,0.375 v 2.284 C 4.963,-2.227 2.737,0 0,0 Z"
         style="fill:none;stroke:#110f0e;stroke-width:0.40000001;stroke-linecap:butt;stroke-linejoin:miter;stroke-miterlimit:10;stroke-dasharray:none;stroke-opacity:1"
         id="path294"
         inkscape:connector-curvature="0" />
    </g>
    <g
       id="g296"
       transform="matrix(0.35277777,0,0,-0.35277777,126.24491,176.63207)">
      <path
         d="m 0,0 c -3.82,0 -6.929,-3.108 -6.929,-6.929 0,-0.207 0.168,-0.375 0.375,-0.375 0.207,0 0.375,0.168 0.375,0.375 0,3.407 2.772,6.179 6.179,6.179 3.407,0 6.18,-2.772 6.18,-6.179 0,-0.207 0.168,-0.375 0.375,-0.375 0.207,0 0.375,0.168 0.375,0.375 C 6.93,-3.108 3.821,0 0,0"
         style="fill:#231f20;fill-opacity:1;fill-rule:nonzero;stroke:none"
         id="path298"
         inkscape:connector-curvature="0" />
    </g>
    <g
       id="g300"
       transform="matrix(0.35277777,0,0,-0.35277777,126.24491,176.63207)">
      <path
         d="m 0,0 c -3.82,0 -6.929,-3.108 -6.929,-6.929 0,-0.207 0.168,-0.375 0.375,-0.375 0.207,0 0.375,0.168 0.375,0.375 0,3.407 2.772,6.179 6.179,6.179 3.407,0 6.18,-2.772 6.18,-6.179 0,-0.207 0.168,-0.375 0.375,-0.375 0.207,0 0.375,0.168 0.375,0.375 C 6.93,-3.108 3.821,0 0,0 Z"
         style="fill:none;stroke:#110f0e;stroke-width:0.40000001;stroke-linecap:butt;stroke-linejoin:miter;stroke-miterlimit:10;stroke-dasharray:none;stroke-opacity:1"
         id="path302"
         inkscape:connector-curvature="0" />
    </g>
    <g
       id="g304"
       transform="matrix(0.35277777,0,0,-0.35277777,126.24491,175.70723)">
      <path
         d="m 0,0 c -3.82,0 -7.291,-2.402 -8.635,-5.978 -0.073,-0.194 0.025,-0.41 0.219,-0.483 0.193,-0.073 0.41,0.025 0.482,0.219 1.236,3.285 4.424,5.492 7.934,5.492 3.511,0 6.698,-2.207 7.934,-5.492 0.056,-0.15 0.199,-0.243 0.351,-0.243 0.043,0 0.088,0.007 0.131,0.024 0.194,0.073 0.292,0.289 0.22,0.483 C 7.291,-2.402 3.821,0 0,0"
         style="fill:#231f20;fill-opacity:1;fill-rule:nonzero;stroke:none"
         id="path306"
         inkscape:connector-curvature="0" />
    </g>
    <g
       id="g308"
       transform="matrix(0.35277777,0,0,-0.35277777,126.24491,175.70723)">
      <path
         d="m 0,0 c -3.82,0 -7.291,-2.402 -8.635,-5.978 -0.073,-0.194 0.025,-0.41 0.219,-0.483 0.193,-0.073 0.41,0.025 0.482,0.219 1.236,3.285 4.424,5.492 7.934,5.492 3.511,0 6.698,-2.207 7.934,-5.492 0.056,-0.15 0.199,-0.243 0.351,-0.243 0.043,0 0.088,0.007 0.131,0.024 0.194,0.073 0.292,0.289 0.22,0.483 C 7.291,-2.402 3.821,0 0,0 Z"
         style="fill:none;stroke:#110f0e;stroke-width:0.40000001;stroke-linecap:butt;stroke-linejoin:miter;stroke-miterlimit:10;stroke-dasharray:none;stroke-opacity:1"
         id="path310"
         inkscape:connector-curvature="0" />
    </g>
    <g
       id="g312"
       transform="matrix(0.35277777,0,0,-0.35277777,123.39235,176.4009)">
      <path
         d="m 0,0 c 1.993,2.439 4.94,3.838 8.086,3.838 3.146,0 6.094,-1.399 8.087,-3.838 0.074,-0.091 0.181,-0.138 0.29,-0.138 0.084,0 0.168,0.028 0.237,0.085 0.161,0.131 0.185,0.367 0.054,0.528 C 14.617,3.089 11.458,4.588 8.086,4.588 4.714,4.588 1.555,3.089 -0.581,0.475 -0.712,0.314 -0.688,0.078 -0.528,-0.053 -0.367,-0.184 -0.131,-0.16 0,0"
         style="fill:#231f20;fill-opacity:1;fill-rule:nonzero;stroke:none"
         id="path314"
         inkscape:connector-curvature="0" />
    </g>
    <g
       id="g316"
       transform="matrix(0.35277777,0,0,-0.35277777,123.39235,176.4009)">
      <path
         d="m 0,0 c 1.993,2.439 4.94,3.838 8.086,3.838 3.146,0 6.094,-1.399 8.087,-3.838 0.074,-0.091 0.181,-0.138 0.29,-0.138 0.084,0 0.168,0.028 0.237,0.085 0.161,0.131 0.185,0.367 0.054,0.528 C 14.617,3.089 11.458,4.588 8.086,4.588 4.714,4.588 1.555,3.089 -0.581,0.475 -0.712,0.314 -0.688,0.078 -0.528,-0.053 -0.367,-0.184 -0.131,-0.16 0,0 Z"
         style="fill:none;stroke:#110f0e;stroke-width:0.40000001;stroke-linecap:butt;stroke-linejoin:miter;stroke-miterlimit:10;stroke-dasharray:none;stroke-opacity:1"
         id="path318"
         inkscape:connector-curvature="0" />
    </g>
    <g
       id="g320"
       transform="matrix(0.35277777,0,0,-0.35277777,124.04175,174.68195)">
      <path
         d="m 0,0 c 1.902,1.038 4.062,1.587 6.245,1.587 2.184,0 4.343,-0.549 6.246,-1.587 0.057,-0.031 0.118,-0.046 0.179,-0.046 0.133,0 0.262,0.07 0.33,0.195 0.1,0.182 0.032,0.41 -0.149,0.509 C 10.838,1.756 8.554,2.337 6.245,2.337 3.938,2.337 1.653,1.756 -0.359,0.659 -0.541,0.559 -0.608,0.332 -0.509,0.15 -0.409,-0.032 -0.182,-0.099 0,0"
         style="fill:#231f20;fill-opacity:1;fill-rule:nonzero;stroke:none"
         id="path322"
         inkscape:connector-curvature="0" />
    </g>
    <g
       id="g324"
       transform="matrix(0.35277777,0,0,-0.35277777,124.04175,174.68195)">
      <path
         d="m 0,0 c 1.902,1.038 4.062,1.587 6.245,1.587 2.184,0 4.343,-0.549 6.246,-1.587 0.057,-0.031 0.118,-0.046 0.179,-0.046 0.133,0 0.262,0.07 0.33,0.195 0.1,0.182 0.032,0.41 -0.149,0.509 C 10.838,1.756 8.554,2.337 6.245,2.337 3.938,2.337 1.653,1.756 -0.359,0.659 -0.541,0.559 -0.608,0.332 -0.509,0.15 -0.409,-0.032 -0.182,-0.099 0,0 Z"
         style="fill:none;stroke:#110f0e;stroke-width:0.40000001;stroke-linecap:butt;stroke-linejoin:miter;stroke-miterlimit:10;stroke-dasharray:none;stroke-opacity:1"
         id="path326"
         inkscape:connector-curvature="0" />
    </g>
  </g>
</svg>
