<?xml version="1.0" encoding="UTF-8" standalone="no"?>
<svg
   xmlns:dc="http://purl.org/dc/elements/1.1/"
   xmlns:cc="http://creativecommons.org/ns#"
   xmlns:rdf="http://www.w3.org/1999/02/22-rdf-syntax-ns#"
   xmlns:svg="http://www.w3.org/2000/svg"
   xmlns="http://www.w3.org/2000/svg"
   xmlns:sodipodi="http://sodipodi.sourceforge.net/DTD/sodipodi-0.dtd"
   xmlns:inkscape="http://www.inkscape.org/namespaces/inkscape"
   width="43.5"
   height="43.5"
   viewBox="0 0 43.5 43.5"
   version="1.1"
   id="svg2"
   inkscape:version="0.92.4 (5da689c313, 2019-01-14)"
   sodipodi:docname="settings.svg">
  <metadata
     id="metadata22">
    <rdf:RDF>
      <cc:Work
         rdf:about="">
        <dc:format>image/svg+xml</dc:format>
        <dc:type
           rdf:resource="http://purl.org/dc/dcmitype/StillImage" />
        <dc:title>settings</dc:title>
      </cc:Work>
    </rdf:RDF>
  </metadata>
  <sodipodi:namedview
     pagecolor="#ffffff"
     bordercolor="#666666"
     borderopacity="1"
     objecttolerance="10"
     gridtolerance="10"
     guidetolerance="10"
     inkscape:pageopacity="0"
     inkscape:pageshadow="2"
     inkscape:window-width="752"
     inkscape:window-height="480"
     id="namedview20"
     showgrid="false"
     fit-margin-top="1"
     fit-margin-left="1"
     fit-margin-right="1"
     fit-margin-bottom="1"
     inkscape:zoom="5.9"
     inkscape:cx="21.75"
     inkscape:cy="21.75"
     inkscape:window-x="1"
     inkscape:window-y="1"
     inkscape:window-maximized="0"
     inkscape:current-layer="svg2" />
  <!-- Generator: Sketch 50.2 (55047) - http://www.bohemiancoding.com/sketch -->
  <title
     id="title4">settings</title>
  <desc
     id="desc6">Created with Sketch.</desc>
  <defs
     id="defs8" />
  <g
     id="settings"
     style="fill:none;stroke:none"
     transform="translate(1.75,1.75)">
    <g
       id="g11"
       style="stroke:#152631">
      <circle
         id="Oval"
         cx="20"
         cy="20"
         r="20"
         style="stroke-width:1.5" />
      <g
         id="Group"
         transform="translate(9,9)"
         style="fill:#000000;fill-rule:nonzero;stroke-width:0.40000001">
        <path
           d="M 0.55210278,3.0388375 H 4.140112 C 4.3931042,4.1589506 5.4182497,5 6.6410453,5 7.863841,5 8.8876688,4.1602366 9.140661,3.0388375 H 23.447897 C 23.752278,3.0388375 24,2.7970679 24,2.5 24,2.2016461 23.752278,1.9611625 23.447897,1.9611625 H 9.140661 C 8.8876688,0.84104938 7.8625233,0 6.6397277,0 5.416932,0 4.3931042,0.84104938 4.140112,1.9611625 H 0.55210278 C 0.24772153,1.9611625 0,2.2029321 0,2.5 0,2.7983539 0.24640387,3.0388375 0.55210278,3.0388375 Z M 6.6410453,1.0776749 c 0.8037774,0 1.4573406,0.6378601 1.4573406,1.4223251 0,0.784465 -0.6535632,1.4223251 -1.4573406,1.4223251 C 5.837268,3.9223251 5.1837048,3.284465 5.1837048,2.5 c 0,-0.784465 0.6535632,-1.4223251 1.4573405,-1.4223251 z"
           id="Shape"
           inkscape:connector-curvature="0" />
        <path
           d="M 0.55207247,11.038837 H 15.529179 C 15.782158,12.158951 16.807247,13 18.029975,13 c 1.222729,0 2.2465,-0.841049 2.500796,-1.961163 h 2.917156 C 23.752292,11.038837 24,10.797068 24,10.5 24,10.202932 23.752292,9.9611625 23.447927,9.9611625 H 20.530771 C 20.277793,8.8410494 19.252704,8 18.029975,8 16.807247,8 15.782158,8.8410494 15.529179,9.9611625 H 0.55207247 C 0.24770793,9.9611625 0,10.202932 0,10.5 c 0,0.297068 0.24639034,0.538837 0.55207247,0.538837 z M 18.029975,9.0776749 c 0.803733,0 1.457261,0.6378601 1.457261,1.4223251 0,0.784465 -0.653528,1.422325 -1.457261,1.422325 -0.803733,0 -1.45726,-0.63786 -1.45726,-1.422325 -0.0013,-0.784465 0.653527,-1.4223251 1.45726,-1.4223251 z"
           id="path16"
           inkscape:connector-curvature="0" />
        <path
           d="M 0.55207247,19.038056 H 8.1598682 C 8.4128466,20.157881 9.4379358,21 10.660664,21 c 1.222729,0 2.2465,-0.840833 2.500796,-1.961944 H 23.447927 C 23.752292,19.038056 24,18.796349 24,18.499357 24,18.202366 23.752292,17.960658 23.447927,17.960658 H 13.16146 C 12.908482,16.840833 11.883393,16 10.660664,16 9.4379358,16 8.4128466,16.840833 8.1598682,17.960658 H 0.55207247 C 0.24770793,17.960658 0,18.202366 0,18.499357 c 0,0.296992 0.24639034,0.538699 0.55207247,0.538699 z M 10.660664,17.076112 c 0.803734,0 1.457261,0.637696 1.457261,1.421959 0,0.784264 -0.653527,1.42196 -1.457261,1.42196 -0.8037329,0 -1.4572602,-0.637696 -1.4572602,-1.42196 0,-0.784263 0.6535273,-1.421959 1.4572602,-1.421959 z"
           id="path18"
           inkscape:connector-curvature="0" />
      </g>
    </g>
  </g>
</svg>
