<?xml version="1.0" encoding="UTF-8" standalone="no"?>
<!-- Created with Inkscape (http://www.inkscape.org/) -->

<svg
   xmlns:dc="http://purl.org/dc/elements/1.1/"
   xmlns:cc="http://creativecommons.org/ns#"
   xmlns:rdf="http://www.w3.org/1999/02/22-rdf-syntax-ns#"
   xmlns:svg="http://www.w3.org/2000/svg"
   xmlns="http://www.w3.org/2000/svg"
   xmlns:sodipodi="http://sodipodi.sourceforge.net/DTD/sodipodi-0.dtd"
   xmlns:inkscape="http://www.inkscape.org/namespaces/inkscape"
   width="17.979443mm"
   height="27.562775mm"
   viewBox="0 0 17.979443 27.562775"
   version="1.1"
   id="svg6789"
   inkscape:version="0.92.4 (5da689c313, 2019-01-14)"
   sodipodi:docname="temporarily.svg">
  <defs
     id="defs6783" />
  <sodipodi:namedview
     id="base"
     pagecolor="#ffffff"
     bordercolor="#666666"
     borderopacity="1.0"
     inkscape:pageopacity="0.0"
     inkscape:pageshadow="2"
     inkscape:zoom="3.959798"
     inkscape:cx="-19.655895"
     inkscape:cy="-5.6843931"
     inkscape:document-units="mm"
     inkscape:current-layer="layer1"
     showgrid="false"
     inkscape:window-width="1918"
     inkscape:window-height="1054"
     inkscape:window-x="1"
     inkscape:window-y="1"
     inkscape:window-maximized="1"
     fit-margin-top="1"
     fit-margin-right="1"
     fit-margin-bottom="1"
     fit-margin-left="1" />
  <metadata
     id="metadata6786">
    <rdf:RDF>
      <cc:Work
         rdf:about="">
        <dc:format>image/svg+xml</dc:format>
        <dc:type
           rdf:resource="http://purl.org/dc/dcmitype/StillImage" />
        <dc:title />
      </cc:Work>
    </rdf:RDF>
  </metadata>
  <g
     inkscape:label="Calque 1"
     inkscape:groupmode="layer"
     id="layer1"
     transform="translate(-205.70076,-167.5579)">
    <g
       id="g328"
       transform="matrix(0.35277777,0,0,-0.35277777,208.30896,186.12274)">
      <path
         d="M 0,0 C 0.026,10.024 8.191,18.146 18.184,18.089 28.19,18.031 36.225,9.876 36.185,-0.181 36.145,-10.125 28.037,-18.185 18.083,-18.178 8.067,-18.17 -0.025,-10.035 0,0 m 14.059,-22.343 c 0.356,-0.067 0.756,-0.003 1.032,-0.328 h 6.058 c 0.622,0.493 1.412,0.397 2.116,0.565 15.333,3.658 22.37,21.257 13.728,34.45 -0.584,0.893 -0.826,1.759 -0.818,2.812 0.035,5.578 0.058,11.159 0.002,16.739 C 36.094,40.209 30.45,47.271 22.376,49.268 12.095,51.809 1.662,44.795 0.163,34.313 0.045,33.489 -0.1,32.643 0.169,31.75 1.555,31.56 2.916,31.609 4.204,31.7 c 0.428,0.34 0.32,0.742 0.35,1.096 0.648,7.263 6.728,12.656 14.05,12.449 7.11,-0.202 12.95,-6.111 13.062,-13.306 0.067,-4.251 0.018,-8.503 0.016,-12.753 0,-0.255 0.054,-0.528 -0.168,-0.777 -0.516,-0.055 -0.835,0.359 -1.218,0.602 C 16.484,27.79 -1.756,19.643 -4.275,3.471 -6.247,-9.178 2.319,-20.193 14.059,-22.343"
         style="fill:#110f0d;fill-opacity:1;fill-rule:evenodd;stroke:none"
         id="path330"
         inkscape:connector-curvature="0" />
    </g>
    <g
       id="g332"
       transform="matrix(0.35277777,0,0,-0.35277777,214.69272,192.53564)">
      <path
         d="m 0,0 c -9.954,-0.006 -18.061,8.054 -18.102,17.997 -0.04,10.057 7.995,18.212 18.001,18.27 C 9.893,36.325 18.058,28.203 18.083,18.178 18.109,8.143 10.016,0.008 0,0 m 22.358,21.649 c -2.519,16.172 -20.759,24.319 -34.57,15.54 -0.384,-0.243 -0.703,-0.657 -1.219,-0.602 -0.222,0.249 -0.168,0.522 -0.168,0.777 -0.002,4.25 -0.051,8.503 0.016,12.754 0.113,7.194 5.952,13.103 13.062,13.305 7.322,0.207 13.403,-5.186 14.05,-12.448 0.031,-0.354 -0.077,-0.757 0.35,-1.097 1.288,-0.09 2.649,-0.14 4.035,0.05 0.269,0.893 0.124,1.739 0.006,2.563 -1.499,10.482 -11.932,17.496 -22.213,14.955 -8.073,-1.997 -13.717,-9.058 -13.801,-17.373 -0.056,-5.58 -0.033,-11.16 0.002,-16.739 0.008,-1.053 -0.233,-1.919 -0.818,-2.812 C -27.552,17.33 -20.515,-0.27 -5.182,-3.928 -4.477,-4.096 -3.688,-4 -3.065,-4.493 h 6.057 c 0.276,0.325 0.676,0.262 1.032,0.328 11.74,2.15 20.307,13.165 18.334,25.814"
         style="fill:#110f0d;fill-opacity:1;fill-rule:evenodd;stroke:none"
         id="path334"
         inkscape:connector-curvature="0" />
    </g>
    <g
       id="g336"
       transform="matrix(0.40744654,0,0,-0.40744654,214.69064,186.29402)">
      <path
         d="M 0,0 3.447,-1.724 C 3.94,-1.971 4.141,-2.571 3.895,-3.065 3.647,-3.56 3.047,-3.76 2.553,-3.513 l -4,2 C -1.786,-1.343 -2,-0.997 -2,-0.618 v 6 c 0,0.552 0.447,1 1,1 0.552,0 1,-0.448 1,-1 z m 0,-8.618 c 4.97,0 9,4.029 9,9 0,4.971 -4.03,9 -9,9 -4.971,0 -9,-4.029 -9,-9 0,-4.971 4.029,-9 9,-9 m 0,-2 c -6.075,0 -11,4.925 -11,11 0,6.075 4.925,11 11,11 6.075,0 11,-4.925 11,-11 0,-6.075 -4.925,-11 -11,-11"
         style="fill:#110f0d;fill-opacity:1;fill-rule:nonzero;stroke:none"
         id="path338"
         inkscape:connector-curvature="0" />
    </g>
  </g>
</svg>
