<?xml version="1.0" encoding="UTF-8" standalone="no"?>
<!-- Created with Inkscape (http://www.inkscape.org/) -->

<svg
   xmlns:dc="http://purl.org/dc/elements/1.1/"
   xmlns:cc="http://creativecommons.org/ns#"
   xmlns:rdf="http://www.w3.org/1999/02/22-rdf-syntax-ns#"
   xmlns:svg="http://www.w3.org/2000/svg"
   xmlns="http://www.w3.org/2000/svg"
   xmlns:sodipodi="http://sodipodi.sourceforge.net/DTD/sodipodi-0.dtd"
   xmlns:inkscape="http://www.inkscape.org/namespaces/inkscape"
   width="17.979441mm"
   height="27.562735mm"
   viewBox="0 0 17.979441 27.562735"
   version="1.1"
   id="svg6175"
   inkscape:version="0.92.4 (5da689c313, 2019-01-14)"
   sodipodi:docname="unknown.svg">
  <defs
     id="defs6169" />
  <sodipodi:namedview
     id="base"
     pagecolor="#ffffff"
     bordercolor="#666666"
     borderopacity="1.0"
     inkscape:pageopacity="0.0"
     inkscape:pageshadow="2"
     inkscape:zoom="0.35"
     inkscape:cx="-290.30882"
     inkscape:cy="172.08704"
     inkscape:document-units="mm"
     inkscape:current-layer="layer1"
     showgrid="false"
     fit-margin-top="1"
     fit-margin-right="1"
     fit-margin-bottom="1"
     fit-margin-left="1"
     inkscape:window-width="1918"
     inkscape:window-height="1054"
     inkscape:window-x="1"
     inkscape:window-y="1"
     inkscape:window-maximized="1" />
  <metadata
     id="metadata6172">
    <rdf:RDF>
      <cc:Work
         rdf:about="">
        <dc:format>image/svg+xml</dc:format>
        <dc:type
           rdf:resource="http://purl.org/dc/dcmitype/StillImage" />
        <dc:title></dc:title>
      </cc:Work>
    </rdf:RDF>
  </metadata>
  <g
     inkscape:label="Calque 1"
     inkscape:groupmode="layer"
     id="layer1"
     transform="translate(-28.051946,-166.80197)">
    <g
       id="g252"
       transform="matrix(0.35277777,0,0,-0.35277777,30.660146,185.36681)">
      <path
         d="M 0,0 C 0.026,10.024 8.19,18.146 18.184,18.088 28.19,18.031 36.225,9.876 36.185,-0.181 36.145,-10.125 28.037,-18.185 18.083,-18.178 8.067,-18.17 -0.025,-10.035 0,0 m 14.059,-22.343 c 0.356,-0.067 0.756,-0.003 1.032,-0.328 h 6.058 c 0.622,0.493 1.412,0.397 2.116,0.564 15.333,3.659 22.37,21.258 13.728,34.45 -0.584,0.894 -0.826,1.76 -0.818,2.813 0.035,5.578 0.058,11.159 0.002,16.739 C 36.094,40.209 30.45,47.271 22.376,49.268 12.095,51.809 1.662,44.795 0.163,34.313 0.045,33.489 -0.1,32.643 0.169,31.75 1.555,31.56 2.916,31.609 4.204,31.7 c 0.428,0.34 0.32,0.742 0.35,1.096 0.648,7.263 6.728,12.655 14.05,12.448 7.11,-0.201 12.95,-6.11 13.062,-13.305 0.067,-4.251 0.018,-8.503 0.016,-12.754 0,-0.254 0.054,-0.527 -0.168,-0.776 -0.516,-0.056 -0.835,0.358 -1.218,0.602 C 16.484,27.789 -1.756,19.643 -4.275,3.471 -6.247,-9.178 2.319,-20.193 14.059,-22.343"
         style="fill:#110f0d;fill-opacity:1;fill-rule:evenodd;stroke:none"
         id="path254"
         inkscape:connector-curvature="0" />
    </g>
    <g
       id="g256"
       transform="matrix(0.35277777,0,0,-0.35277777,37.043907,191.77967)">
      <path
         d="m 0,0 c -9.954,-0.007 -18.061,8.054 -18.102,17.997 -0.04,10.057 7.995,18.212 18.001,18.27 C 9.893,36.324 18.058,28.203 18.083,18.178 18.109,8.143 10.016,0.008 0,0 m 22.358,21.649 c -2.519,16.172 -20.759,24.318 -34.57,15.54 -0.384,-0.244 -0.703,-0.658 -1.219,-0.602 -0.222,0.249 -0.168,0.522 -0.168,0.776 -0.002,4.251 -0.051,8.504 0.016,12.754 0.113,7.195 5.952,13.104 13.062,13.305 7.322,0.207 13.403,-5.185 14.05,-12.447 0.031,-0.354 -0.077,-0.757 0.35,-1.097 1.288,-0.09 2.649,-0.14 4.035,0.05 0.269,0.893 0.124,1.739 0.006,2.563 -1.499,10.482 -11.932,17.496 -22.213,14.955 -8.073,-1.997 -13.717,-9.058 -13.801,-17.373 -0.056,-5.58 -0.033,-11.16 0.002,-16.739 0.008,-1.053 -0.233,-1.919 -0.818,-2.813 C -27.552,17.33 -20.515,-0.27 -5.182,-3.929 -4.477,-4.096 -3.688,-4 -3.065,-4.493 h 6.057 c 0.276,0.325 0.676,0.262 1.032,0.328 C 15.764,-2.015 24.33,9 22.358,21.649"
         style="fill:#110f0d;fill-opacity:1;fill-rule:evenodd;stroke:none"
         id="path258"
         inkscape:connector-curvature="0" />
    </g>
    <g
       id="g260"
       transform="matrix(0.35277777,0,0,-0.35277777,36.282187,186.94828)">
      <path
         d="m 0,0 c -0.004,-0.535 0.046,-1.059 0.282,-1.544 0.413,-0.847 1.257,-1.315 2.208,-1.238 0.949,0.075 1.718,0.67 1.937,1.603 0.12,0.507 0.127,1.047 0.131,1.573 0.012,2.381 0.009,4.761 0,7.143 0,0.473 0.003,0.959 -0.091,1.419 C 4.262,9.979 3.488,10.641 2.494,10.723 1.426,10.811 0.546,10.223 0.171,9.186 0.004,8.727 0.001,8.253 0.001,7.776 c 0,-1.27 0,-2.539 0.001,-3.809 C 0.002,2.645 0.01,1.322 0,0"
         style="fill:#110f0d;fill-opacity:1;fill-rule:evenodd;stroke:none"
         id="path262"
         inkscape:connector-curvature="0" />
    </g>
  </g>
</svg>
