<svg xmlns="http://www.w3.org/2000/svg" width="39" height="41" viewBox="0 0 39 41"><g><g><g><g><g><path d="M2.34 34.782V33.52c8.127 0 16.763 1.99 16.819 5.677h1.106v1.262H2.34v-1.262h15.573c-.075-2.096-6.447-4.415-15.573-4.415z"/><path fill="none" stroke="#efefef" stroke-miterlimit="20" stroke-width=".2" d="M2.34 34.782V33.52c8.127 0 16.763 1.99 16.819 5.677h1.106v1.262H2.34v-1.262h15.573c-.075-2.096-6.447-4.415-15.573-4.415z"/></g><g transform="rotate(-90 6 37)"><path d="M5.7 31.83h.881v11.275H5.7z"/><path fill="none" d="M5.7 31.83h.881v11.275H5.7z"/></g><g><path d="M20.266 39.197c.056-3.688 8.692-5.677 16.819-5.677v1.262c-9.126 0-15.498 2.319-15.57 4.415h15.57v1.262H19.16v-1.262z"/><path fill="none" stroke="#efefef" stroke-miterlimit="20" stroke-width=".2" d="M20.266 39.197c.056-3.688 8.692-5.677 16.819-5.677v1.262c-9.126 0-15.498 2.319-15.57 4.415h15.57v1.262H19.16v-1.262z"/></g><g transform="rotate(-270 33 37)"><path d="M32.3 31.71h.881v11.275H32.3z"/><path fill="none" d="M32.3 31.71h.881v11.275H32.3z"/></g></g><g><path fill="#142632" d="M4.944 16.453c.252.009.49.122.653.311a.353.353 0 0 0 .527 0 .912.912 0 0 1 .683-.312.862.862 0 0 1 .315.065 10.582 10.582 0 0 0 0 1.666.862.862 0 0 1-.315.065.912.912 0 0 1-.684-.312.353.353 0 0 0-.526 0 .917.917 0 0 1-.88.288.903.903 0 0 1-.68-.623.885.885 0 0 1 .233-.885.909.909 0 0 1 .674-.263zm2.895-.111a11.211 11.211 0 0 1 2.67-6.344l.003-.003c.436-.52.921-.997 1.45-1.426l.002-.003a11.582 11.582 0 0 1 6.445-2.629h.009a10.854 10.854 0 0 1 2.032 0h.008a11.582 11.582 0 0 1 6.445 2.63l.003.002c.528.429 1.013.907 1.45 1.426l.002.003a11.211 11.211 0 0 1 2.67 6.344l.002.008a10.35 10.35 0 0 1 0 2l-.001.008a11.211 11.211 0 0 1-2.671 6.344l-.003.003c-.436.52-.921.997-1.449 1.426l-.003.003a11.582 11.582 0 0 1-6.445 2.629h-.008c-.676.064-1.357.064-2.032 0h-.009a11.582 11.582 0 0 1-6.445-2.63l-.003-.002a10.734 10.734 0 0 1-1.449-1.426l-.002-.003a11.211 11.211 0 0 1-2.671-6.344l-.001-.008a10.35 10.35 0 0 1 0-2zm1.66-8.103a.354.354 0 0 0-.274-.1l-.07.002a.893.893 0 0 1-.635-1.532.92.92 0 0 1 1.29 0c.17.165.264.391.261.626l-.002.07c-.008.1.03.199.101.27a.353.353 0 0 0 .273.1l.068-.002a.873.873 0 0 1 .821.525c-.43.366-.832.763-1.202 1.188a.88.88 0 0 1-.532-.811l.002-.067a.345.345 0 0 0-.102-.27zm10.198-6.046a.902.902 0 0 1 .638.67.883.883 0 0 1-.298.868.342.342 0 0 0 0 .518.884.884 0 0 1 .319.673.822.822 0 0 1-.067.31 11.234 11.234 0 0 0-1.701 0 .822.822 0 0 1-.066-.31.884.884 0 0 1 .318-.673.342.342 0 0 0 0-.518.877.877 0 0 1-.049-1.307.927.927 0 0 1 .906-.23zm8.021 5.732a.9.9 0 0 1 .636-.256l.067.002c.101.007.2-.03.272-.1a.343.343 0 0 0 .102-.269l-.003-.07a.86.86 0 0 1 .26-.624.918.918 0 0 1 1.285.001.89.89 0 0 1 .001 1.27.882.882 0 0 1-.632.256l-.07-.003a.352.352 0 0 0-.273.1.343.343 0 0 0-.101.269l.002.066a.877.877 0 0 1-.26.628.883.883 0 0 1-.27.18c-.37-.423-.77-.818-1.198-1.183a.87.87 0 0 1 .182-.267zm5.285 8.956c.1 0 .196-.042.263-.117a.917.917 0 0 1 1.005-.256c.356.131.592.467.592.842 0 .375-.236.71-.592.841a.917.917 0 0 1-1.005-.255.352.352 0 0 0-.525 0 .908.908 0 0 1-.682.312.857.857 0 0 1-.313-.065 10.617 10.617 0 0 0 0-1.666.857.857 0 0 1 .313-.065.907.907 0 0 1 .682.312.351.351 0 0 0 .262.117zm-3.64 9.587c.072.07.171.107.272.1l.071-.003a.892.892 0 0 1 .633 1.527.92.92 0 0 1-1.287 0 .86.86 0 0 1-.26-.624l.003-.07a.343.343 0 0 0-.102-.269.352.352 0 0 0-.272-.1l-.067.002a.87.87 0 0 1-.819-.523c.429-.365.83-.76 1.199-1.184a.877.877 0 0 1 .53.808l-.002.067c-.007.1.03.198.101.269zm-9.277 5.808a.927.927 0 0 1-.905.23.902.902 0 0 1-.638-.669.883.883 0 0 1 .297-.868.342.342 0 0 0 0-.518.884.884 0 0 1-.318-.673.822.822 0 0 1 .066-.31c.284.022.569.034.85.034.283 0 .567-.012.852-.034a.822.822 0 0 1 .066.31.884.884 0 0 1-.319.673.342.342 0 0 0 0 .518.877.877 0 0 1 .049 1.307zm-9.643-5.242a.353.353 0 0 0-.273.101.344.344 0 0 0-.101.27l.002.07a.863.863 0 0 1-.26.626.92.92 0 0 1-1.291 0 .893.893 0 0 1 .635-1.532l.07.003a.353.353 0 0 0 .273-.1.344.344 0 0 0 .102-.27l-.002-.067a.88.88 0 0 1 .532-.81c.37.424.772.82 1.202 1.187a.873.873 0 0 1-.821.525zM5.86 18.63c.274.2.606.309.947.309.133-.001.264-.019.392-.052a11.879 11.879 0 0 0 2.482 5.892 1.562 1.562 0 0 0-.319.238 1.55 1.55 0 0 0-.443.88c-.339.046-.653.2-.895.437-.63.62-.63 1.627 0 2.247.63.62 1.652.62 2.283 0 .241-.238.397-.547.444-.88.338-.048.652-.2.894-.437.094-.094.175-.2.242-.313a12.275 12.275 0 0 0 5.987 2.442 1.511 1.511 0 0 0-.054.386c0 .336.11.662.315.932-.204.27-.314.596-.315.932 0 .877.723 1.588 1.614 1.588.89 0 1.613-.711 1.613-1.588 0-.336-.11-.663-.314-.932.204-.27.314-.596.314-.932a1.512 1.512 0 0 0-.053-.386 12.275 12.275 0 0 0 5.987-2.442c.066.114.148.219.242.313.242.236.556.39.894.436.046.334.202.643.444.881.63.62 1.652.62 2.283 0l-.248-.244.248.244a1.573 1.573 0 0 0-.896-2.684 1.55 1.55 0 0 0-.443-.88 1.56 1.56 0 0 0-.318-.238 11.879 11.879 0 0 0 2.481-5.892c.128.033.26.051.392.052.341 0 .673-.109.947-.31.274.201.606.31.947.31.891 0 1.614-.711 1.614-1.588 0-.877-.723-1.588-1.614-1.588-.341 0-.673.109-.947.31a1.606 1.606 0 0 0-.947-.31 1.582 1.582 0 0 0-.392.052 11.879 11.879 0 0 0-2.481-5.892 1.56 1.56 0 0 0 .318-.238 1.55 1.55 0 0 0 .443-.88 1.573 1.573 0 0 0 .895-2.684 1.634 1.634 0 0 0-2.282 0 1.538 1.538 0 0 0-.444.88c-.338.048-.652.2-.895.437a1.54 1.54 0 0 0-.241.313 12.275 12.275 0 0 0-5.987-2.442c.034-.126.052-.256.053-.386 0-.336-.11-.662-.314-.932.204-.27.314-.596.314-.932 0-.877-.722-1.588-1.613-1.588s-1.614.711-1.614 1.588c0 .336.11.663.315.932-.204.27-.314.596-.315.932.001.13.02.26.054.386a12.275 12.275 0 0 0-5.987 2.442 1.541 1.541 0 0 0-.242-.313 1.594 1.594 0 0 0-.894-.436 1.539 1.539 0 0 0-.444-.881 1.634 1.634 0 0 0-2.283 0c-.63.62-.63 1.626 0 2.246.242.238.556.392.895.438.048.332.203.641.444.88.095.092.202.172.318.238a11.879 11.879 0 0 0-2.482 5.892 1.582 1.582 0 0 0-.392-.052c-.34 0-.673.109-.947.31a1.606 1.606 0 0 0-.947-.31c-.89 0-1.613.71-1.613 1.588 0 .877.722 1.588 1.613 1.588.342 0 .674-.109.947-.31z"/><path fill="none" stroke="#000" stroke-miterlimit="20" stroke-width=".2" d="M4.944 16.453c.252.009.49.122.653.311a.353.353 0 0 0 .527 0 .912.912 0 0 1 .683-.312.862.862 0 0 1 .315.065 10.582 10.582 0 0 0 0 1.666.862.862 0 0 1-.315.065.912.912 0 0 1-.684-.312.353.353 0 0 0-.526 0 .917.917 0 0 1-.88.288.903.903 0 0 1-.68-.623.885.885 0 0 1 .233-.885.909.909 0 0 1 .674-.263zm2.895-.111a11.211 11.211 0 0 1 2.67-6.344l.003-.003c.436-.52.921-.997 1.45-1.426l.002-.003a11.582 11.582 0 0 1 6.445-2.629h.009a10.854 10.854 0 0 1 2.032 0h.008a11.582 11.582 0 0 1 6.445 2.63l.003.002c.528.429 1.013.907 1.45 1.426l.002.003a11.211 11.211 0 0 1 2.67 6.344l.002.008a10.35 10.35 0 0 1 0 2l-.001.008a11.211 11.211 0 0 1-2.671 6.344l-.003.003c-.436.52-.921.997-1.449 1.426l-.003.003a11.582 11.582 0 0 1-6.445 2.629h-.008c-.676.064-1.357.064-2.032 0h-.009a11.582 11.582 0 0 1-6.445-2.63l-.003-.002a10.734 10.734 0 0 1-1.449-1.426l-.002-.003a11.211 11.211 0 0 1-2.671-6.344l-.001-.008a10.35 10.35 0 0 1 0-2zm1.66-8.103a.354.354 0 0 0-.274-.1l-.07.002a.893.893 0 0 1-.635-1.532.92.92 0 0 1 1.29 0c.17.165.264.391.261.626l-.002.07c-.008.1.03.199.101.27a.353.353 0 0 0 .273.1l.068-.002a.902.902 0 0 1 .638.257h0c.077.078.14.169.183.268-.43.366-.832.763-1.202 1.188a.886.886 0 0 1-.272-.181h0a.88.88 0 0 1-.26-.63l.002-.067a.345.345 0 0 0-.102-.27zm10.198-6.046a.902.902 0 0 1 .638.67.883.883 0 0 1-.298.868.342.342 0 0 0 0 .518.884.884 0 0 1 .319.673.822.822 0 0 1-.067.31 11.234 11.234 0 0 0-1.701 0 .822.822 0 0 1-.066-.31.884.884 0 0 1 .318-.673.342.342 0 0 0 0-.518.877.877 0 0 1-.049-1.307.927.927 0 0 1 .906-.23zm8.021 5.732a.9.9 0 0 1 .636-.256l.067.002c.101.007.2-.03.272-.1a.343.343 0 0 0 .102-.269l-.003-.07a.86.86 0 0 1 .26-.624h0a.918.918 0 0 1 1.285.001.89.89 0 0 1 .001 1.27h0a.882.882 0 0 1-.632.256l-.07-.003a.352.352 0 0 0-.273.1.343.343 0 0 0-.101.269l.002.066a.877.877 0 0 1-.26.628h0a.883.883 0 0 1-.27.18c-.37-.423-.77-.818-1.198-1.183a.87.87 0 0 1 .182-.267zm5.285 8.956c.1 0 .196-.042.263-.117a.917.917 0 0 1 1.005-.256c.356.131.592.467.592.842 0 .375-.236.71-.592.841a.917.917 0 0 1-1.005-.255.352.352 0 0 0-.525 0 .908.908 0 0 1-.682.312.857.857 0 0 1-.313-.065 10.617 10.617 0 0 0 0-1.666.857.857 0 0 1 .313-.065.907.907 0 0 1 .682.312.351.351 0 0 0 .262.117zm-3.64 9.587c.072.07.171.107.272.1l.071-.003a.892.892 0 0 1 .633 1.527.92.92 0 0 1-1.287 0 .86.86 0 0 1-.26-.624l.003-.07a.343.343 0 0 0-.102-.269.352.352 0 0 0-.272-.1l-.067.002a.87.87 0 0 1-.819-.523c.429-.365.83-.76 1.199-1.184a.877.877 0 0 1 .53.808l-.002.067c-.007.1.03.198.101.269zm-9.277 5.808a.927.927 0 0 1-.905.23.902.902 0 0 1-.638-.669.883.883 0 0 1 .297-.868.342.342 0 0 0 0-.518.884.884 0 0 1-.318-.673.822.822 0 0 1 .066-.31c.284.022.569.034.85.034.283 0 .567-.012.852-.034a.822.822 0 0 1 .066.31.884.884 0 0 1-.319.673.342.342 0 0 0 0 .518.877.877 0 0 1 .049 1.307zm-9.643-5.242a.353.353 0 0 0-.273.101.344.344 0 0 0-.101.27l.002.07a.863.863 0 0 1-.26.626.92.92 0 0 1-1.291 0 .893.893 0 0 1 .635-1.532l.07.003a.353.353 0 0 0 .273-.1.344.344 0 0 0 .102-.27l-.002-.067a.88.88 0 0 1 .532-.81c.37.424.772.82 1.202 1.187a.873.873 0 0 1-.821.525zM5.86 18.63c.274.2.606.309.947.309.133-.001.264-.019.392-.052a11.879 11.879 0 0 0 2.482 5.892 1.562 1.562 0 0 0-.319.238h0a1.55 1.55 0 0 0-.443.88c-.339.046-.653.2-.895.437-.63.62-.63 1.627 0 2.247.63.62 1.652.62 2.283 0 .241-.238.397-.547.444-.88.338-.048.652-.2.894-.437.094-.094.175-.2.242-.313a12.275 12.275 0 0 0 5.987 2.442 1.511 1.511 0 0 0-.054.386c0 .336.11.662.315.932-.204.27-.314.596-.315.932 0 .877.723 1.588 1.614 1.588.89 0 1.613-.711 1.613-1.588 0-.336-.11-.663-.314-.932.204-.27.314-.596.314-.932a1.512 1.512 0 0 0-.053-.386 12.275 12.275 0 0 0 5.987-2.442c.066.114.148.219.242.313.242.236.556.39.894.436.046.334.202.643.444.881.63.62 1.652.62 2.283 0l-.248-.244.248.244a1.573 1.573 0 0 0-.896-2.684 1.55 1.55 0 0 0-.443-.88 1.56 1.56 0 0 0-.318-.238 11.879 11.879 0 0 0 2.481-5.892c.128.033.26.051.392.052.341 0 .673-.109.947-.31.274.201.606.31.947.31.891 0 1.614-.711 1.614-1.588 0-.877-.723-1.588-1.614-1.588-.341 0-.673.109-.947.31a1.606 1.606 0 0 0-.947-.31 1.582 1.582 0 0 0-.392.052 11.879 11.879 0 0 0-2.481-5.892 1.56 1.56 0 0 0 .318-.238 1.55 1.55 0 0 0 .443-.88c.34-.046.653-.2.896-.437h0c.629-.621.629-1.626 0-2.247h0a1.634 1.634 0 0 0-2.283 0h0a1.538 1.538 0 0 0-.444.88c-.338.048-.652.2-.895.437h0a1.54 1.54 0 0 0-.241.313 12.275 12.275 0 0 0-5.987-2.442c.034-.126.052-.256.053-.386 0-.336-.11-.662-.314-.932.204-.27.314-.596.314-.932 0-.877-.722-1.588-1.613-1.588s-1.614.711-1.614 1.588c0 .336.11.663.315.932-.204.27-.314.596-.315.932.001.13.02.26.054.386a12.275 12.275 0 0 0-5.987 2.442 1.541 1.541 0 0 0-.242-.313h0a1.594 1.594 0 0 0-.894-.436 1.539 1.539 0 0 0-.444-.881h0a1.634 1.634 0 0 0-2.283 0h0c-.63.62-.63 1.626 0 2.246h0c.242.238.556.392.895.438.048.332.203.641.444.88.095.092.202.172.318.238a11.879 11.879 0 0 0-2.482 5.892 1.582 1.582 0 0 0-.392-.052c-.34 0-.673.109-.947.31a1.606 1.606 0 0 0-.947-.31c-.89 0-1.613.71-1.613 1.588 0 .877.722 1.588 1.613 1.588.342 0 .674-.109.947-.31z"/></g><g><path fill="#142632" d="M13.827 10.557l.009.008a.872.872 0 0 1 .262.637l-.001.055a.342.342 0 0 0 .102.262c.07.07.168.106.267.1h.055a.925.925 0 0 1 .656.26.876.876 0 0 1 .26.629l-.002.066c-.007.1.03.198.103.269.072.07.171.107.273.1l.069-.003a.897.897 0 0 1 .637.258.868.868 0 0 1 .26.627l-.003.067c-.007.1.03.197.102.268.072.07.171.107.273.1l.067-.002c.156 0 .309.041.444.118-.51.297-.935.716-1.237 1.218a.88.88 0 0 1-.12-.438l.002-.066a.342.342 0 0 0-.101-.269.354.354 0 0 0-.273-.1l-.067.003a.905.905 0 0 1-.639-.257.869.869 0 0 1-.26-.626l.002-.067a.342.342 0 0 0-.101-.27.354.354 0 0 0-.274-.1l-.067.002a.904.904 0 0 1-.638-.256.895.895 0 0 1-.266-.646l.002-.054a.342.342 0 0 0-.102-.263.354.354 0 0 0-.268-.101l-.055.002a.9.9 0 0 1-.647-.259l-.008-.008a.771.771 0 0 1-.138-.178 9.053 9.053 0 0 1 1.242-1.221.78.78 0 0 1 .18.135zm6.49-2.14a.818.818 0 0 1 .035.23.886.886 0 0 1-.316.673.343.343 0 0 0 0 .518.877.877 0 0 1 0 1.346.343.343 0 0 0 0 .518.877.877 0 0 1 0 1.346.343.343 0 0 0 0 .518c.135.117.233.27.281.442a3.428 3.428 0 0 0-1.753 0 .911.911 0 0 1 .281-.442.343.343 0 0 0 0-.518.877.877 0 0 1 0-1.346.343.343 0 0 0 0-.518.877.877 0 0 1 0-1.346.343.343 0 0 0 0-.518.886.886 0 0 1-.316-.673c0-.078.012-.155.035-.23.29-.028.583-.047.877-.047.293 0 .587.02.876.048zm6.031 3.404l-.009.008a.902.902 0 0 1-.648.259l-.055-.002a.355.355 0 0 0-.268.1.342.342 0 0 0-.102.264l.002.054a.895.895 0 0 1-.906.902l-.067-.002a.355.355 0 0 0-.274.1.342.342 0 0 0-.102.27l.003.067a.868.868 0 0 1-.261.626.907.907 0 0 1-.64.257l-.067-.003a.355.355 0 0 0-.274.1.342.342 0 0 0-.102.27l.003.065a.879.879 0 0 1-.12.438 3.495 3.495 0 0 0-1.24-1.218.92.92 0 0 1 .445-.118l.067.002a.355.355 0 0 0 .274-.1.342.342 0 0 0 .102-.269l-.002-.066a.868.868 0 0 1 .26-.627.9.9 0 0 1 .638-.258l.069.003a.355.355 0 0 0 .274-.1.342.342 0 0 0 .102-.269l-.003-.066a.875.875 0 0 1 .261-.628.927.927 0 0 1 .658-.262l.055.002c.1.005.197-.031.268-.1a.342.342 0 0 0 .102-.264l-.001-.054a.87.87 0 0 1 .263-.637l.008-.008a.782.782 0 0 1 .181-.135c.454.367.87.776 1.244 1.221a.771.771 0 0 1-.138.178zm-7.82 14.225a.886.886 0 0 1 .317-.674.343.343 0 0 0 0-.518.877.877 0 0 1 0-1.346.343.343 0 0 0 0-.518.877.877 0 0 1 0-1.346.343.343 0 0 0 0-.518.912.912 0 0 1-.281-.442c.574.152 1.179.152 1.753 0a.912.912 0 0 1-.281.442.343.343 0 0 0 0 .518.877.877 0 0 1 0 1.346.343.343 0 0 0 0 .518.877.877 0 0 1 0 1.346.343.343 0 0 0 0 .518c.2.169.315.415.317.674a.817.817 0 0 1-.036.228c-.29.029-.583.048-.876.048a9.07 9.07 0 0 1-.877-.048.818.818 0 0 1-.035-.228zm-5.985-3.175l.008-.008a.9.9 0 0 1 .648-.259l.055.002c.099.005.196-.031.267-.1a.342.342 0 0 0 .102-.264l-.002-.054a.895.895 0 0 1 .266-.646c.17-.166.4-.258.638-.256l.067.002a.354.354 0 0 0 .273-.1.342.342 0 0 0 .102-.27l-.002-.067a.868.868 0 0 1 .26-.627.897.897 0 0 1 .639-.255l.067.002a.354.354 0 0 0 .273-.1.342.342 0 0 0 .101-.269l-.002-.066a.88.88 0 0 1 .12-.438c.302.502.727.921 1.237 1.218a.916.916 0 0 1-.444.118l-.068-.002a.354.354 0 0 0-.272.1.342.342 0 0 0-.102.269l.002.066a.876.876 0 0 1-.26.628.897.897 0 0 1-.636.257l-.07-.003a.354.354 0 0 0-.273.1.342.342 0 0 0-.102.269l.003.066a.876.876 0 0 1-.26.628.925.925 0 0 1-.657.262l-.055-.002a.354.354 0 0 0-.267.1.342.342 0 0 0-.102.264l.001.054a.872.872 0 0 1-.262.637l-.009.008a.78.78 0 0 1-.18.136 9.097 9.097 0 0 1-1.025-.967c-.075-.083-.145-.17-.217-.255a.768.768 0 0 1 .138-.178zm-.994-4.246a1.6 1.6 0 0 0 1.894 0 1.601 1.601 0 0 0 1.894 0c.131.096.276.172.43.225-.07.142-.118.295-.143.452a1.553 1.553 0 0 0-1.339 1.32 1.561 1.561 0 0 0-1.342 1.323 1.577 1.577 0 0 0-.884.438v-.001l-.006.006-.004.002c-.03.031-.06.063-.087.096a8.874 8.874 0 0 1-1.493-3.56c.044.005.088.009.133.009.341 0 .673-.11.947-.31zm3.525-.701a.904.904 0 0 1-.684.31.904.904 0 0 1-.684-.31.354.354 0 0 0-.526 0 .904.904 0 0 1-.684.31.904.904 0 0 1-.684-.31.354.354 0 0 0-.526 0 .914.914 0 0 1-.684.31.86.86 0 0 1-.233-.035 8.534 8.534 0 0 1-.048-.858c0-.288.02-.575.048-.858a.86.86 0 0 1 .233-.035.914.914 0 0 1 .684.31.354.354 0 0 0 .526 0c.17-.196.42-.31.684-.31.263 0 .513.114.684.31a.354.354 0 0 0 .526 0c.17-.196.42-.31.684-.31.263 0 .513.114.684.31a.354.354 0 0 0 .526 0 .93.93 0 0 1 .45-.275 3.236 3.236 0 0 0 0 1.716.931.931 0 0 1-.45-.275.356.356 0 0 0-.526 0zm-.749 6.697l.003-.003.006-.005v-.001c.238-.236.394-.541.442-.87a1.61 1.61 0 0 0 .897-.441 1.55 1.55 0 0 0 .444-.88 1.551 1.551 0 0 0 1.338-1.318c.16-.025.314-.072.459-.142.053.152.13.295.227.424a1.54 1.54 0 0 0 0 1.864 1.54 1.54 0 0 0 0 1.864c-.203.27-.313.597-.314.933 0 .044.005.087.008.13a9.136 9.136 0 0 1-3.606-1.469c.033-.028.066-.055.096-.086zm9.482-7.863c.17-.196.42-.31.684-.31.264 0 .514.114.684.31a.354.354 0 0 0 .526 0c.17-.196.42-.31.684-.31.263 0 .514.114.684.31a.354.354 0 0 0 .526 0 .914.914 0 0 1 .684-.31.86.86 0 0 1 .233.035c.028.283.048.57.048.858 0 .288-.02.575-.048.858a.86.86 0 0 1-.233.035.914.914 0 0 1-.684-.31.354.354 0 0 0-.526 0 .904.904 0 0 1-.684.31.904.904 0 0 1-.684-.31.354.354 0 0 0-.526 0 .904.904 0 0 1-.684.31.904.904 0 0 1-.684-.31.354.354 0 0 0-.526 0 .931.931 0 0 1-.449.275 3.236 3.236 0 0 0 0-1.716.93.93 0 0 1 .449.275.356.356 0 0 0 .526 0zm1.254 7.377l-.008-.008a.871.871 0 0 1-.263-.637l.001-.054a.342.342 0 0 0-.102-.263.355.355 0 0 0-.268-.1h-.055a.927.927 0 0 1-.658-.26.875.875 0 0 1-.26-.629l.002-.066a.342.342 0 0 0-.102-.269.355.355 0 0 0-.274-.1l-.07.003a.9.9 0 0 1-.637-.258.867.867 0 0 1-.26-.627l.002-.066a.342.342 0 0 0-.102-.269.355.355 0 0 0-.273-.1l-.068.002a.92.92 0 0 1-.445-.118 3.494 3.494 0 0 0 1.24-1.218c.077.134.119.284.12.438l-.003.066c-.007.1.03.198.102.269.072.07.172.107.274.1l.067-.002a.9.9 0 0 1 .639.255c.17.166.264.392.262.627l-.003.068c-.007.1.03.198.102.269.072.07.172.107.274.1l.067-.002a.895.895 0 0 1 .906.902l-.002.055a.342.342 0 0 0 .102.262c.071.07.168.106.268.1h.055a.903.903 0 0 1 .649.258l.008.008c.055.053.101.112.138.178-.374.445-.79.855-1.244 1.222a.782.782 0 0 1-.18-.136zm-4.321.978a1.54 1.54 0 0 0 0-1.864 1.54 1.54 0 0 0 0-1.864c.097-.13.174-.272.228-.424.144.07.299.117.458.141a1.551 1.551 0 0 0 1.338 1.318 1.56 1.56 0 0 0 1.34 1.321c.05.33.205.635.444.87v.002l.005.005.003.003c.03.03.063.058.096.086a9.136 9.136 0 0 1-3.606 1.47c.004-.044.008-.087.008-.131 0-.336-.11-.663-.314-.933zm6.091-2.722l-.003-.003-.005-.006c-.24-.235-.55-.389-.885-.437a1.572 1.572 0 0 0-.448-.885 1.593 1.593 0 0 0-.894-.437 1.553 1.553 0 0 0-1.34-1.321 1.563 1.563 0 0 0-.143-.452c.155-.053.3-.13.431-.225a1.601 1.601 0 0 0 1.894 0 1.6 1.6 0 0 0 1.894 0c.274.2.606.31.947.31.045 0 .09-.004.134-.008a8.874 8.874 0 0 1-1.494 3.559 1.458 1.458 0 0 0-.088-.095zm-3.574-7a1.546 1.546 0 0 0 1.34-1.317c.337-.046.65-.2.893-.436.242-.24.399-.549.448-.883.335-.048.645-.2.884-.436h.001l.005-.005.004-.002c.03-.031.06-.063.087-.095a8.838 8.838 0 0 1 1.494 3.55c-.045-.005-.089-.009-.134-.009-.341 0-.673.109-.947.31a1.605 1.605 0 0 0-1.894 0 1.605 1.605 0 0 0-1.894 0 1.625 1.625 0 0 0-.43-.225c.07-.142.118-.294.143-.451zm1.299-5.322l-.003.002-.006.006c-.238.235-.394.54-.442.87-.34.047-.654.202-.897.439-.24.238-.396.546-.444.878a1.55 1.55 0 0 0-1.338 1.316c-.16.024-.314.072-.458.141a1.578 1.578 0 0 0-.228-.423 1.534 1.534 0 0 0 0-1.86 1.534 1.534 0 0 0 0-1.861c.203-.27.314-.596.314-.93 0-.045-.004-.088-.008-.132a9.146 9.146 0 0 1 3.606 1.467 1.457 1.457 0 0 0-.096.087zM18.4 14.784h-.001a2.843 2.843 0 0 1 2.093 0l.057.022c.666.281 1.197.804 1.482 1.46l.023.055c.27.66.27 1.4 0 2.06l-.023.056a2.797 2.797 0 0 1-1.482 1.459l-.058.022a2.843 2.843 0 0 1-2.091 0l-.058-.022a2.797 2.797 0 0 1-1.482-1.459l-.022-.056c-.27-.66-.27-1.4 0-2.06l.022-.056a2.799 2.799 0 0 1 1.482-1.459zm-.945-1.204a1.55 1.55 0 0 0-1.338-1.316 1.547 1.547 0 0 0-.444-.878 1.611 1.611 0 0 0-.897-.44 1.532 1.532 0 0 0-.443-.869h.001l-.006-.006-.002-.003a1.454 1.454 0 0 0-.097-.086 9.145 9.145 0 0 1 3.606-1.467c-.003.044-.008.087-.008.131 0 .336.11.662.314.93a1.534 1.534 0 0 0 0 1.861 1.534 1.534 0 0 0 0 1.86 1.578 1.578 0 0 0-.227.424 1.62 1.62 0 0 0-.459-.14zm-5.493-1.363c.028.032.056.064.088.094l.003.003.005.006c.24.234.55.387.885.435.05.334.206.644.448.883.242.237.556.39.894.436.047.334.203.643.444.881.243.237.557.39.895.437.025.157.073.309.144.451-.155.053-.3.129-.431.224a1.605 1.605 0 0 0-1.894 0 1.605 1.605 0 0 0-1.894 0 1.606 1.606 0 0 0-.947-.309c-.045 0-.09.004-.133.008a8.838 8.838 0 0 1 1.493-3.55zm-2.27 6.276a9.534 9.534 0 0 0 2.03 4.827 9.852 9.852 0 0 0 6.553 3.621 9.637 9.637 0 0 0 2.33 0h.001a9.851 9.851 0 0 0 4.904-1.997 9.775 9.775 0 0 0 1.65-1.624 9.534 9.534 0 0 0 2.03-4.826v-.002a9.192 9.192 0 0 0 0-2.293 9.533 9.533 0 0 0-2.03-4.827 9.851 9.851 0 0 0-6.553-3.621h-.002a9.638 9.638 0 0 0-2.33 0c-1.791.208-3.488.899-4.904 1.998a9.763 9.763 0 0 0-1.65 1.623 9.533 9.533 0 0 0-2.029 4.826v.002a9.192 9.192 0 0 0 0 2.293z"/><path fill="none" stroke="#000" stroke-miterlimit="20" stroke-width=".1" d="M13.827 10.557l.009.008a.872.872 0 0 1 .262.637l-.001.055a.342.342 0 0 0 .102.262c.07.07.168.106.267.1h.055a.925.925 0 0 1 .656.26.876.876 0 0 1 .26.629l-.002.066c-.007.1.03.198.103.269.072.07.171.107.273.1l.069-.003a.897.897 0 0 1 .637.258.868.868 0 0 1 .26.627l-.003.067c-.007.1.03.197.102.268.072.07.171.107.273.1l.067-.002c.156 0 .309.041.444.118-.51.297-.935.716-1.237 1.218a.88.88 0 0 1-.12-.438l.002-.066a.342.342 0 0 0-.101-.269.354.354 0 0 0-.273-.1l-.067.003a.905.905 0 0 1-.639-.257h0a.869.869 0 0 1-.26-.626l.002-.067a.342.342 0 0 0-.101-.27.354.354 0 0 0-.274-.1l-.067.002a.904.904 0 0 1-.638-.256h0a.895.895 0 0 1-.266-.646l.002-.054a.342.342 0 0 0-.102-.263.354.354 0 0 0-.268-.101l-.055.002a.9.9 0 0 1-.647-.259l-.008-.008a.771.771 0 0 1-.138-.178 9.053 9.053 0 0 1 1.242-1.221.78.78 0 0 1 .18.135zm6.49-2.14a.818.818 0 0 1 .035.23.886.886 0 0 1-.316.673.343.343 0 0 0 0 .518.877.877 0 0 1 0 1.346.343.343 0 0 0 0 .518.877.877 0 0 1 0 1.346.343.343 0 0 0 0 .518c.135.117.233.27.281.442a3.428 3.428 0 0 0-1.753 0 .911.911 0 0 1 .281-.442.343.343 0 0 0 0-.518.877.877 0 0 1 0-1.346.343.343 0 0 0 0-.518.877.877 0 0 1 0-1.346.343.343 0 0 0 0-.518.886.886 0 0 1-.316-.673c0-.078.012-.155.035-.23.29-.028.583-.047.877-.047.293 0 .587.02.876.048zm6.031 3.404l-.009.008a.902.902 0 0 1-.648.259l-.055-.002a.355.355 0 0 0-.268.1.342.342 0 0 0-.102.264l.002.054a.895.895 0 0 1-.906.902l-.067-.002a.355.355 0 0 0-.274.1.342.342 0 0 0-.102.27l.003.067a.868.868 0 0 1-.261.626h0a.907.907 0 0 1-.64.257l-.067-.003a.355.355 0 0 0-.274.1.342.342 0 0 0-.102.27l.003.065a.879.879 0 0 1-.12.438 3.495 3.495 0 0 0-1.24-1.218.92.92 0 0 1 .445-.118l.067.002a.355.355 0 0 0 .274-.1.342.342 0 0 0 .102-.269l-.002-.066a.868.868 0 0 1 .26-.627.9.9 0 0 1 .638-.258l.069.003a.355.355 0 0 0 .274-.1.342.342 0 0 0 .102-.269l-.003-.066a.875.875 0 0 1 .261-.628h0a.927.927 0 0 1 .658-.262l.055.002c.1.005.197-.031.268-.1a.342.342 0 0 0 .102-.264l-.001-.054a.87.87 0 0 1 .263-.637l.008-.008a.782.782 0 0 1 .181-.135c.454.367.87.776 1.244 1.221a.771.771 0 0 1-.138.178zm-7.82 14.225a.886.886 0 0 1 .317-.674.343.343 0 0 0 0-.518.877.877 0 0 1 0-1.346.343.343 0 0 0 0-.518.877.877 0 0 1 0-1.346.343.343 0 0 0 0-.518.912.912 0 0 1-.281-.442c.574.152 1.179.152 1.753 0a.912.912 0 0 1-.281.442.343.343 0 0 0 0 .518.877.877 0 0 1 0 1.346.343.343 0 0 0 0 .518.877.877 0 0 1 0 1.346.343.343 0 0 0 0 .518c.2.169.315.415.317.674a.817.817 0 0 1-.036.228c-.29.029-.583.048-.876.048a9.07 9.07 0 0 1-.877-.048.818.818 0 0 1-.035-.228zm-5.985-3.175l.008-.008a.9.9 0 0 1 .648-.259l.055.002c.099.005.196-.031.267-.1a.342.342 0 0 0 .102-.264l-.002-.054a.895.895 0 0 1 .266-.646c.17-.166.4-.258.638-.256l.067.002a.354.354 0 0 0 .273-.1.342.342 0 0 0 .102-.27l-.002-.067a.868.868 0 0 1 .26-.627.897.897 0 0 1 .639-.255l.067.002a.354.354 0 0 0 .273-.1.342.342 0 0 0 .101-.269l-.002-.066a.88.88 0 0 1 .12-.438c.302.502.727.921 1.237 1.218a.916.916 0 0 1-.444.118l-.068-.002a.354.354 0 0 0-.272.1.342.342 0 0 0-.102.269l.002.066a.876.876 0 0 1-.26.628h0a.897.897 0 0 1-.636.257l-.07-.003a.354.354 0 0 0-.273.1.342.342 0 0 0-.102.269l.003.066a.876.876 0 0 1-.26.628.925.925 0 0 1-.657.262l-.055-.002a.354.354 0 0 0-.267.1.342.342 0 0 0-.102.264l.001.054a.872.872 0 0 1-.262.637l-.009.008a.78.78 0 0 1-.18.136 9.097 9.097 0 0 1-1.025-.967c-.075-.083-.145-.17-.217-.255a.768.768 0 0 1 .138-.178zm-.994-4.246a1.6 1.6 0 0 0 1.894 0 1.601 1.601 0 0 0 1.894 0c.131.096.276.172.43.225-.07.142-.118.295-.143.452a1.553 1.553 0 0 0-1.339 1.32 1.561 1.561 0 0 0-1.342 1.323 1.577 1.577 0 0 0-.884.438v-.001l-.006.006-.004.002h0c-.03.031-.06.063-.087.096a8.874 8.874 0 0 1-1.493-3.56c.044.005.088.009.133.009.341 0 .673-.11.947-.31zm3.525-.701a.904.904 0 0 1-.684.31.904.904 0 0 1-.684-.31.354.354 0 0 0-.526 0 .904.904 0 0 1-.684.31.904.904 0 0 1-.684-.31.354.354 0 0 0-.526 0 .914.914 0 0 1-.684.31.86.86 0 0 1-.233-.035 8.534 8.534 0 0 1-.048-.858c0-.288.02-.575.048-.858a.86.86 0 0 1 .233-.035.914.914 0 0 1 .684.31.354.354 0 0 0 .526 0c.17-.196.42-.31.684-.31.263 0 .513.114.684.31a.354.354 0 0 0 .526 0c.17-.196.42-.31.684-.31.263 0 .513.114.684.31a.354.354 0 0 0 .526 0 .93.93 0 0 1 .45-.275 3.236 3.236 0 0 0 0 1.716.931.931 0 0 1-.45-.275.356.356 0 0 0-.526 0zm-.749 6.697h0l.003-.003.006-.005v-.001c.238-.236.394-.541.442-.87a1.61 1.61 0 0 0 .897-.441h0a1.55 1.55 0 0 0 .444-.88c.338-.047.652-.2.895-.438h0c.24-.239.396-.548.443-.88.16-.025.314-.072.459-.142.053.152.13.295.227.424a1.54 1.54 0 0 0 0 1.864 1.54 1.54 0 0 0 0 1.864c-.203.27-.313.597-.314.933 0 .044.005.087.008.13a9.136 9.136 0 0 1-3.606-1.469c.033-.028.066-.055.096-.086zm9.482-7.863c.17-.196.42-.31.684-.31.264 0 .514.114.684.31a.354.354 0 0 0 .526 0c.17-.196.42-.31.684-.31.263 0 .514.114.684.31a.354.354 0 0 0 .526 0 .914.914 0 0 1 .684-.31.86.86 0 0 1 .233.035c.028.283.048.57.048.858 0 .288-.02.575-.048.858a.86.86 0 0 1-.233.035.914.914 0 0 1-.684-.31.354.354 0 0 0-.526 0 .904.904 0 0 1-.684.31.904.904 0 0 1-.684-.31.354.354 0 0 0-.526 0 .904.904 0 0 1-.684.31.904.904 0 0 1-.684-.31.354.354 0 0 0-.526 0 .931.931 0 0 1-.449.275 3.236 3.236 0 0 0 0-1.716.93.93 0 0 1 .449.275.356.356 0 0 0 .526 0zm1.254 7.377l-.008-.008a.871.871 0 0 1-.263-.637l.001-.054a.342.342 0 0 0-.102-.263.355.355 0 0 0-.268-.1h-.055a.927.927 0 0 1-.658-.26.875.875 0 0 1-.26-.629l.002-.066a.342.342 0 0 0-.102-.269.355.355 0 0 0-.274-.1l-.07.003a.9.9 0 0 1-.637-.258.867.867 0 0 1-.26-.627l.002-.066a.342.342 0 0 0-.102-.269.355.355 0 0 0-.273-.1l-.068.002a.92.92 0 0 1-.445-.118 3.494 3.494 0 0 0 1.24-1.218c.077.134.119.284.12.438l-.003.066c-.007.1.03.198.102.269.072.07.172.107.274.1l.067-.002a.9.9 0 0 1 .639.255c.17.166.264.392.262.627l-.003.068c-.007.1.03.198.102.269.072.07.172.107.274.1l.067-.002a.895.895 0 0 1 .906.902l-.002.055a.342.342 0 0 0 .102.262c.071.07.168.106.268.1h.055a.903.903 0 0 1 .649.258l.008.008c.055.053.101.112.138.178-.374.445-.79.855-1.244 1.222a.782.782 0 0 1-.18-.136zm-4.321.978a1.54 1.54 0 0 0 0-1.864 1.54 1.54 0 0 0 0-1.864c.097-.13.174-.272.228-.424.144.07.299.117.458.141a1.551 1.551 0 0 0 1.338 1.318 1.56 1.56 0 0 0 1.34 1.321c.05.33.205.635.444.87v.002l.005.005.003.003h0c.03.03.063.058.096.086a9.136 9.136 0 0 1-3.606 1.47c.004-.044.008-.087.008-.131 0-.336-.11-.663-.314-.933zm6.091-2.722h0l-.003-.003-.005-.006h0c-.24-.235-.55-.389-.885-.437a1.572 1.572 0 0 0-.448-.885h0a1.593 1.593 0 0 0-.894-.437 1.553 1.553 0 0 0-1.34-1.321 1.563 1.563 0 0 0-.143-.452c.155-.053.3-.13.431-.225a1.601 1.601 0 0 0 1.894 0 1.6 1.6 0 0 0 1.894 0c.274.2.606.31.947.31.045 0 .09-.004.134-.008a8.874 8.874 0 0 1-1.494 3.559 1.458 1.458 0 0 0-.088-.095zm-3.574-7c.338-.046.652-.199.895-.435h0c.241-.24.397-.548.444-.882.338-.046.652-.2.894-.436h0c.242-.24.399-.549.448-.883.335-.048.645-.2.884-.436h.001l.005-.005.004-.002h0c.03-.031.06-.063.087-.095a8.838 8.838 0 0 1 1.494 3.55c-.045-.005-.089-.009-.134-.009-.341 0-.673.109-.947.31a1.605 1.605 0 0 0-1.894 0 1.605 1.605 0 0 0-1.894 0 1.625 1.625 0 0 0-.43-.225c.07-.142.118-.294.143-.451zm1.299-5.322h0l-.003.002-.006.006h0c-.238.235-.394.54-.442.87-.34.047-.654.202-.897.439h0c-.24.238-.396.546-.444.878a1.55 1.55 0 0 0-1.338 1.316c-.16.024-.314.072-.458.141a1.578 1.578 0 0 0-.228-.423 1.534 1.534 0 0 0 0-1.86 1.534 1.534 0 0 0 0-1.861c.203-.27.314-.596.314-.93 0-.045-.004-.088-.008-.132a9.146 9.146 0 0 1 3.606 1.467 1.457 1.457 0 0 0-.096.087zM18.4 14.784h-.001a2.843 2.843 0 0 1 2.093 0h0l.057.022c.666.281 1.197.804 1.482 1.46l.023.055c.27.66.27 1.4 0 2.06l-.023.056a2.797 2.797 0 0 1-1.482 1.459l-.058.022a2.843 2.843 0 0 1-2.091 0l-.058-.022a2.797 2.797 0 0 1-1.482-1.459l-.022-.056c-.27-.66-.27-1.4 0-2.06l.022-.056a2.799 2.799 0 0 1 1.482-1.459zm-.945-1.204a1.55 1.55 0 0 0-1.338-1.316 1.547 1.547 0 0 0-.444-.878h0a1.611 1.611 0 0 0-.897-.44 1.532 1.532 0 0 0-.443-.869h.001l-.006-.006-.002-.003h0a1.454 1.454 0 0 0-.097-.086 9.145 9.145 0 0 1 3.606-1.467c-.003.044-.008.087-.008.131 0 .336.11.662.314.93a1.534 1.534 0 0 0 0 1.861 1.534 1.534 0 0 0 0 1.86 1.578 1.578 0 0 0-.227.424 1.62 1.62 0 0 0-.459-.14zm-5.493-1.363c.028.032.056.064.088.094h0l.003.003.005.006h0c.24.234.55.387.885.435.05.334.206.644.448.883h0c.242.237.556.39.894.436.047.334.203.643.444.881h0c.243.237.557.39.895.437.025.157.073.309.144.451-.155.053-.3.129-.431.224a1.605 1.605 0 0 0-1.894 0 1.605 1.605 0 0 0-1.894 0 1.606 1.606 0 0 0-.947-.309c-.045 0-.09.004-.133.008a8.838 8.838 0 0 1 1.493-3.55zm-2.27 6.276h0a9.534 9.534 0 0 0 2.03 4.827h0a9.852 9.852 0 0 0 6.553 3.621h0a9.637 9.637 0 0 0 2.33 0h.001a9.851 9.851 0 0 0 4.904-1.997h0a9.775 9.775 0 0 0 1.65-1.624h0a9.534 9.534 0 0 0 2.03-4.826h0v-.002h0a9.192 9.192 0 0 0 0-2.293h0a9.533 9.533 0 0 0-2.03-4.827h0a9.763 9.763 0 0 0-1.65-1.623h0a9.851 9.851 0 0 0-4.903-1.998h0-.002 0a9.638 9.638 0 0 0-2.33 0h0c-1.791.208-3.488.899-4.904 1.998h0a9.763 9.763 0 0 0-1.65 1.623h0a9.533 9.533 0 0 0-2.029 4.826h0v.002h0a9.192 9.192 0 0 0 0 2.293z"/></g><g><path fill="#142632" d="M20.355 17.348c0 .497-.41.9-.917.9a.908.908 0 0 1-.917-.9.91.91 0 0 1 .917-.9c.507 0 .917.403.917.9zm-.922 1.588c.891 0 1.614-.71 1.614-1.588 0-.877-.723-1.588-1.614-1.588-.89 0-1.613.711-1.613 1.588 0 .877.722 1.588 1.613 1.588z"/><path fill="none" stroke="#000" stroke-miterlimit="20" stroke-width=".4" d="M20.355 17.348c0 .497-.41.9-.917.9a.908.908 0 0 1-.917-.9.91.91 0 0 1 .917-.9c.507 0 .917.403.917.9zm-.922 1.588c.891 0 1.614-.71 1.614-1.588 0-.877-.723-1.588-1.614-1.588-.89 0-1.613.711-1.613 1.588 0 .877.722 1.588 1.613 1.588z"/></g></g></g></g></svg>