<svg version="1.2" baseProfile="tiny-ps" xmlns="http://www.w3.org/2000/svg" viewBox="0 0 131 132" width="131" height="132">
	<title>Aboutus_v5</title>
	<style>
		tspan { white-space:pre }
		.shp0 { fill: none;stroke: #efefef;stroke-width: 3 } 
		.shp1 { fill: #ffffff;stroke: #ffffff } 
	</style>
	<g id="Aboutus_v5">
		<g id="Red bar">
			<g id="Donation">
				<g id="picto">
					<g id="picto">
						<path id="Oval 2" class="shp0" d="M2 66C2 30.65 30.43 2 65.5 2C100.57 2 129 30.65 129 66C129 101.35 100.57 130 65.5 130C30.43 130 2 101.35 2 66Z" />
						<path id="Fill 4" fill-rule="evenodd" class="shp1" d="M84.69 61.25C84.34 70.4 77.47 77.56 69.04 77.56L62.96 77.56C54.53 77.56 47.66 70.4 47.31 61.25C47.3 60.95 47.29 60.65 47.29 60.35L47.29 57.13C52.32 58.75 58.91 59.63 66 59.63C71.94 59.63 77.57 59.01 82.27 57.83L81.99 56.43C77.38 57.58 71.85 58.2 66 58.2C58.97 58.2 52.19 57.26 47.29 55.64L47.29 52.02C51.6 54.57 65.31 54.61 66 54.61C66.69 54.61 80.39 54.57 84.71 52.02L84.71 55.64C84.24 55.79 83.76 55.95 83.26 56.09L83.58 57.48C83.96 57.37 84.34 57.25 84.71 57.13L84.71 60.35C84.71 60.65 84.7 60.95 84.69 61.25ZM84.7 50.3C84.28 51.35 77.75 53.17 66 53.17C54.17 53.17 47.64 51.32 47.29 50.33L47.29 50.32C47.64 49.28 54.17 47.43 66 47.43C77.75 47.43 84.28 49.26 84.7 50.3ZM46 50.3L46 60.35C46 60.67 46.01 60.99 46.02 61.31C46.4 71.23 53.84 79 62.96 79L69.04 79C78.16 79 85.6 71.23 85.98 61.31C85.99 60.99 86 60.67 86 60.35L86 50.3C86 46.05 66.82 46 66 46C65.18 46 46 46.05 46 50.3Z" />
						<path id="Fill 1" fill-rule="evenodd" class="shp1" d="M63.83 29.06C64.31 29.06 64.85 29.22 65.23 29.5C65.39 29.61 65.61 29.61 65.82 29.5C66.25 29.22 66.74 29.06 67.23 29.06C68.73 29.06 69.92 30.33 69.92 31.83C69.92 34.39 66.52 37 65.5 37.72C64.48 37 61.08 34.39 61.08 31.83C61.13 30.33 62.32 29.06 63.83 29.06ZM65.5 39C65.61 39 65.72 38.94 65.77 38.89C65.99 38.78 71 35.44 71 31.89C71 29.72 69.27 28 67.23 28C66.63 28 66.04 28.17 65.5 28.44C64.96 28.17 64.37 28 63.77 28C61.67 28 60 29.78 60 31.89C60.05 35.44 65.01 38.72 65.23 38.89C65.34 38.94 65.39 39 65.5 39Z" />
						<path id="Fill 1" fill-rule="evenodd" class="shp1" d="M76.19 91.5L76.19 87.5L82.32 87.5C83.67 87.5 84.77 88.4 84.77 89.5C84.77 90.6 83.67 91.5 82.32 91.5L76.19 91.5ZM54.74 92L54.13 92L54.13 87L54.72 87L57.81 87.07L57.81 91.93L54.74 92ZM52.29 87L52.9 87L52.9 92L52.29 92C50.6 92 49.23 90.88 49.23 89.5C49.23 88.12 50.6 87 52.29 87ZM74.97 91.51L59.03 91.9L59.03 87.1L74.97 87.49L74.97 91.51ZM75.59 86.5L54.74 86L52.29 86C49.92 86 48 87.57 48 89.5C48 91.43 49.92 93 52.29 93L54.76 93L75.58 92.5L82.32 92.5C84.35 92.5 86 91.15 86 89.5C86 87.85 84.35 86.5 82.32 86.5L75.59 86.5Z" />
					</g>
				</g>
			</g>
		</g>
	</g>
</svg>