<?xml version="1.0" encoding="utf-8"?>
<!-- Generator: Adobe Illustrator 24.0.1, SVG Export Plug-In . SVG Version: 6.00 Build 0)  -->
<svg version="1.1" id="Layer_1" xmlns="http://www.w3.org/2000/svg" xmlns:xlink="http://www.w3.org/1999/xlink" x="0px" y="0px"
	 viewBox="0 0 136 138" style="enable-background:new 0 0 136 138;" xml:space="preserve">
<style type="text/css">
	.st0{fill:none;stroke:#EFEFEF;stroke-width:3;}
	.st1{filter:url(#Adobe_OpacityMaskFilter);}
	.st2{fill-rule:evenodd;clip-rule:evenodd;fill:#FFFFFF;}
	.st3{mask:url(#mask-2_1_);fill-rule:evenodd;clip-rule:evenodd;}
	.st4{filter:url(#Adobe_OpacityMaskFilter_1_);}
	.st5{mask:url(#mask-4_1_);fill-rule:evenodd;clip-rule:evenodd;fill:#FFFFFF;stroke:#FFFFFF;stroke-width:0.3;}
</style>
<title>LIBRARY</title>
<desc>Created with Sketch.</desc>
<g id="LIBRARY">
	<g id="Group-25">
		<ellipse id="Oval-2" class="st0" cx="66.7" cy="67" rx="63.5" ry="64"/>
		<g id="Clip-2">
		</g>
		<defs>
			<filter id="Adobe_OpacityMaskFilter" filterUnits="userSpaceOnUse" x="39.3" y="28" width="55.6" height="67.9">
				<feColorMatrix  type="matrix" values="1 0 0 0 0  0 1 0 0 0  0 0 1 0 0  0 0 0 1 0"/>
			</filter>
		</defs>
		<mask maskUnits="userSpaceOnUse" x="39.3" y="28" width="55.6" height="67.9" id="mask-2_1_">
			<g class="st1">
				<polygon id="path-1_1_" class="st2" points="-794.8,-909 -715,-909 -715,-819 -794.8,-819 				"/>
			</g>
		</mask>
		<path id="Fill-1" class="st3" d="M50.6,75.3c0-0.5,0.3-0.8,0.8-0.8h10.3c0.4,0,0.8,0.4,0.8,0.8c0,0.5-0.3,0.8-0.8,0.8H51.4
			C51,76.2,50.6,75.8,50.6,75.3z M50.6,72.2c0-0.5,0.3-0.8,0.8-0.8h10.3c0.4,0,0.8,0.4,0.8,0.8c0,0.5-0.3,0.8-0.8,0.8H51.4
			C51,73.1,50.6,72.7,50.6,72.2z M50.6,69.1c0-0.5,0.3-0.8,0.8-0.8h10.3c0.4,0,0.8,0.4,0.8,0.8c0,0.5-0.3,0.8-0.8,0.8H51.4
			C51,70,50.6,69.6,50.6,69.1z M50.6,66c0-0.5,0.3-0.8,0.8-0.8h10.3c0.4,0,0.8,0.4,0.8,0.8s-0.3,0.8-0.8,0.8H51.4
			C51,66.9,50.6,66.5,50.6,66z M50.6,62.9c0-0.5,0.3-0.8,0.8-0.8h10.3c0.4,0,0.8,0.4,0.8,0.8s-0.3,0.8-0.8,0.8H51.4
			C51,63.8,50.6,63.4,50.6,62.9z M50.6,59.8c0-0.5,0.3-0.8,0.8-0.8h10.3c0.4,0,0.8,0.4,0.8,0.8s-0.3,0.8-0.8,0.8H51.4
			C51,60.7,50.6,60.3,50.6,59.8z M50.6,56.7c0-0.5,0.3-0.8,0.8-0.8h10.3c0.4,0,0.8,0.4,0.8,0.8s-0.3,0.8-0.8,0.8H51.4
			C51,57.6,50.6,57.2,50.6,56.7z M71.8,75.3c0-0.5,0.3-0.8,0.8-0.8h10.3c0.4,0,0.8,0.4,0.8,0.8c0,0.5-0.3,0.8-0.8,0.8H72.5
			C72.1,76.2,71.8,75.8,71.8,75.3z M71.8,72.2c0-0.5,0.3-0.8,0.8-0.8h10.3c0.4,0,0.8,0.4,0.8,0.8c0,0.5-0.3,0.8-0.8,0.8H72.5
			C72.1,73.1,71.8,72.7,71.8,72.2z M71.8,69.1c0-0.5,0.3-0.8,0.8-0.8h10.3c0.4,0,0.8,0.4,0.8,0.8c0,0.5-0.3,0.8-0.8,0.8H72.5
			C72.1,70,71.8,69.6,71.8,69.1z M71.8,66c0-0.5,0.3-0.8,0.8-0.8h10.3c0.4,0,0.8,0.4,0.8,0.8s-0.3,0.8-0.8,0.8H72.5
			C72.1,66.9,71.8,66.5,71.8,66z M71.8,62.9c0-0.5,0.3-0.8,0.8-0.8h10.3c0.4,0,0.8,0.4,0.8,0.8s-0.3,0.8-0.8,0.8H72.5
			C72.1,63.8,71.8,63.4,71.8,62.9z M71.8,59.8c0-0.5,0.3-0.8,0.8-0.8h10.3c0.4,0,0.8,0.4,0.8,0.8s-0.3,0.8-0.8,0.8H72.5
			C72.1,60.7,71.8,60.3,71.8,59.8z M71.8,56.7c0-0.5,0.3-0.8,0.8-0.8h10.3c0.4,0,0.8,0.4,0.8,0.8s-0.3,0.8-0.8,0.8H72.5
			C72.1,57.6,71.8,57.2,71.8,56.7z M73.8,53.3h11.8v2.4v23H73.8c-2.4,0-4.6,1.3-5.9,3.2V62.9v-3.2C67.9,56.2,70.5,53.3,73.8,53.3z
			 M84.5,85.4H69.9c-0.4,0-0.8,0.4-0.8,0.8c0,1.2-0.9,2.2-2.1,2.2c-1.1,0-2.1-1-2.1-2.2c0-0.5-0.3-0.8-0.8-0.8H49.7v-1.9h10.7
			c3.7,0,5.4,0.2,5.9,2.2c0.1,0.3,0.1,0.7,0.1,1c0,0.5,0.3,0.8,0.8,0.8s0.8-0.4,0.8-0.8c0-0.4,0-0.7,0.1-1c0.4-2,2.2-2.2,5.9-2.2
			h10.7V85.4z M48.6,81.9v-1.6h11.8c1.6,0,3.1,0.7,4.2,1.9c-1.3-0.3-2.8-0.3-4.2-0.3H48.6z M48.6,53.3h11.8c3.3,0,6,2.9,6,6.5v3.2
			v18.9c-1.4-1.9-3.5-3.2-6-3.2H48.6v-23V53.3z M85.6,81.9H73.8c-1.4,0-2.9,0-4.2,0.3c1.1-1.2,2.6-1.9,4.2-1.9h11.8V81.9z
			 M60.4,51.6H47.9c-0.4,0-0.8,0.4-0.8,0.8v3.2v23.8v3.2c0,0.5,0.3,0.8,0.8,0.8h0.3v2.7c0,0.5,0.3,0.8,0.8,0.8h14.7
			c0.4,1.8,1.8,3.1,3.5,3.1c1.7,0,3.2-1.3,3.5-3.1h14.7c0.4,0,0.8-0.4,0.8-0.8v-2.7h0.3c0.4,0,0.8-0.4,0.8-0.8v-3.2V55.7v-3.2
			c0-0.5-0.3-0.8-0.8-0.8H73.8c-3,0-5.5,1.9-6.7,4.6C65.9,53.5,63.4,51.6,60.4,51.6z M93.4,94.3H40.8V49.6L67.1,30l26.3,19.6V94.3z
			 M67.1,28L39.3,48.7v47.3h55.6V48.7L67.1,28z"/>
		<g id="Clip-2_1_">
		</g>
		<defs>
			<filter id="Adobe_OpacityMaskFilter_1_" filterUnits="userSpaceOnUse" x="39.2" y="27.8" width="55.9" height="68.3">
				<feColorMatrix  type="matrix" values="1 0 0 0 0  0 1 0 0 0  0 0 1 0 0  0 0 0 1 0"/>
			</filter>
		</defs>
		<mask maskUnits="userSpaceOnUse" x="39.2" y="27.8" width="55.9" height="68.3" id="mask-4_1_">
			<g class="st4">
				<polygon id="path-3_1_" class="st2" points="39.3,28 94.9,28 94.9,95.9 39.3,95.9 				"/>
			</g>
		</mask>
		<path id="Fill-1_1_" class="st5" d="M50.6,75.3c0-0.5,0.3-0.8,0.8-0.8h10.3c0.4,0,0.8,0.4,0.8,0.8c0,0.5-0.3,0.8-0.8,0.8H51.4
			C51,76.2,50.6,75.8,50.6,75.3z M50.6,72.2c0-0.5,0.3-0.8,0.8-0.8h10.3c0.4,0,0.8,0.4,0.8,0.8c0,0.5-0.3,0.8-0.8,0.8H51.4
			C51,73.1,50.6,72.7,50.6,72.2z M50.6,69.1c0-0.5,0.3-0.8,0.8-0.8h10.3c0.4,0,0.8,0.4,0.8,0.8c0,0.5-0.3,0.8-0.8,0.8H51.4
			C51,70,50.6,69.6,50.6,69.1z M50.6,66c0-0.5,0.3-0.8,0.8-0.8h10.3c0.4,0,0.8,0.4,0.8,0.8s-0.3,0.8-0.8,0.8H51.4
			C51,66.9,50.6,66.5,50.6,66z M50.6,62.9c0-0.5,0.3-0.8,0.8-0.8h10.3c0.4,0,0.8,0.4,0.8,0.8s-0.3,0.8-0.8,0.8H51.4
			C51,63.8,50.6,63.4,50.6,62.9z M50.6,59.8c0-0.5,0.3-0.8,0.8-0.8h10.3c0.4,0,0.8,0.4,0.8,0.8s-0.3,0.8-0.8,0.8H51.4
			C51,60.7,50.6,60.3,50.6,59.8z M50.6,56.7c0-0.5,0.3-0.8,0.8-0.8h10.3c0.4,0,0.8,0.4,0.8,0.8s-0.3,0.8-0.8,0.8H51.4
			C51,57.6,50.6,57.2,50.6,56.7z M71.8,75.3c0-0.5,0.3-0.8,0.8-0.8h10.3c0.4,0,0.8,0.4,0.8,0.8c0,0.5-0.3,0.8-0.8,0.8H72.5
			C72.1,76.2,71.8,75.8,71.8,75.3z M71.8,72.2c0-0.5,0.3-0.8,0.8-0.8h10.3c0.4,0,0.8,0.4,0.8,0.8c0,0.5-0.3,0.8-0.8,0.8H72.5
			C72.1,73.1,71.8,72.7,71.8,72.2z M71.8,69.1c0-0.5,0.3-0.8,0.8-0.8h10.3c0.4,0,0.8,0.4,0.8,0.8c0,0.5-0.3,0.8-0.8,0.8H72.5
			C72.1,70,71.8,69.6,71.8,69.1z M71.8,66c0-0.5,0.3-0.8,0.8-0.8h10.3c0.4,0,0.8,0.4,0.8,0.8s-0.3,0.8-0.8,0.8H72.5
			C72.1,66.9,71.8,66.5,71.8,66z M71.8,62.9c0-0.5,0.3-0.8,0.8-0.8h10.3c0.4,0,0.8,0.4,0.8,0.8s-0.3,0.8-0.8,0.8H72.5
			C72.1,63.8,71.8,63.4,71.8,62.9z M71.8,59.8c0-0.5,0.3-0.8,0.8-0.8h10.3c0.4,0,0.8,0.4,0.8,0.8s-0.3,0.8-0.8,0.8H72.5
			C72.1,60.7,71.8,60.3,71.8,59.8z M71.8,56.7c0-0.5,0.3-0.8,0.8-0.8h10.3c0.4,0,0.8,0.4,0.8,0.8s-0.3,0.8-0.8,0.8H72.5
			C72.1,57.6,71.8,57.2,71.8,56.7z M73.8,53.3h11.8v2.4v23H73.8c-2.4,0-4.6,1.3-5.9,3.2V62.9v-3.2C67.9,56.2,70.5,53.3,73.8,53.3z
			 M84.5,85.4H69.9c-0.4,0-0.8,0.4-0.8,0.8c0,1.2-0.9,2.2-2.1,2.2c-1.1,0-2.1-1-2.1-2.2c0-0.5-0.3-0.8-0.8-0.8H49.7v-1.9h10.7
			c3.7,0,5.4,0.2,5.9,2.2c0.1,0.3,0.1,0.7,0.1,1c0,0.5,0.3,0.8,0.8,0.8s0.8-0.4,0.8-0.8c0-0.4,0-0.7,0.1-1c0.4-2,2.2-2.2,5.9-2.2
			h10.7V85.4z M48.6,81.9v-1.6h11.8c1.6,0,3.1,0.7,4.2,1.9c-1.3-0.3-2.8-0.3-4.2-0.3H48.6z M48.6,53.3h11.8c3.3,0,6,2.9,6,6.5v3.2
			v18.9c-1.4-1.9-3.5-3.2-6-3.2H48.6v-23V53.3z M85.6,81.9H73.8c-1.4,0-2.9,0-4.2,0.3c1.1-1.2,2.6-1.9,4.2-1.9h11.8V81.9z
			 M60.4,51.6H47.9c-0.4,0-0.8,0.4-0.8,0.8v3.2v23.8v3.2c0,0.5,0.3,0.8,0.8,0.8h0.3v2.7c0,0.5,0.3,0.8,0.8,0.8h14.7
			c0.4,1.8,1.8,3.1,3.5,3.1c1.7,0,3.2-1.3,3.5-3.1h14.7c0.4,0,0.8-0.4,0.8-0.8v-2.7h0.3c0.4,0,0.8-0.4,0.8-0.8v-3.2V55.7v-3.2
			c0-0.5-0.3-0.8-0.8-0.8H73.8c-3,0-5.5,1.9-6.7,4.6C65.9,53.5,63.4,51.6,60.4,51.6z M93.4,94.3H40.8V49.6L67.1,30l26.3,19.6V94.3z
			 M67.1,28L39.3,48.7v47.3h55.6V48.7L67.1,28z"/>
	</g>
</g>
</svg>
