<?xml version="1.0" encoding="utf-8"?>
<!-- Generator: Adobe Illustrator 18.1.1, SVG Export Plug-In . SVG Version: 6.00 Build 0)  -->
<!DOCTYPE svg PUBLIC "-//W3C//DTD SVG 1.1//EN" "http://www.w3.org/Graphics/SVG/1.1/DTD/svg11.dtd">
<svg version="1.1" id="Layer_1" xmlns="http://www.w3.org/2000/svg" xmlns:xlink="http://www.w3.org/1999/xlink" x="0px" y="0px"
	 viewBox="0 0 228 87.5" enable-background="new 0 0 228 87.5" xml:space="preserve">
<g>
	<rect x="14.9" y="7.4" fill="#3B6E8E" width="198.2" height="72.6"/>
	<g>
		<path fill="#FFFDF4" d="M26.9,57.3c0-6.4,3.3-10.1,9.6-14.2c-5.5-3.1-10.1-6.9-10.1-12.6c0-6.4,5.3-14.2,15.8-14.2
			c6.8,0,12.6,4.7,12.6,9.5c0,7-2.4,10.3-10.2,15.7c5.9,2.8,10.4,6.6,10.4,13.3c0,5.8-5.6,13-14.6,13C30.3,67.9,26.9,62,26.9,57.3
			 M49.6,56.4c0-6-4.9-8.7-10.7-11.8c-4.7,2.7-7.4,6.9-7.4,11.6c0,6.4,5,9.2,9.3,9.2C46.2,65.4,49.6,62.5,49.6,56.4 M32.1,28.7
			c0,5.3,3.5,7.5,10,11.3c3.6-2.3,7.5-6.6,7.8-11.6c0.2-5.4-3.8-9.1-8.9-9.1C35.7,19.3,32.1,23.6,32.1,28.7"/>
		<path fill="#FFFDF4" d="M80.6,66.8c-0.7,0-0.9-0.1-0.9-0.8V53H59.1c-0.7,0-1.1-0.3-1.1-0.9c0-0.4,0.2-0.7,0.7-1.5l24-33.1
			c0.4-0.6,1-1.2,1.6-1.2c0.7,0,1,0.5,1,2.2v29.5h6c0.5,0,0.9,0.2,0.9,0.6v3.5c0,0.4-0.2,0.7-1.2,0.7h-5.7v12.8c0,0.8-0.1,1-1,1
			H80.6z M79.8,28.1c0-1.2-0.7-1.4-1.4-0.4L64.8,46.5c-0.9,1.3-0.8,2,0.5,2h14.5V28.1z"/>
		<path fill="#FFFDF4" d="M95.8,44.6c0-16.9,7-28.3,16.5-28.3c10.9,0,15.9,14.1,15.9,25.3c0,16.9-6.3,26.2-15.8,26.2
			C100.4,67.9,95.8,53.5,95.8,44.6 M119.5,60c1.6-3.5,2.3-9.2,2.3-19.9c0-10.9-3.7-21.1-10-21.1c-2.9,0-5,1.1-6.6,4.4
			c-2.7,5.2-3,13.8-3,19.9c0,7,0.9,12.2,2.5,15.6c2.3,4.9,5.1,6.3,7.7,6.3C114.7,65.2,117.5,64.3,119.5,60"/>
		<path fill="#FFFDF4" d="M132.8,44.6c0-16.9,7-28.3,16.5-28.3c10.9,0,15.9,14.1,15.9,25.3c0,16.9-6.3,26.2-15.8,26.2
			C137.3,67.9,132.8,53.5,132.8,44.6 M156.5,60c1.6-3.5,2.3-9.2,2.3-19.9c0-10.9-3.7-21.1-10-21.1c-2.9,0-5,1.1-6.7,4.4
			c-2.7,5.2-3,13.8-3,19.9c0,7,0.9,12.2,2.5,15.6c2.3,4.9,5.1,6.3,7.7,6.3C151.7,65.2,154.5,64.3,156.5,60"/>
		<path fill="#FFFDF4" d="M169.7,44.6c0-16.9,7-28.3,16.5-28.3c10.9,0,15.9,14.1,15.9,25.3c0,16.9-6.3,26.2-15.8,26.2
			C174.3,67.9,169.7,53.5,169.7,44.6 M193.4,60c1.6-3.5,2.3-9.2,2.3-19.9c0-10.9-3.7-21.1-10-21.1c-2.9,0-4.9,1.1-6.6,4.4
			c-2.7,5.2-3,13.8-3,19.9c0,7,0.9,12.2,2.5,15.6c2.3,4.9,5.1,6.3,7.7,6.3C188.6,65.2,191.4,64.3,193.4,60"/>
		<polygon fill="#CF6F1A" points="220.5,49.9 213.1,49.9 213.1,80 175.6,80 175.6,87.5 220.5,87.4 		"/>
		<polygon fill="#892629" points="175.6,0 175.6,7.4 213.1,7.4 213.1,37.6 220.5,37.6 220.5,0 		"/>
		<polygon fill="#892629" points="14.9,80 14.9,49.9 7.5,49.9 7.5,87.5 52.4,87.5 52.4,80 		"/>
		<polygon fill="#003F5F" points="52.4,0 7.5,0 7.5,37.6 14.9,37.6 14.9,7.4 52.4,7.4 		"/>
	</g>
	<g>
		<polygon fill="#CF6F1A" points="14.9,37.6 7.5,37.6 7.5,22.4 0,22.4 0,66.3 7.5,66.3 7.5,49.9 14.9,49.9 		"/>
		<polygon fill="#386351" points="220.5,22.4 220.5,37.5 213.1,37.5 213.1,49.9 220.5,49.9 220.5,66.3 228,66.3 228,22.4 		"/>
	</g>
</g>
</svg>
