<?xml version="1.0" encoding="UTF-8"?>
<svg width="202px" height="57px" viewBox="0 0 202 57" version="1.1" xmlns="http://www.w3.org/2000/svg" xmlns:xlink="http://www.w3.org/1999/xlink">
    <!-- Generator: Sketch 50.2 (55047) - http://www.bohemiancoding.com/sketch -->
    <title>logo bdrc - mirador</title>
    <desc>Created with Sketch.</desc>
    <defs></defs>
    <g id="logo-bdrc---mirador" stroke="none" stroke-width="1" fill="none" fill-rule="evenodd">
        <g id="g10" transform="translate(39.000000, 28.500000) scale(-1, 1) rotate(-180.000000) translate(-39.000000, -28.500000) " fill="#000000" fill-rule="nonzero">
            <g id="g6037" transform="translate(0.066372, 0.197457)">
                <rect id="rect6039" transform="translate(37.762102, 26.139397) scale(-1, 1) rotate(-45.000000) translate(-37.762102, -26.139397) " x="35.5017373" y="19.4056614" width="4.52072851" height="13.4674708"></rect>
                <rect id="rect6041" transform="translate(44.978705, 19.012906) scale(-1, 1) rotate(45.000000) translate(-44.978705, -19.012906) " x="42.7183406" y="12.2791706" width="4.52072851" height="13.4674708"></rect>
                <rect id="rect6043" transform="translate(30.630468, 33.453373) scale(-1, 1) rotate(45.000000) translate(-30.630468, -33.453373) " x="28.3701039" y="26.7196373" width="4.52072851" height="13.4674708"></rect>
                <path d="M24.964443,9.91210153 L21.7677667,13.1293258 L33.6725551,25.1106449 L36.869239,21.8934129 L24.964443,9.91210153 Z M21.9910723,3.06129443 C24.7306123,0.307013232 29.1374267,0.206338192 31.9983235,2.83267567 L28.8002196,6.05133668 C27.7115381,5.19507014 26.1594184,5.28988443 25.1816313,6.27238528 C24.2060768,7.25654976 24.1122031,8.81811215 24.9627467,9.9134688 L21.7677053,13.1290631 C19.159533,10.2513182 19.2578699,5.81900539 21.9910723,3.06129443 Z M31.9981239,2.83328592 L28.80144,6.05044062 L33.7175401,10.998141 L36.9142164,7.78092454 L31.9981239,2.83328592 Z" id="path6045"></path>
                <path d="M28.7339279,46.2162516 L31.9305428,49.433414 L43.8353312,37.4521721 L40.6387086,34.2349402 L28.7339279,46.2162516 Z M21.9268069,49.2086807 C19.1902185,46.4515305 19.0902144,42.016487 21.6997097,39.1372351 L24.8977522,42.3557494 C24.0469138,43.4514414 24.1411236,45.0135853 25.1173889,45.9976671 C26.0952792,46.9795309 27.6469153,47.0740058 28.7352864,46.217951 L31.9302741,49.433553 C29.0708909,52.0584729 24.6668858,51.9594733 21.9268069,49.2086807 Z M21.7002546,39.1373664 L24.8968618,42.3545211 L29.812962,37.4068207 L26.6162857,34.189666 L21.7002546,39.1373664 Z" id="path6047"></path>
                <polygon id="path6049" points="62.8167669 40.181855 53.0682506 30.3706761 56.2643973 27.1539771 62.8108339 33.742486 69.9701444 26.5371483 62.3136731 18.8314619 49.0173042 32.2132987 45.8211499 28.9965998 59.1175188 15.6147629 59.1152162 15.6124455 62.3834494 12.3231967 62.385752 12.3255141 62.3918922 12.3193344 65.5880466 15.5360256 65.5819063 15.5422053 73.2383853 23.2478995 73.2445256 23.2417198 76.4406722 26.4584187 66.0071878 36.9589687 66.0133281 36.9651484"></polygon>
                <g id="g6051" transform="translate(45.372718, 40.812192) rotate(-45.000000) translate(-45.372718, -40.812192) translate(37.372718, 28.312192)">
                    <rect id="rect6053" transform="translate(7.903860, 21.934183) scale(-1, 1) rotate(-90.000000) translate(-7.903860, -21.934183) " x="5.65150664" y="14.6574625" width="4.50470635" height="14.5534401"></rect>
                    <rect id="rect6055" transform="translate(2.928937, 17.086849) scale(-1, 1) rotate(-180.000000) translate(-2.928937, -17.086849) " x="0.672813834" y="10.3531129" width="4.51224715" height="13.4674712"></rect>
                    <rect id="rect6057" transform="translate(12.864985, 12.093191) scale(-1, 1) rotate(-180.000000) translate(-12.864985, -12.093191) " x="10.6046208" y="0.374469405" width="4.52072843" height="23.4374422"></rect>
                </g>
                <path d="M47.198485,5.74010279 L44.0018011,2.52286312 L32.0970203,14.5041822 L35.2937043,17.7214064 L47.198485,5.74010279 Z M54.0055293,2.7476041 C56.7422259,5.5047526 56.8422614,9.93989922 54.2326955,12.8191888 L51.0345917,9.60052776 C51.8853844,8.5048496 51.7911758,6.9427584 50.8149549,5.95868722 C49.8370782,4.97685923 48.2854891,4.88237879 47.1971265,5.73838792 L44.002062,2.52280132 C46.8614272,-0.102136434 51.2654315,-0.00316750851 54.0055293,2.7476041 Z M54.2320892,12.8189802 L51.0354743,9.60174825 L46.1193742,14.5494487 L49.3160505,17.7666883 L54.2320892,12.8189802 Z" id="path6059"></path>
                <path d="M19.3478015,33.8590201 C15.0806876,38.1535704 8.09632053,38.1535627 3.82920658,33.8590201 C-0.437915051,29.5644698 -0.43960362,22.5335161 3.82767151,18.2389657 C8.08734041,13.9519161 15.0576463,13.9455123 19.3267635,18.2176457 L19.3313687,18.2130109 L22.4969906,21.3989812 L19.3525679,24.563616 L16.186946,21.3776457 L16.1915512,21.3730109 C13.6168517,18.8055843 9.52853416,18.8119803 6.9626536,21.394331 C4.3893203,23.9841977 4.38931263,28.115727 6.96263824,30.7055937 C9.53596386,33.2954605 13.6411133,33.2954605 16.2144389,30.7055937 C16.222498,30.6974829 16.2291756,30.6885995 16.2366206,30.6800251 C16.2381557,30.6784802 16.2396907,30.6769353 16.2412258,30.6753904 L26.7845363,20.0643084 L29.9187892,23.218708 L19.37039,33.8349037 L19.3696225,33.8341313 C19.3619471,33.8425511 19.3554999,33.851589 19.3474408,33.8596998 L19.3478015,33.8590201 Z" id="path6061"></path>
            </g>
        </g>
        <text id="BDRC" font-family="NotoSans-Medium, Noto Sans" font-size="24" font-weight="400" fill="#111312" fill-opacity="0.9">
            <tspan x="93" y="40">BDRC</tspan>
        </text>
    </g>
</svg>