<?xml version="1.0" encoding="UTF-8" standalone="no"?>
<!-- Created with Inkscape (http://www.inkscape.org/) -->

<svg
   xmlns:dc="http://purl.org/dc/elements/1.1/"
   xmlns:cc="http://creativecommons.org/ns#"
   xmlns:rdf="http://www.w3.org/1999/02/22-rdf-syntax-ns#"
   xmlns:svg="http://www.w3.org/2000/svg"
   xmlns="http://www.w3.org/2000/svg"
   xmlns:sodipodi="http://sodipodi.sourceforge.net/DTD/sodipodi-0.dtd"
   xmlns:inkscape="http://www.inkscape.org/namespaces/inkscape"
   width="59.999783mm"
   height="59.999783mm"
   viewBox="0 0 59.999783 59.999783"
   version="1.1"
   id="svg4089"
   inkscape:version="0.92.4 (5da689c313, 2019-01-14)"
   sodipodi:docname="BN.svg">
  <defs
     id="defs4083" />
  <sodipodi:namedview
     id="base"
     pagecolor="#ffffff"
     bordercolor="#666666"
     borderopacity="1.0"
     inkscape:pageopacity="0.0"
     inkscape:pageshadow="2"
     inkscape:zoom="0.7"
     inkscape:cx="-413.00049"
     inkscape:cy="-156.64221"
     inkscape:document-units="mm"
     inkscape:current-layer="layer1"
     showgrid="false"
     fit-margin-top="0"
     fit-margin-left="0"
     fit-margin-right="0"
     fit-margin-bottom="0"
     inkscape:window-width="1918"
     inkscape:window-height="1054"
     inkscape:window-x="1"
     inkscape:window-y="1"
     inkscape:window-maximized="1" />
  <metadata
     id="metadata4086">
    <rdf:RDF>
      <cc:Work
         rdf:about="">
        <dc:format>image/svg+xml</dc:format>
        <dc:type
           rdf:resource="http://purl.org/dc/dcmitype/StillImage" />
        <dc:title></dc:title>
      </cc:Work>
    </rdf:RDF>
  </metadata>
  <g
     inkscape:label="Calque 1"
     inkscape:groupmode="layer"
     id="layer1"
     transform="translate(-85.460545,-134.43442)">
    <g
       transform="matrix(0.35277777,0,0,0.35277777,84.69849,134.4358)"
       id="g4081">
      <path
         style="fill:#6d5f47;fill-opacity:1;fill-rule:evenodd;stroke:none"
         d="M 172.23828,170.07422 H 2.160156 V -0.00390625 H 172.23828 V 170.07422"
         id="path19"
         inkscape:connector-curvature="0" />
      <path
         style="fill:#ffffff;fill-opacity:1;fill-rule:nonzero;stroke:none"
         d="m 25.253906,105.03906 c 0,-1.78515 -0.878906,-2.83203 -1.921875,-3.21484 -0.632812,-0.22656 -1.261719,-0.30469 -1.910156,-0.30469 v 5.83985 c 0,0.87109 0,1.96484 0.632813,1.96484 1.757812,0 3.199218,-1.32422 3.199218,-4.28516 z m -0.246094,-8.519529 c 0,-2.578125 -1.378906,-3.039062 -2.738281,-3.039062 -0.847656,0 -0.847656,0.230469 -0.847656,1.457031 v 5.61328 c 1.742187,0 3.585937,-0.792968 3.585937,-4.031249 z M 18.6875,110.01563 c 0.464844,-0.53516 0.511719,-0.94532 0.511719,-1.78516 V 95.90625 c 0,-0.535156 0,-1.480469 -0.246094,-1.886719 -0.351563,-0.484375 -0.796875,-0.792969 -1.277344,-0.792969 v -0.816406 h 5.207031 c 1.773438,0 4.378907,0.308594 4.378907,3.902344 0,2.628906 -1.773438,4.00781 -3.25,4.28906 v 0.38282 c 0.828125,0 2.289062,0.58593 2.902343,1.45312 0.480469,0.69141 0.746094,1.63281 0.746094,2.65234 0,4.3125 -2.621094,5.3086 -4.910156,5.3086 h -4.046875 l -0.01563,-0.38281"
         id="path21"
         inkscape:connector-curvature="0" />
      <path
         style="fill:none;stroke:#ffffff;stroke-width:0.56693;stroke-linecap:round;stroke-linejoin:round;stroke-miterlimit:10;stroke-opacity:1"
         d="m 25.253906,105.03906 c 0,-1.78515 -0.878906,-2.83203 -1.921875,-3.21484 -0.632812,-0.22656 -1.261719,-0.30469 -1.910156,-0.30469 v 5.83985 c 0,0.87109 0,1.96484 0.632812,1.96484 1.757813,0 3.199219,-1.32422 3.199219,-4.28516 z m -0.246094,-8.51953 c 0,-2.57812 -1.378906,-3.03906 -2.738281,-3.03906 -0.847656,0 -0.847656,0.23047 -0.847656,1.45703 v 5.61328 c 1.742187,0 3.585937,-0.79297 3.585937,-4.03125 z m -6.320312,13.4961 c 0.464844,-0.53516 0.511719,-0.94532 0.511719,-1.78516 V 95.90625 c 0,-0.53516 0,-1.48047 -0.246094,-1.88672 -0.351563,-0.48437 -0.796875,-0.79297 -1.277344,-0.79297 v -0.8164 h 5.207031 c 1.773438,0 4.378907,0.30859 4.378907,3.90234 0,2.62891 -1.773438,4.00781 -3.25,4.28906 v 0.38282 c 0.828125,0 2.289062,0.58593 2.902343,1.45312 0.480469,0.69141 0.746094,1.63281 0.746094,2.65234 0,4.3125 -2.621094,5.3086 -4.910156,5.3086 h -4.046875 z m 0,0"
         id="path23"
         inkscape:connector-curvature="0" />
      <path
         style="fill:#ffffff;fill-opacity:1;fill-rule:nonzero;stroke:none"
         d="m 30.734375,102.96484 c 0,-0.11328 0,-0.24218 0,-0.35546 0,-1.07422 -0.08984,-1.51954 -1.191406,-1.51954 v -0.39453 l 2.8125,-0.0391 c -0.183594,1.72266 -0.242188,3.45703 -0.242188,5.19141 0,1.72265 0.527344,3.11328 2.285157,3.11328 0.527343,0 1.066406,-0.10156 1.511718,-0.38281 0,-2.5 0,-6.08594 -0.07813,-7.48829 l 1.640625,-0.59765 0.160156,0.11328 c -0.230468,2.23437 -0.253906,4.49219 -0.253906,6.75 0,0.45703 0,1.12109 0.183594,1.32422 0.152344,0.15625 0.402344,0.15625 0.585938,0.15625 0.21875,0 0.46875,-0.0273 0.675781,-0.0547 l 0.02344,0.34766 -1.949218,0.58593 c -0.136719,0.0391 -0.265626,0.0625 -0.402344,0.0625 -0.367188,0 -0.609375,-0.29296 -0.609375,-0.70312 -0.835938,0.34766 -1.707031,0.66406 -2.613281,0.66406 -2.078126,0 -2.617188,-1.30078 -2.617188,-3.41797 0,-0.9414 0.04687,-2.24609 0.07813,-3.35547"
         id="path25"
         inkscape:connector-curvature="0" />
      <path
         style="fill:none;stroke:#ffffff;stroke-width:0.56693;stroke-linecap:round;stroke-linejoin:round;stroke-miterlimit:10;stroke-opacity:1"
         d="m 30.734375,102.96484 c 0,-0.11328 0,-0.24218 0,-0.35546 0,-1.07422 -0.08984,-1.51954 -1.191406,-1.51954 v -0.39453 l 2.8125,-0.0391 c -0.183594,1.72266 -0.242188,3.45703 -0.242188,5.19141 0,1.72265 0.527344,3.11328 2.285156,3.11328 0.527344,0 1.066407,-0.10156 1.511719,-0.38281 0,-2.5 0,-6.08594 -0.07813,-7.48829 l 1.640625,-0.59765 0.160156,0.11328 c -0.230468,2.23437 -0.253906,4.49219 -0.253906,6.75 0,0.45703 0,1.12109 0.183594,1.32422 0.152344,0.15625 0.402344,0.15625 0.585937,0.15625 0.21875,0 0.46875,-0.0273 0.675782,-0.0547 l 0.02344,0.34766 -1.949219,0.58593 c -0.136718,0.0391 -0.265625,0.0625 -0.402343,0.0625 -0.367188,0 -0.609375,-0.29296 -0.609375,-0.70312 -0.835938,0.34766 -1.707032,0.66406 -2.613282,0.66406 -2.078125,0 -2.617187,-1.30078 -2.617187,-3.41797 0,-0.9414 0.04687,-2.24609 0.07813,-3.35547 z m 0,0"
         id="path27"
         inkscape:connector-curvature="0" />
      <path
         style="fill:#ffffff;fill-opacity:1;fill-rule:nonzero;stroke:none"
         d="m 43.753906,109.10156 c 2.5,0 3.648438,-1.60547 3.648438,-4.28515 0,-2.83203 -1.273438,-3.53516 -3.625,-3.53516 -1.035156,0 -1.035156,0 -1.035156,1.02344 v 4.97265 c 0,0.46094 0.02344,0.90625 0.08203,1.35157 0.07031,0.47265 0.609375,0.47265 0.929688,0.47265 z m -2.847656,0.3711 c 0.105469,-0.15625 0.207031,-0.33203 0.242188,-0.51172 l 0.04687,-0.67578 v -5.46094 c 0,-0.39453 0,-0.86719 -0.08203,-1.16016 -0.125,-0.44531 -0.59375,-0.48437 -0.953125,-0.53515 v -0.39453 h 4.84375 c 2.488282,0 4.164063,0.96875 4.164063,4.0039 0,3.36719 -2.203125,4.91016 -5.011719,4.91016 h -3.25 v -0.17578"
         id="path29"
         inkscape:connector-curvature="0" />
      <path
         style="fill:none;stroke:#ffffff;stroke-width:0.56693;stroke-linecap:round;stroke-linejoin:round;stroke-miterlimit:10;stroke-opacity:1"
         d="m 43.753906,109.10156 c 2.5,0 3.648438,-1.60547 3.648438,-4.28515 0,-2.83203 -1.273438,-3.53516 -3.625,-3.53516 -1.035157,0 -1.035157,0 -1.035157,1.02344 v 4.97265 c 0,0.46094 0.02344,0.90625 0.08203,1.35157 0.07031,0.47265 0.609375,0.47265 0.929687,0.47265 z m -2.847656,0.3711 c 0.105469,-0.15625 0.207031,-0.33203 0.242187,-0.51172 l 0.04687,-0.67578 v -5.46094 c 0,-0.39453 0,-0.86719 -0.08203,-1.16016 -0.125,-0.44531 -0.59375,-0.48437 -0.953125,-0.53515 v -0.39453 h 4.84375 c 2.488281,0 4.164063,0.96875 4.164063,4.0039 0,3.36719 -2.203125,4.91016 -5.011719,4.91016 h -3.25 z m 0,0"
         id="path31"
         inkscape:connector-curvature="0" />
      <path
         style="fill:#ffffff;fill-opacity:1;fill-rule:nonzero;stroke:none"
         d="m 54.371094,109.10156 c 2.503906,0 3.648437,-1.60547 3.648437,-4.28515 0,-2.83203 -1.273437,-3.53516 -3.625,-3.53516 -1.03125,0 -1.03125,0 -1.03125,1.02344 v 4.97265 c 0,0.46094 0.02344,0.90625 0.07813,1.35157 0.07031,0.47265 0.609375,0.47265 0.929688,0.47265 z m -2.84375,0.3711 c 0.101562,-0.15625 0.207031,-0.33203 0.242187,-0.51172 l 0.04297,-0.67578 v -5.46094 c 0,-0.39453 0,-0.86719 -0.07813,-1.16016 -0.128906,-0.44531 -0.597656,-0.48437 -0.953125,-0.53515 v -0.39453 h 4.839844 c 2.492187,0 4.167968,0.96875 4.167968,4.0039 0,3.36719 -2.203124,4.91016 -5.015624,4.91016 H 51.52734 v -0.17578"
         id="path33"
         inkscape:connector-curvature="0" />
      <path
         style="fill:none;stroke:#ffffff;stroke-width:0.56693;stroke-linecap:round;stroke-linejoin:round;stroke-miterlimit:10;stroke-opacity:1"
         d="m 54.371094,109.10156 c 2.503906,0 3.648437,-1.60547 3.648437,-4.28515 0,-2.83203 -1.273437,-3.53516 -3.625,-3.53516 -1.03125,0 -1.03125,0 -1.03125,1.02344 v 4.97265 c 0,0.46094 0.02344,0.90625 0.07813,1.35157 0.07031,0.47265 0.609375,0.47265 0.929688,0.47265 z m -2.84375,0.3711 c 0.101562,-0.15625 0.207031,-0.33203 0.242187,-0.51172 l 0.04297,-0.67578 v -5.46094 c 0,-0.39453 0,-0.86719 -0.07813,-1.16016 -0.128906,-0.44531 -0.597656,-0.48437 -0.953125,-0.53515 v -0.39453 h 4.839844 c 2.492187,0 4.167968,0.96875 4.167968,4.0039 0,3.36719 -2.203125,4.91016 -5.015625,4.91016 H 51.52734 Z m 0,0"
         id="path35"
         inkscape:connector-curvature="0" />
      <path
         style="fill:#ffffff;fill-opacity:1;fill-rule:nonzero;stroke:none"
         d="m 62.433594,105.05859 v -3.21484 c 0,-0.44531 -0.757813,-0.61328 -1.070313,-0.67578 v -0.39453 l 2.675781,-0.0273 c -0.02344,0.625 -0.05859,1.28907 -0.08203,1.92579 -0.02344,0.65234 -0.04297,1.26171 -0.04297,1.8125 0.191407,0.20312 0.273438,0.20312 0.539063,0.20312 h 2.914063 c 0.238281,0 0.550781,0 0.550781,-0.32031 l 0.01172,-3.40235 1.582031,-0.39843 0.117187,0.14062 c -0.140625,1.45313 -0.183594,2.92188 -0.183594,4.39063 0,1.10937 0,3.19922 0.01172,3.33984 0,0.53906 0.492188,0.79297 0.890625,0.79297 v 0.39453 l -2.339844,0.10156 -0.261718,-0.26562 c 0.113281,-1.26563 0.160156,-2.52735 0.160156,-3.80469 0,-0.31641 -0.171875,-0.34375 -0.425781,-0.34375 h -3.210938 c -0.230469,0 -0.335937,0.11719 -0.335937,0.35938 0,1.19531 0.01563,2.39453 0.07031,3.58203 l -1.546875,0.46093 -0.08203,-0.11328 c 0.04687,-1.51953 0.05859,-3.02734 0.05859,-4.54297"
         id="path37"
         inkscape:connector-curvature="0" />
      <path
         style="fill:none;stroke:#ffffff;stroke-width:0.56693;stroke-linecap:round;stroke-linejoin:round;stroke-miterlimit:10;stroke-opacity:1"
         d="m 62.433594,105.05859 v -3.21484 c 0,-0.44531 -0.757813,-0.61328 -1.070313,-0.67578 v -0.39453 l 2.675781,-0.0273 c -0.02344,0.625 -0.05859,1.28907 -0.08203,1.92579 -0.02344,0.65234 -0.04297,1.26171 -0.04297,1.8125 0.191407,0.20312 0.273438,0.20312 0.539063,0.20312 h 2.914062 c 0.238282,0 0.550782,0 0.550782,-0.32031 l 0.01172,-3.40235 1.582032,-0.39843 0.117187,0.14062 c -0.140625,1.45313 -0.183594,2.92188 -0.183594,4.39063 0,1.10937 0,3.19922 0.01172,3.33984 0,0.53906 0.492188,0.79297 0.890625,0.79297 v 0.39453 l -2.339844,0.10156 -0.261718,-0.26562 c 0.113281,-1.26563 0.160156,-2.52735 0.160156,-3.80469 0,-0.31641 -0.171875,-0.34375 -0.425781,-0.34375 h -3.210938 c -0.230469,0 -0.335937,0.11719 -0.335937,0.35938 0,1.19531 0.01563,2.39453 0.07031,3.58203 l -1.546875,0.46093 -0.08203,-0.11328 c 0.04687,-1.51953 0.05859,-3.02734 0.05859,-4.54297 z m 0,0"
         id="path39"
         inkscape:connector-curvature="0" />
      <path
         style="fill:#ffffff;fill-opacity:1;fill-rule:nonzero;stroke:none"
         d="M 74.796875,105.58203 H 74.875 c 0.484375,0 0.964844,-0.0156 1.449219,-0.0156 0.238281,0 0.480469,0 0.71875,0.0156 -0.261719,-1.00781 -0.652344,-2.4375 -0.847657,-3 l -0.08984,0.0156 c -0.390625,0.71093 -0.929688,1.94922 -1.355469,2.94531 z m -3.15625,3.94141 c 1.550781,-2.5625 2.984375,-5.19141 4.246094,-7.89453 l -0.02344,-0.10547 c -0.367187,-0.0625 -0.859375,-0.13672 -1.089843,-0.16406 l 0.01172,-0.47266 h 2.570313 c 0.332031,1.55469 0.847656,3.20312 1.273437,4.74609 0.207032,0.75391 0.816406,3.21485 1.652344,3.21485 0.195312,0 0.457031,-0.0508 0.664062,-0.10157 l 0.07031,0.36719 c -0.585937,0.29297 -1.421875,0.71485 -2.066406,0.71485 -0.6875,0 -0.953125,-0.64844 -1.113281,-1.27344 -0.125,-0.48828 -0.390626,-1.54297 -0.585938,-2.32422 h -2.878906 c -0.402344,0.80469 -0.882813,2.16797 -1.273438,3.28125 l -1.433594,0.13672 -0.02344,-0.125"
         id="path41"
         inkscape:connector-curvature="0" />
      <path
         style="fill:none;stroke:#ffffff;stroke-width:0.56693;stroke-linecap:round;stroke-linejoin:round;stroke-miterlimit:10;stroke-opacity:1"
         d="M 74.796875,105.58203 H 74.875 c 0.484375,0 0.964844,-0.0156 1.449219,-0.0156 0.238281,0 0.480468,0 0.71875,0.0156 -0.261719,-1.00781 -0.652344,-2.4375 -0.847657,-3 l -0.08984,0.0156 c -0.390625,0.71093 -0.929688,1.94922 -1.355469,2.94531 z m -3.15625,3.94141 c 1.550781,-2.5625 2.984375,-5.19141 4.246094,-7.89453 l -0.02344,-0.10547 c -0.367187,-0.0625 -0.859375,-0.13672 -1.089844,-0.16406 l 0.01172,-0.47266 h 2.570313 c 0.332031,1.55469 0.847656,3.20312 1.273437,4.74609 0.207031,0.75391 0.816406,3.21485 1.652344,3.21485 0.195312,0 0.457031,-0.0508 0.664062,-0.10157 l 0.07031,0.36719 c -0.585938,0.29297 -1.421875,0.71485 -2.066406,0.71485 -0.6875,0 -0.953125,-0.64844 -1.113282,-1.27344 -0.125,-0.48828 -0.390625,-1.54297 -0.585937,-2.32422 H 74.37109 c -0.402344,0.80469 -0.882813,2.16797 -1.273438,3.28125 l -1.433594,0.13672 z m 0,0"
         id="path43"
         inkscape:connector-curvature="0" />
      <path
         style="fill:#ffffff;fill-opacity:1;fill-rule:nonzero;stroke:none"
         d="m 110.44531,96.007812 c 0,-2.347656 -0.12109,-2.449218 -1.57422,-2.730468 v -0.765625 h 3.16797 c 2.10938,4.339843 4.375,8.496091 6.70313,12.578121 l 0.18359,-0.0508 -0.26172,-12.19531 1.23828,-0.664062 0.3086,0.332031 c -0.16797,3.472656 -0.32031,6.941406 -0.38281,10.410161 -0.0312,1.17578 -0.0469,2.34765 -0.0469,3.51953 0,1.25 0.0156,2.52734 0.0781,3.77734 h -1.14844 l -7.34766,-13.546875 -0.16797,0.101563 0.41407,12.730472 -1.25391,0.91797 -0.18359,-0.20313 c 0.15234,-4.74609 0.27343,-9.46484 0.27343,-14.210938"
         id="path45"
         inkscape:connector-curvature="0" />
      <path
         style="fill:none;stroke:#ffffff;stroke-width:0.56693;stroke-linecap:round;stroke-linejoin:round;stroke-miterlimit:10;stroke-opacity:1"
         d="m 110.44531,96.00781 c 0,-2.34765 -0.12109,-2.44922 -1.57422,-2.73047 v -0.76562 h 3.16797 c 2.10938,4.33984 4.375,8.49609 6.70313,12.57812 l 0.18359,-0.0508 -0.26172,-12.19531 1.23828,-0.66406 0.3086,0.33203 c -0.16797,3.47266 -0.32031,6.94141 -0.38281,10.41016 -0.0312,1.17578 -0.0469,2.34765 -0.0469,3.51953 0,1.25 0.0156,2.52734 0.0781,3.77734 h -1.14844 l -7.34766,-13.54687 -0.16797,0.10156 0.41407,12.73047 -1.25391,0.91797 -0.18359,-0.20313 c 0.15234,-4.74609 0.27343,-9.46484 0.27343,-14.21094 z m 0,0"
         id="path47"
         inkscape:connector-curvature="0" />
      <path
         style="fill:#ffffff;fill-opacity:1;fill-rule:nonzero;stroke:none"
         d="m 123.60547,103.51563 c 0,-0.5625 0,-1.45704 -0.0469,-1.6836 -0.11328,-0.5625 -0.61718,-0.61328 -1.07812,-0.6914 v -0.38282 c 1.90625,0 4.42969,0 5.71484,-0.1914 v 0.89453 l -0.125,0.14062 -2.66406,-0.17968 c -0.35547,0 -0.37891,0.29296 -0.37891,0.625 v 2.29687 c 0,0.12891 0.0937,0.33203 0.23047,0.33203 0.26563,0 1.67578,-0.11719 2.52344,-0.17969 0.0117,0 0.0234,-0.0352 0.0352,-0.0352 l 0.13672,0.0977 v 0.74219 c -0.78907,-0.0391 -1.73047,-0.0391 -2.60157,-0.0391 -0.21875,0 -0.32422,0.0898 -0.32422,0.34375 0,0.82812 0,1.8125 0.0937,2.46094 0.0898,0.57422 0.3086,0.78125 0.83594,0.78125 0.0469,0 0.0937,0 0.12891,0 l 3.09765,-0.19141 0.125,0.10156 L 129,109.73828 c -1.29687,-0.0898 -2.60547,-0.10156 -3.91406,-0.10156 -0.37891,0 -0.92969,0 -1.10156,-0.0508 -0.16016,-0.17969 -0.28907,-0.36719 -0.37891,-0.59766 v -5.47265"
         id="path49"
         inkscape:connector-curvature="0" />
      <path
         style="fill:none;stroke:#ffffff;stroke-width:0.56693;stroke-linecap:round;stroke-linejoin:round;stroke-miterlimit:10;stroke-opacity:1"
         d="m 123.60547,103.51563 c 0,-0.5625 0,-1.45704 -0.0469,-1.6836 -0.11328,-0.5625 -0.61718,-0.61328 -1.07812,-0.6914 v -0.38282 c 1.90625,0 4.42969,0 5.71484,-0.1914 v 0.89453 l -0.125,0.14062 -2.66406,-0.17968 c -0.35547,0 -0.37891,0.29296 -0.37891,0.625 v 2.29687 c 0,0.12891 0.0937,0.33203 0.23047,0.33203 0.26563,0 1.67578,-0.11719 2.52344,-0.17969 0.0117,0 0.0234,-0.0352 0.0352,-0.0352 l 0.13672,0.0977 v 0.74219 c -0.78907,-0.0391 -1.73047,-0.0391 -2.60157,-0.0391 -0.21875,0 -0.32422,0.0898 -0.32422,0.34375 0,0.82812 0,1.8125 0.0937,2.46094 0.0898,0.57422 0.3086,0.78125 0.83594,0.78125 0.0469,0 0.0937,0 0.12891,0 l 3.09765,-0.19141 0.125,0.10156 L 129,109.73828 c -1.29687,-0.0898 -2.60547,-0.10156 -3.91406,-0.10156 -0.37891,0 -0.92969,0 -1.10156,-0.0508 -0.16016,-0.17969 -0.28907,-0.36719 -0.37891,-0.59766 z m 0,0"
         id="path51"
         inkscape:connector-curvature="0" />
      <path
         style="fill:#ffffff;fill-opacity:1;fill-rule:nonzero;stroke:none"
         d="m 130.72266,109.31641 3.20312,-3.99219 c -0.67578,-1.22266 -1.36719,-2.42188 -2.06641,-3.63281 -0.19531,-0.32032 -0.80078,-0.46094 -1.13671,-0.55078 v -0.40625 l 2.39843,-0.0781 c 0.53907,1.16016 1.14844,2.28516 1.78125,3.40625 l 2.29297,-3.13672 1.29688,-0.21875 v 0.35938 c -1.03125,1.04297 -2.41016,2.41015 -3.2461,3.63281 0.71094,1.30469 2.03125,3.73828 3.2461,4.41406 v 0.23047 l -1.92969,0.46094 c -0.57031,-0.82813 -1.52344,-2.51563 -2.24609,-3.78906 -0.80469,0.8789 -1.69922,2.34765 -2.38672,3.3789 l -1.20703,0.25391 v -0.33203"
         id="path53"
         inkscape:connector-curvature="0" />
      <path
         style="fill:none;stroke:#ffffff;stroke-width:0.56693;stroke-linecap:round;stroke-linejoin:round;stroke-miterlimit:10;stroke-opacity:1"
         d="m 130.72266,109.31641 3.20312,-3.99219 c -0.67578,-1.22266 -1.36719,-2.42188 -2.0664,-3.63281 -0.19532,-0.32032 -0.80079,-0.46094 -1.13672,-0.55078 v -0.40625 l 2.39843,-0.0781 c 0.53907,1.16016 1.14844,2.28516 1.78125,3.40625 l 2.29297,-3.13672 1.29688,-0.21875 v 0.35938 c -1.03125,1.04297 -2.41016,2.41015 -3.2461,3.63281 0.71094,1.30469 2.03125,3.73828 3.2461,4.41406 v 0.23047 l -1.92969,0.46094 c -0.57031,-0.82813 -1.52344,-2.51563 -2.24609,-3.78906 -0.80469,0.8789 -1.69922,2.34765 -2.38672,3.3789 l -1.20703,0.25391 z m 0,0"
         id="path55"
         inkscape:connector-curvature="0" />
      <path
         style="fill:#ffffff;fill-opacity:1;fill-rule:nonzero;stroke:none"
         d="m 141.05469,102.96484 c 0,-0.11328 0,-0.24218 0,-0.35546 0,-1.07422 -0.0898,-1.51954 -1.19141,-1.51954 v -0.39453 l 2.80859,-0.0391 c -0.18359,1.72266 -0.23828,3.45703 -0.23828,5.19141 0,1.72265 0.52735,3.11328 2.28125,3.11328 0.52735,0 1.06641,-0.10156 1.51563,-0.38281 0,-2.5 0,-6.08594 -0.082,-7.48829 l 1.64062,-0.59765 0.16406,0.11328 c -0.23046,2.23437 -0.2539,4.49219 -0.2539,6.75 0,0.45703 0,1.12109 0.18359,1.32422 0.14844,0.15625 0.40235,0.15625 0.58594,0.15625 0.21875,0 0.46875,-0.0273 0.67578,-0.0547 l 0.0234,0.34766 -1.94922,0.58593 c -0.14063,0.0391 -0.26563,0.0625 -0.40234,0.0625 -0.36719,0 -0.60938,-0.29296 -0.60938,-0.70312 -0.83594,0.34766 -1.71094,0.66406 -2.61719,0.66406 -2.07422,0 -2.61328,-1.30078 -2.61328,-3.41797 0,-0.9414 0.043,-2.24609 0.0781,-3.35547"
         id="path57"
         inkscape:connector-curvature="0" />
      <path
         style="fill:none;stroke:#ffffff;stroke-width:0.56693;stroke-linecap:round;stroke-linejoin:round;stroke-miterlimit:10;stroke-opacity:1"
         d="m 141.05469,102.96484 c 0,-0.11328 0,-0.24218 0,-0.35546 0,-1.07422 -0.0898,-1.51954 -1.19141,-1.51954 v -0.39453 l 2.8086,-0.0391 c -0.1836,1.72266 -0.23829,3.45703 -0.23829,5.19141 0,1.72265 0.52735,3.11328 2.28125,3.11328 0.52735,0 1.06641,-0.10156 1.51563,-0.38281 0,-2.5 0,-6.08594 -0.082,-7.48829 l 1.64062,-0.59765 0.16407,0.11328 c -0.23047,2.23437 -0.25391,4.49219 -0.25391,6.75 0,0.45703 0,1.12109 0.18359,1.32422 0.14844,0.15625 0.40235,0.15625 0.58594,0.15625 0.21875,0 0.46875,-0.0273 0.67578,-0.0547 l 0.0234,0.34766 -1.94922,0.58593 c -0.14062,0.0391 -0.26562,0.0625 -0.40234,0.0625 -0.36719,0 -0.60938,-0.29296 -0.60938,-0.70312 -0.83594,0.34766 -1.71094,0.66406 -2.61719,0.66406 -2.07421,0 -2.61328,-1.30078 -2.61328,-3.41797 0,-0.9414 0.043,-2.24609 0.0781,-3.35547 z m 0,0"
         id="path59"
         inkscape:connector-curvature="0" />
      <path
         style="fill:#ffffff;fill-opacity:1;fill-rule:nonzero;stroke:none"
         d="m 151.91406,107.13672 0.20703,0.0898 c 0,1.03516 0.67969,1.96485 1.64063,1.96485 0.75781,0 1.46875,-0.70313 1.46875,-1.57032 0,-1.03125 -1.17969,-1.65625 -1.8711,-2.0664 -0.84765,-0.4961 -2.0039,-1.35156 -2.0039,-2.55078 0,-1.92578 1.5,-2.58985 2.99219,-2.58985 1,0 1.87109,0.15235 2.30468,1.28907 l -1.08984,0.95703 -0.19531,-0.0781 c -0.11328,-0.92969 -0.65235,-1.67187 -1.54688,-1.67187 -0.69922,0 -1.1914,0.5 -1.1914,1.28906 0,1.13672 1.00781,1.6875 1.8125,2.13281 0.96093,0.54688 2.1914,1.19922 2.1914,2.60156 0,1.86329 -2.07812,2.88282 -3.51172,2.88282 -0.97656,0 -1.75781,-0.42188 -2.33203,-1.28907 l 1.125,-1.39062"
         id="path61"
         inkscape:connector-curvature="0" />
      <path
         style="fill:none;stroke:#ffffff;stroke-width:0.56693;stroke-linecap:round;stroke-linejoin:round;stroke-miterlimit:10;stroke-opacity:1"
         d="m 151.91406,107.13672 0.20703,0.0898 c 0,1.03516 0.67969,1.96485 1.64063,1.96485 0.75781,0 1.46875,-0.70313 1.46875,-1.57032 0,-1.03125 -1.17969,-1.65625 -1.87109,-2.0664 -0.84766,-0.4961 -2.00391,-1.35156 -2.00391,-2.55078 0,-1.92578 1.5,-2.58985 2.99219,-2.58985 1,0 1.87109,0.15235 2.30468,1.28907 l -1.08984,0.95703 -0.19531,-0.0781 c -0.11328,-0.92969 -0.65235,-1.67187 -1.54688,-1.67187 -0.69922,0 -1.1914,0.5 -1.1914,1.28906 0,1.13672 1.00781,1.6875 1.8125,2.13281 0.96093,0.54688 2.1914,1.19922 2.1914,2.60156 0,1.86329 -2.07812,2.88282 -3.51172,2.88282 -0.97656,0 -1.75781,-0.42188 -2.33203,-1.28907 z m 0,0"
         id="path63"
         inkscape:connector-curvature="0" />
      <path
         style="fill:#bda65c;fill-opacity:1;fill-rule:evenodd;stroke:none"
         d="m 102.86719,106.10938 c -0.2461,-2.19532 -0.17969,-5 0.67969,-8.332036 1.41796,-5.515625 -0.57813,-8.984375 5.27343,-10.097656 3.89063,-0.742188 3.40625,-1.242188 7.23438,-2.308594 -0.0312,-0.265625 -0.0586,-0.527344 -0.0898,-0.792969 -5.72656,0.90625 -3.8164,-0.179687 -9.53906,0.730469 -0.16797,-0.253906 -0.33984,-0.503906 -0.50781,-0.757813 4.60547,-3.636719 1.27734,-5.789062 6.30469,-8.707031 2.55859,-1.484375 6.41797,-1.058594 9.66797,-0.917969 2.3789,0.105469 4.7539,1.050781 7.07812,1.792969 3.75391,1.191406 7.26562,0.878906 11.14453,-0.08594 3.32422,-0.828124 7.11328,0.195313 10.00391,0.363282 -2.52735,-1.601563 -6.0625,-3.238282 -10.0625,-1.976563 -3.78125,1.199219 -7.20703,0.699219 -10.83985,-0.515625 -4.5664,-1.523437 -9.27343,-2.617187 -13.94531,-3.902344 1.50781,-3.972656 3.15235,-8.640624 5.05469,-13.199218 1.29297,-3.082032 3.09766,-3.855469 6.36328,-2.96875 1.86719,0.507812 3.68359,1.277344 5.4375,2.113281 4.05078,1.925781 8.22656,3.039063 11.51953,2.6875 C 139.10156,57.457031 133.55078,55.289062 128,53.125 c 0.0195,-0.285156 0.0312,-0.574219 0.0508,-0.859375 6.25781,-2.203125 12.13672,-4.914063 15.42969,-11.105469 -4.95703,5.589844 -11.3086,8.261719 -18.57422,9.175782 -3.01562,0.378906 -5.23047,2.210937 -6.70703,4.75 -1.36719,2.355468 -2.39063,4.90625 -3.63672,7.332031 -0.51172,1.003906 -1.20703,1.910156 -1.82031,2.863281 -0.0703,0.277344 -0.14453,0.554688 -0.21875,0.828125 -0.94531,4.078125 -4.56641,5.742187 -7.11328,8.375 -0.32422,-0.140625 -0.64844,-0.285156 -0.97266,-0.425781 0.58594,-1.78125 1.23047,-3.546875 1.75391,-5.34375 0.80859,-2.761719 2.1875,-5.554688 2.13672,-8.3125 -0.0703,-4.167969 0.13281,-7.917969 3.64843,-10.804688 -3.36718,1.789063 -4.86328,4.511719 -5.03906,8.230469 -0.13281,2.785156 -0.82031,5.535156 -1.25391,8.308594 -0.41015,-0.01953 -0.82031,-0.03516 -1.22656,-0.05078 -0.84765,-3.757813 -2.10547,-7.480469 -2.37109,-11.277344 -0.14453,-2.039063 0.9414,-4.589844 2.30078,-6.226563 3.10156,-3.742187 7.17969,-6.042969 12.08203,-7.191406 3,-0.707031 5.71094,-2.636719 8.3125,-4.5 -4.12109,1.535156 -8.24609,3.066406 -12.6875,4.71875 1.08203,-7.058594 2.05078,-13.347656 3.01172,-19.632813 -0.17969,-0.05078 -0.36719,-0.09375 -0.54688,-0.144531 -0.48437,1.960938 -1.00781,3.914063 -1.43359,5.886719 -0.49609,2.289062 -0.92969,4.59375 -1.34766,6.898438 -0.75781,4.171874 -2.98828,7.289062 -6.42187,9.753906 -2.26563,1.625 -4.23828,3.664062 -6.421876,5.589844 -6.609375,-4.753907 -7.613282,-7.957032 -5.074219,-16.171876 0.851563,-2.742187 1.332031,-5.605468 1.59375,-8.480468 -1.300781,3.890625 -2.601563,7.78125 -4.003906,11.984375 -2.578125,-2.886719 -4.859375,-5.441407 -7.359375,-8.246094 3.90625,2.363281 4.4375,-2 3.386718,-5.570313 -1.140624,1.199219 -2,2.09375 -2.847656,2.992188 -2.394531,2.542969 -0.296875,4.476562 1.171875,6.066406 3.042969,3.285156 4.648438,7.039063 5.558594,11.386719 0.449219,2.125 2.25,3.957031 3.40625,5.941406 1.253906,2.144531 2.890625,4.183594 3.597656,6.5 1.050781,3.429688 1.781249,7.046875 1.999999,10.625 0.19141,3.105469 -0.515624,6.257813 -0.890624,10.042969 C 94.207031,69.433594 93.570312,60.464844 87.019531,54.242188 88.714844,57.914062 90.25,61.238281 92.070312,65.179688 80.847656,60.714844 75.96875,58.910156 75.121094,51.230469 c 2.203125,-0.347657 4.144531,-1.089844 3.890625,-4.71875 -1.640625,1.023437 -2.890625,1.804687 -4.128907,2.582031 -1.410156,-3.894531 -2.957031,-8.167969 -4.503906,-12.441406 l 0.0039,-0.0039 c -0.109374,-2.332032 -0.21875,-4.667969 -0.34375,-7.382813 -1.960937,5.152344 -0.0078,9.660156 0.945313,14.234375 l -0.101563,-0.09766 c 0.527344,1.714844 1.195313,3.40625 1.554688,5.160156 0.707031,3.445312 1.242188,6.921875 1.851562,10.40625 -4.230468,-0.292969 -8,-1.917969 -9.929687,-6.5625 -0.703125,-1.6875 -1.582031,-3.304688 -2.382813,-4.953125 l 0.105469,0.101563 C 60.085932,45.24219 58.16015,42.863283 56.058588,40.64844 55.22265,39.769533 53.992182,39.257814 52.9414,38.574221 l 0.0078,0.03516 c -0.882813,-0.304687 -1.769531,-0.605469 -2.652344,-0.910156 7.960937,3.421875 9.902344,11.167969 13.386719,17.769531 -0.214844,0.265625 -0.425782,0.539062 -0.644532,0.804688 -1.730468,-1.179688 -3.46875,-2.359376 -5.203124,-3.539063 l 0.109374,0.105469 C 54.050762,49.648444 50.027325,46.789068 44.5117,47.761725 c 5.371093,0.316406 9.261719,3.03125 12.863281,6.871093 1.878906,2.003907 4.886719,3.113282 7.566406,4.15625 5.261719,2.050782 10.675782,3.703126 15.972656,5.660157 2.09375,0.773437 4.144532,1.765625 6.046876,2.929687 7.195312,4.402344 8.835937,12.6875 4.03125,19.699219 -0.695313,1.019531 -1.269532,2.117187 -2.203126,3.691406 -2.0625,-3.257812 -4.023437,-5.972656 -5.574218,-8.910156 -1.9375,-3.675781 -4.574219,-6.496094 -8.246094,-8.445313 -2.714844,-1.441406 -5.335938,-3.058593 -8.1875,-4.703124 3.953125,5.171874 11.742188,6.265624 13.785156,13.4375 C 76.417969,81.328125 72.265625,80.972656 68.492188,79.582031 66.246094,78.753906 64.460938,76.429688 62.71875,74.546875 60.679688,72.34375 59.324219,69.25 56.921875,67.699219 c -3.089844,-1.996094 -6.828125,-3.28125 -10.464844,-4.0625 -3.875,-0.835938 -7.0625,-2.117188 -8.917969,-6.367188 0.394532,3.277344 2.179688,5.453125 5.226563,6.640625 1.617187,0.628906 3.300781,1.101563 4.953125,1.640625 l -0.08984,-0.0625 c 6.203125,0.960938 10.042969,4.765625 12.601563,10.710938 -3.917969,0 -19.902344,-0.386719 -23.449219,-1.1875 -3.515625,-0.792969 -7.652344,-3.515625 -10.472656,-4.871094 1.183594,1.582031 7.605468,7.128906 10.960937,8.039063 7.34375,1.996093 10.765625,1.40625 15.339844,1.214843 3.335937,-0.132812 9.066406,-0.21875 11.867187,1.816407 2.339844,1.695312 5.464844,2.457031 8.347657,3.214843 4.011719,1.054688 3.632812,1.925781 5.753906,6.019531 0.691406,1.335938 5.601563,3.449219 5.738281,4.90625 0.167969,1.800782 0.484375,7.582028 0.714844,12.089848"
         id="path65"
         inkscape:connector-curvature="0" />
      <path
         style="fill:#bda65c;fill-opacity:1;fill-rule:evenodd;stroke:none"
         d="m 85.03125,107.30078 c 0.167969,2.88672 0.292969,5.19141 0.292969,5.19141 0.132812,2.32422 -1.242188,6.6914 -2.695313,6.96875 -4.933594,0.92969 -18.476562,2.24219 -23.890625,0.34765 -4.28125,-1.5039 -8.332031,-1.84765 -11.558593,0.79297 -5.246094,4.29688 -10.253907,3.23828 -15.960938,1.02735 -3.214844,-1.2461 -6.953125,-1.49219 -10.457031,-2.19141 0.01563,0.14063 0.03125,0.28125 0.04687,0.41797 5.261718,2.00781 10.519531,4.01562 16.960937,6.47266 -3.757812,1.58593 -6.273437,2.64843 -8.789062,3.71093 2.207031,0.0625 4.542969,0.0625 6.46875,-0.69531 4.289062,-1.69531 8.296875,-3.91797 12.585937,-5.62891 2.101563,-0.83984 4.566406,-1.01171 7.84375,-1.6875 -3.453125,3.19532 -6.28125,5.24219 -8.246094,7.78125 -2.257812,2.91797 -12.882812,5.73047 -16.707031,5.62891 -2.808593,-0.0781 -5.632812,0.26172 -8.449219,0.41406 0.03125,0.16406 0.0625,0.32813 0.09375,0.48438 4.113282,0.26562 8.226563,0.53515 12.738282,0.82812 -2.160156,3.89453 -5.90625,4.87891 -9.628906,6.08985 -3.65625,1.1875 -7.121094,2.8164 -10.667969,4.2539 0.117187,0.16016 0.234375,0.32031 0.347656,0.48047 5.773437,-1.67969 11.546875,-3.35547 17.316406,-5.03516 0.421875,0.35547 0.839844,0.71094 1.261719,1.06641 -1.472656,2.10938 -2.945312,4.21875 -4.417969,6.33203 2.085938,-1.0039 4.984375,-2.38672 5.257813,-4.08203 0.84375,-5.19141 12.382812,-10.66797 15.628906,-14.60937 4.363281,-5.29297 19.363281,-6.96875 26.875,-5.44922 l 6.203125,0.16015 c -8.882813,4.70313 -16.429687,4.6875 -19.617187,2.49219 -3.886719,-2.67969 -6.589844,1.94922 -9.394532,6.21484 5.34375,-3.67578 6.265625,-6.16406 9.347656,-3.71093 -2.203124,2.01172 -7.453124,7.6289 -11.453124,9.41797 0.246093,0.45312 6.5,-1.63672 9.832031,-3.72657 2.640625,-5.37109 7.398437,-3.76172 11.75,-3.91797 3.296875,-0.12109 6.566406,-1.35156 10.011719,-2.12109 -5.757813,6.61328 -11.570313,12.66406 -20.84375,10.90625 0.1875,0.42969 0.371093,0.85547 0.558593,1.28125 3.40625,0 6.808594,0 11.125,0 -1.628906,4.57031 -6.507812,8.76953 -7.890625,12.64453 2.625,-1.76172 7.496094,-5.28125 8.261719,-8.99609 0.777344,-3.75781 2.386719,-6.50781 5.179687,-8.29688 5.78125,-3.69922 10.308594,-8.77734 13.132813,-16.6914 1.988281,5.01172 2.546875,9.20703 0.09766,13.0039 -1.863281,2.89453 -4.320312,5.26563 -6.527343,7.85157 -1.375,1.61718 -2.773438,3.20703 -3.804688,5.19921 2.726562,-2.3125 5.457031,-4.625 8.183594,-6.93359 0.371094,0.14063 0.746094,0.27734 1.117187,0.41797 0,6.12891 -3.382812,12.25781 -3.382812,18.28516 0.75,-3.24219 4.875,-6.45313 5.855469,-10.6875 2.34375,2.65234 0.769531,4.69921 2.582031,6.75 0.117187,0.004 0.238281,0.008 0.355469,0.0117 -0.875,-1.70312 1.90625,-3.73828 0.710937,-5.03515 -5.234375,-5.6836 -5.203125,-6.84375 -1.996094,-14.11328 1.722657,-3.90625 2.253907,-8.52735 3.167969,-12.19922 3.882811,5.5 6.296881,12.33594 2.300781,20.53125 0.66797,-1.48438 1.37891,-2.94922 2,-4.46485 0.66797,-1.64062 1.2461,-3.33593 2.01953,-5.42968 6.17578,6.03906 1.16797,13.21093 -1.04687,20.48437 0.95312,-2.10547 4.58594,-2.85937 5.53906,-4.97656 4.83594,3.33203 2.59766,2.94922 1.28906,7.27344 3.98828,-3.33203 3.26172,-4.73438 1.45313,-6.77735 -4.41016,-4.99218 -0.80078,-4.6875 -1.33594,-11.79687 4.09375,0.77734 13.90234,0.14062 14.13672,4.80859 0.20312,4.00391 -2.83203,7.62891 0.0117,10.69531 1.26953,1.36719 1.30078,4.30079 1.89843,6.5586 0.60157,-3.39844 0.0703,-6.3086 -1.96484,-9.15235 -1.09375,-1.53515 2.10547,-3.95703 1.30469,-6.65625 3.68359,4.80469 4.08594,4.23829 7.41797,6.12891 0.10937,-0.19141 0.21875,-0.38672 0.32422,-0.58203 -1.23829,-0.98438 -2.36719,-2.30469 -3.72657,-2.88672 -3.3164,-1.42187 -2.1289,-4.10156 -3.5,-7.69531 -1.61328,-4.22266 -11.52734,-3.48828 -15.07812,-5.16016 -3.88672,-1.83203 -5.93359,-5.36328 -7.08984,-10.57422 4.0625,1.95704 15.29687,3.24219 18.85156,6.07032 3.45703,2.74609 5.98047,7.08203 9.51562,10.13281 -1.80469,-2.45313 -3.60547,-4.91016 -5.5625,-7.57031 5.72266,-1.53516 6.74219,-0.84766 7.78125,4.79296 0.56641,-4.79296 -0.99609,-7.07031 -5.14453,-7.01562 -3.01562,0.0391 -4.95703,-1.73047 -7,-4.42187 5.54297,-1.51563 9.90625,-0.38672 13.125,4.90234 2.39844,3.9375 5.14063,7.53906 5.76563,12.72656 0.19921,1.69922 2.33984,3.07813 3.8789,4.08594 -1.08594,-2.10938 -2.17187,-4.22266 -3.26172,-6.33203 0.3125,-0.35547 0.61719,-0.71094 0.92969,-1.06641 4.25781,1.67969 8.51563,3.35547 12.77344,5.03516 0.0859,-0.16016 0.17187,-0.32032 0.26172,-0.48047 -2.61719,-1.44141 -5.17578,-3.06641 -7.8711,-4.25391 -2.74609,-1.21094 -5.51172,-2.1914 -7.10547,-6.08984 3.32813,-0.29297 6.36329,-0.5625 9.39844,-0.82813 0.0234,-0.16015 0.0469,-0.32031 0.0703,-0.48047 -2.08203,-0.15234 -4.16406,-0.49218 -6.23437,-0.41796 -2.82031,0.10156 -4.89453,-0.83204 -6.55859,-3.75 -1.44922,-2.53907 -3.53907,-4.58594 -6.08204,-7.77735 2.41797,0.67578 4.23438,0.84375 5.78516,1.6836 3.16016,1.71093 6.11719,3.93359 9.28516,5.6289 1.42187,0.75781 3.14453,0.75781 4.77343,0.69922 -1.85937,-1.06641 -3.71093,-2.1289 -6.48437,-3.71484 4.75,-2.45703 8.62891,-4.46094 12.51172,-6.46875 0.0117,-0.14063 0.0234,-0.27735 0.0352,-0.42188 -2.58593,0.69532 -5.33984,0.94922 -7.71484,2.19141 -4.20703,2.20703 -7.90625,3.27344 -11.77734,-1.02734 -2.37891,-2.64063 -5.36328,-2.29688 -8.52344,-0.79688 -8.5,4.03906 -22.71094,0.98438 -26.73828,-8.73828 0,0 -1.21484,-1.75 -1.61328,-4.93359"
         id="path67"
         inkscape:connector-curvature="0" />
      <path
         style="fill:#bda65c;fill-opacity:1;fill-rule:evenodd;stroke:none"
         d="m 145.94531,31.324219 c 0.71485,1.289062 1.40235,2.699219 2.26563,4.035156 1.45312,2.253906 0.36328,4.386719 -1.875,4.773437 -2.20313,0.378907 -2.05469,0.570313 -4.26563,-0.582031 -3.70703,-3.660156 -3.83203,-4.6875 0.50391,-6.550781 1.23437,-0.527344 2.38672,-1.179688 3.37109,-1.675781"
         id="path69"
         inkscape:connector-curvature="0" />
      <path
         style="fill:#bda65c;fill-opacity:1;fill-rule:evenodd;stroke:none"
         d="m 84.34375,35.519531 c 0.605469,1.511719 1.160156,3.167969 1.917969,4.730469 1.277343,2.632812 -0.21875,5.28125 -2.730469,5.894531 -2.46875,0.605469 -2.328125,0.828125 -4.59375,-0.429687 -3.550781,-4.183594 -3.546875,-5.417969 1.472656,-7.949219 1.429688,-0.722656 2.785156,-1.585937 3.933594,-2.246094"
         id="path71"
         inkscape:connector-curvature="0" />
      <path
         style="fill:#bda65c;fill-opacity:1;fill-rule:evenodd;stroke:none"
         d="m 37.503906,44.40625 c 0.933594,-0.453125 1.964844,-0.882812 2.921875,-1.4375 1.617188,-0.9375 3.375,-0.105469 3.878907,1.464844 0.5,1.542968 0.632812,1.445312 -0.0625,2.941406 -2.496094,2.453125 -3.28125,2.507812 -5.128907,-0.570312 -0.523437,-0.875 -1.136719,-1.699219 -1.609375,-2.398438"
         id="path73"
         inkscape:connector-curvature="0" />
      <path
         style="fill:#bda65c;fill-opacity:1;fill-rule:evenodd;stroke:none"
         d="m 86.132812,46.421875 c 0.898438,0.515625 1.832032,1.128906 2.828126,1.609375 1.679687,0.8125 1.980468,2.734375 0.960937,4.035156 -0.996094,1.277344 -0.839844,1.332032 -2.46875,1.597656 -3.433594,-0.691406 -3.917969,-1.3125 -2.40625,-4.566406 0.429687,-0.921875 0.769531,-1.890625 1.085937,-2.675781"
         id="path75"
         inkscape:connector-curvature="0" />
      <path
         style="fill:#bda65c;fill-opacity:1;fill-rule:evenodd;stroke:none"
         d="m 47.128906,52.988281 c 0.164063,1.296875 0.261719,2.710938 0.539063,4.0625 0.46875,2.277344 -1.261719,4.324219 -3.363281,4.605469 -2.070313,0.273438 -2.007813,0.472656 -3.535157,-0.761719 -1.933593,-3.757812 -1.679687,-4.773437 2.800781,-6.410156 1.273438,-0.464844 2.519532,-1.054687 3.558594,-1.496094"
         id="path77"
         inkscape:connector-curvature="0" />
      <path
         style="fill:#bda65c;fill-opacity:1;fill-rule:evenodd;stroke:none"
         d="m 117.58984,42.226562 c 0.16407,1.296876 0.26172,2.710938 0.53907,4.0625 0.46875,2.277344 -1.26172,4.324219 -3.36328,4.609376 -2.07422,0.277343 -2.00782,0.46875 -3.53516,-0.761719 -1.9375,-3.761719 -1.67969,-4.777344 2.79687,-6.414063 1.27735,-0.464844 2.52344,-1.054687 3.5625,-1.496094"
         id="path79"
         inkscape:connector-curvature="0" />
      <path
         style="fill:#bda65c;fill-opacity:1;fill-rule:evenodd;stroke:none"
         d="m 33.773438,90.71875 c -0.382813,-1.582031 -1.101563,-3.28125 -1.132813,-4.992188 -0.03516,-1.859374 -0.04687,-4.636718 1.039063,-5.378906 1.429687,-0.96875 4.066406,-0.769531 5.960937,-0.25 1.382813,0.382813 3.515625,2.328125 3.339844,3.148438 -0.320313,1.488281 -1.953125,2.875 -3.332031,3.914062 -1.855469,1.402344 -3.984376,2.4375 -5.875,3.558594"
         id="path81"
         inkscape:connector-curvature="0" />
      <path
         style="fill:#bda65c;fill-opacity:1;fill-rule:evenodd;stroke:none"
         d="m 124.32031,88.09375 c 0.008,-1.632812 -0.27734,-3.453125 0.10547,-5.117188 0.41406,-1.816406 1.07031,-4.515624 2.30469,-4.972656 1.62109,-0.597656 4.13281,0.238282 5.84375,1.195313 1.25,0.703125 2.85156,3.105469 2.48437,3.859375 -0.67187,1.371094 -2.58984,2.320312 -4.17968,2.996094 -2.13672,0.914062 -4.45313,1.40625 -6.5586,2.039062"
         id="path83"
         inkscape:connector-curvature="0" />
      <path
         style="fill:#bda65c;fill-opacity:1;fill-rule:evenodd;stroke:none"
         d="m 66.960938,33.820312 c -0.65625,1.496094 -1.113282,3.277344 -2.121094,4.65625 -1.101563,1.5 -2.773438,3.722657 -4.089844,3.652344 -1.722656,-0.09375 -3.699219,-1.851562 -4.890625,-3.410156 -0.871094,-1.140625 -1.390625,-3.980469 -0.75,-4.527344 1.15625,-0.992187 3.296875,-1.101562 5.023437,-1.097656 2.324219,0.0078 4.644532,0.472656 6.828126,0.726562"
         id="path85"
         inkscape:connector-curvature="0" />
      <path
         style="fill:#bda65c;fill-opacity:1;fill-rule:evenodd;stroke:none"
         d="m 37.699219,32.984375 c 3.015625,-2.699219 6.203125,-3.683594 9.644531,-3.496094 2.503906,0.140625 3.109375,2.6875 2.027344,7.785157 -0.484375,2.277343 -1.9375,3.496093 -4.28125,2.886718 C 44.34375,39.960938 43.320312,38.929688 43.285156,38.238281 43.125,34.917969 40.871094,33.898438 37.699219,32.984375"
         id="path87"
         inkscape:connector-curvature="0" />
      <path
         style="fill:#bda65c;fill-opacity:1;fill-rule:evenodd;stroke:none"
         d="m 162.25391,83.496094 c -1.53516,-3.738282 -3.97266,-6.011719 -7.14063,-7.332032 -2.3125,-0.960937 -3.96484,1.070313 -5.21484,6.132813 -0.55469,2.257813 0.21875,3.988281 2.59375,4.449219 0.7539,0.148437 2.12109,-0.339844 2.45312,-0.945313 1.58985,-2.917969 4.0625,-2.859375 7.3086,-2.304687"
         id="path89"
         inkscape:connector-curvature="0" />
      <path
         style="fill:#bda65c;fill-opacity:1;fill-rule:evenodd;stroke:none"
         d="m 101.32422,24.195312 c 3.64453,-0.828124 6.58203,-0.144531 9.13672,1.640626 1.85937,1.304687 1.07812,3.71875 -2.25,7.472656 -1.48438,1.671875 -3.19922,2.003906 -4.70703,0.378906 -0.47657,-0.511719 -0.76172,-1.863281 -0.44922,-2.453125 1.5039,-2.851563 0.26562,-4.773437 -1.73047,-7.039063"
         id="path91"
         inkscape:connector-curvature="0" />
      <path
         style="fill:#bda65c;fill-opacity:1;fill-rule:evenodd;stroke:none"
         d="m 11.609375,69.148438 c 1.671875,-2.257813 3.082031,-4.390626 4.730469,-6.332032 1.691406,-1.996094 4.503906,-2.492187 6.066406,-0.808594 1.546875,1.667969 1.75,4.457032 2.546875,6.753907 -2.152344,0.664062 -4.277344,1.75 -6.460937,1.859375 -2.019532,0.109375 -4.101563,-0.824219 -6.882813,-1.472656"
         id="path93"
         inkscape:connector-curvature="0" />
      <path
         style="fill:#bda65c;fill-opacity:1;fill-rule:evenodd;stroke:none"
         d="m 145.82422,87.976562 c -2.42969,-0.523437 -4.66406,-0.878906 -6.82031,-1.492187 -2.21875,-0.628906 -3.56641,-2.660156 -2.69532,-4.480469 0.86328,-1.800781 3.10157,-2.945312 4.73438,-4.375 1.26953,1.457032 2.8789,2.742188 3.69922,4.421875 0.76953,1.546875 0.6914,3.511719 1.08203,5.925781"
         id="path95"
         inkscape:connector-curvature="0" />
      <path
         style="fill:#bda65c;fill-opacity:1;fill-rule:evenodd;stroke:none"
         d="m 21.082031,81.9375 c -0.152343,-2.273438 -0.414062,-4.761719 -0.425781,-7.253906 -0.0039,-0.753906 0.554688,-2.089844 1.050781,-2.164063 1.664063,-0.242187 3.824219,-0.574219 5.03125,0.132813 1.613281,0.929687 3.488281,2.839844 3.410157,4.253906 -0.05859,1.089844 -2.878907,2.15625 -4.589844,3.070312 -1.570313,0.839844 -3.296875,1.453126 -4.476563,1.960938"
         id="path97"
         inkscape:connector-curvature="0" />
      <path
         style="fill:#bda65c;fill-opacity:1;fill-rule:evenodd;stroke:none"
         d="m 49.800781,59.996094 c 0.449219,-1.152344 0.738281,-2.519532 1.460938,-3.59375 0.785156,-1.175782 1.980469,-2.910156 2.976562,-2.894532 1.308594,0.01172 2.863281,1.28125 3.8125,2.425782 0.695313,0.832031 1.179688,2.96875 0.714844,3.402344 -0.84375,0.789062 -2.460937,0.941406 -3.769531,0.992187 -1.757813,0.07031 -3.53125,-0.210937 -5.195313,-0.332031"
         id="path99"
         inkscape:connector-curvature="0" />
      <path
         style="fill:#bda65c;fill-opacity:1;fill-rule:evenodd;stroke:none"
         d="m 128.70703,64.863281 c 0.44531,-1.148437 0.73438,-2.515625 1.45703,-3.59375 0.78516,-1.171875 1.98047,-2.90625 2.98047,-2.894531 1.30859,0.01563 2.85938,1.285156 3.80859,2.429688 0.69922,0.832031 1.1836,2.964843 0.71875,3.398437 -0.84765,0.789063 -2.46093,0.941406 -3.76953,0.992187 -1.75781,0.07031 -3.53515,-0.210937 -5.19531,-0.332031"
         id="path101"
         inkscape:connector-curvature="0" />
      <path
         style="fill:#bda65c;fill-opacity:1;fill-rule:evenodd;stroke:none"
         d="m 59.917969,66.703125 c 1.191406,-1.941406 2.429687,-4.109375 3.84375,-6.160156 0.425781,-0.621094 1.59375,-1.441407 1.984375,-1.253907 1.335937,0.632813 3.066406,1.4375 3.53125,2.613282 0.621094,1.570312 0.867187,4.070312 0.0039,5.191406 -0.667969,0.867188 -3.292969,0.335938 -5.039062,0.230469 -1.601563,-0.09375 -3.191407,-0.445313 -4.324219,-0.621094"
         id="path103"
         inkscape:connector-curvature="0" />
      <path
         style="fill:#bda65c;fill-opacity:1;fill-rule:evenodd;stroke:none"
         d="m 156.40625,67.859375 c -0.92969,2.078125 -1.87891,4.394531 -3.01172,6.609375 -0.34375,0.667969 -1.39844,1.628906 -1.80859,1.5 -1.40235,-0.457031 -3.22657,-1.03125 -3.83985,-2.140625 -0.8164,-1.476563 -1.38672,-3.925781 -0.67578,-5.144531 0.54688,-0.949219 3.22656,-0.761719 4.96875,-0.882813 1.60156,-0.109375 3.22266,0.03516 4.36719,0.05859"
         id="path105"
         inkscape:connector-curvature="0" />
      <path
         style="fill:#bda65c;fill-opacity:1;fill-rule:evenodd;stroke:none"
         d="m 67.300781,28.433594 c -1.332031,-1.855469 -1.632812,-4.882813 2.546875,-7.269532 1.296875,-0.738281 2.808594,-1.105468 4.3125,-1.675781 1.46875,2.953125 4.425782,5.945313 1.710938,9.433594 -2.507813,3.214844 -5.386719,-0.199219 -8.570313,-0.488281"
         id="path107"
         inkscape:connector-curvature="0" />
      <path
         style="fill:#bda65c;fill-opacity:1;fill-rule:evenodd;stroke:none"
         d="m 138.85547,55.742188 c -1.41016,-1.96875 -1.73047,-5.175782 2.69922,-7.707032 1.375,-0.785156 2.97656,-1.171875 4.57422,-1.777344 1.55468,3.132813 4.6875,6.304688 1.8125,10 -2.66016,3.410157 -5.71094,-0.207031 -9.08594,-0.515624"
         id="path109"
         inkscape:connector-curvature="0" />
      <path
         style="fill:#bda65c;fill-opacity:1;fill-rule:evenodd;stroke:none"
         d="m 23.476562,46.105469 c 3.613282,1.097656 6.089844,0.5 9.691407,1.640625 0.460937,0.144531 2.308593,2.25 2.367187,2.589844 0.171875,1.070312 0.53125,2.621093 0.01953,3.160156 -1.457032,1.535156 -1.96875,4.582031 -4.863282,4.023437 C 29.761717,57.339844 27.304686,54.1875 26.867186,52.800781 25.785154,49.386719 26.35156,48.390625 23.47656,46.105469"
         id="path111"
         inkscape:connector-curvature="0" />
      <path
         style="fill:#bda65c;fill-opacity:1;fill-rule:evenodd;stroke:none"
         d="m 129.18359,15.320312 c -1.78906,3.324219 -1.6875,5.871094 -3.51171,9.183594 -0.23438,0.421875 -2.66016,1.820313 -3.00391,1.808594 -1.08594,-0.04297 -2.67578,0.0039 -3.10547,-0.597656 -1.21484,-1.734375 -4.10937,-2.835938 -2.99219,-5.5625 0.36328,-0.875 3.9375,-2.664063 5.38282,-2.824219 3.5625,-0.390625 4.42578,0.363281 7.23046,-2.007813"
         id="path113"
         inkscape:connector-curvature="0" />
      <path
         style="fill:#bda65c;fill-opacity:1;fill-rule:evenodd;stroke:none"
         d="m 91.328125,10.839844 c 2.703125,2.886718 5.328125,4.585937 8,7.503906 0.335937,0.371094 0.839845,2.289062 0.687505,2.601562 -0.488286,0.996094 -1.089849,2.492188 -1.894536,2.664063 -2.285156,0.496094 -4.605469,2.777344 -6.964844,0.730469 -0.757812,-0.65625 -1.023438,-2.617188 -0.851562,-3.410156 0.761718,-3.496094 2.324218,-6.609376 1.023437,-10.089844"
         id="path115"
         inkscape:connector-curvature="0" />
      <path
         style="fill:#bda65c;fill-opacity:1;fill-rule:evenodd;stroke:none"
         d="m 123.91016,36.976562 c 0.77343,-1.714843 1.68359,-3.382812 2.27734,-5.15625 0.73828,-2.179687 3.09766,-3.070312 5.57422,-2.121093 1.94922,0.75 4.00781,1.203125 5.38672,1.605469 -0.79688,1.183593 -2.26563,3.273437 -3.64063,5.425781 -2.125,3.328125 -9.83984,0.164062 -9.59765,0.246093"
         id="path117"
         inkscape:connector-curvature="0" />
      <path
         style="fill:#bda65c;fill-opacity:1;fill-rule:evenodd;stroke:none"
         d="m 144.39844,60.582031 c 1.5,-1.128906 3.10156,-2.152343 4.48047,-3.417969 1.69531,-1.554687 4.1914,-1.195312 5.90234,0.828126 1.35156,1.597656 2.9375,2.988281 3.94922,4.003906 -1.26953,0.652344 -3.56641,1.773437 -5.80469,2.996094 -3.46484,1.894531 -8.70312,-4.601563 -8.52734,-4.410157"
         id="path119"
         inkscape:connector-curvature="0" />
      <path
         style="fill:#bda65c;fill-opacity:1;fill-rule:evenodd;stroke:none"
         d="m 126.53125,48.945312 c -4.54297,-0.05078 -3.92578,-2.453124 -2.39453,-6.503906 0.47266,-1.253906 1.3125,-2.371094 2.03516,-3.632812 2.70703,1.210937 6.47265,1.59375 6.58203,5.5625 0.10156,3.667968 -3.85157,2.949218 -6.22266,4.574218"
         id="path121"
         inkscape:connector-curvature="0" />
      <path
         style="fill:#bda65c;fill-opacity:1;fill-rule:evenodd;stroke:none"
         d="m 39.839844,65.265625 c -0.210938,2.273437 -1.960938,4.757813 -6.683594,3.832031 -1.464844,-0.285156 -2.847656,-1 -4.359375,-1.550781 0.824219,-3.195313 0.542969,-7.390625 4.875,-8.253906 4,-0.792969 3.945313,3.671875 6.167969,5.972656"
         id="path123"
         inkscape:connector-curvature="0" />
    </g>
  </g>
</svg>
