<?xml version="1.0" encoding="UTF-8"?>
<svg width="26px" height="22px" viewBox="0 0 26 22" version="1.1" xmlns="http://www.w3.org/2000/svg" xmlns:xlink="http://www.w3.org/1999/xlink">
    <!-- Generator: Sketch 61 (89581) - https://sketch.com -->
    <title>Group 6</title>
    <desc>Created with Sketch.</desc>
    <defs>
        <polygon id="path-1" points="0.480949945 0.424740344 29.4848518 0.424740344 29.4848518 23.4247558 0.480949945 23.4247558"></polygon>
    </defs>
    <g id="Symbols" stroke="none" stroke-width="1" fill="none" fill-rule="evenodd">
        <g id="MENU" transform="translate(-1207.000000, -42.000000)">
            <g id="Group-23">
                <g id="Group-25">
                    <g>
                        <g id="Group-6" transform="translate(1204.000000, 41.000000)">
                            <mask id="mask-2" fill="white">
                                <use xlink:href="#path-1"></use>
                            </mask>
                            <g id="Clip-5"></g>
                            <path d="M27.4301589,11.1878483 C27.2156513,16.5735438 23.0040289,20.7925713 17.8429981,20.7925713 L14.1228316,20.7925713 C8.96185392,20.7925713 4.75023149,16.5735438 4.53567082,11.1878483 C4.52898074,11.0121501 4.52537021,10.8352601 4.52537021,10.6579162 L4.52537021,8.76694695 C7.6046688,9.71541093 11.644048,10.2356389 15.9828883,10.2356389 C19.6216587,10.2356389 23.0672131,9.86869288 25.9469771,9.17441248 L25.7735658,8.35057165 C22.9494463,9.03128879 19.5635718,9.39108426 15.9828883,9.39108426 C11.6752684,9.39108426 7.52449394,8.84299204 4.52537021,7.88522105 L4.52537021,5.75697978 C7.16774237,7.25904073 15.5617845,7.27969776 15.9828883,7.27969776 C16.4040983,7.27969776 24.7980873,7.25904073 27.4404064,5.75697978 L27.4404064,7.88522105 C27.154007,7.97687242 26.8588467,8.06636728 26.5522708,8.15041414 L26.7482478,8.96875021 C26.9844716,8.90416862 27.2148018,8.83623879 27.4404064,8.76694695 L27.4404064,10.6579162 C27.4404064,10.8352601 27.436849,11.0121501 27.4301589,11.1878483 M15.9828883,3.05692477 C23.1790331,3.05692477 27.1757232,4.13205492 27.4364773,4.74597722 C27.1757232,5.36001302 23.1790331,6.43514316 15.9828883,6.43514316 C8.73975363,6.43514316 4.73913444,5.34610925 4.52537021,4.76334274 L4.52537021,4.75783798 C4.73913444,4.14595869 8.73975363,3.05692477 15.9828883,3.05692477 M15.9828883,2.21237017 C15.4827246,2.21237017 3.73519655,2.24108571 3.73519655,4.74597722 L3.73519655,10.6579162 C3.73519655,10.8479154 3.73880707,11.0362689 3.7462405,11.2237711 C3.97895998,17.0629565 8.53671479,21.6371259 14.1228316,21.6371259 L17.8429981,21.6371259 C23.4291149,21.6371259 27.9868166,17.0629565 28.2195361,11.2241684 C28.2270757,11.0362689 28.2305801,10.8479154 28.2305801,10.6579162 L28.2305801,4.74597722 C28.2305801,2.24108571 16.483052,2.21237017 15.9828883,2.21237017" id="Fill-4" stroke="#FFFFFF" fill="#FFFFFF" mask="url(#mask-2)"></path>
                        </g>
                    </g>
                </g>
            </g>
        </g>
    </g>
</svg>