<?xml version="1.0" encoding="UTF-8"?>
<svg width="41px" height="52px" viewBox="0 0 41 52" version="1.1" xmlns="http://www.w3.org/2000/svg" xmlns:xlink="http://www.w3.org/1999/xlink">
    <!-- Generator: Sketch 50.2 (55047) - http://www.bohemiancoding.com/sketch -->
    <title>picto L small - mirador</title>
    <desc>Created with Sketch.</desc>
    <defs>
        <polygon id="path-1" points="0 0 41 0 41 52 0 52"></polygon>
    </defs>
    <g id="picto-L-small---mirador" stroke="none" stroke-width="1" fill="none" fill-rule="evenodd">
        <g id="picto-L-small">
            <g id="Group-3">
                <path d="M8.33167988,36.2242775 C8.33167988,35.8745665 8.5833302,35.5913295 8.89404131,35.5913295 L16.4682024,35.5913295 C16.7789135,35.5913295 17.0305638,35.8745665 17.0305638,36.2242775 C17.0305638,36.5734104 16.7789135,36.8572254 16.4682024,36.8572254 L8.89404131,36.8572254 C8.5833302,36.8572254 8.33167988,36.5734104 8.33167988,36.2242775 Z M8.33167988,33.849711 C8.33167988,33.5 8.5833302,33.216763 8.89404131,33.216763 L16.4682024,33.216763 C16.7789135,33.216763 17.0305638,33.5 17.0305638,33.849711 C17.0305638,34.199422 16.7789135,34.482659 16.4682024,34.482659 L8.89404131,34.482659 C8.5833302,34.482659 8.33167988,34.199422 8.33167988,33.849711 Z M8.33167988,31.4757225 C8.33167988,31.1260116 8.5833302,30.8427746 8.89404131,30.8427746 L16.4682024,30.8427746 C16.7789135,30.8427746 17.0305638,31.1260116 17.0305638,31.4757225 C17.0305638,31.8254335 16.7789135,32.1086705 16.4682024,32.1086705 L8.89404131,32.1086705 C8.5833302,32.1086705 8.33167988,31.8254335 8.33167988,31.4757225 Z M8.33167988,29.1011561 C8.33167988,28.7514451 8.5833302,28.4682081 8.89404131,28.4682081 L16.4682024,28.4682081 C16.7789135,28.4682081 17.0305638,28.7514451 17.0305638,29.1011561 C17.0305638,29.4508671 16.7789135,29.734104 16.4682024,29.734104 L8.89404131,29.734104 C8.5833302,29.734104 8.33167988,29.4514451 8.33167988,29.1011561 Z M8.33167988,26.7277457 C8.33167988,26.3780347 8.5833302,26.0947977 8.89404131,26.0947977 L16.4682024,26.0947977 C16.7789135,26.0947977 17.0305638,26.3780347 17.0305638,26.7277457 C17.0305638,27.0774566 16.7789135,27.3606936 16.4682024,27.3606936 L8.89404131,27.3606936 C8.5833302,27.3606936 8.33167988,27.0774566 8.33167988,26.7277457 Z M8.33167988,24.3531792 C8.33167988,24.0034682 8.5833302,23.7202312 8.89404131,23.7202312 L16.4682024,23.7202312 C16.7789135,23.7202312 17.0305638,24.0034682 17.0305638,24.3531792 C17.0305638,24.7028902 16.7789135,24.9861272 16.4682024,24.9861272 L8.89404131,24.9861272 C8.5833302,24.9861272 8.33167988,24.7028902 8.33167988,24.3531792 Z M8.33167988,21.9791908 C8.33167988,21.6294798 8.5833302,21.3462428 8.89404131,21.3462428 L16.4682024,21.3462428 C16.7789135,21.3462428 17.0305638,21.6294798 17.0305638,21.9791908 C17.0305638,22.3289017 16.7789135,22.6121387 16.4682024,22.6121387 L8.89404131,22.6121387 C8.5833302,22.6121387 8.33167988,22.3289017 8.33167988,21.9791908 Z M23.936054,36.2242775 C23.936054,35.8745665 24.1877043,35.5913295 24.4984154,35.5913295 L32.0725765,35.5913295 C32.3832876,35.5913295 32.6349379,35.8745665 32.6349379,36.2242775 C32.6349379,36.5734104 32.3832876,36.8572254 32.0725765,36.8572254 L24.4984154,36.8572254 C24.1877043,36.8572254 23.936054,36.5734104 23.936054,36.2242775 Z M23.936054,33.849711 C23.936054,33.5 24.1877043,33.216763 24.4984154,33.216763 L32.0725765,33.216763 C32.3832876,33.216763 32.6349379,33.5 32.6349379,33.849711 C32.6349379,34.199422 32.3832876,34.482659 32.0725765,34.482659 L24.4984154,34.482659 C24.1877043,34.482659 23.936054,34.199422 23.936054,33.849711 Z M23.936054,31.4757225 C23.936054,31.1260116 24.1877043,30.8427746 24.4984154,30.8427746 L32.0725765,30.8427746 C32.3832876,30.8427746 32.6349379,31.1260116 32.6349379,31.4757225 C32.6349379,31.8254335 32.3832876,32.1086705 32.0725765,32.1086705 L24.4984154,32.1086705 C24.1877043,32.1086705 23.936054,31.8254335 23.936054,31.4757225 Z M23.936054,29.1011561 C23.936054,28.7514451 24.1877043,28.4682081 24.4984154,28.4682081 L32.0725765,28.4682081 C32.3832876,28.4682081 32.6349379,28.7514451 32.6349379,29.1011561 C32.6349379,29.4508671 32.3832876,29.734104 32.0725765,29.734104 L24.4984154,29.734104 C24.1877043,29.734104 23.936054,29.4514451 23.936054,29.1011561 Z M23.936054,26.7277457 C23.936054,26.3780347 24.1877043,26.0947977 24.4984154,26.0947977 L32.0725765,26.0947977 C32.3832876,26.0947977 32.6349379,26.3780347 32.6349379,26.7277457 C32.6349379,27.0774566 32.3832876,27.3606936 32.0725765,27.3606936 L24.4984154,27.3606936 C24.1877043,27.3606936 23.936054,27.0774566 23.936054,26.7277457 Z M23.936054,24.3531792 C23.936054,24.0034682 24.1877043,23.7202312 24.4984154,23.7202312 L32.0725765,23.7202312 C32.3832876,23.7202312 32.6349379,24.0034682 32.6349379,24.3531792 C32.6349379,24.7028902 32.3832876,24.9861272 32.0725765,24.9861272 L24.4984154,24.9861272 C24.1877043,24.9861272 23.936054,24.7028902 23.936054,24.3531792 Z M23.936054,21.9791908 C23.936054,21.6294798 24.1877043,21.3462428 24.4984154,21.3462428 L32.0725765,21.3462428 C32.3832876,21.3462428 32.6349379,21.6294798 32.6349379,21.9791908 C32.6349379,22.3289017 32.3832876,22.6121387 32.0725765,22.6121387 L24.4984154,22.6121387 C24.1877043,22.6121387 23.936054,22.3289017 23.936054,21.9791908 Z M25.4510917,19.3306358 L34.1417584,19.3306358 L34.1417584,21.1595376 L34.1417584,38.7768786 L25.4510917,38.7768786 C23.6628337,38.7768786 22.0697331,39.7410405 21.0621046,41.2306358 L21.0621046,26.7323699 L21.0621046,24.2705202 C21.0621046,21.5468208 23.03114,19.3306358 25.4510917,19.3306358 Z M33.3595881,43.9508671 L22.5838187,43.9508671 C22.2736212,43.9508671 22.0219709,44.233526 22.0219709,44.583815 C22.0219709,45.5294798 21.33892,46.2982659 20.4997432,46.2982659 C19.6595393,46.2982659 18.9764884,45.5294798 18.9764884,44.583815 C18.9764884,44.233526 18.7248381,43.9508671 18.414127,43.9508671 L7.63989829,43.9508671 L7.63989829,42.5034682 L15.5478812,42.5034682 C18.2564604,42.5034682 19.5676099,42.6763006 19.8670224,44.1976879 C19.9039996,44.4549133 19.9373818,44.7138728 19.9373818,44.982659 C19.9373818,45.3323699 20.1890321,45.6156069 20.4997432,45.6156069 C20.8104543,45.6156069 21.0621046,45.3323699 21.0621046,44.982659 C21.0621046,44.7138728 21.0954868,44.4549133 21.132464,44.1976879 C21.431363,42.6763006 22.7430261,42.5034682 25.4510917,42.5034682 L33.3595881,42.5034682 L33.3595881,43.9508671 Z M6.85824158,41.2375723 L6.85824158,40.0416185 L15.5483948,40.0416185 C16.761452,40.0416185 17.8599827,40.5988439 18.6555059,41.4971098 C17.7089925,41.2433526 16.6017311,41.2375723 15.5483948,41.2375723 L6.85824158,41.2375723 Z M6.85824158,19.3306358 L15.5483948,19.3306358 C17.96886,19.3306358 19.9378954,21.5468208 19.9378954,24.2710983 L19.9378954,26.732948 L19.9378954,41.2306358 C18.9297534,39.7410405 17.3371663,38.7768786 15.5483948,38.7768786 L6.85824158,38.7768786 L6.85824158,21.1589595 L6.85824158,19.3306358 Z M34.1417584,41.2375723 L25.4510917,41.2375723 C24.3982689,41.2375723 23.2904939,41.2433526 22.3444941,41.4971098 C23.1395037,40.5988439 24.238548,40.0416185 25.4510917,40.0416185 L34.1417584,40.0416185 L34.1417584,41.2375723 Z M15.5478812,18.0647399 L6.29588015,18.0647399 C5.98516904,18.0647399 5.73351872,18.3479769 5.73351872,18.6976879 L5.73351872,21.1595376 L5.73351872,39.4098266 L5.73351872,41.8705202 C5.73351872,42.2202312 5.98516904,42.5034682 6.29588015,42.5034682 L6.515689,42.5034682 L6.515689,44.583815 C6.515689,44.933526 6.76733932,45.216763 7.07805043,45.216763 L17.9128806,45.216763 C18.1712074,46.5566474 19.2327609,47.5641618 20.5002568,47.5641618 C21.7667255,47.5641618 22.828279,46.5566474 23.0866058,45.216763 L33.9224631,45.216763 C34.2331743,45.216763 34.4848246,44.933526 34.4848246,44.583815 L34.4848246,42.5034682 L34.7046334,42.5034682 C35.0153445,42.5034682 35.2669949,42.2202312 35.2669949,41.8705202 L35.2669949,39.4098266 L35.2669949,21.1589595 L35.2669949,18.6971098 C35.2669949,18.3473988 35.0153445,18.0641618 34.7046334,18.0641618 L25.4510917,18.0641618 C23.2668696,18.0641618 21.3918179,19.5127168 20.4997432,21.5913295 C19.6076685,19.5132948 17.7331304,18.0647399 15.5478812,18.0647399 Z M39.8747636,50.734104 L1.12420929,50.734104 L1.12420929,16.500578 L20.4997432,1.53526012 L39.8747636,16.500578 L39.8747636,50.734104 Z M20.4997432,0 L0,15.834104 L0,52 L41,52 L41,15.834104 L20.4997432,0 Z" id="Fill-1" fill="#000000"></path>
                <mask id="mask-2" fill="white">
                    <use xlink:href="#path-1"></use>
                </mask>
                <g id="Clip-2"></g>
                <path d="M8.33167988,36.2242775 C8.33167988,35.8745665 8.5833302,35.5913295 8.89404131,35.5913295 L16.4682024,35.5913295 C16.7789135,35.5913295 17.0305638,35.8745665 17.0305638,36.2242775 C17.0305638,36.5734104 16.7789135,36.8572254 16.4682024,36.8572254 L8.89404131,36.8572254 C8.5833302,36.8572254 8.33167988,36.5734104 8.33167988,36.2242775 Z M8.33167988,33.849711 C8.33167988,33.5 8.5833302,33.216763 8.89404131,33.216763 L16.4682024,33.216763 C16.7789135,33.216763 17.0305638,33.5 17.0305638,33.849711 C17.0305638,34.199422 16.7789135,34.482659 16.4682024,34.482659 L8.89404131,34.482659 C8.5833302,34.482659 8.33167988,34.199422 8.33167988,33.849711 Z M8.33167988,31.4757225 C8.33167988,31.1260116 8.5833302,30.8427746 8.89404131,30.8427746 L16.4682024,30.8427746 C16.7789135,30.8427746 17.0305638,31.1260116 17.0305638,31.4757225 C17.0305638,31.8254335 16.7789135,32.1086705 16.4682024,32.1086705 L8.89404131,32.1086705 C8.5833302,32.1086705 8.33167988,31.8254335 8.33167988,31.4757225 Z M8.33167988,29.1011561 C8.33167988,28.7514451 8.5833302,28.4682081 8.89404131,28.4682081 L16.4682024,28.4682081 C16.7789135,28.4682081 17.0305638,28.7514451 17.0305638,29.1011561 C17.0305638,29.4508671 16.7789135,29.734104 16.4682024,29.734104 L8.89404131,29.734104 C8.5833302,29.734104 8.33167988,29.4514451 8.33167988,29.1011561 Z M8.33167988,26.7277457 C8.33167988,26.3780347 8.5833302,26.0947977 8.89404131,26.0947977 L16.4682024,26.0947977 C16.7789135,26.0947977 17.0305638,26.3780347 17.0305638,26.7277457 C17.0305638,27.0774566 16.7789135,27.3606936 16.4682024,27.3606936 L8.89404131,27.3606936 C8.5833302,27.3606936 8.33167988,27.0774566 8.33167988,26.7277457 Z M8.33167988,24.3531792 C8.33167988,24.0034682 8.5833302,23.7202312 8.89404131,23.7202312 L16.4682024,23.7202312 C16.7789135,23.7202312 17.0305638,24.0034682 17.0305638,24.3531792 C17.0305638,24.7028902 16.7789135,24.9861272 16.4682024,24.9861272 L8.89404131,24.9861272 C8.5833302,24.9861272 8.33167988,24.7028902 8.33167988,24.3531792 Z M8.33167988,21.9791908 C8.33167988,21.6294798 8.5833302,21.3462428 8.89404131,21.3462428 L16.4682024,21.3462428 C16.7789135,21.3462428 17.0305638,21.6294798 17.0305638,21.9791908 C17.0305638,22.3289017 16.7789135,22.6121387 16.4682024,22.6121387 L8.89404131,22.6121387 C8.5833302,22.6121387 8.33167988,22.3289017 8.33167988,21.9791908 Z M23.936054,36.2242775 C23.936054,35.8745665 24.1877043,35.5913295 24.4984154,35.5913295 L32.0725765,35.5913295 C32.3832876,35.5913295 32.6349379,35.8745665 32.6349379,36.2242775 C32.6349379,36.5734104 32.3832876,36.8572254 32.0725765,36.8572254 L24.4984154,36.8572254 C24.1877043,36.8572254 23.936054,36.5734104 23.936054,36.2242775 Z M23.936054,33.849711 C23.936054,33.5 24.1877043,33.216763 24.4984154,33.216763 L32.0725765,33.216763 C32.3832876,33.216763 32.6349379,33.5 32.6349379,33.849711 C32.6349379,34.199422 32.3832876,34.482659 32.0725765,34.482659 L24.4984154,34.482659 C24.1877043,34.482659 23.936054,34.199422 23.936054,33.849711 Z M23.936054,31.4757225 C23.936054,31.1260116 24.1877043,30.8427746 24.4984154,30.8427746 L32.0725765,30.8427746 C32.3832876,30.8427746 32.6349379,31.1260116 32.6349379,31.4757225 C32.6349379,31.8254335 32.3832876,32.1086705 32.0725765,32.1086705 L24.4984154,32.1086705 C24.1877043,32.1086705 23.936054,31.8254335 23.936054,31.4757225 Z M23.936054,29.1011561 C23.936054,28.7514451 24.1877043,28.4682081 24.4984154,28.4682081 L32.0725765,28.4682081 C32.3832876,28.4682081 32.6349379,28.7514451 32.6349379,29.1011561 C32.6349379,29.4508671 32.3832876,29.734104 32.0725765,29.734104 L24.4984154,29.734104 C24.1877043,29.734104 23.936054,29.4514451 23.936054,29.1011561 Z M23.936054,26.7277457 C23.936054,26.3780347 24.1877043,26.0947977 24.4984154,26.0947977 L32.0725765,26.0947977 C32.3832876,26.0947977 32.6349379,26.3780347 32.6349379,26.7277457 C32.6349379,27.0774566 32.3832876,27.3606936 32.0725765,27.3606936 L24.4984154,27.3606936 C24.1877043,27.3606936 23.936054,27.0774566 23.936054,26.7277457 Z M23.936054,24.3531792 C23.936054,24.0034682 24.1877043,23.7202312 24.4984154,23.7202312 L32.0725765,23.7202312 C32.3832876,23.7202312 32.6349379,24.0034682 32.6349379,24.3531792 C32.6349379,24.7028902 32.3832876,24.9861272 32.0725765,24.9861272 L24.4984154,24.9861272 C24.1877043,24.9861272 23.936054,24.7028902 23.936054,24.3531792 Z M23.936054,21.9791908 C23.936054,21.6294798 24.1877043,21.3462428 24.4984154,21.3462428 L32.0725765,21.3462428 C32.3832876,21.3462428 32.6349379,21.6294798 32.6349379,21.9791908 C32.6349379,22.3289017 32.3832876,22.6121387 32.0725765,22.6121387 L24.4984154,22.6121387 C24.1877043,22.6121387 23.936054,22.3289017 23.936054,21.9791908 Z M25.4510917,19.3306358 L34.1417584,19.3306358 L34.1417584,21.1595376 L34.1417584,38.7768786 L25.4510917,38.7768786 C23.6628337,38.7768786 22.0697331,39.7410405 21.0621046,41.2306358 L21.0621046,26.7323699 L21.0621046,24.2705202 C21.0621046,21.5468208 23.03114,19.3306358 25.4510917,19.3306358 Z M33.3595881,43.9508671 L22.5838187,43.9508671 C22.2736212,43.9508671 22.0219709,44.233526 22.0219709,44.583815 C22.0219709,45.5294798 21.33892,46.2982659 20.4997432,46.2982659 C19.6595393,46.2982659 18.9764884,45.5294798 18.9764884,44.583815 C18.9764884,44.233526 18.7248381,43.9508671 18.414127,43.9508671 L7.63989829,43.9508671 L7.63989829,42.5034682 L15.5478812,42.5034682 C18.2564604,42.5034682 19.5676099,42.6763006 19.8670224,44.1976879 C19.9039996,44.4549133 19.9373818,44.7138728 19.9373818,44.982659 C19.9373818,45.3323699 20.1890321,45.6156069 20.4997432,45.6156069 C20.8104543,45.6156069 21.0621046,45.3323699 21.0621046,44.982659 C21.0621046,44.7138728 21.0954868,44.4549133 21.132464,44.1976879 C21.431363,42.6763006 22.7430261,42.5034682 25.4510917,42.5034682 L33.3595881,42.5034682 L33.3595881,43.9508671 Z M6.85824158,41.2375723 L6.85824158,40.0416185 L15.5483948,40.0416185 C16.761452,40.0416185 17.8599827,40.5988439 18.6555059,41.4971098 C17.7089925,41.2433526 16.6017311,41.2375723 15.5483948,41.2375723 L6.85824158,41.2375723 Z M6.85824158,19.3306358 L15.5483948,19.3306358 C17.96886,19.3306358 19.9378954,21.5468208 19.9378954,24.2710983 L19.9378954,26.732948 L19.9378954,41.2306358 C18.9297534,39.7410405 17.3371663,38.7768786 15.5483948,38.7768786 L6.85824158,38.7768786 L6.85824158,21.1589595 L6.85824158,19.3306358 Z M34.1417584,41.2375723 L25.4510917,41.2375723 C24.3982689,41.2375723 23.2904939,41.2433526 22.3444941,41.4971098 C23.1395037,40.5988439 24.238548,40.0416185 25.4510917,40.0416185 L34.1417584,40.0416185 L34.1417584,41.2375723 Z M15.5478812,18.0647399 L6.29588015,18.0647399 C5.98516904,18.0647399 5.73351872,18.3479769 5.73351872,18.6976879 L5.73351872,21.1595376 L5.73351872,39.4098266 L5.73351872,41.8705202 C5.73351872,42.2202312 5.98516904,42.5034682 6.29588015,42.5034682 L6.515689,42.5034682 L6.515689,44.583815 C6.515689,44.933526 6.76733932,45.216763 7.07805043,45.216763 L17.9128806,45.216763 C18.1712074,46.5566474 19.2327609,47.5641618 20.5002568,47.5641618 C21.7667255,47.5641618 22.828279,46.5566474 23.0866058,45.216763 L33.9224631,45.216763 C34.2331743,45.216763 34.4848246,44.933526 34.4848246,44.583815 L34.4848246,42.5034682 L34.7046334,42.5034682 C35.0153445,42.5034682 35.2669949,42.2202312 35.2669949,41.8705202 L35.2669949,39.4098266 L35.2669949,21.1589595 L35.2669949,18.6971098 C35.2669949,18.3473988 35.0153445,18.0641618 34.7046334,18.0641618 L25.4510917,18.0641618 C23.2668696,18.0641618 21.3918179,19.5127168 20.4997432,21.5913295 C19.6076685,19.5132948 17.7331304,18.0647399 15.5478812,18.0647399 Z M39.8747636,50.734104 L1.12420929,50.734104 L1.12420929,16.500578 L20.4997432,1.53526012 L39.8747636,16.500578 L39.8747636,50.734104 Z M20.4997432,0 L0,15.834104 L0,52 L41,52 L41,15.834104 L20.4997432,0 Z" id="Fill-1" stroke="#000000" stroke-width="0.3" fill="#152631" mask="url(#mask-2)"></path>
            </g>
        </g>
    </g>
</svg>