<svg xmlns="http://www.w3.org/2000/svg" width="363" height="90">
  <path d="M.488 0v89.566h24.813l.11-14.205h-9.645L15.658 0H.488zm28.336 0v89.512h15.278V0H28.824zM47.95 0v89.566h22.97c7.586 0 11.433-4.555 11.433-13.609V51.398c0-7.21-4.714-9.868-7.098-10.464 1.95-.597 5.906-3.361 5.906-9.38V11.333C81.16 3.145 77.152 0 71.03 0H47.95zm37.762 0v89.512h15.17V50.26h1.193c1.463 0 1.68.757 1.68 2.058v33.56c0 1.682.379 2.876.975 3.743h15.06v-.38c-.488-.814-.703-2.169-.703-3.958V49.771c0-4.662-3.088-7.21-5.635-8.294 2.547-1.085 5.418-3.524 5.418-9.65V10.733C118.87 3.361 114.696 0 109.387 0H85.71zm43.885 0l-7.422 89.566h13.111l.867-16.156h5.147l.812 16.156h14.791L148.83 0h-19.234zm30.341 0v89.512h15.223V50.26h1.194c1.462 0 1.68.757 1.68 2.058v33.56c0 1.682.378 2.876.974 3.743h15.062v-.38c-.487-.814-.705-2.169-.705-3.958V49.771c0-4.662-3.088-7.21-5.635-8.294 2.547-1.085 5.418-3.524 5.418-9.65V10.733c0-7.373-4.17-10.734-9.48-10.734h-23.73zm34.567 0l9.86 54.271h-.055v35.295h15.171V54.271L228.527 0h-13.6l-2.599 30.957L209.674 0h-15.17zM63.227 11.277h1.084c1.57 0 1.787.596 1.787 2.168v21.092c0 1.572-.596 2.276-1.787 2.276h-1.084V11.276zm37.763 0h1.301c1.355 0 1.57.597 1.57 2.06V35.35c0 1.355-.596 2.06-1.68 2.06h-1.19V11.277zm74.225 0h1.3c1.355 0 1.57.597 1.57 2.06V35.35c0 1.355-.595 2.06-1.679 2.06h-1.191V11.277zM138.752 26.24l1.844 34.05h-3.631l1.787-34.05zM63.227 47.928h1.462c1.41 0 1.79.595 1.79 2.385v25.265c0 1.572-.218 2.277-1.79 2.277h-1.462V47.928z"/>
  <path d="M226.523 57.47v14.747h10.024v-3.688h-6.178V57.471h-3.846zm11.594 0v14.747h3.848V57.47h-3.848zm6.069 0v14.801h6.392c3.738 0 5.473-1.518 5.473-4.283 0-1.789-.814-2.764-2.168-3.306 1.138-.597 1.789-1.629 1.789-3.364 0-2.494-1.735-3.847-5.744-3.847h-5.742zm13.328 0v14.747h3.683v-4.88h1.842c1.517 0 2.059.434 2.059 1.897v2.17c0 .38.11.705.326.867h3.846c-.217-.162-.325-.434-.325-.814v-2.33c0-1.843-.597-2.873-1.789-3.361 1.355-.651 2.114-1.79 2.114-3.688 0-2.765-1.626-4.607-5.797-4.607h-5.96zm17.445 0l-5.147 14.747h3.792l.814-2.602h4.93l.867 2.602h3.793l-5.201-14.746h-3.848zm10.023 0v14.747h3.739v-4.88h1.787c1.517 0 2.058.434 2.058 1.897v2.17c0 .38.11.705.327.867h3.845c-.216-.162-.324-.434-.324-.814v-2.33c0-1.843-.597-2.873-1.789-3.361 1.354-.651 2.113-1.79 2.113-3.688 0-2.765-1.625-4.607-5.797-4.607h-5.959zm12.3 0l4.55 9v5.801h3.9v-5.693l4.713-9.107h-3.955l-2.654 5.312-2.547-5.312h-4.008zm-49.413 2.928h2.22c1.41 0 1.952.434 1.952 1.356 0 1.03-.65 1.463-1.951 1.463h-2.22v-2.819zm13.328.217h2.168c1.463 0 2.059.65 2.059 1.68 0 1.084-.704 1.734-2.059 1.734h-2.168v-3.414zm27.524 0h2.166c1.463 0 2.06.65 2.06 1.68 0 1.084-.706 1.734-2.06 1.734h-2.166v-3.414zm-11.866 1.139l1.518 4.824h-2.98l1.462-4.824zM247.87 66.09h2.006c1.734 0 2.328.489 2.328 1.465 0 .976-.54 1.463-2.328 1.463h-2.006V66.09zm-15.387 8.404c-3.846 0-6.392 2.331-6.392 6.94v1.572c0 4.717 2.329 6.885 6.392 6.885 3.793 0 6.393-2.222 6.393-6.885v-1.572c0-4.663-2.654-6.94-6.393-6.94zm29.907 0c-3.955 0-6.448 2.278-6.448 6.832v1.897c0 4.5 2.223 6.67 6.395 6.615 4.063 0 6.337-1.898 6.5-6.072v-.381h-4.008v.271c-.162 1.79-.813 2.711-2.385 2.711-1.68 0-2.492-1.138-2.492-3.523v-1.301c0-2.494.759-3.688 2.492-3.688 1.572 0 2.222.867 2.33 2.602v.217h3.956v-.434c-.217-3.85-2.494-5.746-6.34-5.746zm13.923 0c-3.846 0-6.392 2.331-6.392 6.94v1.572c0 4.717 2.33 6.885 6.392 6.885 3.793 0 6.395-2.222 6.395-6.885v-1.572c0-4.663-2.656-6.94-6.394-6.94zm28.88 0c-4.01 0-6.503 2.224-6.503 6.832v1.79c0 4.716 1.572 6.775 4.985 6.775 2.6 0 3.792-1.68 4.117-3.74l.326 3.47h2.979v-7.916h-6.338v2.549h2.6c-.109 1.301-.866 2.33-2.329 2.33-1.733 0-2.494-.922-2.494-3.633v-1.463c0-2.494.76-3.633 2.547-3.633 1.571 0 2.168.869 2.223 2.332h3.845v-.109c-.054-3.632-2.112-5.584-5.959-5.584zm38.738.055c-3.739 0-5.635 1.897-5.635 4.5 0 3.199 2.491 3.903 4.713 4.39 1.68.38 3.197.597 3.197 1.79 0 .813-.597 1.464-1.951 1.464-1.625 0-2.33-.76-2.33-2.17v-.052h-3.955c.054 3.47 1.572 5.42 6.123 5.474 3.847 0 5.851-1.95 5.851-4.824-.054-3.253-2.6-4.012-4.822-4.5-1.68-.38-3.088-.597-3.088-1.682 0-.759.487-1.355 1.787-1.355 1.409 0 2.005.542 2.059 1.789h3.793c0-3.09-1.95-4.824-5.742-4.824zm12.623 0c-3.739 0-5.635 1.897-5.635 4.5 0 3.199 2.492 3.903 4.713 4.39 1.68.38 3.197.597 3.197 1.79 0 .813-.597 1.464-1.951 1.464-1.625 0-2.328-.76-2.328-2.17v-.052h-3.955c.054 3.47 1.57 5.42 6.12 5.474 3.848 0 5.852-1.95 5.852-4.824-.054-3.253-2.6-4.012-4.822-4.5-1.68-.38-3.088-.597-3.088-1.682 0-.759.487-1.355 1.787-1.355 1.409 0 2.007.542 2.06 1.789h3.792c0-3.09-1.95-4.824-5.742-4.824zm-115.944.27v14.747h3.684v-5.15h6.014v-3.361h-6.014v-2.873h6.285v-3.364h-9.969zm43.83 0v14.747h3.524V80.73l5.525 8.837h3.414V74.818h-3.523v8.73l-5.416-8.73h-3.524zm28.663 0v14.747h3.683v-4.879h1.842c1.517 0 2.059.433 2.059 1.897v2.17c0 .38.109.704.326.867h3.845c-.216-.163-.324-.435-.324-.814v-2.33c0-1.844-.597-2.874-1.789-3.362 1.355-.65 2.113-1.79 2.113-3.687 0-2.765-1.625-4.61-5.796-4.61h-5.96zm13.49 0v14.747h10.564V86.26h-6.88v-2.494h6.013v-3.254h-6.014v-2.494h6.664v-3.2h-10.347zm-94.11 3.036c1.68 0 2.438 1.247 2.438 3.74v1.194c0 2.494-.758 3.687-2.438 3.633-1.733 0-2.437-1.248-2.437-3.688v-1.191c0-2.386.704-3.688 2.437-3.688zm43.83 0c1.68 0 2.44 1.247 2.44 3.74v1.194c0 2.494-.76 3.687-2.44 3.633-1.733 0-2.437-1.248-2.437-3.688v-1.191c0-2.386.704-3.688 2.438-3.688zm40.473.108h2.168c1.463 0 2.059.651 2.059 1.682 0 1.084-.704 1.734-2.059 1.734h-2.168v-3.416z" fill="#fc4c02"/>
</svg>