<?xml version="1.0" encoding="UTF-8"?>
<svg width="105mm" height="80mm" version="1.1" viewBox="0 0 372.05 283.46" xml:space="preserve" xmlns="http://www.w3.org/2000/svg" xmlns:cc="http://creativecommons.org/ns#" xmlns:dc="http://purl.org/dc/elements/1.1/" xmlns:rdf="http://www.w3.org/1999/02/22-rdf-syntax-ns#" xmlns:xlink="http://www.w3.org/1999/xlink"><metadata><rdf:RDF><cc:Work rdf:about=""><dc:format>image/svg+xml</dc:format><dc:type rdf:resource="http://purl.org/dc/dcmitype/StillImage"/><dc:title/></cc:Work></rdf:RDF></metadata><g transform="matrix(1.25 0 0 -1.25 0 283.46)"><text transform="scale(1,-1)" x="467.11182" y="-7922.4629" fill="#000000" font-family="sans-serif" font-size="32px" letter-spacing="0px" stroke-width="1px" word-spacing="0px" style="line-height:125%" xml:space="preserve"><tspan x="467.11182" y="-7922.4629"/></text>
<g transform="matrix(2.7312 0 0 2.7312 -1689.3 -1438.3)"><rect transform="matrix(-.70711 -.70711 -.70711 .70711 0 0)" x="-878.37" y="-83.925" width="5.89" height="17.434"/><rect transform="matrix(-.70711 .70711 .70711 .70711 0 0)" x="-91.325" y="866.83" width="5.89" height="17.434"/><rect transform="matrix(-.70711 .70711 .70711 .70711 0 0)" x="-64.888" y="866.83" width="5.89" height="17.434"/><path d="m655.53 544.83-4.1649 4.1649 15.51 15.51 4.1649-4.1649zm-3.8739-8.8688a9.4436 9.4436 0 0 1 13.038-0.29596l-4.1667 4.1667a3.5654 3.5654 0 0 0-4.7146 0.28616 3.5654 3.5654 0 0 0-0.28518 4.7136l-4.1628 4.1628a9.4436 9.4436 0 0 1 0.29102-13.033zm13.038-0.29517-4.1649 4.1648 6.4051 6.4051 4.1649-4.1649z"/><path d="m660.44 591.83 4.1648 4.1648 15.51-15.51-4.1648-4.1649zm-8.8688 3.8739a9.4436 9.4436 0 0 1-0.29588-13.038l4.1667 4.1666a3.5654 3.5654 0 0 0 0.28616 4.7147 3.5654 3.5654 0 0 0 4.7137 0.28517l4.1627 4.1628a9.4436 9.4436 0 0 1-13.033-0.29111zm-0.29517-13.038 4.1648 4.1648 6.4051-6.4051-4.1649-4.1648z"/><path d="m704.84 584.02-12.701-12.701 4.1642-4.1642 8.5292 8.5292 9.3277-9.3277-9.9754-9.9754-17.324 17.324-4.1642-4.1642 17.324-17.324-3e-3 -3e-3 4.2581-4.2581 3e-3 3e-3 8e-3 -8e-3 4.1642 4.1642-8e-3 8e-3 9.9755 9.9755 8e-3 -8e-3 4.1642 4.1642-13.594 13.594 8e-3 8e-3z"/><g transform="matrix(.6251 -.6251 .6251 .6251 -4123.7 -2589.7)"><rect transform="matrix(0,-1,-1,0,0,0)" x="-6400.4" y="-1315.3" width="6.6391" height="21.312"/><rect transform="scale(1,-1)" x="1294" y="-6399.9" width="6.6502" height="19.722"/><rect transform="scale(1,-1)" x="1308.6" y="-6399.9" width="6.6627" height="34.322"/></g><path d="m684.49 539.43-4.1649-4.1649-15.51 15.51 4.1649 4.1649zm8.8688-3.874a9.4436 9.4436 0 0 1 0.29597 13.038l-4.1667-4.1667a3.5654 3.5654 0 0 0-0.28616-4.7146 3.5654 3.5654 0 0 0-4.7136-0.28519l-4.1628-4.1628a9.4436 9.4436 0 0 1 13.033 0.29102zm0.29518 13.038-4.1648-4.1649-6.4051 6.4051 4.1649 4.1649z"/><path d="m648.21 575.83c-5.5595 5.5595-14.659 5.5595-20.219 0-5.5595-5.5595-5.5617-14.662-2e-3 -20.221 5.5498-5.5498 14.631-5.5581 20.193-0.0276l6e-3 -6e-3 4.1244 4.1244-4.0968 4.0968-4.1244-4.1244 6e-3 -6e-3c-3.3545-3.3237-8.6811-3.3154-12.024 0.0276-3.3527 3.3527-3.3528 8.7012-2e-5 12.054s8.7012 3.3527 12.054 0c0.0105-0.0105 0.0192-0.022 0.0289-0.0331l13.743-13.743 4.0836 4.0836-13.743 13.743-1e-3 -1e-3c-0.01 0.0109-0.0184 0.0226-0.0289 0.0331z" color="#000000" color-rendering="auto" image-rendering="auto" shape-rendering="auto" solid-color="#000000" style="block-progression:tb;isolation:auto;mix-blend-mode:normal;text-decoration-color:#000000;text-decoration-line:none;text-decoration-style:solid;text-indent:0;text-transform:none;white-space:normal"/></g></g></svg>
