<?xml version="1.0" standalone="no"?>
<!DOCTYPE svg PUBLIC "-//W3C//DTD SVG 20010904//EN"
 "http://www.w3.org/TR/2001/REC-SVG-20010904/DTD/svg10.dtd">
<svg version="1.0" xmlns="http://www.w3.org/2000/svg"
 width="886.000000pt" height="886.000000pt" viewBox="0 0 886.000000 886.000000"
 preserveAspectRatio="xMidYMid meet">
<metadata>
Created by potrace 1.11, written by Peter Selinger 2001-2013
</metadata>
<g transform="translate(0.000000,886.000000) scale(0.100000,-0.100000)"
fill="#000000" stroke="none">
<path d="M203 8750 c-79 -36 -145 -103 -175 -178 l-23 -57 0 -4090 0 -4090 33
-67 c38 -77 92 -130 171 -167 l56 -26 4160 0 4160 0 60 24 c79 32 154 107 186
186 l24 60 0 4080 c0 4055 0 4080 -20 4135 -28 78 -120 170 -198 199 l-58 21
-4157 0 -4157 -1 -62 -29z m2431 -49 c-5 -4 -229 -196 -499 -426 -269 -230
-498 -425 -508 -433 -16 -14 -22 -14 -63 6 -55 27 -115 28 -173 1 l-44 -20
-31 29 c-17 16 -233 208 -481 427 -247 219 -457 404 -465 411 -12 12 164 14
1130 14 631 0 1140 -4 1134 -9z m906 -2 c0 -12 -16 -89 -115 -543 -25 -115
-45 -212 -45 -216 0 -4 -19 -11 -42 -14 -176 -27 -244 -228 -117 -347 l28 -26
-31 -79 c-46 -119 -295 -758 -330 -845 l-30 -76 -62 -5 c-34 -3 -80 -14 -100
-23 -25 -12 -43 -15 -52 -9 -15 10 -1004 1032 -1004 1038 0 1 8 18 17 37 20
39 22 124 4 157 -11 20 21 50 536 491 l548 470 398 0 c292 1 397 -2 397 -10z
m3472 -102 c26 -61 139 -330 251 -597 112 -267 214 -510 226 -540 l23 -56 -34
-37 c-19 -20 -38 -37 -43 -37 -14 0 -708 219 -725 229 -8 5 -14 16 -12 25 5
28 -19 100 -45 134 -39 51 -94 74 -170 70 l-65 -3 -110 214 c-89 173 -109 217
-99 230 79 111 64 238 -36 301 -88 56 -176 47 -249 -25 -65 -66 -74 -117 -39
-230 5 -17 -71 -92 -446 -440 -249 -231 -479 -444 -511 -474 l-59 -54 -27 20
c-54 40 -115 65 -175 71 l-62 7 -22 145 c-11 80 -35 242 -53 360 -17 118 -33
226 -36 240 -3 21 2 29 36 48 57 32 93 99 93 171 0 67 -19 108 -70 150 -72 60
-154 63 -236 11 -140 -88 -103 -309 59 -352 24 -7 46 -19 48 -28 3 -8 28 -172
56 -365 28 -192 53 -359 55 -371 4 -17 -5 -25 -47 -45 -29 -13 -72 -45 -98
-70 l-45 -45 -398 205 -397 205 0 53 c0 69 -21 117 -69 162 l-38 36 53 245
c29 135 68 314 85 398 l33 152 1675 0 1676 0 47 -113z m1626 87 c56 -28 90
-63 125 -128 22 -41 22 -45 25 -613 l3 -572 -33 -5 c-18 -3 -217 -19 -443 -36
-225 -17 -431 -33 -457 -36 -41 -5 -47 -3 -53 16 -4 12 -23 40 -42 61 l-36 40
114 295 115 296 46 3 c60 4 114 31 152 79 29 35 31 44 31 116 0 87 -10 109
-78 164 -50 40 -135 48 -193 18 -47 -24 -89 -67 -103 -105 -28 -74 -2 -181 55
-226 l26 -21 -91 -237 c-154 -405 -130 -358 -182 -361 l-44 -2 -97 232 c-54
128 -172 411 -264 628 -91 217 -168 401 -171 408 -4 9 154 12 769 12 l774 0
52 -26z m-7853 -444 c467 -413 514 -457 509 -480 -25 -106 -8 -188 48 -235
l31 -26 -118 -287 c-253 -616 -357 -869 -375 -912 l-19 -45 -63 3 c-46 3 -78
-2 -120 -18 l-58 -21 -32 37 c-18 20 -142 161 -275 313 l-242 276 0 816 c-1
886 -2 872 54 946 30 38 112 95 132 91 7 -2 244 -208 528 -458z m5293 -67 l63
5 108 -217 108 -216 -24 -36 c-66 -100 -27 -242 82 -293 42 -20 40 14 23 -445
-8 -208 -16 -324 -22 -326 -73 -20 -117 -44 -162 -89 l-50 -52 -180 79 c-98
43 -269 118 -379 167 -110 48 -279 123 -375 165 -314 137 -300 129 -300 167
-1 18 -10 58 -21 88 -11 30 -22 62 -25 71 -4 12 134 147 505 492 l511 475 38
-20 c29 -15 50 -18 100 -15z m-4553 -387 c65 -27 93 -112 60 -176 -28 -55
-113 -77 -174 -45 -32 16 -61 69 -61 112 0 40 35 92 73 108 41 18 60 18 102 1z
m2310 -346 c171 -88 347 -179 393 -203 76 -38 83 -44 77 -67 -3 -14 -8 -48
-11 -76 l-6 -51 -633 -292 -633 -292 -49 37 -49 36 88 227 c49 124 137 349
195 499 l106 272 44 0 c45 0 109 26 132 54 8 9 19 16 25 16 6 0 151 -72 321
-160z m-1736 -463 c276 -284 501 -518 501 -520 0 -1 -14 -29 -30 -61 -47 -92
-37 -200 24 -281 l24 -31 -23 -54 c-12 -30 -89 -212 -170 -405 -247 -587 -357
-849 -362 -862 -3 -7 -16 -13 -29 -13 -13 0 -41 -7 -63 -16 l-40 -16 -33 38
c-18 20 -234 267 -479 548 l-447 511 32 55 c27 47 31 65 31 125 -1 80 -25 139
-81 192 l-33 31 155 379 c389 949 356 873 385 873 29 0 19 33 104 -360 36
-168 86 -394 131 -598 l25 -113 -50 -45 c-58 -52 -75 -94 -69 -169 8 -101 78
-166 183 -173 122 -8 208 72 208 193 0 103 -81 195 -172 195 -20 0 -31 6 -35
18 -26 91 -227 1054 -223 1067 4 9 13 15 21 13 8 -2 240 -236 515 -521z m5081
360 l235 -74 9 -44 c18 -93 43 -65 -368 -393 l-380 -302 -36 36 c-20 20 -61
47 -91 59 l-54 23 12 296 c6 163 12 331 12 373 l1 77 55 27 c31 15 65 39 76
55 l21 27 136 -43 c76 -24 243 -76 372 -117z m519 -6 c94 -67 42 -221 -75
-221 -76 0 -124 49 -124 127 0 100 114 154 199 94z m-2953 -44 c84 -44 133
-127 134 -225 0 -185 -188 -306 -355 -228 -199 92 -190 386 13 463 47 17 166
12 208 -10z m4042 -992 c1 -550 0 -1007 -4 -1015 -3 -8 -36 66 -75 170 -39
102 -104 274 -146 384 l-75 198 30 32 c87 92 82 211 -12 294 -41 36 -86 47
-165 39 l-56 -6 -257 350 -258 349 25 46 c14 26 25 55 25 65 0 24 -4 24 325
49 154 12 354 27 445 35 91 7 172 12 180 11 13 -1 15 -121 18 -1001z m-1253
761 c44 -20 103 -25 150 -13 30 7 31 6 289 -344 l259 -351 -24 -46 c-32 -62
-32 -131 -1 -194 l24 -48 -94 -128 c-51 -71 -257 -351 -458 -624 l-364 -496
-38 19 c-21 11 -61 25 -89 32 -50 13 -51 14 -80 83 -41 95 -479 1142 -492
1176 -10 24 -8 29 14 47 14 10 38 43 54 73 27 47 30 62 30 138 -1 74 2 87 20
102 167 136 751 597 755 595 3 -2 23 -11 45 -21z m-3136 -239 c54 -50 120 -86
159 -87 l22 0 0 -725 0 -725 -22 -4 c-13 -2 -53 -9 -90 -15 -80 -13 -183 -54
-258 -102 l-55 -36 -290 280 c-159 153 -406 389 -547 524 -202 193 -255 249
-249 262 18 33 22 106 9 151 l-14 45 451 208 c247 115 526 244 619 287 l169
79 22 -47 c12 -26 45 -69 74 -95z m1173 -127 l603 -265 1 -60 c0 -58 14 -101
51 -158 l18 -28 -120 -117 c-66 -64 -322 -314 -568 -555 l-448 -439 -37 34
c-86 78 -240 149 -353 164 l-49 7 2 725 3 725 47 12 c86 22 183 104 215 182
10 24 21 42 25 40 4 -1 279 -121 610 -267z m-5337 -135 c82 -93 190 -218 241
-276 l93 -106 -30 -58 c-68 -135 -16 -286 124 -362 45 -25 169 -24 217 0 l35
18 45 -48 c25 -27 242 -275 482 -550 l437 -501 -19 -38 c-13 -24 -20 -59 -20
-94 l0 -55 -442 -235 c-243 -129 -474 -253 -515 -274 l-74 -39 -20 22 c-59 63
-159 78 -238 36 -71 -39 -96 -83 -98 -173 l-2 -75 -183 -98 c-101 -54 -186
-99 -190 -99 -5 0 -8 716 -8 1591 0 875 4 1589 8 1587 5 -1 75 -79 157 -173z
m1652 -269 c54 -58 43 -143 -23 -187 -57 -37 -131 -20 -171 40 -85 126 92 259
194 147z m4468 -172 c24 -10 62 -14 108 -13 l71 2 87 -209 c48 -115 162 -389
254 -609 92 -220 169 -406 172 -412 3 -7 -1 -13 -8 -13 -32 0 -122 -52 -163
-94 -24 -25 -54 -71 -67 -101 l-23 -55 -727 0 -727 0 -21 93 c-24 102 -53 171
-106 251 l-35 53 213 210 c199 197 930 912 933 913 1 0 18 -7 39 -16z m-2758
-573 l492 -472 -54 -70 c-30 -39 -68 -98 -85 -132 -29 -59 -70 -200 -70 -239
0 -17 -30 -18 -820 -18 l-819 0 -15 29 c-8 15 -31 42 -51 59 l-35 32 64 152
c35 84 113 270 173 413 60 143 154 366 208 495 54 129 99 237 101 238 1 2 19
-2 40 -8 85 -28 211 -1 265 56 l23 24 45 -43 c25 -24 267 -256 538 -516z
m4818 464 c13 -3 13 -4 220 -552 l155 -413 0 -668 c0 -368 -2 -671 -5 -674 -3
-3 -63 26 -134 65 l-128 70 5 49 c16 171 -173 279 -315 179 l-45 -32 -358 197
-358 196 5 77 c6 91 -5 137 -51 214 l-35 58 457 624 457 623 60 -5 c33 -2 65
-6 70 -8z m-3607 -848 c99 -35 172 -80 246 -153 209 -208 250 -527 99 -783
-169 -287 -539 -392 -841 -241 -148 75 -265 211 -319 374 -23 69 -27 98 -27
196 0 98 4 127 27 197 69 207 238 366 449 423 105 29 265 23 366 -13z m-925
-695 c13 -121 68 -253 151 -363 l35 -45 -560 -549 -561 -548 -46 24 c-37 18
-64 23 -126 24 l-78 1 -50 119 c-27 66 -67 161 -87 210 -21 50 -125 298 -230
552 l-192 461 45 45 c26 27 50 62 57 86 l12 41 812 0 812 0 6 -58z m2906 0 c6
-32 24 -79 39 -103 39 -61 116 -126 172 -146 l47 -17 -18 -45 c-10 -25 -61
-152 -114 -281 -96 -234 -220 -537 -312 -765 l-49 -120 -55 -6 c-30 -4 -62
-10 -72 -14 -14 -6 -43 17 -135 106 -64 63 -336 328 -604 588 l-487 474 40 72
c37 69 89 237 89 291 l0 24 724 0 723 0 12 -58z m-4890 -66 l22 -23 -272 -547
-272 -546 -44 0 c-24 0 -59 -6 -78 -14 l-34 -15 -188 203 c-255 274 -230 240
-210 282 9 19 17 58 17 87 l0 52 403 215 c221 118 449 240 507 272 58 31 110
57 116 58 6 0 20 -11 33 -24z m5881 -232 l356 -196 0 -61 c-1 -47 4 -71 21
-100 l22 -37 -201 -328 c-110 -180 -239 -389 -286 -465 l-84 -139 -52 7 c-28
4 -52 8 -53 9 -1 1 -59 294 -128 651 -69 358 -127 661 -130 675 -5 23 2 31 54
64 32 21 72 56 88 77 15 21 30 39 32 39 2 0 165 -88 361 -196z m-5734 168 c7
-4 48 -95 92 -202 45 -107 97 -233 117 -280 141 -335 365 -880 365 -887 0 -5
-14 -22 -31 -39 -46 -43 -71 -100 -78 -177 l-6 -70 -165 -58 c-91 -32 -329
-115 -530 -184 -201 -69 -439 -153 -530 -185 l-165 -58 -25 31 c-13 18 -41 49
-62 69 -21 21 -38 42 -38 48 0 5 61 132 135 281 l136 271 38 -7 c112 -19 230
82 231 198 0 48 -23 104 -59 142 l-28 30 268 543 c259 523 269 542 296 542 15
0 33 -4 39 -8z m5200 -522 c41 -206 85 -433 98 -505 14 -71 40 -207 59 -302
l34 -172 -35 -33 c-18 -18 -40 -46 -49 -62 -14 -28 -15 -28 -81 -22 -125 13
-507 57 -527 61 -15 3 -24 18 -33 50 -6 25 -28 62 -47 84 l-36 40 57 138 c31
76 76 185 99 243 24 58 95 231 157 385 63 154 133 324 154 378 32 79 43 97 58
95 17 -3 28 -46 92 -378z m-1733 -107 c205 -197 475 -459 601 -584 221 -218
228 -226 216 -249 -7 -14 -18 -47 -24 -74 l-11 -49 -645 -304 c-355 -167 -663
-312 -685 -321 l-40 -18 -37 47 c-41 52 -104 94 -171 114 l-42 12 -3 775 -2
775 45 6 c123 17 296 101 377 184 23 24 44 43 46 43 2 0 171 -161 375 -357z
m2870 313 c61 -25 93 -107 63 -164 -26 -50 -62 -72 -118 -72 -43 0 -54 4 -84
34 -29 29 -34 41 -34 83 0 55 17 85 64 114 37 22 65 24 109 5z m-4196 -60 c27
-18 71 -45 99 -59 58 -29 192 -67 238 -67 17 0 37 -4 44 -8 10 -7 12 -169 10
-777 l-3 -768 -46 -13 c-62 -18 -136 -69 -174 -120 l-31 -40 -125 52 c-68 28
-216 91 -329 139 -113 48 -304 129 -425 180 -121 51 -260 110 -309 131 l-89
39 2 77 c2 60 -2 88 -18 124 -12 26 -21 48 -21 50 0 7 1115 1094 1122 1094 5
0 29 -15 55 -34z m-3494 -20 c46 -19 68 -48 74 -97 18 -133 -162 -194 -231
-79 -35 60 -6 148 57 175 41 18 60 18 100 1z m7950 -247 l147 -81 -2 -1631
c-2 -904 -7 -1640 -12 -1650 -5 -10 -12 -17 -17 -15 -4 2 -180 255 -390 563
-210 308 -417 611 -460 673 l-77 113 19 42 c50 111 -8 246 -119 277 -20 5 -42
10 -49 10 -6 0 -14 8 -17 18 -9 31 -87 444 -84 445 98 47 139 97 146 179 4 54
-7 93 -44 149 -16 25 -15 27 263 480 272 441 280 454 309 451 104 -9 134 -5
182 26 26 17 50 31 53 31 3 1 72 -35 152 -80z m-8117 -24 c70 -47 109 -51 209
-20 17 5 50 -25 185 -172 91 -98 184 -199 208 -225 41 -44 43 -48 28 -70 -38
-58 -28 -160 21 -219 l27 -31 -142 -283 -141 -284 -38 11 c-60 17 -164 5 -227
-26 -70 -34 -139 -111 -161 -178 l-17 -50 -97 7 c-53 3 -143 12 -201 18 l-105
12 -3 655 -2 656 207 111 c115 61 209 112 210 112 1 1 19 -10 39 -24z m6071
-808 c19 -18 27 -39 30 -74 5 -45 2 -53 -26 -85 -35 -40 -73 -51 -124 -37 -95
26 -113 158 -29 212 40 26 116 18 149 -16z m283 -167 c58 -6 177 -20 264 -31
88 -10 166 -19 173 -19 7 0 17 -17 23 -37 5 -21 18 -50 28 -66 22 -33 80 -77
101 -77 36 -1 44 -22 87 -246 l44 -228 -45 -39 c-72 -61 -96 -128 -75 -206 14
-52 70 -116 116 -133 l34 -12 0 -116 c0 -173 -30 -1313 -35 -1328 -3 -8 -26
-12 -69 -12 l-65 0 -413 263 c-337 215 -412 267 -410 283 10 57 5 132 -12 163
-24 46 -73 89 -109 97 l-30 6 6 172 c4 94 14 421 22 726 8 305 18 592 21 637
5 78 7 82 32 88 48 12 92 46 118 91 24 41 29 44 58 39 17 -3 78 -10 136 -15z
m-520 -53 c16 -19 48 -42 71 -52 l42 -19 -6 -141 c-4 -77 -14 -381 -22 -675
-9 -294 -19 -593 -23 -664 l-7 -130 -28 -7 c-16 -4 -43 -19 -62 -33 -19 -14
-36 -26 -39 -26 -5 0 -1356 857 -1364 865 -2 2 6 30 18 61 16 44 21 76 19 133
l-2 76 174 82 c96 45 251 118 344 162 254 119 711 334 785 370 36 17 66 31 68
31 1 0 16 -15 32 -33z m-3770 -88 l61 -62 -20 -56 c-10 -31 -60 -166 -111
-301 -95 -254 -152 -408 -311 -837 l-93 -253 -41 0 c-47 0 -111 -28 -142 -61
-25 -28 -53 -89 -53 -118 0 -22 12 -19 -250 -66 -113 -20 -248 -44 -300 -54
l-95 -18 -27 48 c-29 50 -96 99 -136 99 -11 0 -24 5 -27 10 -5 8 -126 690
-148 829 -1 8 20 25 48 40 119 61 187 173 187 307 l-1 71 237 82 c130 45 345
120 477 166 132 45 337 117 455 158 118 42 218 76 222 76 3 1 34 -27 68 -60z
m970 -214 c294 -125 579 -246 634 -269 l98 -41 -6 -50 c-14 -122 63 -273 170
-333 15 -9 16 -15 7 -44 -9 -29 -232 -624 -262 -701 -9 -24 -15 -28 -39 -23
-35 8 -118 -17 -147 -44 -13 -12 -28 -21 -33 -19 -6 2 -150 92 -321 199 l-312
195 6 46 c13 92 -31 174 -110 210 -22 10 -52 19 -68 19 -19 0 -30 7 -37 23
-14 34 -250 945 -250 967 0 10 8 21 18 24 9 3 33 21 52 40 19 19 42 33 50 31
8 -1 256 -105 550 -230z m-743 120 c2 -1 61 -223 131 -493 l128 -492 -38 -30
c-48 -39 -68 -78 -75 -144 l-5 -53 -356 -147 -355 -147 -34 34 -34 33 126 340
c69 186 164 440 210 564 46 124 107 288 135 365 29 77 56 150 61 162 8 21 13
22 56 16 26 -3 49 -7 50 -8z m1894 -279 c123 -44 196 -190 155 -313 -85 -256
-456 -223 -491 43 -16 117 62 241 171 274 43 13 124 11 165 -4z m-4436 -111
c88 -8 168 -15 178 -15 10 0 17 -8 17 -19 0 -10 9 -49 21 -87 17 -56 31 -77
78 -124 62 -62 141 -100 211 -100 21 0 41 -3 44 -8 8 -14 150 -842 144 -846
-73 -46 -88 -60 -107 -98 -45 -94 -16 -206 67 -259 25 -16 59 -29 74 -29 37 0
43 -14 71 -188 18 -108 21 -145 12 -148 -6 -3 -194 -4 -416 -2 -392 3 -405 4
-444 25 -47 25 -105 84 -131 133 -18 33 -19 79 -22 908 l-2 872 22 0 c13 0 95
-7 183 -15z m5267 -786 c365 -231 674 -428 686 -437 20 -15 24 -26 25 -84 2
-56 7 -73 32 -109 59 -83 173 -110 262 -60 l41 24 39 -24 c184 -113 679 -432
681 -440 2 -6 -337 -8 -889 -7 l-892 3 -172 365 c-95 201 -254 538 -354 749
-99 211 -181 388 -181 393 0 11 40 47 52 48 4 0 305 -189 670 -421z m-749 264
c19 -43 78 -168 130 -278 52 -110 131 -276 175 -370 44 -93 141 -300 216 -458
75 -158 136 -290 136 -292 0 -3 -542 -5 -1205 -5 -1198 0 -1205 0 -1205 20 0
11 7 59 15 107 8 49 39 243 70 433 31 190 58 355 60 366 3 14 15 24 32 29 16
3 42 18 60 31 l32 25 321 -202 321 -202 -6 -37 c-4 -21 -1 -57 5 -81 50 -186
301 -203 375 -27 29 70 9 165 -44 212 -11 11 -21 25 -21 32 0 10 218 601 271
734 9 25 13 26 72 22 34 -2 78 1 97 6 19 6 40 11 46 11 6 1 27 -34 47 -76z
m3180 -208 c90 -132 295 -433 457 -669 l293 -430 -38 -33 c-70 -61 -91 -63
-577 -63 l-438 0 0 93 c0 106 29 1300 33 1336 1 17 12 27 37 36 43 15 22 39
233 -270z m-4953 -190 c18 -19 49 -40 67 -46 30 -10 33 -14 29 -37 -3 -15 -31
-182 -62 -372 -30 -190 -63 -390 -72 -445 l-17 -100 -897 -3 -898 -2 -5 22
c-2 13 -16 90 -31 173 l-27 149 24 15 c43 28 77 71 92 114 13 41 15 42 78 54
102 19 574 103 581 103 4 0 15 -14 23 -30 22 -43 89 -88 142 -96 97 -14 191
46 219 142 8 30 13 63 9 73 -3 11 0 23 7 28 13 8 688 291 699 292 3 1 20 -15
39 -34z m-1899 -382 c22 -21 31 -42 35 -80 6 -48 5 -53 -29 -89 -33 -36 -39
-39 -91 -39 -49 0 -59 4 -87 32 -25 24 -33 42 -36 80 -5 43 -2 53 23 82 35 42
58 52 113 47 31 -3 51 -12 72 -33z"/>
</g>
</svg>
