<?xml version="1.0" standalone="no"?>
<!DOCTYPE svg PUBLIC "-//W3C//DTD SVG 20010904//EN"
 "http://www.w3.org/TR/2001/REC-SVG-20010904/DTD/svg10.dtd">
<svg version="1.0" xmlns="http://www.w3.org/2000/svg"
 width="892.000000pt" height="892.000000pt" viewBox="0 0 892.000000 892.000000"
 preserveAspectRatio="xMidYMid meet">
<metadata>
Created by potrace 1.11, written by Peter Selinger 2001-2013
</metadata>
<g transform="translate(0.000000,892.000000) scale(0.100000,-0.100000)"
fill="#000000" stroke="none">
<path d="M268 8810 c-102 -39 -171 -102 -217 -199 l-26 -56 0 -4095 0 -4095
33 -67 c40 -81 110 -148 190 -180 l57 -23 4155 0 4155 0 56 23 c108 43 189
138 215 251 20 83 20 8099 0 8182 -32 138 -135 238 -274 268 -39 8 -1153 11
-4175 10 -3927 -1 -4124 -2 -4169 -19z m1930 -427 c-216 -185 -434 -371 -483
-413 l-91 -78 -60 16 c-61 16 -84 13 -164 -22 -10 -4 -161 124 -488 414 l-474
420 1077 0 1077 0 -394 -337z m1352 324 c0 -11 -74 -360 -137 -647 l-19 -85
-44 -7 c-168 -29 -235 -231 -119 -363 l29 -32 -131 -334 c-71 -184 -149 -382
-171 -440 l-42 -107 -91 -4 c-75 -3 -102 -9 -149 -32 l-58 -29 -33 34 c-217
227 -666 692 -763 790 l-123 126 15 54 c9 30 15 75 14 100 l-3 46 535 457
c294 252 539 464 545 472 14 20 745 21 745 1z m3495 -142 c35 -82 128 -305
208 -495 80 -190 172 -410 206 -490 l61 -144 -27 -28 c-15 -15 -32 -28 -37
-28 -6 0 -170 50 -363 112 l-353 112 0 35 c-1 78 -67 165 -145 191 -21 7 -61
10 -90 8 l-52 -4 -102 203 -101 204 24 42 c48 81 44 166 -13 244 -35 48 -88
75 -158 81 -43 4 -63 -1 -107 -22 -95 -46 -139 -143 -112 -247 8 -30 14 -55
13 -55 -1 -1 -204 -188 -450 -417 l-448 -415 -65 44 c-76 51 -174 84 -250 84
-30 0 -54 3 -54 8 0 4 -20 142 -45 307 -30 205 -41 301 -33 304 24 8 87 73
102 105 18 37 21 131 7 169 -28 72 -120 136 -197 137 -127 0 -218 -89 -219
-215 0 -101 57 -176 158 -207 20 -6 37 -12 37 -13 0 0 20 -138 45 -306 25
-167 45 -304 45 -305 0 0 -17 -6 -38 -12 -58 -18 -152 -83 -199 -137 l-41 -48
-273 141 c-425 219 -379 188 -379 247 -1 63 -27 121 -72 161 l-34 30 13 60 c7
32 44 205 83 383 38 178 70 325 70 327 0 2 748 3 1662 2 l1661 -3 62 -150z
m1600 136 c52 -23 103 -74 126 -126 17 -37 19 -79 19 -602 0 -484 -2 -563 -14
-563 -8 0 -219 -16 -468 -35 -426 -34 -454 -35 -463 -19 -5 10 -24 33 -41 52
l-30 35 103 270 c57 148 107 276 112 285 5 8 27 16 50 18 130 12 221 138 191
262 -38 161 -235 220 -358 108 -85 -76 -86 -235 -3 -310 12 -11 21 -24 21 -30
0 -6 -48 -136 -106 -288 l-107 -278 -32 0 c-18 0 -35 6 -38 13 -7 18 -418 994
-470 1120 l-46 107 757 0 c712 0 759 -2 797 -19z m-7965 -332 c656 -582 641
-568 631 -587 -15 -30 -21 -86 -12 -125 8 -32 31 -73 75 -132 6 -8 -51 -157
-161 -426 -93 -228 -205 -500 -248 -604 l-77 -190 -77 -1 c-53 0 -86 -5 -110
-18 -41 -22 -6 -56 -325 309 l-245 280 -1 831 0 832 28 52 c18 36 43 64 76 87
26 18 51 33 55 33 3 0 179 -154 391 -341z m5336 -175 c25 -11 56 -15 92 -12
l54 5 102 -206 103 -206 -25 -38 c-30 -45 -40 -127 -23 -179 15 -47 73 -112
112 -128 l32 -13 -8 -251 c-4 -138 -10 -280 -14 -315 l-6 -64 -55 -14 c-48
-12 -73 -24 -165 -82 -23 -15 -40 -8 -775 317 -80 35 -177 77 -216 94 l-71 29
-12 57 c-7 31 -26 86 -43 121 l-30 63 28 29 c73 71 870 808 875 809 4 0 24 -7
45 -16z m-2264 -685 c106 -56 250 -130 321 -165 70 -35 127 -67 127 -72 0 -4
-8 -38 -18 -76 l-18 -69 -546 -252 c-534 -246 -547 -252 -572 -236 -14 9 -26
21 -26 27 0 6 76 204 168 440 l168 429 52 7 c57 9 101 27 121 52 8 9 17 16 21
16 5 0 95 -46 202 -101z m-1772 -369 c194 -201 400 -413 457 -471 l105 -107
-38 -78 c-37 -74 -39 -83 -39 -173 0 -84 4 -104 28 -156 l28 -59 -24 -56 c-14
-30 -40 -93 -60 -140 -295 -703 -420 -997 -427 -1004 -5 -5 -24 -15 -42 -21
-18 -7 -40 -15 -49 -19 -13 -6 -110 100 -429 466 -227 260 -424 485 -437 499
l-23 26 26 47 c40 72 45 166 12 238 -14 30 -39 70 -57 90 l-32 37 127 308
c252 615 315 769 341 833 31 77 43 94 55 82 5 -5 20 -60 33 -123 13 -63 52
-240 85 -394 34 -154 73 -337 88 -406 l26 -126 -37 -33 c-124 -109 -95 -302
55 -364 57 -24 116 -20 179 12 110 56 149 188 86 295 -31 53 -70 82 -134 99
-24 7 -45 19 -47 28 -12 39 -226 1020 -226 1034 0 4 4 6 9 4 5 -1 168 -167
361 -368z m5095 250 c191 -60 348 -110 350 -110 1 0 5 -18 9 -39 3 -22 9 -46
12 -55 4 -11 -83 -85 -318 -272 -177 -141 -328 -261 -334 -266 -7 -5 -28 8
-55 33 -49 45 -93 70 -157 90 -42 12 -43 13 -38 48 3 20 8 137 11 261 3 124 8
249 12 278 5 50 7 53 47 71 22 10 52 30 65 45 14 14 30 26 36 26 7 0 168 -49
360 -110z m1715 -1042 l-1 -963 -29 75 c-96 249 -220 582 -220 594 0 7 10 21
21 32 56 49 75 164 40 239 -40 86 -116 129 -220 123 l-65 -3 -174 235 c-96
129 -208 281 -249 338 l-75 103 20 42 c12 23 23 49 26 59 4 13 24 17 103 23
54 4 249 20 433 35 184 15 347 28 363 29 l27 1 0 -962z m-1125 704 l71 5 251
-340 251 -340 -21 -41 c-30 -56 -30 -146 0 -202 l21 -41 -399 -544 c-220 -299
-406 -550 -413 -557 -11 -12 -19 -11 -47 4 -19 10 -61 27 -93 39 l-60 20 -174
415 c-95 228 -181 435 -192 460 -10 25 -34 84 -54 132 l-36 87 25 36 c61 91
83 231 51 322 l-14 40 341 271 341 271 40 -21 c32 -17 53 -20 111 -16z m-3228
-398 l62 -29 0 -605 1 -605 -88 -24 c-48 -13 -115 -38 -148 -54 l-62 -30 -39
34 c-22 19 -241 228 -487 464 l-447 430 3 59 3 59 504 232 504 232 66 -67 c43
-44 87 -77 128 -96z m783 107 c74 -32 214 -93 310 -136 96 -42 231 -102 300
-132 269 -118 260 -114 260 -142 0 -14 8 -48 17 -75 l18 -49 -295 -289 c-664
-650 -699 -682 -718 -666 -34 30 -148 86 -219 109 l-73 23 1 610 0 611 62 29
c42 20 83 52 127 97 36 36 67 67 70 68 3 0 66 -25 140 -58z m-4651 -544 c11
-14 10 -23 -10 -64 -71 -146 -7 -320 140 -386 56 -25 159 -27 214 -4 l38 16
33 -37 c19 -20 216 -246 439 -501 l405 -464 -23 -36 c-36 -56 -47 -106 -43
-187 l3 -75 -430 -229 c-236 -126 -442 -234 -456 -240 -23 -10 -31 -8 -73 21
-61 43 -151 52 -212 21 -84 -43 -128 -112 -127 -204 1 -66 18 -52 -209 -172
l-128 -68 0 1557 0 1556 213 -243 c116 -134 218 -251 226 -261z m7869 -203 c2
-1 14 -31 27 -66 13 -35 91 -242 174 -462 l151 -398 0 -664 c0 -365 -3 -664
-7 -664 -3 0 -53 25 -110 57 l-103 56 0 56 c0 69 -25 126 -73 168 -73 64 -183
71 -261 16 l-43 -31 -291 159 -290 160 14 52 c35 133 0 293 -90 410 l-37 48
34 47 c33 46 585 798 718 979 l68 92 58 -6 c32 -3 60 -7 61 -9z m-1968 -4 c13
0 35 -42 85 -162 37 -90 78 -188 91 -218 86 -203 264 -633 262 -635 -78 -46
-185 -160 -203 -215 -6 -20 -19 -20 -629 -20 l-623 0 -12 53 c-6 28 -29 88
-51 132 l-39 80 132 132 c73 72 301 297 507 498 l375 366 44 -5 c24 -3 51 -6
61 -6z m-3018 -426 c222 -213 427 -410 457 -440 l55 -53 -26 -38 c-42 -63 -80
-143 -104 -218 l-22 -70 -733 -3 c-657 -2 -734 -1 -750 14 -17 15 -16 19 13
87 16 40 52 124 78 187 27 63 80 189 118 280 65 154 132 313 213 506 l34 81
75 6 c41 3 98 14 125 25 28 12 53 21 57 21 4 1 188 -173 410 -385z m1293 -488
c136 -32 246 -106 319 -214 239 -352 -5 -822 -427 -822 -157 0 -260 43 -373
155 -107 107 -154 218 -154 371 0 173 86 337 226 429 128 85 271 113 409 81z
m-926 -713 c19 -83 46 -151 86 -217 19 -32 35 -62 35 -66 0 -5 -221 -225 -491
-489 -430 -420 -493 -479 -512 -472 -12 5 -47 11 -78 15 -53 7 -55 8 -71 49
-9 23 -35 87 -58 142 -24 55 -53 125 -65 155 -12 30 -69 165 -125 300 -57 135
-113 270 -125 300 -12 30 -41 100 -64 154 -40 98 -41 100 -22 120 10 12 24 31
30 44 l12 22 717 0 717 0 14 -57z m2857 40 c30 -98 114 -211 206 -278 l27 -20
-70 -170 c-65 -158 -161 -393 -264 -645 -73 -178 -74 -180 -94 -180 -18 0
-244 214 -866 822 l-240 235 27 59 c15 32 35 89 44 127 l16 67 605 0 c566 0
604 -1 609 -17z m-5030 -601 l-245 -489 -53 -6 c-29 -4 -63 -8 -75 -9 -17 -2
-64 42 -216 207 l-195 210 16 30 c8 17 16 53 16 82 l1 52 459 245 458 244 40
-38 39 -38 -245 -490z m6222 321 l274 -151 2 -58 c1 -33 10 -75 20 -96 l18
-37 -78 -129 c-44 -71 -169 -275 -279 -455 l-200 -326 -40 6 c-22 3 -41 6 -42
7 0 1 -51 260 -112 576 -61 316 -113 585 -116 596 -4 18 5 26 53 50 37 18 81
53 127 100 39 40 77 71 85 70 8 -2 138 -71 288 -153z m-5818 15 c55 -129 73
-172 295 -708 140 -336 175 -428 166 -440 -6 -8 -26 -44 -44 -80 -27 -55 -32
-78 -35 -152 l-4 -87 -41 -14 c-474 -167 -1234 -427 -1242 -425 -5 2 -32 27
-60 56 l-49 53 136 273 136 272 37 -4 c84 -10 181 45 216 122 35 78 19 179
-39 239 l-26 28 244 489 c135 270 249 489 255 487 5 -2 30 -51 55 -109z m5281
-704 l112 -581 -35 -36 c-20 -20 -39 -45 -43 -57 -8 -24 10 -25 -270 8 l-230
28 -6 39 c-9 51 -25 91 -49 125 l-20 27 86 209 c47 115 126 308 175 429 50
121 106 260 126 308 19 48 37 87 38 85 2 -2 54 -265 116 -584z m-1714 49 c241
-232 478 -462 527 -511 103 -105 106 -119 23 -156 -29 -13 -133 -62 -232 -109
-99 -47 -344 -162 -543 -256 l-364 -171 -51 45 c-29 25 -76 57 -105 71 l-52
25 2 661 3 661 71 22 c72 22 170 72 234 119 19 15 37 25 41 24 4 -2 205 -193
446 -425z m-1262 288 c33 -11 79 -25 103 -31 l42 -11 0 -652 0 -653 -58 -27
c-32 -16 -81 -48 -109 -73 -28 -24 -56 -44 -61 -44 -5 0 -34 11 -63 24 -30 13
-160 69 -289 124 -129 54 -344 145 -476 202 l-242 102 -5 62 c-3 33 -7 69 -9
79 -2 13 140 158 491 501 l494 482 61 -33 c34 -18 88 -41 121 -52z m4308 -86
l127 -69 0 -1628 c0 -895 -3 -1628 -7 -1628 -5 1 -168 236 -363 523 -195 287
-397 583 -449 659 -90 132 -94 139 -81 166 53 112 13 234 -93 287 -28 14 -59
25 -68 25 -22 0 -19 -9 -66 234 -36 193 -37 199 -19 210 41 24 100 83 113 113
26 64 10 176 -32 223 -12 13 18 67 241 430 140 228 265 432 277 453 15 27 25
36 37 31 55 -26 179 -7 211 32 17 21 29 17 172 -61z m-8097 -30 c56 -38 93
-42 204 -21 22 5 49 -21 218 -204 l193 -210 -16 -45 c-8 -25 -15 -62 -15 -83
0 -37 39 -134 59 -146 6 -4 -42 -111 -126 -279 l-135 -273 -97 1 c-83 0 -103
-3 -151 -26 -71 -34 -130 -92 -165 -163 -15 -31 -32 -56 -39 -56 -6 0 -91 7
-189 17 l-177 16 2 646 3 646 190 102 c105 56 193 102 197 102 4 1 24 -10 44
-24z m6529 -990 c121 -14 225 -25 231 -25 6 0 21 -25 33 -55 25 -60 74 -108
128 -126 18 -5 34 -18 37 -27 3 -9 21 -102 41 -207 20 -104 38 -197 40 -205 2
-9 -12 -26 -35 -42 -56 -39 -84 -98 -84 -174 1 -83 36 -144 104 -182 l50 -27
0 -65 c0 -36 -4 -229 -9 -430 -6 -201 -13 -490 -17 -642 l-6 -278 -62 0 -62 0
-401 255 -401 255 5 60 c9 98 -35 180 -121 224 l-30 15 3 108 c3 196 30 1075
37 1226 6 126 9 147 23 147 28 0 116 46 155 81 21 18 51 57 68 86 16 29 35 53
41 53 7 0 111 -11 232 -25z m-4611 -112 c7 -23 60 -79 110 -118 l38 -31 -100
-269 c-56 -149 -158 -423 -227 -610 -69 -187 -136 -366 -148 -397 -22 -57 -23
-58 -61 -58 -85 0 -177 -75 -192 -157 -4 -22 -14 -37 -28 -42 -11 -5 -102 -23
-201 -40 -99 -18 -227 -41 -285 -52 -101 -19 -105 -19 -115 -2 -26 46 -102
111 -143 122 -23 7 -42 13 -42 15 0 2 -31 186 -70 409 -38 222 -70 409 -70
414 0 5 16 17 36 27 58 27 101 64 133 115 35 54 64 156 59 208 -4 44 -46 26
482 208 201 70 460 160 575 200 116 41 218 74 227 74 9 1 19 -7 22 -16z m3901
-42 c33 -17 67 -32 76 -35 15 -4 16 -18 13 -108 -2 -57 -11 -326 -19 -598 -8
-272 -18 -559 -21 -638 l-6 -143 -36 -15 c-20 -8 -44 -22 -54 -31 -10 -9 -25
-13 -34 -9 -9 4 -288 178 -618 388 -331 210 -602 382 -604 383 -1 1 9 26 23
56 13 30 30 95 37 144 l13 88 200 94 c110 52 295 139 410 193 116 54 287 135
380 179 94 44 172 81 175 81 3 0 32 -13 65 -29z m-3131 -142 c307 -131 641
-272 777 -329 l126 -53 11 -85 c20 -150 97 -277 216 -356 l54 -35 -95 -253
c-53 -139 -102 -274 -111 -299 -15 -47 -15 -47 -66 -51 -48 -4 -83 -16 -132
-48 -23 -14 -39 -5 -516 297 l-117 74 5 42 c15 104 -58 209 -165 237 l-54 15
-57 220 c-32 121 -83 315 -113 432 l-55 212 47 29 c25 17 48 31 50 31 3 1 90
-35 195 -80z m-393 -18 c4 -3 56 -197 117 -431 l110 -425 -39 -36 c-45 -41
-69 -93 -69 -147 l0 -39 -345 -143 -346 -143 -24 23 c-14 13 -25 28 -25 34 0
9 33 101 275 751 53 143 119 319 145 390 27 72 53 142 59 157 10 27 12 28 73
22 35 -4 66 -9 69 -13z m-2516 -292 c86 -7 153 -16 157 -23 4 -6 8 -22 8 -36
0 -41 46 -126 92 -172 51 -52 119 -85 191 -96 l52 -7 13 -70 c7 -39 39 -225
72 -415 50 -290 57 -346 45 -352 -73 -42 -115 -112 -115 -194 0 -105 70 -196
162 -210 28 -5 39 -12 43 -28 10 -45 45 -251 45 -263 0 -10 -80 -13 -397 -13
-443 0 -442 0 -512 71 -75 74 -71 14 -71 973 l0 858 33 -5 c17 -3 100 -11 182
-18z m5299 -831 l618 -393 1 -61 c5 -163 171 -261 315 -186 l40 21 333 -212
334 -212 -855 -3 c-469 -1 -858 2 -862 6 -5 5 -74 148 -155 318 -80 170 -190
403 -245 519 -54 116 -131 279 -170 362 l-71 153 44 39 c24 22 47 40 50 41 3
0 284 -177 623 -392z m2618 -294 c251 -368 457 -673 458 -679 0 -12 -54 -50
-93 -64 -18 -7 -185 -11 -474 -11 l-446 0 6 142 c4 79 11 384 17 678 6 294 13
549 16 567 4 29 23 44 49 39 5 -2 215 -304 467 -672z m-3389 478 c33 -73 109
-233 438 -930 77 -162 139 -296 139 -298 0 -2 -531 -4 -1180 -4 -649 0 -1180
3 -1180 8 0 4 32 197 70 430 39 232 70 432 70 442 0 13 13 26 38 38 20 10 46
24 58 32 19 12 46 -3 327 -180 l307 -192 0 -60 c0 -128 89 -218 214 -218 65 1
124 27 163 75 65 78 67 177 7 266 l-35 52 112 301 c62 166 113 302 113 302 1
1 29 -3 64 -9 50 -9 77 -8 135 5 39 8 79 16 88 17 11 1 28 -24 52 -77z m-1820
-274 c24 -18 52 -38 62 -43 16 -10 12 -40 -57 -460 l-74 -450 -879 -3 c-650
-1 -881 1 -886 9 -4 7 -17 76 -30 155 l-23 144 41 34 c23 20 49 57 62 86 12
27 25 50 30 50 4 0 145 25 312 55 204 36 305 50 308 43 12 -35 77 -89 125
-104 143 -45 285 60 286 211 1 30 1 30 333 167 182 75 335 137 339 138 4 0 27
-15 51 -32z"/>
</g>
</svg>
