<?xml version="1.0" standalone="no"?>
<!DOCTYPE svg PUBLIC "-//W3C//DTD SVG 20010904//EN"
 "http://www.w3.org/TR/2001/REC-SVG-20010904/DTD/svg10.dtd">
<svg version="1.0" xmlns="http://www.w3.org/2000/svg"
 width="744.000000pt" height="744.000000pt" viewBox="0 0 744.000000 744.000000"
 preserveAspectRatio="xMidYMid meet">
<metadata>
Created by potrace 1.11, written by Peter Selinger 2001-2013
</metadata>
<g transform="translate(0.000000,744.000000) scale(0.100000,-0.100000)"
fill="#000000" stroke="none">
<path d="M4148 5759 c-252 -253 -458 -464 -458 -468 0 -7 202 -214 273 -279
l25 -23 311 311 311 311 181 -181 c159 -159 179 -183 167 -198 -7 -9 -295
-299 -640 -644 -346 -345 -628 -631 -628 -636 0 -4 67 -74 149 -156 l148 -148
797 795 c438 438 796 798 796 800 0 4 -971 978 -974 976 0 0 -207 -207 -458
-460z"/>
<path d="M2488 5935 c-2 -2 -17 -5 -35 -8 -27 -4 -54 -12 -121 -32 -7 -3 -16
-5 -20 -6 -4 -1 -32 -15 -62 -32 -106 -58 -182 -127 -249 -226 -171 -252 -153
-593 44 -828 29 -35 480 -483 486 -483 8 0 299 291 299 299 0 3 -106 112 -236
241 -264 262 -275 278 -276 391 -1 144 111 254 257 251 33 0 78 -8 100 -17 29
-12 193 -170 617 -592 l576 -576 153 153 152 152 -582 582 c-647 647 -660 658
-845 710 -50 15 -248 31 -258 21z"/>
<path d="M5517 4416 c-251 -253 -456 -463 -455 -467 3 -8 147 -156 242 -248
l55 -54 312 311 311 312 341 -340 c187 -187 338 -342 336 -345 -2 -2 -166
-167 -363 -365 -348 -349 -360 -360 -379 -343 -10 10 -294 293 -630 630 -337
337 -615 613 -618 613 -9 0 -299 -288 -299 -298 0 -5 354 -362 786 -795 l786
-787 670 670 670 671 -638 640 c-352 352 -646 643 -654 648 -11 5 -136 -114
-473 -453z"/>
<path d="M2761 4396 l-451 -451 152 -153 152 -152 448 447 c247 246 448 452
448 456 0 4 -67 75 -149 156 l-149 148 -451 -451z"/>
<path d="M1017 4584 c-1 -1 -29 -5 -62 -9 -32 -3 -62 -8 -66 -11 -4 -2 -24 -6
-45 -10 -22 -3 -47 -10 -56 -15 -10 -5 -18 -6 -18 -2 0 4 -5 2 -12 -5 -7 -7
-18 -12 -25 -12 -13 0 -117 -49 -173 -81 -78 -44 -216 -166 -280 -245 -56 -70
-160 -256 -160 -287 0 -7 -4 -17 -9 -23 -22 -23 -54 -220 -53 -329 1 -135 1
-137 14 -205 6 -30 12 -62 13 -70 4 -32 48 -146 80 -209 118 -233 307 -403
568 -510 88 -35 260 -66 367 -64 195 2 395 61 555 161 93 59 111 75 311 273
l171 169 -149 151 -149 150 -172 -170 c-189 -188 -216 -211 -297 -248 -30 -14
-62 -29 -71 -33 -49 -25 -208 -39 -291 -27 -73 11 -188 53 -242 89 -127 84
-240 235 -271 363 -4 17 -9 39 -12 50 -9 35 -9 206 -1 211 5 3 6 9 3 13 -8 14
23 106 62 183 51 100 161 210 264 262 206 104 432 93 623 -29 38 -24 245 -223
583 -561 288 -288 527 -524 530 -524 8 0 293 285 293 293 0 7 -989 997 -1058
1060 -23 20 -45 37 -51 37 -5 0 -11 4 -13 9 -9 25 -192 122 -294 155 -53 17
-63 20 -154 37 -46 9 -246 19 -253 13z"/>
<path d="M3146 4007 c-77 -78 -141 -148 -144 -154 -2 -7 197 -214 443 -459
l446 -447 41 39 c79 76 253 255 256 263 3 10 -886 902 -896 900 -4 -1 -70 -65
-146 -142z"/>
<path d="M4131 3028 c-248 -248 -450 -453 -448 -454 1 -2 69 -71 151 -153
l150 -150 449 450 450 449 -19 22 c-10 12 -78 81 -151 154 l-132 132 -450
-450z"/>
<path d="M2634 2883 c-313 -312 -583 -587 -602 -611 -149 -194 -183 -473 -85
-697 67 -151 181 -269 328 -340 112 -54 201 -73 325 -69 107 3 181 20 272 64
61 29 79 39 122 70 12 8 133 126 270 262 l250 247 -150 150 c-82 83 -152 151
-155 151 -3 0 -115 -109 -250 -243 -222 -222 -248 -245 -294 -257 -108 -30
-201 -10 -271 59 -66 65 -90 203 -51 292 11 24 218 239 591 611 l574 575 -146
146 c-81 81 -150 149 -153 152 -4 3 -262 -250 -575 -562z"/>
<path d="M3207 2602 c-81 -81 -147 -150 -147 -154 0 -11 1115 -1125 1170
-1169 74 -60 217 -125 297 -136 59 -8 217 -11 228 -5 5 3 20 7 33 8 32 4 136
36 142 45 3 3 16 10 30 14 66 21 207 142 260 224 16 25 33 51 38 56 19 23 62
147 75 216 33 174 -9 363 -115 518 -32 46 -509 531 -523 531 -4 0 -74 -67
-156 -149 l-148 -149 239 -240 c263 -263 278 -284 278 -388 -1 -97 -39 -170
-115 -221 -32 -21 -115 -41 -160 -38 -93 5 -102 13 -702 614 -313 314 -571
571 -573 571 -2 0 -69 -67 -151 -148z"/>
</g>
</svg>
