<?xml version="1.0" encoding="iso-8859-1"?>
<!-- Generator: Adobe Illustrator 16.0.0, SVG Export Plug-In . SVG Version: 6.00 Build 0)  -->
<!DOCTYPE svg PUBLIC "-//W3C//DTD SVG 1.1//EN" "http://www.w3.org/Graphics/SVG/1.1/DTD/svg11.dtd">
<svg version="1.1" id="Capa_1" xmlns="http://www.w3.org/2000/svg" xmlns:xlink="http://www.w3.org/1999/xlink" x="0px" y="0px"
	 width="516.375px" height="516.375px" viewBox="0 0 516.375 516.375" style="enable-background:new 0 0 516.375 516.375;"
	 xml:space="preserve">
<g>
	<g>
		<rect x="76.5" y="344.25" width="19.125" height="38.25"/>
		<rect x="76.5" y="401.625" width="19.125" height="38.25"/>
		<rect x="153" y="497.25" width="38.25" height="19.125"/>
		<path d="M95.625,478.125V459H76.5v19.125c0,21.037,17.212,38.25,38.25,38.25h19.125V497.25H114.75
			C105.188,497.25,95.625,489.6,95.625,478.125z"/>
		<path d="M95.625,38.25c0-9.562,7.65-19.125,19.125-19.125H306v95.625c0,21.038,17.213,38.25,38.25,38.25h76.5v133.875h19.125v-153
			L325.125,0H114.75C93.712,0,76.5,17.212,76.5,38.25v248.625h19.125V38.25z M325.125,28.688l89.888,105.188H344.25
			c-9.562,0-19.125-9.562-19.125-19.125V28.688z"/>
		<rect x="210.375" y="497.25" width="38.25" height="19.125"/>
		<rect x="420.75" y="401.625" width="19.125" height="38.25"/>
		<rect x="420.75" y="344.25" width="19.125" height="38.25"/>
		<polygon points="459,267.75 459,306 57.375,306 57.375,267.75 38.25,267.75 38.25,363.375 57.375,363.375 57.375,325.125 
			459,325.125 459,363.375 478.125,363.375 478.125,267.75 		"/>
		<rect x="267.75" y="497.25" width="38.25" height="19.125"/>
		<rect x="325.125" y="497.25" width="38.25" height="19.125"/>
		<path d="M420.75,478.125c0,9.562-7.65,19.125-19.125,19.125H382.5v19.125h19.125c21.037,0,38.25-17.213,38.25-38.25V459H420.75
			V478.125z"/>
	</g>
</g>
<g>
</g>
<g>
</g>
<g>
</g>
<g>
</g>
<g>
</g>
<g>
</g>
<g>
</g>
<g>
</g>
<g>
</g>
<g>
</g>
<g>
</g>
<g>
</g>
<g>
</g>
<g>
</g>
<g>
</g>
</svg>
