<?xml version="1.0" encoding="UTF-8"?>
<svg width="47px" height="36px" viewBox="0 0 47 36" version="1.1" xmlns="http://www.w3.org/2000/svg" xmlns:xlink="http://www.w3.org/1999/xlink">
    <!-- Generator: Sketch 50.2 (55047) - http://www.bohemiancoding.com/sketch -->
    <title>WORKSEARCH_Corporation_petit</title>
    <desc>Created with Sketch.</desc>
    <defs></defs>
    <g id="WORKSEARCH_Corporation_petit" stroke="none" stroke-width="1" fill="none" fill-rule="evenodd">
        <g id="Group" transform="translate(7.000000, 3.000000)" fill="#000000" fill-rule="nonzero" stroke="#FFFFFF" stroke-width="0.2">
            <path d="M16.0002672,6 C17.6540208,6 19,4.65414069 19,3.00053428 C19,1.34585931 17.6534865,0 16.0002672,0 C14.3459792,0 13,1.34639359 13,3.00053428 C13,4.65414069 14.3465135,6 16.0002672,6 Z M16.0002672,1.3586821 C16.9043548,1.3586821 17.6406626,2.09492431 17.6406626,3 C17.6406626,3.90454141 16.9043548,4.64024933 16.0002672,4.64024933 C15.0956452,4.64024933 14.3593374,3.90454141 14.3593374,3 C14.3593374,2.09492431 15.0956452,1.3586821 16.0002672,1.3586821 Z" id="Shape"></path>
            <path d="M20.3381538,6 L11.6623868,6 C10.7460468,6 10,6.75955798 10,7.69304374 L10,19 L11.375321,19 L11.375321,7.69304374 C11.375321,7.53177527 11.503987,7.40022863 11.6623868,7.40022863 L20.3381538,7.40022863 C20.496013,7.40022863 20.624679,7.53177527 20.624679,7.69304374 L20.624679,19 L22,19 L22,7.69304374 C22,6.75955798 21.2544939,6 20.3381538,6 Z" id="Shape"></path>
            <path d="M6,1 C4.34596438,1 3,2.34653278 3,4.0005684 C3,5.65460402 4.34596438,7 6,7 C7.65403562,7 9,5.65460402 9,4.0005684 C9,2.34653278 7.65403562,1 6,1 Z M6,5.55456612 C5.14285714,5.55456612 4.44600227,4.85771125 4.44600227,4.00113679 C4.44600227,3.14456233 5.14342554,2.44657067 6,2.44657067 C6.85657446,2.44657067 7.55399773,3.14456233 7.55399773,4.00113679 C7.55399773,4.85771125 6.85714286,5.55456612 6,5.55456612 Z" id="Shape"></path>
            <path d="M0,9.58450867 L0,15 L1.33956427,15 L1.33956427,9.58450867 C1.33956427,9.46797688 1.43171197,9.37248555 1.54544856,9.37248555 L8,9.37248555 L8,8 L1.54544856,8 C0.693477259,8 0,8.71105973 0,9.58450867 Z" id="Shape"></path>
            <path d="M25.9997158,7 C27.6544766,7 29,5.65460402 29,4.0005684 C29,2.34653278 27.6544766,1 25.9997158,1 C24.3455234,1 23,2.34653278 23,4.0005684 C23,5.65460402 24.3455234,7 25.9997158,7 Z M25.9997158,2.44600227 C26.8569398,2.44600227 27.5538607,3.14399394 27.5538607,4.0005684 C27.5538607,4.85714286 26.8563714,5.55399773 25.9997158,5.55399773 C25.1430602,5.55399773 24.4461393,4.85714286 24.4461393,4.0005684 C24.4461393,3.14399394 25.1430602,2.44600227 25.9997158,2.44600227 Z" id="Shape"></path>
            <path d="M29.4541266,8 L23,8 L23,9.37248555 L29.4541266,9.37248555 C29.5678557,9.37248555 29.6605239,9.46797688 29.6605239,9.58450867 L29.6605239,15 L31,15 L31,9.58450867 C30.9994735,8.71105973 30.3060419,8 29.4541266,8 Z" id="Shape"></path>
            <path d="M16.9874143,28.3965805 C16.9874143,28.5493119 16.8618585,28.6738949 16.7072877,28.6738949 L16.1713015,28.6738949 L16.1713015,17.457256 L14.829226,17.457256 L14.829226,28.6744162 L14.2927123,28.6744162 C14.1386691,28.6744162 14.0131133,28.5498332 14.0120582,28.3637406 L13.3410204,15.0005213 L12,15.0667223 L12.6710378,28.3965805 C12.6710378,29.2801293 13.3979953,30 14.2927123,30 L16.7067601,30 C17.6009496,30 18.3289622,29.2801293 18.3284347,28.4294204 L19,15.066201 L17.6589796,15 L16.9874143,28.3965805 Z" id="Shape"></path>
        </g>
    </g>
</svg>