<?xml version="1.0" encoding="UTF-8" standalone="no"?>
<svg
   xmlns:dc="http://purl.org/dc/elements/1.1/"
   xmlns:cc="http://creativecommons.org/ns#"
   xmlns:rdf="http://www.w3.org/1999/02/22-rdf-syntax-ns#"
   xmlns:svg="http://www.w3.org/2000/svg"
   xmlns="http://www.w3.org/2000/svg"
   xmlns:xlink="http://www.w3.org/1999/xlink"
   xmlns:sodipodi="http://sodipodi.sourceforge.net/DTD/sodipodi-0.dtd"
   xmlns:inkscape="http://www.inkscape.org/namespaces/inkscape"
   width="28.42531"
   height="22.027763"
   viewBox="0 0 28.42531 22.027763"
   version="1.1"
   id="svg59"
   sodipodi:docname="instance.svg"
   inkscape:version="0.92.4 (5da689c313, 2019-01-14)">
  <metadata
     id="metadata63">
    <rdf:RDF>
      <cc:Work
         rdf:about="">
        <dc:format>image/svg+xml</dc:format>
        <dc:type
           rdf:resource="http://purl.org/dc/dcmitype/StillImage" />
      </cc:Work>
    </rdf:RDF>
  </metadata>
  <sodipodi:namedview
     pagecolor="#ffffff"
     bordercolor="#666666"
     borderopacity="1"
     objecttolerance="10"
     gridtolerance="10"
     guidetolerance="10"
     inkscape:pageopacity="0"
     inkscape:pageshadow="2"
     inkscape:window-width="640"
     inkscape:window-height="480"
     id="namedview61"
     showgrid="false"
     inkscape:zoom="4.9166667"
     inkscape:cx="12.969128"
     inkscape:cy="10.747765"
     inkscape:window-x="1"
     inkscape:window-y="1"
     inkscape:window-maximized="0"
     inkscape:current-layer="svg59" />
  <!-- Generator: Sketch 50.2 (55047) - http://www.bohemiancoding.com/sketch -->
  <title
     id="title2">WORKSEARCH_Instance_petit</title>
  <desc
     id="desc4">Created with Sketch.</desc>
  <defs
     id="defs12">
    <polygon
       id="path-1"
       points="15.726897,0.352493 15.726897,10.95372 0.038119122,10.95372 0.038119122,0.352493 " />
    <polygon
       id="path-3"
       points="7.5904,0.18036364 7.5904,5.8676364 0.17564444,5.8676364 0.17564444,0.18036364 " />
    <path
       d="m 0.80419921,1.4986667 c -1.15324655,0.2806666 0,2.4686666 0,2.4686666 H 27.322284 c 0,0 1.129099,-2.1666666 0,-2.4686666 C 24.113536,0.64 19.285414,0.24 14.421436,0.24 9.307929,0.24066667 4.1541755,0.682 0.80419921,1.4986667"
       id="path-5"
       inkscape:connector-curvature="0" />
    <path
       d="m 0.80419921,1.4986667 c -1.15324655,0.2806666 0,2.4686666 0,2.4686666 H 27.322284 c 0,0 1.129099,-2.1666666 0,-2.4686666 C 24.113536,0.64 19.285414,0.24 14.420704,0.24 9.307929,0.24 4.1541755,0.682 0.80419921,1.4986667 Z"
       id="path-7"
       inkscape:connector-curvature="0" />
    <path
       d="m 0.64252632,0.16533333 c 0,0 -1.13694737,2.12419047 0,2.41980957 6.62715788,1.7257142 20.11947368,1.5611428 26.70315768,0 1.160527,-0.2750477 0,-2.41980957 0,-2.41980957"
       id="path-9"
       inkscape:connector-curvature="0" />
    <path
       d="m 0.64252632,0.16533333 c 0,0 -1.13694737,2.12419047 0,2.41980957 6.62715788,1.7257142 20.11947368,1.5611428 26.70315768,0 1.160527,-0.2750477 0,-2.41980957 0,-2.41980957 z"
       id="path-11"
       inkscape:connector-curvature="0" />
  </defs>
  <polygon
     id="Stroke-5"
     points="26,4 1,4 1,18 26,18 "
     style="fill:none;fill-rule:evenodd;stroke:#000000;stroke-width:1"
     transform="translate(0.50302673,0.51728579)" />
  <g
     style="fill:none;fill-rule:evenodd;stroke:none;stroke-width:1"
     id="Group-9"
     transform="translate(6.5030267,3.5172858)">
    <mask
       id="mask-2"
       fill="white">
      <use
         xlink:href="#path-1"
         id="use15"
         x="0"
         y="0"
         width="100%"
         height="100%" />
    </mask>
    <g
       id="Clip-7" />
    <polygon
       id="Stroke-6"
       mask="url(#mask-2)"
       points="15.726897,0.35181513 0.038119122,0.35181513 0.038119122,10.95372 15.726897,10.95372 "
       style="stroke:#b6b5b6;stroke-width:1.20000005" />
    <polygon
       id="Stroke-8"
       mask="url(#mask-2)"
       points="125.54909,-308.86996 -702.04389,-308.86996 -702.04389,359.04801 125.54909,359.04801 "
       style="stroke:#b6b5b6;stroke-width:1.20000005" />
  </g>
  <polygon
     id="Stroke-10"
     points="21,4 6,4 6,15 21,15 "
     style="fill:none;fill-rule:evenodd;stroke:#000000;stroke-width:1"
     transform="translate(0.50302673,0.51728579)" />
  <g
     style="fill:none;fill-rule:evenodd;stroke:none;stroke-width:1"
     id="Group-14"
     transform="translate(10.503027,4.5172858)">
    <mask
       id="mask-4"
       fill="white">
      <use
         xlink:href="#path-3"
         id="use23"
         x="0"
         y="0"
         width="100%"
         height="100%" />
    </mask>
    <g
       id="Clip-12" />
    <polygon
       id="Stroke-11"
       mask="url(#mask-4)"
       points="7.5904,0.18036364 0.17564444,0.18036364 0.17564444,5.8676364 7.5904,5.8676364 "
       style="stroke:#b6b5b6;stroke-width:1.20000005" />
    <polygon
       id="Stroke-13"
       mask="url(#mask-4)"
       points="115.09973,-331.576 -667.12889,-331.576 -667.12889,385.01818 115.09973,385.01818 "
       style="stroke:#b6b5b6;stroke-width:1.20000005" />
  </g>
  <polygon
     id="Stroke-15"
     points="17,4 10,4 10,9 17,9 "
     style="fill:none;fill-rule:evenodd;stroke:#000000;stroke-width:1"
     transform="translate(0.50302673,0.51728579)" />
  <g
     style="fill:none;fill-rule:evenodd;stroke:none;stroke-width:1"
     id="Group-18"
     transform="translate(0.50302673,0.51728579)">
    <mask
       id="mask-6"
       fill="white">
      <use
         xlink:href="#path-5"
         id="use31"
         x="0"
         y="0"
         width="100%"
         height="100%" />
    </mask>
    <g
       id="Clip-17" />
    <polyline
       id="Stroke-16"
       mask="url(#mask-6)"
       points="27.322284 1.49833333 27.322284 3.96766667 0.804199211 3.96766667 0.804199211 1.49833333"
       style="stroke:#b6b5b6;stroke-width:1.20000005" />
  </g>
  <g
     style="fill:none;fill-rule:evenodd;stroke:none;stroke-width:1"
     id="Group-21"
     transform="translate(0.50302673,0.51728579)">
    <mask
       id="mask-8"
       fill="white">
      <use
         xlink:href="#path-7"
         id="use37"
         x="0"
         y="0"
         width="100%"
         height="100%" />
    </mask>
    <g
       id="Clip-20" />
    <polygon
       id="Stroke-19"
       mask="url(#mask-8)"
       points="107.65513,-37.788667 -550.6079,-37.788667 -550.6079,47.071333 107.65513,47.071333 "
       style="stroke:#b6b5b6;stroke-width:1.20000005" />
  </g>
  <path
     d="m 1.0056683,1.8675178 c 6.4110714,-1.70904401 19.5511137,-1.88932001 26.0052417,0 1.107263,0.324067 0,2.649768 0,2.649768 H 1.0056683 c 0,0 -1.13094347,-2.348593 0,-2.649768 z"
     id="Stroke-22"
     inkscape:connector-curvature="0"
     style="fill:none;fill-rule:evenodd;stroke:#000000;stroke-width:1" />
  <g
     style="fill:none;fill-rule:evenodd;stroke:none;stroke-width:1"
     id="Group-29"
     transform="translate(0.50302673,17.517286)">
    <g
       id="Group-26">
      <mask
         id="mask-10"
         fill="white">
        <use
           xlink:href="#path-9"
           id="use44"
           x="0"
           y="0"
           width="100%"
           height="100%" />
      </mask>
      <g
         id="Clip-25" />
      <polyline
         id="Stroke-24"
         mask="url(#mask-10)"
         points="0.643042105 2.58514286 0.643042105 0.165333333 27.3454632 0.165333333 27.3454632 2.58514286"
         style="stroke:#b6b5b6;stroke-width:1.20000005" />
    </g>
    <mask
       id="mask-12"
       fill="white">
      <use
         xlink:href="#path-11"
         id="use50"
         x="0"
         y="0"
         width="100%"
         height="100%" />
    </mask>
    <g
       id="Clip-28" />
    <polygon
       id="Stroke-27"
       mask="url(#mask-12)"
       points="582.5901,-42.069333 -80.248737,-42.069333 -80.248737,41.080381 582.5901,41.080381 "
       style="stroke:#b6b5b6;stroke-width:1.20000005" />
  </g>
  <path
     d="m 27.000698,20.504454 c -6.411865,1.282024 -19.5513443,1.417171 -26.00554877,0 -1.1072756,-0.24339 0,-1.987168 0,-1.987168 H 27.000698 c 0,0 1.13024,1.761297 0,1.987168 z"
     id="Stroke-30"
     inkscape:connector-curvature="0"
     style="fill:none;fill-rule:evenodd;stroke:#000000;stroke-width:1" />
</svg>
