<?xml version="1.0" encoding="UTF-8" standalone="no"?>
<svg
   xmlns:dc="http://purl.org/dc/elements/1.1/"
   xmlns:cc="http://creativecommons.org/ns#"
   xmlns:rdf="http://www.w3.org/1999/02/22-rdf-syntax-ns#"
   xmlns:svg="http://www.w3.org/2000/svg"
   xmlns="http://www.w3.org/2000/svg"
   xmlns:xlink="http://www.w3.org/1999/xlink"
   xmlns:sodipodi="http://sodipodi.sourceforge.net/DTD/sodipodi-0.dtd"
   xmlns:inkscape="http://www.inkscape.org/namespaces/inkscape"
   width="48.069691"
   height="47.345695"
   viewBox="0 0 48.069691 47.345695"
   version="1.1"
   id="svg48"
   sodipodi:docname="work.svg"
   inkscape:version="0.92.4 (5da689c313, 2019-01-14)">
  <metadata
     id="metadata52">
    <rdf:RDF>
      <cc:Work
         rdf:about="">
        <dc:format>image/svg+xml</dc:format>
        <dc:type
           rdf:resource="http://purl.org/dc/dcmitype/StillImage" />
      </cc:Work>
    </rdf:RDF>
  </metadata>
  <sodipodi:namedview
     pagecolor="#ffffff"
     bordercolor="#666666"
     borderopacity="1"
     objecttolerance="10"
     gridtolerance="10"
     guidetolerance="10"
     inkscape:pageopacity="0"
     inkscape:pageshadow="2"
     inkscape:window-width="640"
     inkscape:window-height="480"
     id="namedview50"
     showgrid="false"
     inkscape:zoom="3.4705882"
     inkscape:cx="25.693633"
     inkscape:cy="21.130435"
     inkscape:window-x="1"
     inkscape:window-y="1"
     inkscape:window-maximized="0"
     inkscape:current-layer="svg48" />
  <!-- Generator: Sketch 50.2 (55047) - http://www.bohemiancoding.com/sketch -->
  <title
     id="title2">WORKMENU_Work_moyen_gris</title>
  <desc
     id="desc4">Created with Sketch.</desc>
  <defs
     id="defs9">
    <path
       d="m 17.222729,2.645895 c 0.0011,0.392404 0.129871,0.7755387 0.368321,1.0917278 -0.23845,0.3151591 -0.367256,0.6982938 -0.368321,1.0917277 0.0011,0.1524299 0.02342,0.3038299 0.06174,0.4511102 C 14.718999,5.59356 12.287655,6.5822946 10.25018,8.1426414 10.171406,8.0087502 10.0756,7.8851584 9.9648908,7.7749557 9.6806663,7.4989339 9.3123454,7.3197258 8.9142181,7.2641095 8.8599281,6.8737653 8.6768321,6.5122592 8.3926076,6.2321177 c -0.7409,-0.7261019 -1.9416688,-0.7261019 -2.6815042,0 -0.7398354,0.7271319 -0.7398354,1.9043441 0,2.6325059 0.2831601,0.2780816 0.6525455,0.4572897 1.0517373,0.5118761 0.055355,0.3903442 0.2384505,0.7508203 0.5194815,1.0309623 0.1128382,0.108142 0.2384506,0.201866 0.3736435,0.278081 -1.5893155,2.001158 -2.5963432,4.38648 -2.9146321,6.903633 C 4.590173,17.550039 4.4358188,17.52944 4.2804002,17.52841 3.8801439,17.52944 3.4884037,17.655092 3.1679858,17.890946 2.8454389,17.655092 2.4547632,17.52944 2.0545069,17.52841 c -1.0474792,0 -1.89589471,0.832185 -1.89589471,1.860057 0,1.027872 0.84841551,1.861087 1.89589471,1.861087 0.4002563,0 0.790932,-0.127711 1.1134789,-0.362536 0.3204179,0.234825 0.7121581,0.362536 1.1124144,0.362536 0.1554186,-0.001 0.3097728,-0.02266 0.4609334,-0.0618 0.3182889,2.518184 1.3253166,4.903506 2.9146321,6.903634 -0.1351929,0.07622 -0.2608053,0.169938 -0.3736435,0.279111 -0.281031,0.279112 -0.4641269,0.640618 -0.5194815,1.029932 -0.3991918,0.05459 -0.7685772,0.233795 -1.0517373,0.512906 -0.7419644,0.727132 -0.7419644,1.905374 0,2.632506 0.7398354,0.727132 1.9406042,0.727132 2.6815042,0 0.2842245,-0.279111 0.4673205,-0.642678 0.5216105,-1.033022 0.3981273,-0.05459 0.7664482,-0.232764 1.0506727,-0.509816 0.1107092,-0.111233 0.2065152,-0.233794 0.2852892,-0.367686 2.037475,1.560347 4.468819,2.549082 7.034291,2.861151 -0.03832,0.14831 -0.06068,0.29868 -0.06174,0.45214 0.0011,0.393434 0.129871,0.775539 0.368321,1.091728 -0.23845,0.316189 -0.367256,0.699324 -0.368321,1.091728 0,1.027872 0.848416,1.860057 1.895895,1.860057 1.047479,0 1.895895,-0.832185 1.895895,-1.860057 0,-0.392404 -0.129871,-0.775539 -0.368321,-1.091728 0.23845,-0.316189 0.368321,-0.698294 0.368321,-1.091728 -0.0011,-0.15346 -0.02236,-0.30383 -0.06174,-0.45214 2.565472,-0.312069 4.996816,-1.300804 7.035356,-2.861151 0.07771,0.133892 0.173515,0.256453 0.284224,0.367686 0.284225,0.277052 0.652546,0.45523 1.050673,0.509816 0.05429,0.390344 0.237386,0.753911 0.52161,1.033022 0.7409,0.726102 1.941669,0.726102 2.682569,0 l -0.291676,-0.285291 0.291676,0.285291 c 0.739835,-0.728162 0.739835,-1.905374 0,-2.632506 -0.284224,-0.279111 -0.652545,-0.45832 -1.051737,-0.512906 -0.05642,-0.389314 -0.239515,-0.75082 -0.520546,-1.029932 -0.112838,-0.109173 -0.238451,-0.202896 -0.373644,-0.279111 1.59038,-2.000128 2.596343,-4.38545 2.914632,-6.903634 0.151161,0.03914 0.305515,0.06077 0.460934,0.0618 0.401321,0 0.791996,-0.127711 1.113479,-0.362536 0.320418,0.234825 0.711093,0.362536 1.112414,0.362536 1.047479,0 1.895895,-0.833215 1.895895,-1.861087 0,-1.027872 -0.848416,-1.860057 -1.895895,-1.860057 -0.401321,0.001 -0.791996,0.126682 -1.112414,0.362536 -0.321483,-0.235854 -0.712158,-0.361506 -1.113479,-0.362536 -0.155419,0.001 -0.309773,0.02163 -0.460934,0.06077 -0.318289,-2.517153 -1.324252,-4.902475 -2.914632,-6.903633 0.135193,-0.07621 0.260806,-0.169939 0.373644,-0.278081 0.281031,-0.280142 0.464127,-0.6406181 0.520546,-1.0309623 0.399192,-0.054586 0.767513,-0.2337945 1.051737,-0.5118761 0.739835,-0.7281618 0.739835,-1.905374 0,-2.6325059 -0.7409,-0.7261019 -1.941669,-0.7261019 -2.682569,0 -0.284224,0.2791116 -0.46732,0.6416476 -0.52161,1.0319918 -0.398127,0.055616 -0.766448,0.2337945 -1.050673,0.5118761 v -0.00103 C 28.161648,7.8851584 28.065842,8.0087502 27.988133,8.1426414 25.949593,6.5822946 23.518249,5.59356 20.952777,5.2804607 c 0.03939,-0.1472803 0.06068,-0.2986803 0.06174,-0.4511102 0,-0.3934339 -0.129871,-0.7765686 -0.368321,-1.0917277 0.23845,-0.3161891 0.368321,-0.6993238 0.368321,-1.0917278 0,-1.027872 -0.848416,-1.86108692 -1.895895,-1.86108692 -1.047479,0 -1.895895,0.83321492 -1.895895,1.86108692 z m 0.824997,2.1834555 c 0.0011,-0.3038299 0.137322,-0.5911809 0.371514,-0.7889278 0.08942,-0.076215 0.139451,-0.1874476 0.139451,-0.3027999 0,-0.1163823 -0.05003,-0.227615 -0.139451,-0.3038299 -0.225676,-0.1895075 -0.359805,-0.4624395 -0.371514,-0.7528803 -0.01065,-0.2914707 0.103257,-0.5726421 0.31403,-0.7775985 0.275709,-0.2749918 0.682352,-0.377985 1.058125,-0.2708721 0.376837,0.1071129 0.66319,0.408883 0.747287,0.7837782 0.08197,0.376955 -0.0511,0.7672992 -0.34916,1.0175727 -0.08942,0.076215 -0.139451,0.1874476 -0.139451,0.3038299 0,0.1153523 0.05003,0.226585 0.139451,0.3027999 0.234193,0.1977469 0.37045,0.4850979 0.372579,0.7889278 -0.0032,0.1246218 -0.02874,0.2471837 -0.07771,0.3625361 -0.332128,-0.024718 -0.664256,-0.039137 -0.994254,-0.039137 -0.329999,0 -0.662126,0.014419 -0.994254,0.039137 -0.04897,-0.1153524 -0.07451,-0.2379143 -0.07664,-0.3625361 z m -0.122419,27.9307225 -0.01065,-0.001 c -2.78902,-0.230705 -5.43646,-1.306984 -7.575063,-3.080526 l -0.0021,-0.001 C 9.7157952,29.17385 9.1462816,28.613567 8.6331871,28.005907 l -0.00106,-0.0041 C 6.8245823,25.903816 5.7281356,23.307358 5.4918141,20.569799 l -0.00106,-0.0093 c -0.07558,-0.779659 -0.07558,-1.563437 0,-2.343095 l 0.00106,-0.0103 c 0.2363215,-2.736529 1.3327682,-5.334018 3.1403085,-7.430959 l 0.00106,-0.0041 C 9.1462816,10.164398 9.7157952,9.6041147 10.33747,9.1015079 l 0.0021,-0.00206 c 2.138603,-1.7735427 4.786043,-2.8498215 7.575063,-3.0815562 l 0.01065,-0.00103 c 0.794125,-0.074155 1.593573,-0.074155 2.387699,0 l 0.0096,0.00103 c 2.78902,0.2317347 5.43646,1.3080135 7.573999,3.0815562 l 0.0032,0.00206 c 0.62061,0.5026068 1.191188,1.0628901 1.704283,1.6705491 l 0.0021,0.0041 c 1.806476,2.096941 2.903987,4.69443 3.139244,7.430959 l 0.0011,0.0103 c 0.07558,0.779658 0.07558,1.563436 0,2.343095 l -0.0011,0.0093 c -0.235257,2.737559 -1.332768,5.334017 -3.139244,7.431989 l -0.0021,0.0041 c -0.513095,0.60766 -1.083673,1.167943 -1.704283,1.67158 l -0.0032,0.001 c -2.137539,1.773542 -4.784979,2.849821 -7.573999,3.080526 l -0.0096,0.001 c -0.397063,0.03811 -0.796255,0.05665 -1.194382,0.05665 -0.398127,0 -0.797319,-0.01854 -1.193317,-0.05665 z M 6.2933912,8.2930114 c -0.4194175,-0.4109428 -0.4194175,-1.0773087 0,-1.4892815 0.4183529,-0.4109428 1.0975112,-0.4109428 1.5158641,0 0.2001282,0.1936272 0.3097728,0.4572898 0.3065793,0.7312517 l -0.00213,0.082395 c -0.00852,0.1174122 0.034064,0.2317347 0.1192253,0.3141292 0.083032,0.083425 0.2011926,0.1266816 0.3204179,0.1184422 l 0.078774,-0.00309 c 0.281031,-0.00206 0.5514169,0.1071129 0.7504805,0.3007401 v 0.00103 C 9.4741511,8.4382318 9.5454734,8.5432848 9.5976344,8.6606971 9.093056,9.0881188 8.620413,9.5515881 8.1850278,10.045955 8.0658026,9.9965187 7.9582869,9.9244235 7.8656744,9.8358493 7.6676753,9.6401623 7.5580306,9.3754698 7.5601597,9.0994481 l 0.00213,-0.077245 C 7.5708048,8.9047909 7.5271598,8.7904685 7.4430634,8.707044 7.3579025,8.6246495 7.2418708,8.5813923 7.121581,8.5896318 l -0.083032,0.00309 c -0.00426,0 -0.00639,0 -0.010645,0 -0.2757085,0 -0.5418363,-0.1081429 -0.7345128,-0.2997102 z M 30.005382,7.9315053 c 0.08516,-0.082395 0.127741,-0.196717 0.11816,-0.3141292 l -0.0021,-0.082395 c -0.0032,-0.2739619 0.107516,-0.5386544 0.30658,-0.7312517 0.419417,-0.4099129 1.096446,-0.4088829 1.514799,0.00206 0.419418,0.4099129 0.420482,1.0752488 0.0011,1.4872216 -0.19587,0.1946571 -0.465192,0.3028 -0.745158,0.2997102 l -0.08197,-0.00309 c -0.12029,-0.00824 -0.238451,0.035018 -0.322547,0.1174122 -0.0841,0.083424 -0.126677,0.1977469 -0.118161,0.3151592 l 0.0011,0.077245 c 0.0021,0.2760217 -0.107515,0.5407142 -0.305514,0.7364012 -0.09261,0.088574 -0.201193,0.1606694 -0.318289,0.2101057 -0.43645,-0.4943669 -0.909093,-0.9578362 -1.413671,-1.3852579 0.0511,-0.1174123 0.124547,-0.2224653 0.216095,-0.3120694 v -0.00103 c 0.199064,-0.1936272 0.46945,-0.3028 0.749416,-0.3007401 l 0.07877,0.00309 c 0.0096,0.00103 0.01916,0.00103 0.02981,0.00103 0.10858,0 0.213966,-0.042227 0.291676,-0.1194721 z m 3.58208,12.4323077 c 0.02555,-0.325459 0.04045,-0.651947 0.04045,-0.975346 0,-0.323398 -0.0149,-0.649887 -0.04045,-0.975345 0.117097,-0.04841 0.242709,-0.07313 0.369386,-0.07622 0.309773,0.0021 0.602513,0.134921 0.803706,0.365626 0.07771,0.08754 0.191612,0.136981 0.309773,0.136981 0.119225,0 0.230999,-0.04944 0.308708,-0.136981 0.292741,-0.333698 0.765384,-0.45317 1.184801,-0.298681 0.420482,0.151401 0.699384,0.545864 0.699384,0.984615 0,0.439781 -0.278902,0.833215 -0.699384,0.986675 -0.419417,0.15243 -0.893125,0.03296 -1.184801,-0.30074 -0.07771,-0.08651 -0.189483,-0.136981 -0.308708,-0.136981 -0.118161,0 -0.232064,0.05047 -0.309773,0.136981 -0.201193,0.231735 -0.493933,0.364596 -0.803706,0.365626 -0.126677,-0.0021 -0.252289,-0.02781 -0.369386,-0.07622 z M 3.4766941,18.702533 c 0.2011927,-0.230705 0.4939333,-0.363566 0.8037061,-0.365626 0.1266768,0.0031 0.2522892,0.02781 0.3693854,0.07622 -0.025548,0.325458 -0.040451,0.651947 -0.040451,0.975345 0,0.323399 0.014903,0.649887 0.040451,0.975346 -0.1170962,0.04841 -0.2427086,0.07416 -0.3693854,0.07622 -0.3097728,-0.001 -0.6025134,-0.133891 -0.8037061,-0.365626 -0.078774,-0.08651 -0.1905475,-0.136981 -0.3087083,-0.136981 -0.1192253,0 -0.2320635,0.05047 -0.3097728,0.136981 -0.2554827,0.290441 -0.65361,0.420212 -1.034705,0.338848 -0.3832241,-0.08137 -0.6887389,-0.361507 -0.797319,-0.730222 -0.10964472,-0.368716 -0.00532,-0.766269 0.2714503,-1.037142 0.2086443,-0.205986 0.4960623,-0.318248 0.7919965,-0.306919 0.2969987,0.0103 0.5748361,0.14213 0.7685772,0.363566 0.077709,0.08754 0.1905475,0.136981 0.3097728,0.136981 0.1181608,0 0.2299345,-0.04944 0.3087083,-0.136981 z M 28.855709,30.430367 c -0.09155,-0.09063 -0.163934,-0.196717 -0.216095,-0.313099 0.504578,-0.427422 0.977221,-0.890891 1.413671,-1.385259 0.117096,0.04944 0.225676,0.120502 0.318289,0.210106 0.197999,0.195687 0.307643,0.46038 0.305514,0.735372 l -0.0011,0.07828 c -0.0085,0.117412 0.03406,0.231734 0.118161,0.315159 0.0841,0.08239 0.202257,0.125651 0.322547,0.116382 l 0.08197,-0.0021 c 0.279966,-0.0031 0.549288,0.105053 0.745158,0.29971 0.419417,0.411973 0.419417,1.077309 0,1.489282 -0.418353,0.409913 -1.096447,0.409913 -1.515864,0 -0.199064,-0.193627 -0.309773,-0.45729 -0.30658,-0.732282 l 0.0021,-0.08136 c 0.0096,-0.117413 -0.033,-0.231735 -0.11816,-0.315159 -0.08516,-0.08343 -0.202258,-0.125652 -0.321483,-0.117413 l -0.07877,0.0031 c -0.0011,0 -0.0043,0 -0.0064,0 -0.278902,0 -0.546094,-0.108143 -0.743029,-0.30074 z M 7.4430634,30.069891 c 0.084096,-0.08239 0.1277414,-0.197747 0.1192253,-0.314129 l -0.00213,-0.07828 c -0.00213,-0.274992 0.1075156,-0.539685 0.3055147,-0.735372 0.092613,-0.0896 0.2001282,-0.160669 0.3193534,-0.210106 0.4353852,0.494368 0.9080282,0.957837 1.4126066,1.385259 -0.052161,0.116382 -0.1234833,0.222465 -0.2150313,0.313099 -0.1990636,0.193627 -0.4694495,0.3028 -0.7504805,0.30074 l -0.078774,-0.0031 c -0.1202898,-0.0082 -0.2373861,0.03399 -0.3204179,0.117413 -0.085161,0.08342 -0.1277414,0.197746 -0.1192253,0.315159 l 0.00213,0.08136 c 0.00319,0.274992 -0.1064511,0.538655 -0.3065793,0.732282 -0.4183529,0.409913 -1.0975112,0.409913 -1.5158641,0 -0.4194175,-0.410943 -0.4194175,-1.077309 0,-1.489282 0.19587,-0.195687 0.4651914,-0.3028 0.7451579,-0.29971 l 0.083032,0.0021 c 0.010645,0.001 0.02129,0.001 0.031935,0.001 0.1085802,0 0.2129023,-0.04223 0.2895471,-0.118442 z M 19.14843,33.625216 c 0.319354,0 0.641901,-0.01545 0.964448,-0.03914 0.04897,0.114323 0.07452,0.237915 0.07771,0.362536 -0.0021,0.30383 -0.138386,0.591181 -0.372579,0.788928 -0.08942,0.07622 -0.139451,0.186418 -0.139451,0.3028 0,0.116382 0.05003,0.226585 0.139451,0.30383 0.225676,0.188477 0.360869,0.461409 0.371514,0.75288 0.01065,0.291471 -0.102193,0.573672 -0.31403,0.777599 -0.275709,0.273961 -0.682352,0.377985 -1.058125,0.270872 -0.376837,-0.108143 -0.66319,-0.407853 -0.746222,-0.784808 -0.08303,-0.375926 0.0511,-0.76627 0.348095,-1.016543 0.08942,-0.07724 0.139451,-0.187448 0.139451,-0.30383 0,-0.116382 -0.05003,-0.226585 -0.139451,-0.3028 -0.234192,-0.197747 -0.37045,-0.485098 -0.371514,-0.788928 0.0021,-0.124621 0.02768,-0.248213 0.07664,-0.362536 0.332128,0.02472 0.664255,0.03914 0.994254,0.03914 0.0096,0 0.01916,0 0.02981,0 z"
       id="path-1"
       inkscape:connector-curvature="0" />
    <path
       d="m 10.298083,0.48738665 h -0.0011 C 8.1935439,0.73045057 6.1986496,1.541007 4.5337539,2.8284218 3.8141442,3.384585 3.1637278,4.0231427 2.5963432,4.729676 h -0.00106 C 1.2848652,6.362118 0.4588044,8.3189886 0.21077325,10.384002 v 0.001 c -0.1128382,0.891921 -0.1128382,1.795171 0,2.687092 v 0.001 C 0.4588044,15.138168 1.2848652,17.094008 2.5952787,18.72645 h 0.00106 c 1.8905722,2.361634 4.6614953,3.887993 7.7006748,4.243319 l 0.0011,0.001 v -0.001 c 0.909093,0.111233 1.82883,0.111233 2.737923,0 v 0.001 l 0.0011,-0.001 c 2.103474,-0.243063 4.098368,-1.05362 5.7622,-2.341035 0.540771,-0.417122 1.042156,-0.879562 1.497767,-1.383198 0.151161,-0.167879 0.298063,-0.341938 0.440708,-0.519086 1.311478,-1.632442 2.137539,-3.588282 2.38557,-5.653296 v -0.001 c 0.112838,-0.891921 0.112838,-1.795171 0,-2.687092 v -0.001 C 22.875285,8.3189886 22.049224,6.362118 20.737746,4.729676 20.171426,4.0231427 19.521009,3.384585 18.799271,2.8284218 17.135439,1.541007 15.14161,0.73045057 13.037071,0.48738665 h -0.0011 c -0.454546,-0.0556163 -0.912286,-0.0834245 -1.368962,-0.0834245 -0.456675,0 -0.915479,0.0278082 -1.368961,0.0834245 z M 10.96766,7.299356 c 0.08942,-0.076215 0.139452,-0.1864177 0.139452,-0.3028 0,-0.1163823 -0.05003,-0.2276149 -0.139452,-0.3038298 -0.235256,-0.1956871 -0.371514,-0.485098 -0.371514,-0.7878979 0,-0.3048599 0.136258,-0.5922109 0.371514,-0.7889278 0.08942,-0.076215 0.139452,-0.1874476 0.139452,-0.3028 0,-0.1163823 -0.05003,-0.227615 -0.139452,-0.3038299 -0.235256,-0.196717 -0.371514,-0.4850979 -0.371514,-0.7889278 0,-0.3038299 0.136258,-0.5922108 0.371514,-0.7889278 0.08942,-0.076215 0.139452,-0.1864177 0.139452,-0.3028 0,-0.1153524 -0.05003,-0.2255551 -0.139452,-0.3028 -0.234192,-0.1977469 -0.370449,-0.4861278 -0.371514,-0.7889278 0.0011,-0.090634 0.01384,-0.181268 0.04045,-0.2677823 0.339579,-0.033988 0.685545,-0.055616 1.030446,-0.055616 0.345967,0 0.690868,0.021629 1.030448,0.055616 0.02661,0.086514 0.03939,0.1771483 0.04152,0.2677823 -0.0021,0.3028 -0.138386,0.5911809 -0.372578,0.7889278 -0.08942,0.077245 -0.139451,0.1874476 -0.139451,0.3028 0,0.1163823 0.05003,0.226585 0.139451,0.3028 0.235257,0.196717 0.372578,0.4850979 0.372578,0.7889278 0,0.3038299 -0.137321,0.5922108 -0.372578,0.7889278 -0.08942,0.076215 -0.139451,0.1874476 -0.139451,0.3038299 0,0.1153524 0.05003,0.226585 0.139451,0.3028 0.235257,0.1967169 0.372578,0.4840679 0.372578,0.7889278 0,0.3027999 -0.137321,0.5922108 -0.372578,0.7878979 -0.08942,0.076215 -0.139451,0.1874475 -0.139451,0.3038298 0,0.1163823 0.05003,0.2265851 0.139451,0.3028 0.159676,0.136981 0.274643,0.318249 0.331063,0.5180557 -0.674901,-0.1781782 -1.385994,-0.1781782 -2.060894,0 0.05748,-0.1998067 0.17245,-0.3810747 0.331062,-0.5180557 z m 2.226958,-0.3028 c 0.491805,-0.6478271 0.491805,-1.5356284 0,-2.1834555 0.491805,-0.6488571 0.491805,-1.5366584 0,-2.1844855 0.239515,-0.3151591 0.368321,-0.6982938 0.368321,-1.0917278 0.0011,-0.052526 -0.0043,-0.1029932 -0.0096,-0.1534598 1.523315,0.2646925 2.969986,0.8517536 4.238884,1.7210161 -0.03832,0.031928 -0.07664,0.064886 -0.113903,0.1019633 l -0.0021,0.00309 -0.0075,0.00618 v 0.00103 c -0.279966,0.2760217 -0.463062,0.6334081 -0.520546,1.0196326 -0.398127,0.057676 -0.767512,0.2368843 -1.053866,0.5159958 -0.28316,0.2791115 -0.465191,0.6416476 -0.520546,1.0319917 -0.818609,0.1081429 -1.462638,0.7405211 -1.573348,1.5438679 -0.187354,0.027808 -0.36832,0.083424 -0.538642,0.1647891 C 13.399005,7.314805 13.308521,7.147956 13.194618,6.996556 Z M 5.5429106,3.1044435 C 6.8107437,2.235181 8.2574146,1.6481199 9.7807304,1.3834274 c -0.00426,0.050467 -0.00958,0.1009333 -0.00958,0.1534598 0.00106,0.393434 0.1298704,0.7765687 0.3683212,1.0917278 -0.49074,0.6478271 -0.49074,1.5356284 0,2.1844855 -0.49074,0.6478271 -0.49074,1.5356284 0,2.1834555 C 10.025568,7.147956 9.936149,7.314805 9.8722784,7.4929832 9.703021,7.4116186 9.5209896,7.3560023 9.3336356,7.3281941 9.2229264,6.5248473 8.5788971,5.8924691 7.7613523,5.7843262 7.7049332,5.3939821 7.5229018,5.031446 7.2397418,4.7523345 6.9544527,4.473223 6.5850673,4.2940148 6.1858755,4.2363387 6.1283919,3.8501142 5.9463605,3.4927278 5.6653295,3.2167061 v -0.00103 l -0.00639,-0.00618 -0.00319,-0.00309 h -0.00106 C 5.6195555,3.1693292 5.5812331,3.1363714 5.5429106,3.1044435 Z M 17.827372,4.9027046 c 0.08197,-0.081365 0.126677,-0.1936272 0.119225,-0.3089796 v -0.062826 c -0.0064,-0.2801415 0.105387,-0.5489537 0.307644,-0.7467006 l 0.0096,-0.00927 c 0.06281,-0.063856 0.134129,-0.1163823 0.211838,-0.1586095 0.53332,0.4294815 1.021931,0.9094298 1.458381,1.4305753 -0.04258,0.077245 -0.09793,0.1472803 -0.160742,0.2090762 l -0.01065,0.00927 c -0.200128,0.1977469 -0.474772,0.3079496 -0.760061,0.3027999 l -0.06387,-0.00206 c -0.118161,-0.00618 -0.232064,0.036048 -0.314031,0.1184421 -0.0841,0.081365 -0.126677,0.1925973 -0.121355,0.3069197 l 0.0021,0.063856 c 0.0043,0.2842612 -0.107515,0.5561632 -0.310837,0.7580299 -0.200128,0.1936272 -0.469449,0.30177 -0.75048,0.2997101 l -0.07984,-0.00206 c -0.119225,-0.00927 -0.235257,0.033988 -0.320418,0.1174122 -0.0841,0.082395 -0.128806,0.1977469 -0.120289,0.3141292 l 0.0032,0.080335 c 0.0021,0.2749918 -0.10858,0.5386544 -0.305515,0.7333115 -0.199063,0.1936272 -0.469449,0.3028 -0.75048,0.3007401 l -0.07877,-0.00412 c -0.119225,-0.00721 -0.236322,0.035018 -0.320418,0.1174122 -0.08516,0.084454 -0.128806,0.1977469 -0.12029,0.3151592 l 0.0032,0.077245 c -0.0021,0.1802381 -0.0511,0.3573863 -0.140516,0.512906 -0.354482,-0.589121 -0.854802,-1.0783386 -1.454122,-1.4264556 0.158612,-0.089604 0.338514,-0.1369809 0.52161,-0.1380109 l 0.07984,0.00206 c 0.118161,0.00927 0.235257,-0.033988 0.320418,-0.1174122 0.0841,-0.082395 0.127741,-0.197747 0.119225,-0.3141293 l -0.0032,-0.078275 c -0.0032,-0.2749918 0.107516,-0.5396843 0.305515,-0.7343414 0.197999,-0.1946571 0.468385,-0.3038299 0.748352,-0.30177 l 0.08197,0.00309 c 0.118161,0.00824 0.235257,-0.033988 0.320418,-0.1174123 0.0841,-0.083425 0.128806,-0.1977469 0.12029,-0.3151591 L 16.37112,6.060348 C 16.368991,5.7853562 16.4797,5.5196337 16.677699,5.3239467 16.88315,5.1251698 17.159923,5.0149671 17.448406,5.0180569 l 0.06494,0.00103 c 0.0085,0.00103 0.01703,0.00103 0.02555,0.00103 0.107516,0 0.210773,-0.042227 0.288483,-0.1174122 z m -14.2570009,0.362536 -0.00958,-0.00927 C 3.4969198,5.1941753 3.4426297,5.1241399 3.3989848,5.046895 3.8375635,4.5257495 4.3261742,4.0458012 4.8584298,3.6163197 c 0.077709,0.042227 0.1490316,0.094754 0.2129023,0.1586095 l 0.00852,0.00927 c 0.2022572,0.1977469 0.3140309,0.4665591 0.3087083,0.7467006 l -0.00106,0.062826 c -0.00745,0.1163823 0.037258,0.2276149 0.1202898,0.3089796 0.081967,0.080335 0.1958701,0.1235918 0.3129663,0.1163823 l 0.064935,-0.00103 c 0.2884826,-0.00309 0.56632,0.1071129 0.7717707,0.3058898 0.1979992,0.195687 0.3076438,0.4614095 0.3055148,0.7364013 l -0.00319,0.077245 c -0.00852,0.1174122 0.036193,0.2317346 0.1202897,0.3151591 0.085161,0.083424 0.2022572,0.1256517 0.3214825,0.1174123 l 0.080903,-0.00309 c 0.2799665,-0.00206 0.5503524,0.1071129 0.749416,0.30177 0.1969346,0.1946571 0.3065793,0.4593496 0.3044503,0.7343414 l -0.00319,0.078275 c -0.00852,0.1163823 0.035129,0.2317347 0.1202897,0.3141293 0.084096,0.083424 0.2011927,0.1266816 0.320418,0.1174122 l 0.078774,-0.00206 c 0.183096,0.00103 0.3629984,0.048407 0.5216106,0.1380109 C 8.9759598,8.5970702 8.4756394,9.0862878 8.1211572,9.6754088 8.0296092,9.5198891 7.9817062,9.3427409 7.9806417,9.1625028 l 0.00213,-0.077245 C 7.9923513,8.9678456 7.9476418,8.8545531 7.8635454,8.7700987 7.779449,8.6877042 7.6612883,8.645477 7.542063,8.6526865 l -0.078774,0.00412 C 7.1822581,8.6588661 6.9118723,8.5496933 6.7128086,8.3560661 6.515874,8.161409 6.4041003,7.8977464 6.4072939,7.6227546 l 0.00319,-0.079305 C 6.4190035,7.4260376 6.374294,7.3106853 6.2901976,7.2282907 6.2061012,7.1448662 6.089005,7.1016091 5.9697797,7.1108785 l -0.078774,0.00206 C 5.6099749,7.1149982 5.339589,7.0068554 5.1405254,6.8132282 4.9372037,6.6113615 4.8243655,6.3394595 4.8286235,6.0551983 l 0.00213,-0.062826 C 4.8360751,5.8770201 4.7934947,5.7657875 4.7104628,5.6844228 4.6274309,5.6020283 4.5135282,5.5598011 4.3964319,5.5659807 l -0.064935,0.00206 c -0.00639,0 -0.01171,0 -0.017032,0 -0.2789019,0 -0.5460943,-0.1081428 -0.7440934,-0.3027999 z m 16.7788279,0.5674924 0.0043,-0.00206 -0.0011,-0.00103 c 0.03726,-0.033988 0.07026,-0.072095 0.104322,-0.1102027 0.885673,1.2441577 1.484993,2.6623739 1.754314,4.157835 -0.05216,-0.00412 -0.104322,-0.00927 -0.156483,-0.00927 -0.40132,0.00103 -0.791996,0.1266816 -1.113479,0.3625359 -0.659997,-0.4830379 -1.564831,-0.4830379 -2.225893,0 -0.659997,-0.4830379 -1.563767,-0.4830379 -2.225893,0 -0.15329,-0.112262 -0.323612,-0.200837 -0.506707,-0.2636624 0.0841,-0.166849 0.14158,-0.3439973 0.169257,-0.5283551 0.397063,-0.054586 0.767513,-0.2337945 1.051737,-0.5098163 h 0.0011 c 0.28316,-0.2801414 0.465191,-0.6426774 0.52161,-1.0330216 0.397063,-0.054586 0.765384,-0.2348245 1.050673,-0.5118762 h 0.0011 c 0.28316,-0.2801414 0.467321,-0.6426775 0.525869,-1.0340516 0.392805,-0.055616 0.757932,-0.2348244 1.037899,-0.5108462 l 0.0011,0.00103 z M 2.8773742,5.7194405 c 0.034064,0.038107 0.067064,0.076215 0.1043221,0.1102027 v 0.00103 l 0.00319,0.00206 0.00639,0.00721 0.00106,-0.00103 C 3.2733724,6.1149344 3.6374353,6.2941425 4.0313045,6.3497588 4.0887881,6.7411329 4.2740131,7.103669 4.5571731,7.3838104 4.8424622,7.6608621 5.2118476,7.8411002 5.6078458,7.8956866 5.6642649,8.2860308 5.8462964,8.6485668 6.1305209,8.9287082 6.41581,9.20473 6.7851954,9.3839381 7.1822581,9.4385245 7.2109999,9.6228823 7.267419,9.8000306 7.3515154,9.9668796 7.169484,10.029705 6.9980977,10.11828 6.8437435,10.230542 c -0.659997,-0.4830379 -1.5637672,-0.4830379 -2.2248287,0 -0.659997,-0.4830379 -1.5658962,-0.4830379 -2.2258933,0 C 2.0715391,9.9946877 1.6808634,9.869036 1.2795426,9.8680061 c -0.052161,0 -0.1043221,0.00515 -0.1564831,0.00927 C 1.3934454,8.3818144 1.9927653,6.9635982 2.8773742,5.7194405 Z M 12.895491,8.7258117 h -0.0011 l 0.06706,0.026778 c 0.781352,0.3285482 1.404091,0.9392978 1.738347,1.7055671 l 0.02768,0.06489 c 0.31616,0.773479 0.31616,1.637591 0,2.41004 l -0.02768,0.06489 c -0.334256,0.767299 -0.956995,1.378049 -1.738347,1.706597 l -0.06813,0.02678 0.0021,-0.001 c -0.788803,0.31207 -1.66809,0.31207 -2.456893,0 l 0.0021,0.001 -0.06813,-0.02678 C 9.5912474,14.376018 8.9695727,13.765268 8.6342516,12.997969 l -0.026613,-0.06489 c -0.3172244,-0.772449 -0.3172244,-1.636561 0,-2.41004 l 0.026613,-0.06489 C 8.9695727,9.6918877 9.5912474,9.0811381 10.372599,8.7525899 l 0.06706,-0.026778 h -0.0011 c 0.788803,-0.3100095 1.66809,-0.3100095 2.456893,0 z m 8.355349,2.3163163 c 0.200128,-0.230704 0.494998,-0.363565 0.803706,-0.365625 0.09155,0.0021 0.184161,0.01442 0.272515,0.0412 0.03406,0.333698 0.05642,0.671516 0.05642,1.010363 0,0.339878 -0.02235,0.677695 -0.05642,1.010363 -0.08835,0.02678 -0.180967,0.04017 -0.272515,0.0412 -0.308708,-0.001 -0.603578,-0.133892 -0.803706,-0.365626 -0.07771,-0.08651 -0.191612,-0.136981 -0.309773,-0.136981 -0.11816,0 -0.230999,0.05047 -0.309772,0.136981 -0.200129,0.231734 -0.492869,0.365626 -0.802642,0.365626 -0.310837,0 -0.604642,-0.133892 -0.803706,-0.365626 -0.07771,-0.08651 -0.191612,-0.136981 -0.309773,-0.136981 -0.117096,0 -0.230999,0.05047 -0.308708,0.136981 -0.201193,0.231734 -0.493933,0.365626 -0.803706,0.365626 -0.309773,0 -0.603578,-0.133892 -0.803706,-0.365626 -0.07771,-0.08651 -0.191612,-0.136981 -0.309773,-0.136981 -0.117096,0 -0.229935,0.05047 -0.308708,0.136981 -0.140516,0.156549 -0.322547,0.269842 -0.527998,0.325458 0.182032,-0.662246 0.182032,-1.35951 0,-2.021756 0.205451,0.05459 0.387482,0.167879 0.527998,0.324428 0.07877,0.08652 0.191612,0.136981 0.308708,0.136981 0.118161,0 0.232063,-0.05047 0.309773,-0.136981 0.200128,-0.231734 0.493933,-0.365625 0.803706,-0.365625 0.309773,0 0.602513,0.133891 0.803706,0.365625 0.07771,0.08755 0.190547,0.136981 0.308708,0.136981 0.118161,0 0.232064,-0.04944 0.309773,-0.136981 0.200128,-0.231734 0.492869,-0.365625 0.803706,-0.365625 0.309773,0 0.602513,0.133891 0.802642,0.365625 0.07877,0.08755 0.191612,0.136981 0.309772,0.136981 0.118161,0 0.232064,-0.04944 0.309773,-0.136981 z m -16.3232169,0 c 0.2011926,-0.231734 0.4949978,-0.365625 0.8037061,-0.365625 0.3097728,0 0.6035779,0.133891 0.803706,0.365625 0.077709,0.08755 0.1916121,0.136981 0.3097728,0.136981 0.1181608,0 0.230999,-0.04944 0.3097729,-0.136981 0.1394509,-0.156549 0.3225469,-0.269842 0.5269331,-0.324428 -0.1820315,0.662246 -0.1820315,1.35951 0,2.021756 C 7.4771278,12.68384 7.2940318,12.570547 7.1535163,12.413998 7.075807,12.328513 6.9629688,12.278047 6.8437435,12.277017 c -0.1170962,0.001 -0.2309989,0.0515 -0.3076438,0.136981 -0.2011926,0.231734 -0.4949977,0.365626 -0.8047705,0.365626 -0.3087083,0 -0.6025135,-0.133892 -0.8037061,-0.365626 -0.077709,-0.08651 -0.1905476,-0.136981 -0.3087083,-0.136981 -0.1181608,0 -0.230999,0.05047 -0.3097728,0.136981 -0.2001282,0.231734 -0.4928688,0.365626 -0.8037061,0.365626 -0.3087083,0 -0.6025134,-0.133892 -0.8026416,-0.365626 -0.078774,-0.08651 -0.1905475,-0.136981 -0.3097728,-0.136981 -0.1181607,0 -0.2309989,0.05047 -0.3097728,0.136981 -0.2011926,0.231734 -0.4939332,0.364596 -0.8037061,0.365626 -0.091548,-0.001 -0.1841604,-0.01442 -0.2725149,-0.0412 -0.0340643,-0.332668 -0.0564191,-0.670485 -0.0564191,-1.010363 0,-0.338847 0.0223547,-0.676665 0.0564191,-1.010363 0.088354,-0.02678 0.180967,-0.03914 0.2725149,-0.0412 0.3097729,0.0021 0.6025135,0.134921 0.8037061,0.365625 0.078774,0.08755 0.1916121,0.136981 0.3097728,0.136981 0.1192253,0 0.230999,-0.04944 0.3097728,-0.136981 0.2001282,-0.231734 0.4939333,-0.365625 0.8026416,-0.365625 0.3108373,0 0.6035779,0.133891 0.8037061,0.365625 0.078774,0.08755 0.191612,0.136981 0.3097728,0.136981 0.1181607,0 0.2309989,-0.04944 0.3087083,-0.136981 z m 16.0134439,2.184486 c 0.321483,0.234824 0.712159,0.362536 1.113479,0.362536 0.05216,0 0.104322,-0.0062 0.156483,-0.0093 -0.269321,1.494431 -0.868641,2.912647 -1.754314,4.157834 -0.03406,-0.03811 -0.06706,-0.07519 -0.104322,-0.111232 h 0.0011 l -0.0043,-0.0041 -0.0064,-0.0062 -0.0011,0.0021 c -0.279967,-0.276021 -0.645094,-0.455229 -1.037899,-0.511876 -0.05855,-0.391374 -0.243773,-0.75391 -0.525869,-1.034051 h -0.0011 c -0.285289,-0.277052 -0.65361,-0.45626 -1.050673,-0.510847 -0.112838,-0.802316 -0.755803,-1.434695 -1.574412,-1.543867 -0.02768,-0.183328 -0.08516,-0.361507 -0.169257,-0.528355 0.183095,-0.0618 0.353417,-0.15037 0.506707,-0.262633 0.659997,0.483038 1.565896,0.483038 2.225893,0 0.329999,0.242034 0.721739,0.362536 1.112415,0.362536 0.39174,0 0.782415,-0.120502 1.113478,-0.362536 z m -14.096259,0 c 0.1532897,0.112263 0.324676,0.200837 0.5067074,0.262633 -0.084096,0.166848 -0.1405155,0.345027 -0.1692573,0.528355 -0.8186092,0.109172 -1.4626386,0.741551 -1.5744123,1.543867 -0.8175447,0.110203 -1.4626386,0.741551 -1.5765413,1.544898 -0.3938692,0.05665 -0.7579321,0.235855 -1.0389631,0.511876 l -0.00106,-0.0021 -0.00639,0.0062 -0.00319,0.0041 c -0.037258,0.03605 -0.070258,0.07313 -0.1043221,0.111232 -0.8846089,-1.245187 -1.4839288,-2.663403 -1.7543147,-4.157834 0.052161,0.0031 0.1043221,0.0093 0.1564831,0.0093 0.4013208,0 0.7919965,-0.127712 1.1134789,-0.362536 0.6599971,0.483038 1.5658963,0.483038 2.2258933,0 0.3299985,0.242034 0.7206742,0.362536 1.1124144,0.362536 0.3917401,0 0.7834803,-0.120502 1.1134788,-0.362536 z m 6.915066,1.981589 c 0.59932,-0.347087 1.09964,-0.839395 1.454122,-1.426456 0.08942,0.15552 0.138387,0.332668 0.140516,0.512906 l -0.0032,0.07621 c -0.0085,0.118442 0.03513,0.232765 0.12029,0.315159 0.0841,0.0824 0.201193,0.125652 0.320418,0.117413 l 0.07877,-0.0031 c 0.281031,-0.0031 0.551417,0.106083 0.749416,0.29971 0.197999,0.194657 0.308708,0.45832 0.306579,0.734341 l -0.0032,0.0793 c -0.0085,0.117412 0.03619,0.232765 0.120289,0.316189 0.08516,0.0824 0.201193,0.124622 0.320418,0.117412 l 0.07984,-0.0041 c 0.281031,-0.001 0.550352,0.107113 0.75048,0.30074 0.203322,0.200837 0.315095,0.473768 0.310837,0.757 l -0.0021,0.06489 c -0.0053,0.113293 0.03726,0.225556 0.121355,0.30692 0.08197,0.08137 0.19587,0.124622 0.314031,0.118442 l 0.06281,-0.0021 c 0.286353,-0.0051 0.560997,0.105053 0.761125,0.3028 l 0.01065,0.0093 c 0.06387,0.0618 0.118161,0.131831 0.160742,0.208046 -0.43645,0.522176 -0.925061,1.002124 -1.458381,1.431605 -0.07771,-0.04223 -0.149031,-0.09578 -0.211838,-0.158609 l -0.0096,-0.0103 c -0.202257,-0.196717 -0.314031,-0.46656 -0.307644,-0.745671 v -0.06283 c 0.0075,-0.115352 -0.03619,-0.227615 -0.119225,-0.30898 -0.08303,-0.08033 -0.196935,-0.124621 -0.314031,-0.117412 l -0.06494,0.0021 c -0.288483,0.0031 -0.565256,-0.107113 -0.770707,-0.30589 C 16.4797,17.937522 16.368991,17.6718 16.37112,17.396808 l 0.0032,-0.07828 c 0.0085,-0.116382 -0.03619,-0.231734 -0.12029,-0.314129 -0.08516,-0.08342 -0.202257,-0.125652 -0.320418,-0.117412 l -0.08197,0.0031 c -0.279967,0.0021 -0.550353,-0.107113 -0.748352,-0.301771 -0.197999,-0.195687 -0.308708,-0.459349 -0.305515,-0.735371 l 0.0032,-0.07724 c 0.0085,-0.117412 -0.03513,-0.231734 -0.119225,-0.314129 -0.08516,-0.08342 -0.202257,-0.126682 -0.320418,-0.118442 l -0.07984,0.0031 c -0.183096,-0.001 -0.362998,-0.04944 -0.52161,-0.138011 z M 7.8635454,14.686027 c 0.084096,-0.08342 0.1288059,-0.197746 0.1192253,-0.315159 l -0.00213,-0.07621 c 0.00106,-0.180238 0.048967,-0.357386 0.1405155,-0.512906 0.3544822,0.587061 0.8548026,1.079369 1.453058,1.426456 -0.1586122,0.08857 -0.3385146,0.136981 -0.5216106,0.138011 l -0.079838,-0.0031 c -0.1181607,-0.0082 -0.235257,0.03502 -0.3193534,0.118442 -0.085161,0.0824 -0.1288058,0.196717 -0.1202897,0.314129 l 0.00319,0.07724 c 0.00213,0.276022 -0.1085802,0.540714 -0.3055148,0.736401 -0.1990636,0.193628 -0.468385,0.3028 -0.7483515,0.300741 l -0.080903,-0.0031 c -0.1192253,-0.0082 -0.2363215,0.03399 -0.3214825,0.116382 -0.084096,0.08342 -0.1288058,0.198777 -0.1202897,0.315159 l 0.00319,0.07828 c 0.00213,0.274992 -0.1075156,0.540714 -0.3055148,0.736401 -0.2054507,0.198777 -0.4832881,0.30898 -0.7717707,0.30589 l -0.064935,-0.0021 c -0.1170962,-0.0062 -0.230999,0.03708 -0.3129663,0.117412 -0.083032,0.08136 -0.1277414,0.193628 -0.1202898,0.30795 l 0.00106,0.06386 c 0.00532,0.279111 -0.1064511,0.548954 -0.3087083,0.745671 l -0.00852,0.0103 c -0.063871,0.06283 -0.1351929,0.116382 -0.2129023,0.158609 -0.2671923,-0.216285 -0.524804,-0.439781 -0.7675126,-0.678725 -0.1511607,-0.14728 -0.2959342,-0.29765 -0.4375142,-0.4542 -0.08729,-0.09681 -0.1703218,-0.198777 -0.2544182,-0.29868 0.043645,-0.07621 0.097935,-0.14728 0.1618057,-0.208046 l 0.010645,-0.0093 c 0.2011927,-0.197747 0.4747721,-0.307949 0.7611256,-0.3028 l 0.063871,0.0021 c 0.1170963,0.0062 0.230999,-0.03708 0.3140309,-0.118442 0.083032,-0.08136 0.1256123,-0.193627 0.1202897,-0.307949 l -0.00213,-0.06386 c -0.00426,-0.283232 0.1085802,-0.556163 0.3119019,-0.757 0.1990636,-0.193627 0.4694495,-0.30177 0.7504805,-0.30074 l 0.078774,0.0041 c 0.1192253,0.0072 0.2363215,-0.03502 0.3204179,-0.117412 0.084096,-0.08342 0.1288059,-0.198777 0.1202898,-0.316189 l -0.00319,-0.0793 C 6.4041003,15.55838 6.515874,15.294717 6.7149377,15.10006 6.9129368,14.906433 7.1822581,14.79726 7.4632891,14.80035 l 0.078774,0.0031 c 0.00958,0.001 0.020226,0.001 0.029806,0.001 0.1085802,0 0.2139668,-0.04223 0.2916761,-0.118443 z m 4.8339466,0.952687 c -0.05642,0.200837 -0.171387,0.381075 -0.331063,0.518056 -0.08942,0.07621 -0.139451,0.187448 -0.139451,0.30383 0,0.115352 0.05003,0.225555 0.139451,0.3028 0.236321,0.196717 0.372578,0.485098 0.372578,0.788928 0,0.30383 -0.136257,0.592211 -0.372578,0.788928 -0.08942,0.07621 -0.139451,0.186417 -0.139451,0.302799 0,0.116383 0.05003,0.227615 0.139451,0.30486 0.236321,0.194657 0.372578,0.484068 0.372578,0.786868 0,0.30486 -0.136257,0.593241 -0.372578,0.788928 -0.08942,0.07622 -0.139451,0.187448 -0.139451,0.30383 0,0.115352 0.05003,0.226585 0.139451,0.3028 0.234192,0.197747 0.370449,0.486128 0.372578,0.788928 -0.0011,0.09063 -0.0149,0.181268 -0.04152,0.268812 -0.33958,0.03193 -0.684481,0.05459 -1.030448,0.05459 -0.344901,0 -0.689803,-0.02266 -1.030446,-0.05459 -0.02661,-0.08754 -0.03939,-0.178178 -0.04045,-0.268812 0.0011,-0.3028 0.137322,-0.591181 0.371514,-0.788928 0.08942,-0.07621 0.139452,-0.187448 0.139452,-0.3028 0,-0.116382 -0.05003,-0.227615 -0.139452,-0.30383 -0.235256,-0.195687 -0.371514,-0.484068 -0.371514,-0.788928 0,-0.3028 0.136258,-0.592211 0.371514,-0.786868 0.08942,-0.07724 0.139452,-0.188477 0.139452,-0.30486 0,-0.116382 -0.05003,-0.226585 -0.139452,-0.302799 -0.235256,-0.196717 -0.371514,-0.485098 -0.371514,-0.788928 0,-0.30383 0.136258,-0.592211 0.371514,-0.788928 0.08942,-0.07725 0.139452,-0.187448 0.139452,-0.3028 0,-0.116382 -0.05003,-0.227615 -0.139452,-0.30383 -0.158612,-0.136981 -0.273579,-0.317219 -0.331062,-0.518056 0.33745,0.0896 0.683416,0.133891 1.030446,0.133891 0.347031,0 0.692997,-0.04429 1.030448,-0.133891 z m 0.865447,6.281555 c 0,-0.393434 -0.12987,-0.775539 -0.368321,-1.091728 0.491805,-0.647827 0.491805,-1.536658 0,-2.184486 0.491805,-0.647827 0.491805,-1.535628 0,-2.183455 0.113903,-0.15243 0.204387,-0.319279 0.267193,-0.496427 0.170322,0.08136 0.351288,0.136981 0.538642,0.165819 0.11071,0.802317 0.754739,1.433665 1.573348,1.542838 0.112838,0.803347 0.754739,1.435725 1.574412,1.547987 0.05748,0.386225 0.24058,0.744641 0.520546,1.019633 v 0.001 l 0.0075,0.0051 0.0021,0.0052 v -0.001 c 0.03726,0.03605 0.07558,0.07004 0.113903,0.101963 -1.268898,0.868233 -2.715569,1.457354 -4.238884,1.721017 0.0053,-0.05047 0.01065,-0.101964 0.0096,-0.15346 z m -7.9039966,-1.67364 0.00639,-0.0051 v -0.001 c 0.281031,-0.274992 0.4630624,-0.633408 0.520546,-1.019633 0.3991918,-0.05665 0.7685772,-0.237914 1.0538663,-0.515995 0.28316,-0.280142 0.4651914,-0.641648 0.5216105,-1.031992 0.3970628,-0.05356 0.7664482,-0.233795 1.0517373,-0.511876 0.2820955,-0.280142 0.4641269,-0.641648 0.520546,-1.030962 0.187354,-0.02884 0.3693854,-0.08446 0.5386428,-0.165819 0.063871,0.177148 0.1532896,0.345027 0.2671926,0.496427 -0.49074,0.647827 -0.49074,1.535628 0,2.183455 -0.49074,0.647828 -0.49074,1.536659 0,2.184486 -0.2384508,0.316189 -0.3672567,0.698294 -0.3683212,1.091728 0,0.0515 0.00532,0.102993 0.00958,0.15346 -1.5233158,-0.263663 -2.9699867,-0.852784 -4.2378198,-1.721017 0.038323,-0.03193 0.076645,-0.06592 0.1117737,-0.101963 l 0.00106,0.001 z"
       id="path-3"
       inkscape:connector-curvature="0" />
    <path
       d="m 0.19054753,1.8796257 c 0,1.027872 0.84841557,1.8610868 1.89589477,1.8610868 1.0474791,0 1.8958947,-0.8332148 1.8958947,-1.8610868 0,-1.02787205 -0.8484156,-1.86005699 -1.8958947,-1.86005699 -1.0474792,0 -1.89589477,0.83218494 -1.89589477,1.86005699 z m 0.82499627,0 c 0,-0.5798517 0.4800947,-1.04950061 1.0708985,-1.05156048 0.5918683,0 1.0719629,0.47067888 1.0719629,1.05156048 0,0.5819115 -0.4800946,1.0515604 -1.0719629,1.0515604 -0.5918684,0 -1.0708985,-0.4696489 -1.0708985,-1.0515604 z"
       id="path-5"
       inkscape:connector-curvature="0" />
  </defs>
  <g
     style="fill:none;fill-rule:evenodd;stroke:none;stroke-width:1"
     transform="translate(4.8987728,-0.784739)"
     id="Group-4">
    <mask
       fill="white"
       id="mask-2">
      <use
         height="100%"
         width="100%"
         y="0"
         x="0"
         id="use11"
         xlink:href="#path-1" />
    </mask>
    <use
       height="100%"
       width="100%"
       y="0"
       x="0"
       style="fill:#5e5e5e;stroke:#152631;stroke-width:0.2"
       xlink:href="#path-1"
       id="Clip-2" />
    <polygon
       style="fill:#152631;stroke:#152631;stroke-width:1.5"
       points="-4.8041398,42.793669 43.040323,42.793669 43.040323,-4.0167343 -4.8041398,-4.0167343 "
       mask="url(#mask-2)"
       id="Fill-1" />
    <polygon
       style="stroke:#152631;stroke-width:4.30000019"
       points="-4.8041398,42.793669 43.040323,42.793669 43.040323,-4.0167343 -4.8041398,-4.0167343 "
       mask="url(#mask-2)"
       id="Stroke-3" />
  </g>
  <path
     style="fill:none;fill-rule:evenodd;stroke:none;stroke-width:1"
     inkscape:connector-curvature="0"
     id="Stroke-8"
     d="m 6.9533868,20.464712 c 0.400256,0 0.790932,-0.127711 1.112414,-0.362536 0.322547,0.234825 0.712158,0.362536 1.113479,0.362536 0.155419,-10e-4 0.309773,-0.02163 0.459869,-0.0618 0.318289,2.518184 1.3263812,4.903506 2.9167612,6.903634 -0.136258,0.07725 -0.26187,0.170968 -0.373644,0.279111 -0.28316,0.279112 -0.465191,0.640618 -0.52161,1.030962 -0.398127,0.05356 -0.767513,0.233795 -1.051737,0.511876 -0.7409002,0.727132 -0.7409002,1.905374 0,2.632506 0.740899,0.726102 1.941668,0.726102 2.682568,0 0.284225,-0.279112 0.467321,-0.641647 0.521611,-1.031992 0.398127,-0.05562 0.766448,-0.234824 1.051737,-0.511876 0.109645,-0.110203 0.205451,-0.232764 0.28316,-0.366656 2.038539,1.560347 4.469883,2.549082 7.03642,2.861151 -0.04045,0.14728 -0.06174,0.29971 -0.06281,0.45214 0.0011,0.393434 0.12987,0.775539 0.369385,1.091728 -0.239515,0.316189 -0.368321,0.698294 -0.369385,1.091728 0,1.027872 0.848415,1.861087 1.895895,1.861087 1.047479,0 1.895894,-0.833215 1.895894,-1.861087 0,-0.393434 -0.12987,-0.775539 -0.369385,-1.091728 0.239515,-0.316189 0.369385,-0.698294 0.369385,-1.091728 -0.0011,-0.15243 -0.02129,-0.30486 -0.06281,-0.45214 2.566537,-0.312069 4.997881,-1.300804 7.03642,-2.861151 0.07771,0.133892 0.173516,0.256453 0.28316,0.366656 0.285289,0.277052 0.654675,0.45626 1.051738,0.511876 0.05429,0.390345 0.237386,0.75288 0.52161,1.031992 0.7409,0.725072 1.941669,0.725072 2.682569,0 l -0.291676,-0.286321 0.291676,0.286321 c 0.739835,-0.727132 0.739835,-1.905374 0,-2.632506 -0.284225,-0.278081 -0.65361,-0.458319 -1.051738,-0.511876 -0.05642,-0.390344 -0.23845,-0.75185 -0.520545,-1.030962 -0.112839,-0.108143 -0.238451,-0.201866 -0.374708,-0.279111 1.591444,-2.000128 2.598472,-4.38545 2.916761,-6.903634 0.150096,0.04017 0.30445,0.06077 0.459869,0.0618 0.40132,0 0.790931,-0.127711 1.113478,-0.362536 0.321483,0.234825 0.711094,0.362536 1.112415,0.362536 1.046414,0 1.895894,-0.833215 1.895894,-1.861087 0,-1.026842 -0.84948,-1.860057 -1.895894,-1.860057 -0.401321,0.001 -0.790932,0.127712 -1.112415,0.362536 -0.322547,-0.234824 -0.712158,-0.361506 -1.113478,-0.362536 -0.155419,0.001 -0.309773,0.02163 -0.459869,0.0618 -0.318289,-2.518183 -1.325317,-4.903505 -2.916761,-6.903633 0.136257,-0.07724 0.261869,-0.170969 0.374708,-0.279111 0.282095,-0.279112 0.464126,-0.640618 0.520545,-1.030962 0.398128,-0.05356 0.767513,-0.233795 1.051738,-0.511876 0.739835,-0.727132 0.739835,-1.905374 0,-2.632506 -0.7409,-0.726102 -1.941669,-0.726102 -2.682569,0 -0.284224,0.279111 -0.46732,0.641647 -0.52161,1.031992 -0.397063,0.05562 -0.766449,0.233794 -1.051738,0.511876 v -0.001 c -0.109644,0.110202 -0.20545,0.233794 -0.28316,0.367685 -2.038539,-1.560346 -4.469883,-2.549081 -7.03642,-2.86115 0.04152,-0.147281 0.06174,-0.299711 0.06281,-0.452141 0,-0.393433 -0.12987,-0.776568 -0.369385,-1.091727 C 25.783524,2.636626 25.913394,2.253491 25.913394,1.8600569 25.913394,0.8332149 25.064979,0 24.0175,0 c -1.04748,0 -1.895895,0.8332149 -1.895895,1.8600569 0.0011,0.3934341 0.12987,0.7765691 0.369385,1.0927581 -0.239515,0.315159 -0.368321,0.698294 -0.369385,1.091727 0.0011,0.15243 0.02235,0.30486 0.06281,0.452141 -2.566537,0.312069 -4.997881,1.300804 -7.03642,2.86115 C 15.070285,7.223942 14.97448,7.10035 14.864835,6.990148 14.579546,6.714126 14.211225,6.534918 13.813098,6.479301 13.758808,6.088957 13.575712,5.726421 13.291487,5.44731 c -0.7409,-0.726102 -1.941669,-0.726102 -2.682568,0 -0.7398362,0.727132 -0.7398362,1.905374 0,2.632506 0.284224,0.278081 0.65361,0.458319 1.051737,0.511876 0.05642,0.390344 0.23845,0.75185 0.52161,1.030962 0.111774,0.108142 0.237386,0.201866 0.373644,0.279111 -1.59038,2.000128 -2.5984722,4.38545 -2.9167612,6.903633 -0.150096,-0.04017 -0.30445,-0.06077 -0.459869,-0.0618 -0.401321,0.001 -0.790932,0.127712 -1.113479,0.362536 -0.321482,-0.234824 -0.712158,-0.361506 -1.112414,-0.362536 -1.04748,0 -1.8958952,0.833215 -1.8958952,1.860057 0,1.027872 0.8484152,1.861087 1.8958952,1.861087 z m 6.5776152,9.481553 -0.07877,-0.0031 c -0.119225,-0.0082 -0.236321,0.03399 -0.320417,0.117412 -0.08516,0.08239 -0.128806,0.197747 -0.12029,0.31516 l 0.0032,0.08136 c 0.0032,0.274992 -0.107515,0.538655 -0.306579,0.732282 -0.418353,0.410943 -1.097511,0.410943 -1.516929,0 -0.418353,-0.410943 -0.418353,-1.077309 0,-1.489282 0.197999,-0.194657 0.466256,-0.3028 0.746223,-0.29971 l 0.08303,0.0031 c 0.119225,0.0082 0.236321,-0.03502 0.321482,-0.118442 0.0841,-0.08239 0.127741,-0.196717 0.119225,-0.314129 l -0.0032,-0.07725 c -0.0021,-0.276022 0.10858,-0.540715 0.306579,-0.736402 0.09155,-0.0896 0.200128,-0.160669 0.319354,-0.211136 0.435385,0.496428 0.906963,0.958867 1.412606,1.386289 -0.0511,0.116382 -0.124548,0.222465 -0.215031,0.313099 -0.199064,0.194657 -0.46945,0.3028 -0.750481,0.30074 z m 11.243369,6.143544 c -0.275708,0.273962 -0.681287,0.377985 -1.058124,0.270872 -0.376837,-0.107113 -0.663191,-0.407853 -0.746223,-0.784808 -0.08303,-0.375925 0.0511,-0.76627 0.348096,-1.016543 0.08942,-0.07724 0.139451,-0.187448 0.139451,-0.30383 0,-0.116382 -0.05003,-0.226585 -0.139451,-0.3028 -0.235257,-0.197747 -0.37045,-0.485098 -0.372579,-0.788928 0.0021,-0.124622 0.02874,-0.248213 0.07771,-0.362536 0.332128,0.02472 0.66532,0.03914 0.994254,0.03914 0.329998,0 0.662126,-0.01442 0.994253,-0.03914 0.04897,0.114323 0.07558,0.237914 0.07771,0.362536 -0.0011,0.30383 -0.137322,0.591181 -0.372579,0.788928 -0.08835,0.07621 -0.139451,0.186418 -0.139451,0.3028 0,0.116382 0.0511,0.226585 0.139451,0.30383 0.225676,0.188477 0.360869,0.461409 0.371514,0.75288 0.01065,0.291471 -0.103258,0.573672 -0.314031,0.777599 z m 10.919758,-6.80373 c 0.0841,0.08239 0.201192,0.125651 0.320418,0.117412 l 0.08303,-0.0031 c 0.279966,-0.0031 0.549288,0.105053 0.746222,0.30074 0.417288,0.410943 0.417288,1.076279 0,1.488252 -0.419417,0.409913 -1.098576,0.409913 -1.516929,0 -0.199063,-0.193627 -0.309772,-0.45729 -0.306579,-0.732282 l 0.0032,-0.08136 c 0.0085,-0.117413 -0.03513,-0.232765 -0.12029,-0.31516 -0.0841,-0.08342 -0.201193,-0.125651 -0.319354,-0.117412 l -0.07984,0.0031 c -0.279966,0.0021 -0.550352,-0.106083 -0.75048,-0.30074 -0.09048,-0.09063 -0.162871,-0.196717 -0.215032,-0.313099 0.505643,-0.427422 0.977222,-0.889861 1.412607,-1.386289 0.119225,0.05047 0.226741,0.121532 0.319353,0.211136 0.197999,0.195687 0.307644,0.46038 0.305515,0.736402 l -0.0021,0.07725 c -0.0085,0.117412 0.03513,0.231734 0.12029,0.315159 z m 3.965305,-11.368388 c 0.07771,0.08754 0.191612,0.136981 0.309772,0.136981 0.118161,0 0.230999,-0.04944 0.308709,-0.136981 0.293805,-0.332668 0.765383,-0.45317 1.184801,-0.29971 0.420482,0.153459 0.699384,0.546893 0.699384,0.985644 0,0.439781 -0.278902,0.833215 -0.699384,0.986675 -0.419418,0.15243 -0.892061,0.03296 -1.184801,-0.29971 -0.07771,-0.08754 -0.190548,-0.136981 -0.308709,-0.136981 -0.11816,0 -0.232063,0.04944 -0.309772,0.136981 -0.200129,0.229675 -0.493934,0.363566 -0.803706,0.364596 -0.126677,-0.0021 -0.25229,-0.02678 -0.369386,-0.07518 0.02555,-0.326489 0.04045,-0.652977 0.04045,-0.976376 0,-0.323398 -0.0149,-0.649887 -0.04045,-0.975345 0.117096,-0.04841 0.242709,-0.07415 0.369386,-0.07621 0.309772,0.0021 0.603577,0.134921 0.803706,0.365626 z M 33.753525,7.562756 c 0.200128,-0.194657 0.470514,-0.3028 0.75048,-0.30074 l 0.07984,0.0031 c 0.118161,0.0082 0.235257,-0.03502 0.319354,-0.117413 0.08516,-0.08342 0.128806,-0.197747 0.12029,-0.315159 l -0.0032,-0.08137 c -0.0032,-0.274991 0.107516,-0.538654 0.306579,-0.732281 0.418353,-0.408883 1.096447,-0.408883 1.515865,0.0021 0.417288,0.409913 0.418352,1.075249 0.0011,1.486191 -0.196934,0.195687 -0.466256,0.30383 -0.746222,0.300741 l -0.08303,-0.0031 c -0.119226,-0.0082 -0.236322,0.03502 -0.320418,0.117412 -0.08516,0.08342 -0.128806,0.197747 -0.12029,0.315159 l 0.0021,0.07725 c 0.0021,0.276022 -0.107516,0.540714 -0.305515,0.736401 -0.09261,0.08857 -0.200128,0.160669 -0.319353,0.211136 -0.43539,-0.495397 -0.906969,-0.959896 -1.412612,-1.386288 0.0511,-0.116382 0.124548,-0.222465 0.215032,-0.313099 z M 23.260636,1.1184721 C 23.536344,0.8445102 23.941923,0.7404871 24.31876,0.8476 c 0.376837,0.1071129 0.663191,0.408883 0.746223,0.7837782 0.08303,0.376955 -0.05003,0.7662698 -0.348095,1.0175728 -0.08835,0.07621 -0.139451,0.187448 -0.139451,0.30383 0,0.115352 0.0511,0.226585 0.139451,0.3028 0.235257,0.197747 0.371514,0.485098 0.372579,0.788928 -0.0021,0.124621 -0.02874,0.247183 -0.07771,0.362536 -0.332127,-0.02472 -0.664255,-0.03914 -0.994253,-0.03914 -0.328934,0 -0.662126,0.01442 -0.994254,0.03914 -0.04897,-0.115353 -0.07558,-0.237915 -0.07771,-0.362536 0.0021,-0.30383 0.137322,-0.591181 0.372579,-0.788928 0.08942,-0.07621 0.139451,-0.187448 0.139451,-0.3028 0,-0.116382 -0.05003,-0.227615 -0.139451,-0.30383 C 23.092443,2.460473 22.95725,2.1865115 22.946605,1.8960707 22.93596,1.6045999 23.049863,1.3234285 23.260636,1.1184721 Z M 12.341943,7.922202 C 12.256783,7.839802 12.14075,7.79655 12.020461,7.80479 l -0.08303,0.0031 c -0.279967,0.0031 -0.548224,-0.105053 -0.746223,-0.30074 -0.418353,-0.410943 -0.418353,-1.076279 0,-1.488252 0.419418,-0.410943 1.098576,-0.410943 1.516929,0 0.199064,0.193627 0.309773,0.45729 0.306579,0.732282 l -0.0032,0.08136 c -0.0085,0.117412 0.03513,0.231734 0.12029,0.315159 0.0841,0.0824 0.201192,0.125652 0.320417,0.117412 l 0.07877,-0.0031 c 0.281031,-0.0021 0.551417,0.106083 0.750481,0.30074 0.09048,0.09063 0.163934,0.196717 0.215031,0.3131 -0.505634,0.426391 -0.977212,0.89089 -1.412597,1.386287 C 12.964682,9.211668 12.856102,9.139576 12.764554,9.051002 12.566555,8.855315 12.455846,8.590623 12.457975,8.314601 l 0.0032,-0.07725 c 0.0085,-0.117412 -0.03514,-0.231734 -0.119232,-0.315159 z m -1.951249,9.500092 c 0.236321,-2.736529 1.332768,-5.332988 3.139244,-7.430959 l 0.0032,-0.0041 c 0.51203,-0.608689 1.082608,-1.167942 1.703218,-1.670549 l 0.0032,-0.0031 C 17.377095,6.541073 20.024535,5.464794 22.813554,5.23306 l 0.0096,-0.001 c 0.794125,-0.07415 1.594638,-0.07415 2.388763,0 l 0.0096,0.001 c 2.78902,0.231734 5.436459,1.308013 7.573998,3.080526 l 0.0043,0.0031 c 0.619546,0.502607 1.190124,1.06186 1.702154,1.670549 l 0.0032,0.0041 c 1.806475,2.097971 2.903987,4.69443 3.139244,7.430959 l 0.0011,0.0103 c 0.07558,0.778628 0.07558,1.563436 0,2.343095 l -0.0011,0.0093 c -0.235257,2.737559 -1.332769,5.334017 -3.139244,7.431989 l -0.0032,0.0041 c -0.51203,0.60766 -1.082608,1.167943 -1.702154,1.67055 l -0.0043,0.0031 c -2.137539,1.772512 -4.784978,2.848791 -7.573998,3.079496 l -0.0096,0.001 c -0.794125,0.07518 -1.594638,0.07518 -2.388763,0 l -0.0096,-0.001 c -2.789032,-0.230728 -5.436472,-1.307007 -7.574011,-3.079519 l -0.0032,-0.0031 c -0.62061,-0.502607 -1.191188,-1.06289 -1.703218,-1.67055 l -0.0032,-0.0041 c -1.806476,-2.097972 -2.902923,-4.69443 -3.139244,-7.431989 v -0.0093 c -0.07664,-0.779659 -0.07664,-1.564467 0,-2.343095 z m -4.1941752,0.43978 c 0.208644,-0.208046 0.496062,-0.319278 0.793061,-0.308979 0.295934,0.01133 0.574836,0.14316 0.767513,0.364596 0.07771,0.08754 0.190547,0.136981 0.308708,0.136981 0.119225,0 0.230999,-0.04944 0.309773,-0.136981 0.201192,-0.230705 0.493933,-0.363566 0.803706,-0.365626 0.126677,0.0021 0.252289,0.02781 0.369385,0.07621 -0.02555,0.325458 -0.04045,0.651947 -0.04045,0.975345 0,0.323399 0.0149,0.649887 0.04045,0.976376 -0.117096,0.04841 -0.242708,0.07312 -0.369385,0.07518 -0.309773,-0.001 -0.602514,-0.134921 -0.803706,-0.364596 -0.07877,-0.08754 -0.190548,-0.136981 -0.309773,-0.136981 -0.118161,0 -0.230999,0.04944 -0.308708,0.136981 -0.255483,0.290451 -0.652546,0.420222 -1.034705,0.337828 -0.383224,-0.08136 -0.688739,-0.361506 -0.798384,-0.730222 -0.10858,-0.367686 -0.0043,-0.766269 0.272515,-1.036112 z" />
  <g
     style="fill:none;fill-rule:evenodd;stroke:none;stroke-width:1"
     transform="translate(12.350353,6.875665)"
     id="Group-12">
    <mask
       fill="white"
       id="mask-4">
      <use
         height="100%"
         width="100%"
         y="0"
         x="0"
         id="use19"
         xlink:href="#path-3" />
    </mask>
    <use
       height="100%"
       width="100%"
       y="0"
       x="0"
       style="fill:#152631;stroke:#152631;stroke-width:0.1"
       xlink:href="#path-3"
       id="Clip-11" />
    <polygon
       style="fill:#152631;stroke:#000000;stroke-width:2"
       points="-4.8360751,27.853706 28.171229,27.853706 28.171229,-4.3965503 -4.8360751,-4.3965503 "
       mask="url(#mask-4)"
       id="Fill-10" />
  </g>
  <g
     style="fill:none;fill-rule:evenodd;stroke:none;stroke-width:1"
     transform="translate(21.930955,16.724103)"
     id="Group-15">
    <mask
       fill="white"
       id="mask-6">
      <use
         height="100%"
         width="100%"
         y="0"
         x="0"
         id="use25"
         xlink:href="#path-5" />
    </mask>
    <use
       height="100%"
       width="100%"
       y="0"
       x="0"
       style="fill:#152631"
       xlink:href="#path-5"
       id="Clip-14" />
    <polygon
       style="fill:#152631"
       points="-4.7722044,8.541225 8.945089,8.541225 8.945089,-4.7819737 -4.7722044,-4.7819737 "
       mask="url(#mask-6)"
       id="Fill-13" />
  </g>
  <g
     style="fill:none;fill-rule:evenodd;stroke:none;stroke-width:1"
     transform="translate(0.19363281,37.215261)"
     id="Group-30">
    <polygon
       style="fill:#152631;stroke:#e3e3e3;stroke-width:0.40000001"
       points="16.186191,5.411333 0.081198561,4.6207791 0.017327879,5.7599316 16.121256,6.5504855 "
       id="Fill-16" />
    <path
       style="fill:#152631"
       inkscape:connector-curvature="0"
       id="Fill-18"
       d="M 23.867303,6.5237696 C 21.73828,2.5213419 11.041005,0.37711322 0.90792174,0.37711322 V 2.0605164 c 12.66768526,0 21.51377426,3.0956743 21.61809626,5.8924079 H 0.90792174 V 9.6363275 H 23.527724 V 7.474222 c 0.05855,-0.3287354 0.176708,-0.6435665 0.339579,-0.9504524" />
    <path
       style="stroke:#e3e3e3;stroke-width:0.60000002"
       inkscape:connector-curvature="0"
       id="Stroke-20"
       d="M 23.867303,6.5237696 C 21.73828,2.5213419 11.041005,0.37711322 0.90792174,0.37711322 V 2.0605164 c 12.66768526,0 21.51377426,3.0956743 21.61809626,5.8924079 H 0.90792174 V 9.6363275 H 23.527724 V 7.474222 c 0.05855,-0.3287354 0.176708,-0.6435665 0.339579,-0.9504524 z" />
    <polygon
       style="fill:#152631;stroke:#e3e3e3;stroke-width:0.30000001"
       points="31.612711,6.5509821 47.717703,5.7604282 47.652768,4.6202825 31.547776,5.4118296 "
       id="Fill-22" />
    <path
       style="fill:#152631;stroke:#e3e3e3;stroke-width:0.60000002"
       inkscape:connector-curvature="0"
       id="Fill-24"
       d="m 23.401283,6.5237696 c 0.162871,0.3068859 0.282096,0.621717 0.339579,0.9504524 V 9.6363275 H 46.360664 V 7.9529243 H 24.743632 C 24.84689,5.1561907 33.692979,2.0605164 46.360664,2.0605164 V 0.37711322 c -10.133083,0 -20.830358,2.14422868 -22.959381,6.14665638" />
    <rect
       style="fill:#58646c"
       height="1"
       width="7.9223299"
       y="8.26087"
       x="22.834951"
       id="Rectangle-4" />
    <rect
       style="fill:#58646c"
       height="1.7391304"
       width="1"
       y="6.521739"
       x="23.30097"
       id="rect37" />
    <rect
       style="fill:#152631"
       height="1"
       width="7.9223299"
       y="8.695652"
       x="22.834951"
       id="rect39" />
    <rect
       style="fill:#d9dcdd"
       height="1"
       width="7.4563107"
       y="9.130435"
       x="22.834951"
       id="rect41" />
  </g>
</svg>
