<?xml version="1.0" encoding="UTF-8" standalone="no"?>
<svg
   xmlns:dc="http://purl.org/dc/elements/1.1/"
   xmlns:cc="http://creativecommons.org/ns#"
   xmlns:rdf="http://www.w3.org/1999/02/22-rdf-syntax-ns#"
   xmlns:svg="http://www.w3.org/2000/svg"
   xmlns="http://www.w3.org/2000/svg"
   xmlns:sodipodi="http://sodipodi.sourceforge.net/DTD/sodipodi-0.dtd"
   xmlns:inkscape="http://www.inkscape.org/namespaces/inkscape"
   width="33.690002"
   height="27.162733"
   viewBox="0 0 33.690002 27.162733"
   version="1.1"
   id="svg10"
   sodipodi:docname="lineage.svg"
   inkscape:version="0.92.4 (5da689c313, 2019-01-14)">
  <metadata
     id="metadata14">
    <rdf:RDF>
      <cc:Work
         rdf:about="">
        <dc:format>image/svg+xml</dc:format>
        <dc:type
           rdf:resource="http://purl.org/dc/dcmitype/StillImage" />
      </cc:Work>
    </rdf:RDF>
  </metadata>
  <sodipodi:namedview
     pagecolor="#ffffff"
     bordercolor="#666666"
     borderopacity="1"
     objecttolerance="10"
     gridtolerance="10"
     guidetolerance="10"
     inkscape:pageopacity="0"
     inkscape:pageshadow="2"
     inkscape:window-width="640"
     inkscape:window-height="480"
     id="namedview12"
     showgrid="false"
     inkscape:zoom="8.7407407"
     inkscape:cx="17.2"
     inkscape:cy="13.462733"
     inkscape:window-x="1"
     inkscape:window-y="1"
     inkscape:window-maximized="0"
     inkscape:current-layer="svg10" />
  <!-- Generator: Sketch 50.2 (55047) - http://www.bohemiancoding.com/sketch -->
  <title
     id="title2">WORKSEARCH_Lineage_petit</title>
  <desc
     id="desc4">Created with Sketch.</desc>
  <defs
     id="defs6" />
  <g
     id="WORKSEARCH_Lineage_petit"
     style="fill:none;fill-rule:evenodd;stroke:none;stroke-width:1"
     transform="translate(0.2,0.2)">
    <path
       d="m 33.290001,24.632041 v -2.653478 c 0,-1.159189 -0.941302,-2.130693 -2.146513,-2.130693 h -2.032895 v -4.298777 c 0,-0.373213 -0.301302,-0.709752 -0.716223,-0.709752 H 17.360505 v -2.990735 h 4.406642 c 1.543188,0 2.823905,-1.27065 2.823905,-2.803051 V 2.8037697 C 24.591052,1.2706491 23.310335,0 21.767147,0 H 11.522853 C 9.9796655,0 8.6989489,1.2706491 8.6989489,2.8037697 V 9.045555 c 0,1.532401 1.2807166,2.803051 2.8239041,2.803051 h 4.406643 v 2.990735 H 4.8956307 c -0.3768083,0 -0.7155042,0.298427 -0.7155042,0.709752 V 19.84787 H 2.1457935 C 0.97869467,19.84787 0,20.781981 0,21.978563 v 2.653478 c 0,1.158469 0.94130149,2.130692 2.1457935,2.130692 h 5.4989553 c 1.1670988,0 2.1465125,-0.93411 2.1465125,-2.130692 v -2.653478 c 0,-1.159189 -0.9413015,-2.130693 -2.1465125,-2.130693 H 5.6111349 V 16.259563 H 15.929496 v 3.588307 h -2.033614 c -1.167817,0 -2.146512,0.934111 -2.146512,2.130693 v 2.653478 c 0,1.158469 0.941301,2.130692 2.146512,2.130692 h 5.498237 c 1.167818,0 2.146512,-0.93411 2.146512,-2.130692 v -2.653478 c 0,-1.159189 -0.941301,-2.130693 -2.146512,-2.130693 h -2.033614 v -3.588307 h 10.318361 v 3.588307 h -2.033614 c -1.167099,0 -2.146512,0.934111 -2.146512,2.130693 v 2.653478 c 0,1.158469 0.941301,2.130692 2.146512,2.130692 h 5.498236 c 1.167818,0 2.146513,-0.972223 2.146513,-2.130692 z M 10.16807,9.1203413 V 2.878556 c 0,-0.7852568 0.639279,-1.3835478 1.392896,-1.3835478 h 10.242856 c 0.791009,0 1.393615,0.6349651 1.393615,1.3835478 v 6.2417853 c 0,0.7852569 -0.639999,1.3828287 -1.393615,1.3828287 H 11.560966 c -0.753617,0 -1.392896,-0.6356841 -1.392896,-1.3828287 z M 8.4357584,21.978563 v 2.653478 c 0,0.411325 -0.339415,0.71047 -0.7162233,0.71047 H 2.222018 c -0.4142014,0 -0.7155042,-0.336539 -0.7155042,-0.71047 v -2.653478 c 0,-0.411325 0.3379769,-0.710471 0.7155042,-0.710471 h 5.4975171 c 0.3768083,0 0.7162233,0.336539 0.7162233,0.710471 z m 11.7119766,0 v 2.653478 c 0,0.411325 -0.339415,0.71047 -0.715504,0.71047 h -5.498955 c -0.413483,0 -0.714786,-0.336539 -0.714786,-0.71047 v -2.653478 c 0,-0.411325 0.338696,-0.710471 0.714786,-0.710471 h 5.498955 c 0.376089,0 0.715504,0.336539 0.715504,0.710471 z m 11.711257,2.653478 c 0,0.411325 -0.338695,0.71047 -0.715504,0.71047 h -5.498236 c -0.414201,0 -0.715504,-0.336539 -0.715504,-0.71047 v -2.653478 c 0,-0.411325 0.339415,-0.710471 0.715504,-0.710471 h 5.498236 c 0.414202,0 0.715504,0.336539 0.715504,0.710471 z"
       id="Stroke-6"
       inkscape:connector-curvature="0"
       style="fill:#0f0f0f;stroke:#fefefe;stroke-width:0.40000001" />
  </g>
</svg>
