<?xml version="1.0" encoding="UTF-8" standalone="no"?>
<svg
   xmlns:dc="http://purl.org/dc/elements/1.1/"
   xmlns:cc="http://creativecommons.org/ns#"
   xmlns:rdf="http://www.w3.org/1999/02/22-rdf-syntax-ns#"
   xmlns:svg="http://www.w3.org/2000/svg"
   xmlns="http://www.w3.org/2000/svg"
   xmlns:xlink="http://www.w3.org/1999/xlink"
   xmlns:sodipodi="http://sodipodi.sourceforge.net/DTD/sodipodi-0.dtd"
   xmlns:inkscape="http://www.inkscape.org/namespaces/inkscape"
   width="30.88953"
   height="33.139336"
   viewBox="0 0 30.88953 33.139336"
   version="1.1"
   id="svg63"
   sodipodi:docname="WORK_Person_petit.svg"
   inkscape:version="0.92.4 (5da689c313, 2019-01-14)">
  <metadata
     id="metadata67">
    <rdf:RDF>
      <cc:Work
         rdf:about="">
        <dc:format>image/svg+xml</dc:format>
        <dc:type
           rdf:resource="http://purl.org/dc/dcmitype/StillImage" />
      </cc:Work>
    </rdf:RDF>
  </metadata>
  <sodipodi:namedview
     pagecolor="#ffffff"
     bordercolor="#666666"
     borderopacity="1"
     objecttolerance="10"
     gridtolerance="10"
     guidetolerance="10"
     inkscape:pageopacity="0"
     inkscape:pageshadow="2"
     inkscape:window-width="640"
     inkscape:window-height="480"
     id="namedview65"
     showgrid="false"
     inkscape:zoom="4.1403509"
     inkscape:cx="16.443327"
     inkscape:cy="15.383424"
     inkscape:window-x="1"
     inkscape:window-y="1"
     inkscape:window-maximized="0"
     inkscape:current-layer="svg63" />
  <!-- Generator: Sketch 50.2 (55047) - http://www.bohemiancoding.com/sketch -->
  <title
     id="title2">WORK_Person_petit</title>
  <desc
     id="desc4">Created with Sketch.</desc>
  <defs
     id="defs11">
    <path
       d="M 15.591518,0.44963319 C 12.225619,0.66725226 9.5904811,3.5767431 9.5904811,7.0730433 v 1.1795462 c 0,0.00931 0.00423,0.018629 0.00508,0.02879 0.038951,0.9720883 0.3539485,5.6555554 2.6876383,8.2060174 -0.02371,0.03048 -0.04742,0.06181 -0.06012,0.100765 L 11.40849,18.930319 H 4.7164912 c -2.1355459,0 -3.87057114,1.735872 -3.87057114,3.870571 0,0.199837 0.16088574,0.360723 0.35987594,0.360723 0.1989902,0 0.3607226,-0.160886 0.3607226,-0.360723 0,-1.736718 1.4132539,-3.149126 3.1499726,-3.149126 h 0.015242 c 0.1820549,2.334537 0.918742,9.908019 2.8984829,11.632036 -0.5385437,0.25149 -1.0804745,0.486891 -1.6249456,0.693502 -0.1854419,0.07028 -0.279433,0.278587 -0.2091514,0.464875 0.055887,0.144798 0.1930629,0.232861 0.33786,0.232861 0.043185,0 0.08637,-0.0076 0.1287085,-0.02286 0.7790255,-0.294675 1.5504301,-0.647777 2.3167541,-1.031362 0.032177,-0.01016 0.062661,-0.0254 0.091451,-0.04573 1.3954717,-0.703663 2.7613067,-1.549583 4.0848037,-2.525059 0.02456,-0.01609 0.04996,-0.03048 0.07028,-0.05165 1.442891,-1.069467 2.828201,-2.291351 4.136456,-3.650412 0.01863,-0.0127 0.02879,-0.03133 0.04573,-0.04742 0.129556,-0.135483 0.262498,-0.263345 0.39036,-0.401367 1.52418,-1.641881 2.860378,-3.408237 3.984885,-5.247415 h 6.081479 c 1.735872,0 3.147432,1.412408 3.147432,3.149126 0,0.199837 0.16258,0.360723 0.362416,0.360723 0.198991,0 0.360723,-0.160886 0.360723,-0.360723 -0.0017,-2.134699 -1.738412,-3.870571 -3.873111,-3.870571 h -6.834255 l -0.813743,-2.342157 c -0.01439,-0.0381 -0.03641,-0.06944 -0.06012,-0.09992 2.332843,-2.549615 2.648687,-7.2347761 2.687638,-8.2068644 8.47e-4,-0.010161 0.0051,-0.019476 0.0051,-0.02879 V 6.8647387 c 0,-1.7705895 -0.740921,-3.4802117 -2.032241,-4.691935 -1.206642,-1.1312805 -2.755379,-1.73671878 -4.3998,-1.73671878 -0.140563,0 -0.281127,0.004234 -0.423383,0.0135483 z M 14.548301,23.64427 c -1.601236,-0.975475 -2.888322,-2.319294 -3.840088,-3.992506 h 0.957694 c 0.06859,0 0.129555,-0.02456 0.183748,-0.05843 0.0127,-0.0076 0.02286,-0.01524 0.03472,-0.02286 0.05165,-0.04064 0.09314,-0.0906 0.116854,-0.154112 8.47e-4,-0.0025 0.0042,-0.0051 0.0051,-0.0068 l 0.831525,-2.391269 c 0.831525,0.690961 1.870508,1.130433 3.181303,1.130433 1.309101,0 2.348931,-0.439472 3.179609,-1.130433 l 0.832372,2.391269 c 8.47e-4,0.0017 0.0034,0.0042 0.0051,0.0068 0.02371,0.06351 0.0652,0.113467 0.116007,0.154112 0.01185,0.0076 0.02202,0.01524 0.03472,0.02286 0.05504,0.03387 0.116007,0.05843 0.184595,0.05843 h 0.154959 c -1.049991,1.662204 -2.271029,3.261746 -3.658033,4.757983 -0.06859,0.07282 -0.139717,0.139717 -0.208305,0.212539 -0.737534,-0.252337 -1.448818,-0.574108 -2.111836,-0.978016 z M 8.7648834,19.651764 h 1.1202725 c 1.0169671,1.923855 2.4928821,3.516623 4.2880271,4.608952 0.610519,0.372578 1.265917,0.669793 1.937403,0.923823 -1.160918,1.175312 -2.382802,2.239698 -3.649565,3.183843 C 10.924986,28.15161 9.4287486,23.123508 8.7648834,19.651764 Z m -3.3091647,0 h 2.5741711 c 0.3082231,1.633414 1.6249456,7.915577 3.7511772,9.219598 -1.098257,0.773945 -2.2295372,1.447124 -3.3769062,2.0297 C 6.9502621,30.705459 5.8291428,24.386038 5.4557187,19.651764 Z"
       id="path-1"
       inkscape:connector-curvature="0" />
    <path
       d="M 15.591518,0.44963319 C 12.225619,0.66725226 9.5904811,3.5767431 9.5904811,7.0730433 v 1.1795462 c 0,0.00931 0.00423,0.018629 0.00508,0.02879 0.038951,0.9720883 0.3539485,5.6555554 2.6876383,8.2060174 -0.02371,0.03048 -0.04742,0.06181 -0.06012,0.100765 L 11.40849,18.930319 H 4.7164912 c -2.1355459,0 -3.87057114,1.735872 -3.87057114,3.870571 0,0.199837 0.16088574,0.360723 0.35987594,0.360723 0.1989902,0 0.3607226,-0.160886 0.3607226,-0.360723 0,-1.736718 1.4132539,-3.149126 3.1499726,-3.149126 h 0.015242 c 0.1820549,2.334537 0.918742,9.908019 2.8984829,11.632036 -0.5385437,0.25149 -1.0804745,0.486891 -1.6249456,0.693502 -0.1854419,0.07028 -0.279433,0.278587 -0.2091514,0.464875 0.055887,0.144798 0.1930629,0.232861 0.33786,0.232861 0.043185,0 0.08637,-0.0076 0.1287085,-0.02286 0.7790255,-0.294675 1.5504301,-0.647777 2.3167541,-1.031362 0.032177,-0.01016 0.062661,-0.0254 0.091451,-0.04573 1.3954717,-0.703663 2.7613067,-1.549583 4.0848037,-2.525059 0.02456,-0.01609 0.04996,-0.03048 0.07028,-0.05165 1.442891,-1.069467 2.828201,-2.291351 4.136456,-3.650412 0.01863,-0.0127 0.02879,-0.03133 0.04573,-0.04742 0.129556,-0.135483 0.262498,-0.263345 0.39036,-0.401367 1.52418,-1.641881 2.860378,-3.408237 3.984885,-5.247415 h 6.081479 c 1.735872,0 3.147432,1.412408 3.147432,3.149126 0,0.199837 0.16258,0.360723 0.362416,0.360723 0.198991,0 0.360723,-0.160886 0.360723,-0.360723 -0.0017,-2.134699 -1.738412,-3.870571 -3.873111,-3.870571 h -6.834255 l -0.813743,-2.342157 c -0.01439,-0.0381 -0.03641,-0.06944 -0.06012,-0.09992 2.332843,-2.549615 2.648687,-7.2347761 2.687638,-8.2068644 8.47e-4,-0.010161 0.0051,-0.019476 0.0051,-0.02879 V 6.8647387 c 0,-1.7705895 -0.740921,-3.4802117 -2.032241,-4.691935 -1.206642,-1.1304337 -2.755379,-1.73671878 -4.3998,-1.73671878 -0.140563,0 -0.281127,0.004234 -0.423383,0.0135483 z M 14.548301,23.64427 c -1.601236,-0.975475 -2.888322,-2.319294 -3.840088,-3.992506 h 0.957694 c 0.06859,0 0.129555,-0.02456 0.183748,-0.05843 0.0127,-0.0076 0.02286,-0.01524 0.03472,-0.02286 0.05165,-0.04064 0.09314,-0.0906 0.116854,-0.154112 8.47e-4,-0.0025 0.0042,-0.0051 0.0051,-0.0068 l 0.831525,-2.391269 c 0.831525,0.690961 1.870508,1.130433 3.181303,1.130433 1.309101,0 2.348931,-0.439472 3.179609,-1.130433 l 0.832372,2.391269 c 8.47e-4,0.0017 0.0034,0.0042 0.0051,0.0068 0.02371,0.06351 0.0652,0.113467 0.116007,0.154112 0.01185,0.0076 0.02202,0.01524 0.03472,0.02286 0.05504,0.03387 0.116007,0.05843 0.184595,0.05843 h 0.154959 c -1.049991,1.662204 -2.271029,3.261746 -3.658033,4.757983 -0.06859,0.07282 -0.139717,0.139717 -0.208305,0.212539 -0.737534,-0.252337 -1.448818,-0.574108 -2.111836,-0.978016 z M 8.7648834,19.651764 h 1.1202725 c 1.0169671,1.923855 2.4928821,3.516623 4.2880271,4.608952 0.610519,0.372578 1.265917,0.669793 1.937403,0.923823 -1.160918,1.175312 -2.382802,2.239698 -3.649565,3.183843 C 10.924986,28.15161 9.4287486,23.123508 8.7648834,19.651764 Z m -3.3091647,0 h 2.5741711 c 0.3082231,1.633414 1.6249456,7.915577 3.7511772,9.219598 -1.098257,0.773945 -2.2295372,1.447124 -3.3769062,2.0297 C 6.9502621,30.705459 5.8291428,24.386038 5.4557187,19.651764 Z"
       id="path-3"
       inkscape:connector-curvature="0" />
    <path
       d="M 15.591518,0.44963319 C 12.225619,0.66725226 9.5904811,3.5767431 9.5904811,7.0730433 v 1.1795462 c 0,0.00931 0.00423,0.018629 0.00508,0.02879 0.038951,0.9720883 0.3539485,5.6555554 2.6876383,8.2060174 -0.02371,0.03048 -0.04742,0.06181 -0.06012,0.100765 L 11.40849,18.930319 H 4.7164912 c -2.1355459,0 -3.87057114,1.735872 -3.87057114,3.870571 0,0.199837 0.16088574,0.360723 0.35987594,0.360723 0.1989902,0 0.3607226,-0.160886 0.3607226,-0.360723 0,-1.736718 1.4132539,-3.149126 3.1499726,-3.149126 h 0.015242 c 0.1820549,2.334537 0.918742,9.908019 2.8984829,11.632036 -0.5385437,0.25149 -1.0804745,0.486891 -1.6249456,0.693502 -0.1854419,0.07028 -0.279433,0.278587 -0.2091514,0.464875 0.055887,0.144798 0.1930629,0.232861 0.33786,0.232861 0.043185,0 0.08637,-0.0076 0.1287085,-0.02286 0.7790255,-0.294675 1.5504301,-0.647777 2.3167541,-1.031362 0.032177,-0.01016 0.062661,-0.0254 0.091451,-0.04573 1.3954717,-0.703663 2.7613067,-1.549583 4.0848037,-2.525059 0.02456,-0.01609 0.04996,-0.03048 0.07028,-0.05165 1.442891,-1.069467 2.828201,-2.291351 4.136456,-3.650412 0.01863,-0.0127 0.02879,-0.03133 0.04573,-0.04742 0.129556,-0.135483 0.262498,-0.263345 0.39036,-0.401367 1.52418,-1.641881 2.860378,-3.408237 3.984885,-5.247415 h 6.081479 c 1.735872,0 3.147432,1.412408 3.147432,3.149126 0,0.199837 0.16258,0.360723 0.362416,0.360723 0.198991,0 0.360723,-0.160886 0.360723,-0.360723 -0.0017,-2.134699 -1.738412,-3.870571 -3.873111,-3.870571 h -6.834255 l -0.813743,-2.342157 c -0.01439,-0.0381 -0.03641,-0.06944 -0.06012,-0.09992 2.332843,-2.549615 2.648687,-7.2347761 2.687638,-8.2068644 8.47e-4,-0.010161 0.0051,-0.019476 0.0051,-0.02879 V 6.8647387 c 0,-1.7705895 -0.740921,-3.4802117 -2.032241,-4.691935 -1.206642,-1.1312805 -2.755379,-1.73671878 -4.3998,-1.73671878 -0.140563,0 -0.281127,0.004234 -0.423383,0.0135483 z M 14.548301,23.64427 c -1.601236,-0.975475 -2.888322,-2.319294 -3.840088,-3.992506 h 0.957694 c 0.06859,0 0.129555,-0.02456 0.183748,-0.05843 0.0127,-0.0076 0.02286,-0.01524 0.03472,-0.02286 0.05165,-0.04064 0.09314,-0.0906 0.116854,-0.154112 8.47e-4,-0.0025 0.0042,-0.0051 0.0051,-0.0068 l 0.831525,-2.391269 c 0.831525,0.690961 1.870508,1.130433 3.181303,1.130433 1.309101,0 2.348931,-0.439472 3.179609,-1.130433 l 0.832372,2.391269 c 8.47e-4,0.0017 0.0034,0.0042 0.0051,0.0068 0.02371,0.06351 0.0652,0.113467 0.116007,0.154112 0.01185,0.0076 0.02202,0.01524 0.03472,0.02286 0.05504,0.03387 0.116007,0.05843 0.184595,0.05843 h 0.154959 c -1.049991,1.662204 -2.271029,3.261746 -3.658033,4.757983 -0.06859,0.07282 -0.139717,0.139717 -0.208305,0.212539 -0.737534,-0.252337 -1.448818,-0.574108 -2.111836,-0.978016 z M 8.7648834,19.651764 h 1.1202725 c 1.0169671,1.923855 2.4928821,3.516623 4.2880271,4.608952 0.610519,0.372578 1.265917,0.669793 1.937403,0.923823 -1.160918,1.175312 -2.382802,2.239698 -3.649565,3.183843 C 10.924986,28.15161 9.4287486,23.123508 8.7648834,19.651764 Z m -3.3091647,0 h 2.5741711 c 0.3082231,1.633414 1.6249456,7.915577 3.7511772,9.219598 -1.098257,0.773945 -2.2295372,1.447124 -3.3769062,2.0297 C 6.9502621,30.705459 5.8291428,24.386038 5.4557187,19.651764 Z"
       id="path-5"
       inkscape:connector-curvature="0" />
    <path
       d="m 0.23794148,1.2447472 c -8.4677e-4,0.199837 0.15834539,0.3708839 0.35818237,0.3708839 0.1989902,0 0.35818236,-0.1507245 0.35818236,-0.3488679 C 1.0999501,0.98055599 2.6156627,0.74176774 3.068683,0.85438773 c 0.066895,0.0821364 0.1668131,0.13463592 0.2811266,0.13463592 0.1989902,0 0.3607226,-0.16173246 0.3607226,-0.36072266 0,-0.515681 -0.7172115,-0.515681 -0.9881768,-0.515681 -0.6909618,0 -2.48441392,0.20237727 -2.48441392,1.13212721 z"
       id="path-7"
       inkscape:connector-curvature="0" />
    <path
       d="m 0.38358537,0.62830099 c 0,0.1989902 0.16173247,0.36072266 0.36072267,0.36072266 0.11346676,0 0.21423201,-0.0516528 0.28112656,-0.13463592 0.4479397,-0.11431352 1.9424831,0.12108765 2.1092962,0.40560127 0.00677,0.1922161 0.1659663,0.3463277 0.3598759,0.3463277 0.199837,0 0.3615694,-0.1617325 0.3615694,-0.3615695 0,-0.92974994 -1.7942989,-1.13212721 -2.4844138,-1.13212721 -0.2709654,0 -0.98817693,0 -0.98817693,0.515681 z"
       id="path-9"
       inkscape:connector-curvature="0" />
  </defs>
  <path
     d="m 26.817268,19.193771 h -6.834255 l -0.813743,-2.34131 c -0.0144,-0.03895 -0.03641,-0.07028 -0.06012,-0.100766 2.332843,-2.549614 2.64784,-7.2339286 2.686791,-8.2060166 8.47e-4,-0.01016 0.0059,-0.01948 0.0059,-0.02879 v -1.388698 c 0,-1.769742 -0.740921,-3.479364 -2.03224,-4.691088 C 18.45968,1.2092904 16.747517,0.60046541 14.946444,0.71308541 11.580546,0.93155141 8.9454084,3.8410424 8.9454084,7.3364954 v 1.180393 c 0,0.0093 0.0042,0.01863 0.0051,0.02879 0.03895,0.972088 0.353949,5.6547086 2.6876376,8.2060166 -0.02456,0.02964 -0.04742,0.06181 -0.06012,0.100766 l -0.813743,2.34131 H 4.0705714 c -2.134699,0 -3.87057105,1.736719 -3.87057105,3.870571 0,0.199837 0.161732,0.36157 0.360723,0.36157 0.19899,0 0.360722,-0.161733 0.360722,-0.36157 0,-1.735872 1.41325405,-3.148279 3.14912605,-3.148279 h 0.01609 c 0.182055,2.333689 0.918742,9.907172 2.898483,11.632036 -0.539391,0.25149 -1.080475,0.486044 -1.624946,0.692655 -0.186288,0.07113 -0.279433,0.279433 -0.209151,0.465722 0.05504,0.14395 0.192216,0.232861 0.33786,0.232861 0.04234,0 0.08637,-0.0076 0.128708,-0.02286 0.779026,-0.295521 1.550431,-0.648623 2.315908,-1.031362 0.03302,-0.01101 0.06266,-0.02625 0.0923,-0.04573 1.395472,-0.70451 2.7613066,-1.55043 4.0839556,-2.525059 0.0254,-0.01609 0.05081,-0.03133 0.07113,-0.0525 1.442044,-1.069467 2.828201,-2.290505 4.135609,-3.649565 0.01948,-0.0127 0.02964,-0.03218 0.04573,-0.04827 0.129556,-0.134636 0.263345,-0.262498 0.391207,-0.400521 1.525027,-1.642728 2.860378,-3.409083 3.984884,-5.247414 h 6.080633 c 1.736719,0 3.149126,1.412407 3.149126,3.148279 0,0.199837 0.161732,0.36157 0.360722,0.36157 0.199837,0 0.360723,-0.161733 0.360723,-0.36157 -0.0017,-2.133852 -1.737566,-3.870571 -3.872265,-3.870571 M 4.8114924,19.916063 h 2.572478 c 0.309916,1.632566 1.624945,7.915576 3.7520236,9.219597 -1.099104,0.773098 -2.2295376,1.447125 -3.3777526,2.0297 -1.453052,-0.195603 -2.573325,-6.51587 -2.946749,-11.249297 m 7.0044546,8.716618 C 10.279066,28.415908 8.7836754,23.387807 8.1198104,19.916063 h 1.120273 c 1.0169666,1.923854 2.4928806,3.515776 4.2871796,4.608952 0.610519,0.372577 1.265916,0.669792 1.938249,0.922976 -1.160917,1.175312 -2.382802,2.239698 -3.649565,3.18469 m 4.407422,-3.959482 c -0.06859,0.07367 -0.139717,0.140563 -0.208305,0.213385 -0.737534,-0.253183 -1.448818,-0.574954 -2.11099,-0.978015 -1.602083,-0.975476 -2.889168,-2.319295 -3.840934,-3.992506 h 0.956846 c 0.06944,0 0.130403,-0.0254 0.184596,-0.05927 0.0127,-0.0068 0.02286,-0.0144 0.03472,-0.02286 0.05165,-0.04064 0.09314,-0.0906 0.116007,-0.153265 0.0017,-0.0034 0.0051,-0.0051 0.0059,-0.0076 l 0.831525,-2.39127 c 0.830678,0.691809 1.870507,1.131281 3.181302,1.131281 1.309102,0 2.348932,-0.439472 3.17961,-1.130434 l 0.832372,2.390423 c 8.46e-4,0.0025 0.0042,0.0042 0.0051,0.0076 0.02371,0.06266 0.0652,0.11262 0.116007,0.153265 0.01186,0.0085 0.02202,0.01609 0.03472,0.02286 0.05504,0.03387 0.116007,0.05927 0.184595,0.05927 h 0.154958 c -1.049991,1.661357 -2.271875,3.261746 -3.658032,4.757136"
     id="Fill-1"
     inkscape:connector-curvature="0"
     style="fill:#b6b5b6;fill-rule:evenodd;stroke:none;stroke-width:1" />
  <g
     style="fill:none;fill-rule:evenodd;stroke:none;stroke-width:1"
     id="Group-5"
     transform="translate(-0.64524265,0.26396041)">
    <mask
       id="mask-2"
       fill="white">
      <use
         xlink:href="#path-1"
         id="use14"
         x="0"
         y="0"
         width="100%"
         height="100%" />
    </mask>
    <g
       id="Clip-4" />
    <polygon
       id="Fill-3"
       mask="url(#mask-2)"
       points="379.35386,-231.01493 -229.82882,-231.01493 -229.82882,314.65093 379.35386,314.65093 "
       style="fill:#343434" />
  </g>
  <g
     style="fill:none;fill-rule:evenodd;stroke:none;stroke-width:1"
     id="Group-9"
     transform="translate(-0.64524265,0.26396041)">
    <mask
       id="mask-4"
       fill="white">
      <use
         xlink:href="#path-3"
         id="use20"
         x="0"
         y="0"
         width="100%"
         height="100%" />
    </mask>
    <g
       id="Clip-7" />
    <polygon
       id="Fill-6"
       mask="url(#mask-4)"
       points="34.944373,-3.1728353 -2.7638469,-3.1728353 -2.7638469,36.284805 34.944373,36.284805 "
       style="fill:#343434" />
    <polygon
       id="Stroke-8"
       mask="url(#mask-4)"
       points="34.944373,-3.1728353 -2.7638469,-3.1728353 -2.7638469,36.284805 34.944373,36.284805 "
       style="stroke:#b6b5b6;stroke-width:0.40000001" />
  </g>
  <g
     style="fill:none;fill-rule:evenodd;stroke:none;stroke-width:1"
     id="Group-12"
     transform="translate(-0.64524265,0.26396041)">
    <mask
       id="mask-6"
       fill="white">
      <use
         xlink:href="#path-5"
         id="use27"
         x="0"
         y="0"
         width="100%"
         height="100%" />
    </mask>
    <g
       id="Clip-11" />
    <polygon
       id="Stroke-10"
       mask="url(#mask-6)"
       points="399.35386,-231.01493 -209.82882,-231.01493 -209.82882,314.65093 399.35386,314.65093 "
       style="stroke:#343434;stroke-width:0.40000001" />
  </g>
  <g
     style="fill:none;fill-rule:evenodd;stroke:none;stroke-width:1"
     id="Group-17"
     transform="translate(-0.64524265,0.26396041)">
    <path
       d="m 27.462511,18.929811 h -6.834255 l -0.813743,-2.34131 c -0.0144,-0.03895 -0.03641,-0.07028 -0.06012,-0.100765 2.332842,-2.549615 2.647839,-7.2339294 2.686791,-8.2060177 8.47e-4,-0.010161 0.0059,-0.019476 0.0059,-0.02879 V 6.8642306 c 0,-1.7697427 -0.740921,-3.4793649 -2.03224,-4.6910882 C 19.104922,0.94533049 17.39276,0.33650514 15.591687,0.44912513 12.225789,0.66759097 9.5906504,3.5770818 9.5906504,7.0725352 v 1.180393 c 0,0.00931 0.00423,0.018629 0.00508,0.02879 0.038951,0.9720883 0.3539486,5.6547088 2.6876376,8.2060178 -0.02456,0.02964 -0.04742,0.06181 -0.06012,0.100765 l -0.813743,2.34131 H 4.7158138 c -2.1346992,0 -3.87057115,1.736719 -3.87057115,3.870571 0,0.199837 0.16173245,0.36157 0.36072265,0.36157 0.1989902,0 0.3607227,-0.161733 0.3607227,-0.36157 0,-1.735872 1.4132538,-3.148279 3.1491258,-3.148279 h 0.016089 c 0.1820548,2.33369 0.918742,9.907172 2.8984828,11.632036 -0.5393904,0.25149 -1.0804744,0.486044 -1.6249455,0.692655 -0.1862887,0.07113 -0.2794331,0.279433 -0.2091514,0.465722 0.05504,0.14395 0.1922161,0.232861 0.3378599,0.232861 0.042338,0 0.08637,-0.0076 0.1287086,-0.02286 0.7790255,-0.295521 1.5504301,-0.648623 2.3159073,-1.031362 0.033024,-0.01101 0.062661,-0.02625 0.092298,-0.04572 1.3954715,-0.70451 2.7613065,-1.55043 4.0839565,-2.525059 0.0254,-0.01609 0.05081,-0.03133 0.07113,-0.0525 1.442043,-1.069467 2.828201,-2.290505 4.135609,-3.649565 0.01947,-0.0127 0.02964,-0.03218 0.04572,-0.04827 0.129555,-0.134636 0.263345,-0.262498 0.391206,-0.400521 1.525027,-1.642727 2.860379,-3.409083 3.984885,-5.247414 h 6.080633 c 1.736718,0 3.149125,1.412407 3.149125,3.148279 0,0.199837 0.161733,0.36157 0.360723,0.36157 0.199837,0 0.360723,-0.161733 0.360723,-0.36157 -0.0017,-2.133852 -1.737566,-3.870571 -3.872265,-3.870571 z M 5.4567348,19.652103 H 8.0292124 C 8.3391291,21.28467 9.654158,27.567679 11.781236,28.8717 10.682133,29.644799 9.5516992,30.318825 8.4034833,30.9014 6.9504315,30.705797 5.830159,24.38553 5.4567348,19.652103 Z M 12.46119,28.368721 C 10.924308,28.151949 9.428918,23.123847 8.7650528,19.652103 h 1.1202725 c 1.0169667,1.923854 2.4928817,3.515776 4.2871807,4.608952 0.610519,0.372577 1.265916,0.669793 1.938249,0.922976 -1.160917,1.175312 -2.382802,2.239698 -3.649565,3.18469 z m 4.407421,-3.959482 c -0.06859,0.07367 -0.139716,0.140564 -0.208304,0.213385 -0.737534,-0.253183 -1.448818,-0.574954 -2.11099,-0.978015 -1.602083,-0.975476 -2.889168,-2.319295 -3.840934,-3.992506 h 0.956846 c 0.06944,0 0.130402,-0.0254 0.184595,-0.05927 0.0127,-0.0068 0.02286,-0.01439 0.03472,-0.02286 0.05165,-0.04064 0.09314,-0.0906 0.116007,-0.153265 0.0017,-0.0034 0.0051,-0.0051 0.0059,-0.0076 l 0.831525,-2.391269 c 0.830679,0.691808 1.870508,1.13128 3.181303,1.13128 1.309102,0 2.348931,-0.439472 3.17961,-1.130434 l 0.832371,2.390423 c 8.47e-4,0.0025 0.0042,0.0042 0.0051,0.0076 0.02371,0.06266 0.0652,0.11262 0.116007,0.153265 0.01186,0.0085 0.02202,0.01609 0.03472,0.02286 0.05504,0.03387 0.116008,0.05927 0.184596,0.05927 h 0.154958 c -1.049991,1.661357 -2.271875,3.261746 -3.658033,4.757136 z"
       id="Stroke-13"
       inkscape:connector-curvature="0"
       style="stroke:#343434;stroke-width:0.40000001" />
    <path
       d="m 16.684439,10.083892 c 0.198991,0 0.35903,-0.1507244 0.35903,-0.3497146 0.144797,-0.2862072 1.660509,-0.5241487 2.11353,-0.4115287 0.06689,0.08129 0.166813,0.1337892 0.281126,0.1337892 0.19899,0 0.360723,-0.1617325 0.360723,-0.3607227 0,-0.515681 -0.717212,-0.515681 -0.988177,-0.515681 -0.690962,0 -2.484414,0.2032241 -2.484414,1.132974 0,0.1989903 0.159192,0.3708838 0.358182,0.3708838"
       id="Fill-15"
       inkscape:connector-curvature="0"
       style="fill:#b6b5b6" />
  </g>
  <g
     style="fill:none;fill-rule:evenodd;stroke:none;stroke-width:1"
     id="Group-23"
     transform="translate(15.443327,8.7316284)">
    <mask
       id="mask-8"
       fill="white">
      <use
         xlink:href="#path-7"
         id="use36"
         x="0"
         y="0"
         width="100%"
         height="100%" />
    </mask>
    <g
       id="Clip-19" />
    <polygon
       id="Fill-18"
       mask="url(#mask-8)"
       points="383.26529,-239.48259 -225.91739,-239.48259 -225.91739,306.18326 383.26529,306.18326 "
       style="fill:#b6b5b6" />
    <polygon
       id="Fill-20"
       mask="url(#mask-8)"
       points="7.3194524,-3.497147 -3.3709787,-3.497147 -3.3709787,5.2245513 7.3194524,5.2245513 "
       style="fill:#b6b5b6" />
    <polygon
       id="Stroke-21"
       mask="url(#mask-8)"
       points="7.3194524,-3.497147 -3.3709787,-3.497147 -3.3709787,5.2245513 7.3194524,5.2245513 "
       style="stroke:#b6b5b6;stroke-width:0.40000001" />
    <polygon
       id="Stroke-22"
       mask="url(#mask-8)"
       points="383.26529,-239.48259 -225.91739,-239.48259 -225.91739,306.18326 383.26529,306.18326 "
       style="stroke:#b6b5b6;stroke-width:0.40000001" />
  </g>
  <g
     style="fill:none;fill-rule:evenodd;stroke:none;stroke-width:1"
     id="Group-28"
     transform="translate(11.209493,8.7316284)">
    <path
       d="m 4.8297039,1.6162238 c 0.1989903,0 0.3590292,-0.1507245 0.3590292,-0.3497147 0.1447971,-0.28620714 1.6605097,-0.52414862 2.11353,-0.41152864 0.066895,0.0812896 0.166813,0.13378916 0.2811266,0.13378916 0.1989902,0 0.3607226,-0.16173246 0.3607226,-0.36072266 0,-0.515681 -0.7172115,-0.515681 -0.9881769,-0.515681 -0.6909617,0 -2.4844138,0.20322404 -2.4844138,1.13297404 0,0.1989902 0.1591921,0.3708838 0.3581823,0.3708838 z"
       id="Stroke-24"
       inkscape:connector-curvature="0"
       style="stroke:#b6b5b6;stroke-width:0.40000001" />
    <path
       d="m 3.4950301,1.6058933 c 0.1989902,0 0.3607227,-0.1617325 0.3607227,-0.3607227 0,-0.92974996 -1.7934522,-1.13297399 -2.4835672,-1.13297399 -0.2709653,0 -0.98817684,0 -0.98817684,0.51568099 0,0.19983697 0.16173246,0.36072267 0.3598759,0.36072267 0.11431352,0 0.21507877,-0.0516528 0.28112654,-0.13378916 0.4487865,-0.11431352 1.9433299,0.12108766 2.110143,0.40560129 0.00677,0.1913693 0.1651195,0.3454809 0.3598759,0.3454809"
       id="Fill-26"
       inkscape:connector-curvature="0"
       style="fill:#b6b5b6" />
  </g>
  <g
     style="fill:none;fill-rule:evenodd;stroke:none;stroke-width:1"
     id="Group-34"
     transform="translate(11.209493,8.7316284)">
    <mask
       id="mask-10"
       fill="white">
      <use
         xlink:href="#path-9"
         id="use48"
         x="0"
         y="0"
         width="100%"
         height="100%" />
    </mask>
    <g
       id="Clip-30" />
    <polygon
       id="Fill-29"
       mask="url(#mask-10)"
       points="387.49913,-239.48259 -221.68356,-239.48259 -221.68356,306.18326 387.49913,306.18326 "
       style="fill:#b6b5b6" />
    <polygon
       id="Fill-31"
       mask="url(#mask-10)"
       points="7.4650963,-3.497147 -3.2253348,-3.497147 -3.2253348,5.2152369 7.4650963,5.2152369 "
       style="fill:#b6b5b6" />
    <polygon
       id="Stroke-32"
       mask="url(#mask-10)"
       points="7.4650963,-3.497147 -3.2253348,-3.497147 -3.2253348,5.2152369 7.4650963,5.2152369 "
       style="stroke:#b6b5b6;stroke-width:0.40000001" />
    <polygon
       id="Stroke-33"
       mask="url(#mask-10)"
       points="387.49913,-239.48259 -221.68356,-239.48259 -221.68356,306.18326 387.49913,306.18326 "
       style="stroke:#b6b5b6;stroke-width:0.40000001" />
  </g>
  <g
     style="fill:none;fill-rule:evenodd;stroke:none;stroke-width:1"
     id="Group-41"
     transform="translate(8.6691924,0.26396041)">
    <path
       d="m 6.0353306,10.073562 c 0.1989902,0 0.3607226,-0.1617329 0.3607226,-0.3607231 0,-0.92975 -1.7934521,-1.132974 -2.4835671,-1.132974 -0.2709654,0 -0.9881769,0 -0.9881769,0.515681 0,0.1998369 0.1617325,0.3607226 0.3598759,0.3607226 0.1143136,0 0.2150788,-0.051653 0.2811266,-0.1337891 0.4487864,-0.1143135 1.9433299,0.1210876 2.110143,0.4056013 0.00677,0.1913693 0.1651195,0.3454813 0.3598759,0.3454813 z"
       id="Stroke-35"
       inkscape:connector-curvature="0"
       style="stroke:#b6b5b6;stroke-width:0.40000001" />
    <path
       d="M 11.100266,2.1731424 C 9.7903181,0.94533049 8.0781555,0.33650514 6.2770825,0.44912513 2.9120311,0.66759097 0.27604599,3.5770818 0.27604599,7.0725352 v 1.180393 c 0,0.00931 0.005081,0.018629 0.005927,0.02879 0.0389513,0.9720883 0.53430987,5.8672478 2.65630751,8.3508148 1.8865965,1.618171 5.7089019,1.431882 7.5032015,-0.142257 0,0 1.934015,-2.807032 2.685944,-8.2085578 0.0017,-0.010161 0.0051,-0.019476 0.0051,-0.02879 V 6.8650774 c 0,-1.7705895 -0.740921,-3.4802117 -2.032241,-4.691935"
       id="Fill-37"
       inkscape:connector-curvature="0"
       style="fill:#efefef" />
    <path
       d="M 11.100266,2.1731424 C 9.7903181,0.94533049 8.0781555,0.33650514 6.2770825,0.44912513 2.9120311,0.66759097 0.27604599,3.5770818 0.27604599,7.0725352 v 1.180393 c 0,0.00931 0.005081,0.018629 0.005927,0.02879 0.0389513,0.9720883 0.53430987,5.8672478 2.65630751,8.3508148 1.8865965,1.618171 5.7089019,1.431882 7.5032015,-0.142257 0,0 1.934015,-2.807032 2.685944,-8.2085578 0.0017,-0.010161 0.0051,-0.019476 0.0051,-0.02879 V 6.8650774 c 0,-1.7705895 -0.740921,-3.4802117 -2.032241,-4.691935 z"
       id="Stroke-39"
       inkscape:connector-curvature="0"
       style="stroke:#343434;stroke-width:1.39999998" />
  </g>
</svg>
