<?xml version="1.0" encoding="UTF-8" standalone="no"?>
<svg
   xmlns:dc="http://purl.org/dc/elements/1.1/"
   xmlns:cc="http://creativecommons.org/ns#"
   xmlns:rdf="http://www.w3.org/1999/02/22-rdf-syntax-ns#"
   xmlns:svg="http://www.w3.org/2000/svg"
   xmlns="http://www.w3.org/2000/svg"
   xmlns:xlink="http://www.w3.org/1999/xlink"
   xmlns:sodipodi="http://sodipodi.sourceforge.net/DTD/sodipodi-0.dtd"
   xmlns:inkscape="http://www.inkscape.org/namespaces/inkscape"
   width="18.7691"
   height="34.994301"
   viewBox="0 0 18.7691 34.994301"
   version="1.1"
   id="svg54"
   sodipodi:docname="place.svg"
   inkscape:version="0.92.4 (5da689c313, 2019-01-14)">
  <metadata
     id="metadata58">
    <rdf:RDF>
      <cc:Work
         rdf:about="">
        <dc:format>image/svg+xml</dc:format>
        <dc:type
           rdf:resource="http://purl.org/dc/dcmitype/StillImage" />
      </cc:Work>
    </rdf:RDF>
  </metadata>
  <sodipodi:namedview
     pagecolor="#ffffff"
     bordercolor="#666666"
     borderopacity="1"
     objecttolerance="10"
     gridtolerance="10"
     guidetolerance="10"
     inkscape:pageopacity="0"
     inkscape:pageshadow="2"
     inkscape:window-width="640"
     inkscape:window-height="480"
     id="namedview56"
     showgrid="false"
     inkscape:zoom="6.5555556"
     inkscape:cx="9.5631963"
     inkscape:cy="17.485885"
     inkscape:window-x="1"
     inkscape:window-y="1"
     inkscape:window-maximized="0"
     inkscape:current-layer="svg54" />
  <!-- Generator: Sketch 50.2 (55047) - http://www.bohemiancoding.com/sketch -->
  <title
     id="title2">place_small</title>
  <desc
     id="desc4">Created with Sketch.</desc>
  <defs
     id="defs7">
    <path
       d="M 8.78408,0.21508 C 4.33352,0.41952 0.25232,4.4992 0.04788,8.95052 c -0.10564,2.12724 0.54188,4.22256 1.82856,5.91964 1.09364,1.40676 2.05884,2.90928 2.88192,4.48932 1.57776,3.2414 2.88268,6.60896 3.8988,10.06696 0.06536,0.24016 0.28348,0.40736 0.53276,0.40736 0.24928,0 0.4674,-0.1672 0.53276,-0.40736 1.02372,-3.45952 2.33548,-6.82708 3.92084,-10.06696 0.82384,-1.58004 1.78904,-3.08256 2.88268,-4.48932 1.28668,-1.69708 1.93344,-3.7924 1.8278,-5.91964 C 18.16628,4.4992 14.08508,0.41952 9.63452,0.21508 Z M 5.7418,18.86852 C 4.88832,17.2254 3.88892,15.6636 2.75424,14.20212 1.62412,12.711 1.05488,10.86876 1.14684,8.99992 1.32924,5.08516 4.91872,1.49568 8.83348,1.3186 h 0.75164 c 3.91476,0.17708 7.50424,3.76656 7.68056,7.68132 0.09576,1.87036 -0.4712,3.71412 -1.60132,5.20752 -1.13392,1.46224 -2.13408,3.02404 -2.98756,4.6664 -1.35356,2.76108 -2.5118,5.61412 -3.46788,8.53708 -0.95456,-2.92524 -2.11356,-5.7798 -3.46712,-8.5424 z"
       id="path-1"
       inkscape:connector-curvature="0" />
  </defs>
  <polygon
     id="Stroke-1"
     points="7.467836,28.8306 11.591596,28.88988 10.949396,31.2892 6.825636,31.23068 "
     style="fill:#111312;fill-rule:evenodd;stroke:none;stroke-width:1"
     transform="translate(0.06319632,-0.491584)" />
  <path
     d="m 9.5144803,29.118776 0.30932,-1.0488"
     id="Stroke-2"
     inkscape:connector-curvature="0"
     style="fill:#111312;fill-rule:evenodd;stroke:none;stroke-width:1" />
  <path
     d="m 9.0721603,30.778312 -0.30932,1.04804"
     id="Stroke-3"
     inkscape:connector-curvature="0"
     style="fill:#111312;fill-rule:evenodd;stroke:none;stroke-width:1" />
  <path
     d="m 9.5537723,31.796636 h -1.62716"
     id="Stroke-4"
     inkscape:connector-curvature="0"
     style="fill:#111312;fill-rule:evenodd;stroke:none;stroke-width:1" />
  <path
     d="m 11.433024,29.637552 h 1.0488"
     id="Stroke-5"
     inkscape:connector-curvature="0"
     style="fill:#111312;fill-rule:evenodd;stroke:none;stroke-width:1" />
  <path
     d="m 12.636484,28.899136 -0.29184,1.53596"
     id="Stroke-6"
     inkscape:connector-curvature="0"
     style="fill:#111312;fill-rule:evenodd;stroke:none;stroke-width:1" />
  <path
     d="m 7.1179723,29.572268 -1.02828,-0.03344"
     id="Stroke-7"
     inkscape:connector-curvature="0"
     style="fill:#111312;fill-rule:evenodd;stroke:none;stroke-width:1" />
  <path
     d="m 5.9141323,30.257332 0.33592,-1.49644"
     id="Stroke-8"
     inkscape:connector-curvature="0"
     style="fill:#111312;fill-rule:evenodd;stroke:none;stroke-width:1" />
  <g
     style="fill:none;fill-rule:evenodd;stroke:none;stroke-width:1"
     id="Group-55"
     transform="translate(0.06319632,5.965376)">
    <path
       d="m 2.095092,23.84956 c -0.00304,1.78068 3.20112,3.22924 7.15692,3.23532 3.9558,0.0068 7.16452,-1.43184 7.16756,-3.21252 0.003,-1.78068 -3.20112,-3.22924 -7.15692,-3.23532 -3.9558,-0.0061 -7.16528,1.43184 -7.16756,3.21252 z"
       id="Stroke-9"
       inkscape:connector-curvature="0"
       style="stroke:#111312;stroke-width:0.69999999" />
    <path
       d="m 0.35834,23.995784 c -0.0038,2.57868 4.02192,4.67476 8.99156,4.68312 4.96964,0.0076 9.0022,-2.07556 9.006,-4.65424 0.0046,-2.57792 -4.02116,-4.67476 -8.99156,-4.68236 -4.96964,-0.0084 -9.0022,2.07556 -9.006,4.65348 z"
       id="Stroke-11"
       inkscape:connector-curvature="0"
       style="stroke:#111312;stroke-width:0.69999999" />
    <path
       d="m 8.891316,28.558748 c -0.01748,-0.06384 -0.03192,-0.1254 -0.05092,-0.1862 0.0912,0.28348 0.019,0.06156 -0.27664,-0.85652 -0.00532,-0.02432 -0.01596,-0.0494 -0.0304,-0.07296 -0.00988,-0.01292 -0.03648,-0.01976 -0.07372,-0.03952 0.01596,0.10944 0.04332,0.2204 0.0836,0.32984 0.0456,0.13756 0.09348,0.2736 0.13832,0.41116 0.03572,0.11324 0.06916,0.22648 0.10412,0.33896 0.0038,0.03724 0.04028,0.07068 0.08132,0.076 0.00836,0.0015 0.01672,7.6e-4 0.02432,-7.6e-4"
       id="Fill-13"
       inkscape:connector-curvature="0"
       style="fill:#111312" />
    <path
       d="m 8.891316,28.558748 c -0.01748,-0.06384 -0.03192,-0.1254 -0.05092,-0.1862 0.0912,0.28348 0.019,0.06156 -0.27664,-0.85652 -0.00532,-0.02432 -0.01596,-0.0494 -0.0304,-0.07296 -0.00988,-0.01292 -0.03648,-0.01976 -0.07372,-0.03952 0.01596,0.10944 0.04332,0.2204 0.0836,0.32984 0.0456,0.13756 0.09348,0.2736 0.13832,0.41116 0.03572,0.11324 0.06916,0.22648 0.10412,0.33896 0.0038,0.03724 0.04028,0.07068 0.08132,0.076 0.00836,0.0015 0.01672,7.6e-4 0.02432,-7.6e-4 z"
       id="Stroke-15"
       inkscape:connector-curvature="0"
       style="stroke:#111312;stroke-width:0.2" />
    <path
       d="m 7.7691,28.494224 c 0.03876,-0.05396 0.07752,-0.10412 0.11172,-0.15808 -0.16112,0.2508 -0.03496,0.05472 0.48868,-0.7562 0.01596,-0.01976 0.02812,-0.04332 0.03648,-0.06916 0.00456,-0.01596 -0.00684,-0.04104 -0.0152,-0.08208 -0.07524,0.08132 -0.14288,0.17252 -0.20292,0.2736 -0.07676,0.1216 -0.15276,0.24548 -0.23104,0.36632 -0.06384,0.10032 -0.13072,0.1976 -0.19608,0.2964 -0.0266,0.02584 -0.02964,0.076 -0.0076,0.11096 0.00456,0.0068 0.00988,0.01292 0.01596,0.01824"
       id="Fill-17"
       inkscape:connector-curvature="0"
       style="fill:#111312" />
    <path
       d="m 7.7691,28.494224 c 0.03876,-0.05396 0.07752,-0.10412 0.11172,-0.15808 -0.16112,0.2508 -0.03496,0.05472 0.48868,-0.7562 0.01596,-0.01976 0.02812,-0.04332 0.03648,-0.06916 0.00456,-0.01596 -0.00684,-0.04104 -0.0152,-0.08208 -0.07524,0.08132 -0.14288,0.17252 -0.20292,0.2736 -0.07676,0.1216 -0.15276,0.24548 -0.23104,0.36632 -0.06384,0.10032 -0.13072,0.1976 -0.19608,0.2964 -0.0266,0.02584 -0.02964,0.076 -0.0076,0.11096 0.00456,0.0068 0.00988,0.01292 0.01596,0.01824 z"
       id="Stroke-19"
       inkscape:connector-curvature="0"
       style="stroke:#111312;stroke-width:0.2" />
    <path
       d="m 3.252876,27.562768 c 0.057,-0.0342 0.11172,-0.06536 0.16568,-0.10032 -0.24776,0.16568 -0.05396,0.03572 0.74784,-0.50084 0.02204,-0.01216 0.04332,-0.02812 0.06156,-0.04864 0.01064,-0.01368 0.00912,-0.04028 0.01824,-0.08208 -0.10184,0.0456 -0.19988,0.1026 -0.29488,0.171 -0.11932,0.08132 -0.23788,0.16492 -0.35796,0.24548 -0.09804,0.06612 -0.19836,0.1292 -0.29716,0.19304 -0.0342,0.01292 -0.057,0.05776 -0.05092,0.09956 0.00152,0.0076 0.00456,0.0152 0.0076,0.0228"
       id="Fill-21"
       inkscape:connector-curvature="0"
       style="fill:#111312" />
    <path
       d="m 3.252876,27.562768 c 0.057,-0.0342 0.11172,-0.06536 0.16568,-0.10032 -0.24776,0.16568 -0.05396,0.03572 0.74784,-0.50084 0.02204,-0.01216 0.04332,-0.02812 0.06156,-0.04864 0.01064,-0.01368 0.00912,-0.04028 0.01824,-0.08208 -0.10184,0.0456 -0.19988,0.1026 -0.29488,0.171 -0.11932,0.08132 -0.23788,0.16492 -0.35796,0.24548 -0.09804,0.06612 -0.19836,0.1292 -0.29716,0.19304 -0.0342,0.01292 -0.057,0.05776 -0.05092,0.09956 0.00152,0.0076 0.00456,0.0152 0.0076,0.0228 z"
       id="Stroke-23"
       inkscape:connector-curvature="0"
       style="stroke:#111312;stroke-width:0.2" />
    <path
       d="m 14.05658,27.235436 c -0.0532,-0.03952 -0.1026,-0.07904 -0.15656,-0.11476 0.24852,0.16568 0.05396,0.03572 -0.74784,-0.50084 -0.01976,-0.0152 -0.04332,-0.02888 -0.0684,-0.03724 -0.01672,-0.0046 -0.04104,0.0053 -0.08284,0.01368 0.08056,0.07676 0.171,0.14592 0.27056,0.20748 0.12008,0.07904 0.2432,0.15732 0.36328,0.23636 0.0988,0.06612 0.19532,0.13452 0.2926,0.20216 0.02508,0.0266 0.07448,0.0304 0.1102,0.0091 0.0076,-0.0046 0.01368,-0.0099 0.019,-0.01596"
       id="Fill-25"
       inkscape:connector-curvature="0"
       style="fill:#111312" />
    <path
       d="m 14.05658,27.235436 c -0.0532,-0.03952 -0.1026,-0.07904 -0.15656,-0.11476 0.24852,0.16568 0.05396,0.03572 -0.74784,-0.50084 -0.01976,-0.0152 -0.04332,-0.02888 -0.0684,-0.03724 -0.01672,-0.0046 -0.04104,0.0053 -0.08284,0.01368 0.08056,0.07676 0.171,0.14592 0.27056,0.20748 0.12008,0.07904 0.2432,0.15732 0.36328,0.23636 0.0988,0.06612 0.19532,0.13452 0.2926,0.20216 0.02508,0.0266 0.07448,0.0304 0.1102,0.0091 0.0076,-0.0046 0.01368,-0.0099 0.019,-0.01596 z"
       id="Stroke-27"
       inkscape:connector-curvature="0"
       style="stroke:#111312;stroke-width:0.2" />
    <path
       d="m 14.803204,26.7805 c -0.05472,-0.03724 -0.10564,-0.07524 -0.1596,-0.10868 0.25384,0.15656 0.05472,0.0342 -0.76608,-0.47348 -0.02052,-0.01444 -0.04408,-0.0266 -0.06992,-0.03496 -0.01672,-0.0038 -0.04028,0.0076 -0.08132,0.01748 0.08208,0.07372 0.1748,0.13984 0.27664,0.19684 0.12388,0.07448 0.24928,0.1482 0.3724,0.2242 0.10032,0.06232 0.19912,0.12692 0.29944,0.19076 0.02584,0.02508 0.076,0.02736 0.1102,0.0038 0.0076,-0.0038 0.01368,-0.0091 0.01824,-0.01596"
       id="Fill-29"
       inkscape:connector-curvature="0"
       style="fill:#111312" />
    <path
       d="m 14.803204,26.7805 c -0.05472,-0.03724 -0.10564,-0.07524 -0.1596,-0.10868 0.25384,0.15656 0.05472,0.0342 -0.76608,-0.47348 -0.02052,-0.01444 -0.04408,-0.0266 -0.06992,-0.03496 -0.01672,-0.0038 -0.04028,0.0076 -0.08132,0.01748 0.08208,0.07372 0.1748,0.13984 0.27664,0.19684 0.12388,0.07448 0.24928,0.1482 0.3724,0.2242 0.10032,0.06232 0.19912,0.12692 0.29944,0.19076 0.02584,0.02508 0.076,0.02736 0.1102,0.0038 0.0076,-0.0038 0.01368,-0.0091 0.01824,-0.01596 z"
       id="Stroke-31"
       inkscape:connector-curvature="0"
       style="stroke:#111312;stroke-width:0.2" />
    <path
       d="m 5.624912,21.23934 c -0.04636,-0.04788 -0.08816,-0.095 -0.13452,-0.13984 0.21584,0.20596 0.04712,0.04484 -0.65284,-0.62016 -0.01672,-0.01824 -0.03724,-0.03496 -0.0608,-0.04864 -0.0152,-0.0068 -0.04104,0 -0.0836,7.6e-4 0.06612,0.08892 0.14364,0.17176 0.23104,0.24928 0.10564,0.0988 0.2128,0.19532 0.31768,0.29488 0.08664,0.08208 0.17024,0.16568 0.2546,0.24776 0.01976,0.03116 0.0684,0.04332 0.10716,0.02812 0.0076,-0.003 0.0152,-0.0076 0.02128,-0.01216"
       id="Fill-33"
       inkscape:connector-curvature="0"
       style="fill:#111312" />
    <path
       d="m 5.624912,21.23934 c -0.04636,-0.04788 -0.08816,-0.095 -0.13452,-0.13984 0.21584,0.20596 0.04712,0.04484 -0.65284,-0.62016 -0.01672,-0.01824 -0.03724,-0.03496 -0.0608,-0.04864 -0.0152,-0.0068 -0.04104,0 -0.0836,7.6e-4 0.06612,0.08892 0.14364,0.17176 0.23104,0.24928 0.10564,0.0988 0.2128,0.19532 0.31768,0.29488 0.08664,0.08208 0.17024,0.16568 0.2546,0.24776 0.01976,0.03116 0.0684,0.04332 0.10716,0.02812 0.0076,-0.003 0.0152,-0.0076 0.02128,-0.01216 z"
       id="Stroke-35"
       inkscape:connector-curvature="0"
       style="stroke:#111312;stroke-width:0.2" />
    <path
       d="m 5.798952,19.947948 c 0.0266,0.0608 0.04864,0.11932 0.07752,0.17708 -0.13148,-0.26752 -0.02888,-0.05776 0.39368,0.81016 0.00912,0.0228 0.0228,0.0456 0.04028,0.06688 0.0114,0.01216 0.03876,0.01444 0.07828,0.02888 -0.0304,-0.1064 -0.07372,-0.21204 -0.1292,-0.31464 -0.0646,-0.1292 -0.13072,-0.2584 -0.1938,-0.3876 -0.05244,-0.10716 -0.10184,-0.21432 -0.152,-0.32148 -0.00836,-0.03572 -0.0494,-0.0646 -0.09044,-0.06384 -0.00836,7.6e-4 -0.01672,0.0023 -0.02432,0.0046"
       id="Fill-37"
       inkscape:connector-curvature="0"
       style="fill:#111312" />
    <path
       d="m 5.798952,19.947948 c 0.0266,0.0608 0.04864,0.11932 0.07752,0.17708 -0.13148,-0.26752 -0.02888,-0.05776 0.39368,0.81016 0.00912,0.0228 0.0228,0.0456 0.04028,0.06688 0.0114,0.01216 0.03876,0.01444 0.07828,0.02888 -0.0304,-0.1064 -0.07372,-0.21204 -0.1292,-0.31464 -0.0646,-0.1292 -0.13072,-0.2584 -0.1938,-0.3876 -0.05244,-0.10716 -0.10184,-0.21432 -0.152,-0.32148 -0.00836,-0.03572 -0.0494,-0.0646 -0.09044,-0.06384 -0.00836,7.6e-4 -0.01672,0.0023 -0.02432,0.0046 z"
       id="Stroke-39"
       inkscape:connector-curvature="0"
       style="stroke:#111312;stroke-width:0.2" />
    <path
       d="m 11.026536,19.256196 c -0.03648,0.05472 -0.07372,0.1064 -0.10716,0.16112 0.15428,-0.25536 0.03344,-0.05548 -0.4636,0.7714 -0.0152,0.02052 -0.0266,0.04408 -0.03496,0.06992 -0.0038,0.01748 0.0084,0.04104 0.01824,0.08208 0.07296,-0.08436 0.13756,-0.17784 0.1938,-0.27968 0.07372,-0.12388 0.14516,-0.2508 0.21964,-0.37468 0.06156,-0.10108 0.12464,-0.20064 0.18696,-0.30172 0.02508,-0.0266 0.02736,-0.07676 0.0038,-0.11096 -0.0046,-0.0068 -0.01064,-0.01292 -0.01672,-0.01748"
       id="Fill-41"
       inkscape:connector-curvature="0"
       style="fill:#111312" />
    <path
       d="m 11.026536,19.256196 c -0.03648,0.05472 -0.07372,0.1064 -0.10716,0.16112 0.15428,-0.25536 0.03344,-0.05548 -0.4636,0.7714 -0.0152,0.02052 -0.0266,0.04408 -0.03496,0.06992 -0.0038,0.01748 0.0084,0.04104 0.01824,0.08208 0.07296,-0.08436 0.13756,-0.17784 0.1938,-0.27968 0.07372,-0.12388 0.14516,-0.2508 0.21964,-0.37468 0.06156,-0.10108 0.12464,-0.20064 0.18696,-0.30172 0.02508,-0.0266 0.02736,-0.07676 0.0038,-0.11096 -0.0046,-0.0068 -0.01064,-0.01292 -0.01672,-0.01748 z"
       id="Stroke-43"
       inkscape:connector-curvature="0"
       style="stroke:#111312;stroke-width:0.2" />
    <path
       d="m 14.3564,19.896724 c -0.05016,0.04332 -0.10032,0.08132 -0.14744,0.1254 0.21888,-0.20292 0.04788,-0.04484 -0.66044,0.6118 -0.01976,0.0152 -0.03724,0.03496 -0.05244,0.05776 -0.0084,0.01444 -0.0038,0.0418 -0.0053,0.0836 0.09272,-0.06004 0.18164,-0.13224 0.26372,-0.21508 0.10564,-0.0988 0.209,-0.20064 0.3154,-0.29868 0.08664,-0.08056 0.17556,-0.15884 0.26296,-0.23712 0.03192,-0.01824 0.04712,-0.06612 0.03496,-0.1064 -0.003,-0.0068 -0.0068,-0.01444 -0.0114,-0.02128"
       id="Fill-45"
       inkscape:connector-curvature="0"
       style="fill:#111312" />
    <path
       d="m 14.3564,19.896724 c -0.05016,0.04332 -0.10032,0.08132 -0.14744,0.1254 0.21888,-0.20292 0.04788,-0.04484 -0.66044,0.6118 -0.01976,0.0152 -0.03724,0.03496 -0.05244,0.05776 -0.0084,0.01444 -0.0038,0.0418 -0.0053,0.0836 0.09272,-0.06004 0.18164,-0.13224 0.26372,-0.21508 0.10564,-0.0988 0.209,-0.20064 0.3154,-0.29868 0.08664,-0.08056 0.17556,-0.15884 0.26296,-0.23712 0.03192,-0.01824 0.04712,-0.06612 0.03496,-0.1064 -0.003,-0.0068 -0.0068,-0.01444 -0.0114,-0.02128 z"
       id="Stroke-47"
       inkscape:connector-curvature="0"
       style="stroke:#111312;stroke-width:0.2" />
    <path
       d="m 15.5591,21.17626 c -0.05776,0.03268 -0.114,0.06156 -0.16872,0.09576 0.25308,-0.15884 0.05548,-0.03496 -0.76152,0.47956 -0.02204,0.0114 -0.04332,0.02736 -0.06232,0.04712 -0.01064,0.01292 -0.01064,0.03952 -0.02052,0.08132 0.1026,-0.04256 0.20292,-0.09652 0.29944,-0.16264 0.1216,-0.07828 0.24244,-0.15808 0.3648,-0.2356 0.09956,-0.06384 0.2014,-0.12388 0.30248,-0.18544 0.0342,-0.0114 0.05852,-0.05548 0.0532,-0.09728 -0.0015,-0.0076 -0.0038,-0.01596 -0.0068,-0.0228"
       id="Fill-49"
       inkscape:connector-curvature="0"
       style="fill:#111312" />
    <path
       d="m 15.5591,21.17626 c -0.05776,0.03268 -0.114,0.06156 -0.16872,0.09576 0.25308,-0.15884 0.05548,-0.03496 -0.76152,0.47956 -0.02204,0.0114 -0.04332,0.02736 -0.06232,0.04712 -0.01064,0.01292 -0.01064,0.03952 -0.02052,0.08132 0.1026,-0.04256 0.20292,-0.09652 0.29944,-0.16264 0.1216,-0.07828 0.24244,-0.15808 0.3648,-0.2356 0.09956,-0.06384 0.2014,-0.12388 0.30248,-0.18544 0.0342,-0.0114 0.05852,-0.05548 0.0532,-0.09728 -0.0015,-0.0076 -0.0038,-0.01596 -0.0068,-0.0228 z"
       id="Stroke-51"
       inkscape:connector-curvature="0"
       style="stroke:#111312;stroke-width:0.2" />
    <path
       d="m 6.02604,3.772336 c 0,1.75712 1.42424,3.18136 3.1806,3.18136 1.75712,0 3.18136,-1.42424 3.18136,-3.18136 0,-1.75712 -1.42424,-3.1806 -3.18136,-3.1806 -1.75636,0 -3.1806,1.42348 -3.1806,3.1806 z"
       id="Stroke-53"
       inkscape:connector-curvature="0"
       style="stroke:#111312;stroke-width:1.39999998" />
  </g>
  <g
     style="fill:none;fill-rule:evenodd;stroke:none;stroke-width:1"
     id="Group-60"
     transform="translate(0.06319632,-0.114624)">
    <mask
       id="mask-2"
       fill="white">
      <use
         xlink:href="#path-1"
         id="use41"
         x="0"
         y="0"
         width="100%"
         height="100%" />
    </mask>
    <g
       id="Clip-57" />
    <polygon
       id="Fill-56"
       mask="url(#mask-2)"
       points="21.12572,-2.546 -2.72384,-2.546 -2.72384,32.59488 21.12572,32.59488 "
       style="fill:#b6b5b6" />
    <polygon
       id="Stroke-58"
       mask="url(#mask-2)"
       points="21.12572,-2.546 -2.72384,-2.546 -2.72384,32.59488 21.12572,32.59488 "
       style="stroke:#fefefe;stroke-width:0.2" />
    <polygon
       id="Stroke-59"
       mask="url(#mask-2)"
       points="198.6146,-184.2202 -267.444,-184.2202 -267.444,233.244 198.6146,233.244 "
       style="stroke:#fefefe;stroke-width:0.2" />
  </g>
  <g
     style="fill:none;fill-rule:evenodd;stroke:none;stroke-width:1"
     id="Group-65"
     transform="translate(0.06319632,-0.114624)">
    <path
       d="m 9.634596,0.214624 h -0.85044 c -4.45056,0.20444 -8.53176,4.28488 -8.7362,8.7362 -0.10564,2.12648 0.54188,4.22256 1.82856,5.91964 1.09364,1.406 2.05808,2.90852 2.88192,4.48856 1.57852,3.2414 2.88192,6.60896 3.8988,10.06772 0.06536,0.24016 0.28348,0.40736 0.53276,0.40736 0.24928,0 0.4674,-0.1672 0.53276,-0.40736 1.02372,-3.45952 2.33472,-6.82708 3.92084,-10.06772 0.82384,-1.57928 1.78828,-3.0818 2.88268,-4.48856 1.28668,-1.69708 1.93344,-3.79316 1.8278,-5.91964 -0.18772,-4.45132 -4.26892,-8.53176 -8.71948,-8.7362 z m 6.02984,13.99312 c -1.13468,1.46148 -2.13484,3.02328 -2.98756,4.66564 -1.3528,2.76184 -2.5118,5.61412 -3.46788,8.53708 -0.95456,-2.92448 -2.11356,-5.77904 -3.46788,-8.5424 -0.85272,-1.64236 -1.85212,-3.20416 -2.9868,-4.6664 -1.13088,-1.49112 -1.70012,-3.3326 -1.60664,-5.20144 0.18164,-3.91476 3.77112,-7.50424 7.68588,-7.68132 h 0.75164 c 3.91476,0.17708 7.50424,3.76656 7.68056,7.68132 0.09576,1.87036 -0.4712,3.71412 -1.60132,5.20752 z"
       id="Stroke-61"
       inkscape:connector-curvature="0"
       style="fill:#111312;stroke:#efefef;stroke-width:0.2" />
    <polygon
       id="Fill-63"
       points="7.6589,23.347884 9.18574,27.730044 10.74298,23.471764 "
       style="fill:#fefefe" />
  </g>
</svg>
