<?xml version="1.0" encoding="UTF-8" standalone="no"?>
<svg
   xmlns:dc="http://purl.org/dc/elements/1.1/"
   xmlns:cc="http://creativecommons.org/ns#"
   xmlns:rdf="http://www.w3.org/1999/02/22-rdf-syntax-ns#"
   xmlns:svg="http://www.w3.org/2000/svg"
   xmlns="http://www.w3.org/2000/svg"
   xmlns:sodipodi="http://sodipodi.sourceforge.net/DTD/sodipodi-0.dtd"
   xmlns:inkscape="http://www.inkscape.org/namespaces/inkscape"
   viewBox="0 0 132 167.00001"
   width="132"
   height="167"
   id="svg2991"
   version="1.1"
   inkscape:version="0.92.4 (5da689c313, 2019-01-14)"
   sodipodi:docname="product.svg">
  <metadata
     id="metadata3000">
    <rdf:RDF>
      <cc:Work
         rdf:about="">
        <dc:format>image/svg+xml</dc:format>
        <dc:type
           rdf:resource="http://purl.org/dc/dcmitype/StillImage" />
        <dc:title></dc:title>
      </cc:Work>
    </rdf:RDF>
  </metadata>
  <defs
     id="defs2998" />
  <sodipodi:namedview
     pagecolor="#ffffff"
     bordercolor="#666666"
     borderopacity="1"
     objecttolerance="10"
     gridtolerance="10"
     guidetolerance="10"
     inkscape:pageopacity="0"
     inkscape:pageshadow="2"
     inkscape:window-width="1001"
     inkscape:window-height="825"
     id="namedview2996"
     showgrid="false"
     fit-margin-top="50"
     fit-margin-left="50"
     fit-margin-right="50"
     fit-margin-bottom="50"
     inkscape:zoom="2.9786873"
     inkscape:cx="84.027441"
     inkscape:cy="107.77937"
     inkscape:window-x="1"
     inkscape:window-y="1"
     inkscape:window-maximized="0"
     inkscape:current-layer="svg2991" />
  <style
     id="style2993">
		tspan { white-space:pre }
	</style>
  <path
     id="Text layer 1"
     d="M 33.375,29.95 H 60.075001 C 72.875,29.95 82.475,32.2 88.875,36.7 c 6.5,4.5 9.75,12.05 9.75,22.65 0,8.2 -2.200001,14.6 -6.6,19.2 -4.300001,4.6 -9.7,7.9 -16.199999,9.9 l -3.4428,1.33324 -1.945111,0.41369 -2.6247,0.41568 L 42.075001,90.85 v 46.2 H 33.375 Z m 25.950001,7.8 h -17.25 v 45.6 h 20.25 c 8.7,0 15.399999,-2.05 20.099999,-6.15 4.799999,-4.1 7.2,-9.95 7.2,-17.55 0,-8.2 -2.5,-13.9 -7.5,-17.1 -4.9,-3.2 -12.5,-4.8 -22.799999,-4.8 z"
     inkscape:connector-curvature="0"
     style="fill:#000000"
     sodipodi:nodetypes="cscscccccccccsccscscs" />
</svg>
