<?xml version="1.0" encoding="UTF-8" standalone="no"?>
<svg
   xmlns:dc="http://purl.org/dc/elements/1.1/"
   xmlns:cc="http://creativecommons.org/ns#"
   xmlns:rdf="http://www.w3.org/1999/02/22-rdf-syntax-ns#"
   xmlns:svg="http://www.w3.org/2000/svg"
   xmlns="http://www.w3.org/2000/svg"
   xmlns:sodipodi="http://sodipodi.sourceforge.net/DTD/sodipodi-0.dtd"
   xmlns:inkscape="http://www.inkscape.org/namespaces/inkscape"
   version="1.0"
   width="674.2608"
   height="686.85779"
   viewBox="0 0 539.40864 549.48623"
   preserveAspectRatio="xMidYMid meet"
   id="svg2"
   inkscape:version="0.48.5 r10040"
   sodipodi:docname="role.svg">
  <defs
     id="defs12" />
  <sodipodi:namedview
     pagecolor="#ffffff"
     bordercolor="#666666"
     borderopacity="1"
     objecttolerance="10"
     gridtolerance="10"
     guidetolerance="10"
     inkscape:pageopacity="0"
     inkscape:pageshadow="2"
     inkscape:window-width="640"
     inkscape:window-height="480"
     id="namedview10"
     showgrid="false"
     fit-margin-top="50"
     fit-margin-left="50"
     fit-margin-right="50"
     fit-margin-bottom="50"
     inkscape:zoom="0.417193"
     inkscape:cx="184.14586"
     inkscape:cy="364.92343"
     inkscape:window-x="1"
     inkscape:window-y="1"
     inkscape:window-maximized="0"
     inkscape:current-layer="svg2" />
  <metadata
     id="metadata4">
Created by potrace 1.15, written by Peter Selinger 2001-2017
<rdf:RDF>
  <cc:Work
     rdf:about="">
    <dc:format>image/svg+xml</dc:format>
    <dc:type
       rdf:resource="http://purl.org/dc/dcmitype/StillImage" />
    <dc:title></dc:title>
  </cc:Work>
</rdf:RDF>
</metadata>
  <g
     transform="matrix(0.1,0,0,-0.1,-379.2,947.99016)"
     id="g6"
     style="fill:#000000;stroke:none">
    <path
       d="m 4197,9073 c -5,-7 11,-124 16,-130 2,-1 77,-9 167,-18 195,-18 408,-42 471,-53 l 44,-7 6,-60 c 4,-33 12,-355 19,-715 18,-963 1,-3282 -25,-3308 -9,-9 -288,-51 -445,-67 -249,-25 -233,-19 -246,-94 l -12,-64 117,7 c 252,14 1312,18 1680,7 206,-6 376,-9 379,-7 5,5 -15,116 -22,123 -2,2 -83,12 -181,23 -192,22 -446,57 -469,66 -7,3 -16,18 -19,33 -7,36 -25,872 -31,1413 l -4,416 82,6 c 44,3 182,13 306,22 l 225,16 50,-58 c 935,-1084 1714,-1896 2074,-2163 117,-87 116,-86 272,-62 73,12 134,23 135,24 2,1 -31,41 -72,87 -270,304 -625,784 -1025,1387 -281,424 -660,1034 -659,1062 0,3 29,23 65,44 289,173 580,480 720,762 91,186 122,314 111,465 -8,110 -26,176 -77,280 -34,70 -58,101 -133,175 -250,247 -616,347 -1406,385 -246,11 -2106,14 -2113,3 z m 1804,-188 c 626,-66 1036,-330 1134,-729 40,-163 12,-414 -65,-600 -180,-432 -667,-697 -1300,-709 l -125,-2 3,530 c 3,598 19,1456 28,1498 l 6,27 91,0 c 51,0 153,-7 228,-15 z"
       id="path8"
       inkscape:connector-curvature="0" />
  </g>
</svg>
