<?xml version="1.0" encoding="UTF-8" standalone="no"?>
<svg
   xmlns:dc="http://purl.org/dc/elements/1.1/"
   xmlns:cc="http://creativecommons.org/ns#"
   xmlns:rdf="http://www.w3.org/1999/02/22-rdf-syntax-ns#"
   xmlns:svg="http://www.w3.org/2000/svg"
   xmlns="http://www.w3.org/2000/svg"
   xmlns:xlink="http://www.w3.org/1999/xlink"
   xmlns:sodipodi="http://sodipodi.sourceforge.net/DTD/sodipodi-0.dtd"
   xmlns:inkscape="http://www.inkscape.org/namespaces/inkscape"
   width="67.81559"
   height="50.860786"
   viewBox="0 0 67.81559 50.860787"
   version="1.1"
   id="svg59"
   sodipodi:docname="instance.svg"
   inkscape:version="0.92.4 (5da689c313, 2019-01-14)">
  <metadata
     id="metadata63">
    <rdf:RDF>
      <cc:Work
         rdf:about="">
        <dc:format>image/svg+xml</dc:format>
        <dc:type
           rdf:resource="http://purl.org/dc/dcmitype/StillImage" />
        <dc:title>WORK_instance_grand</dc:title>
      </cc:Work>
    </rdf:RDF>
  </metadata>
  <sodipodi:namedview
     pagecolor="#ffffff"
     bordercolor="#666666"
     borderopacity="1"
     objecttolerance="10"
     gridtolerance="10"
     guidetolerance="10"
     inkscape:pageopacity="0"
     inkscape:pageshadow="2"
     inkscape:window-width="1385"
     inkscape:window-height="874"
     id="namedview61"
     showgrid="false"
     fit-margin-top="0.2"
     fit-margin-right="0.2"
     fit-margin-bottom="0.2"
     fit-margin-left="0.2"
     inkscape:zoom="17.93098"
     inkscape:cx="33.907795"
     inkscape:cy="19.159689"
     inkscape:window-x="1"
     inkscape:window-y="1"
     inkscape:window-maximized="0"
     inkscape:current-layer="WORK_instance_grand" />
  <!-- Generator: Sketch 50.2 (55047) - http://www.bohemiancoding.com/sketch -->
  <title
     id="title2">WORK_instance_grand</title>
  <desc
     id="desc4">Created with Sketch.</desc>
  <defs
     id="defs12">
    <polygon
       id="path-1"
       points="0.08815047,0.83316527 36.368448,0.83316527 36.368448,25.890611 0.08815047,25.890611 " />
    <polygon
       id="path-3"
       points="0.41715556,0.39078788 18.0272,0.39078788 18.0272,12.713212 0.41715556,12.713212 " />
    <path
       d="m 1.8956124,3.7466667 c -2.71836684,0.7016666 0,6.1716666 0,6.1716666 H 64.402527 c 0,0 2.661446,-5.4166666 0,-6.1716666 C 56.83905,1.6 45.458476,0.6 33.993385,0.6 21.940118,0.60166667 9.7919852,1.705 1.8956124,3.7466667"
       id="path-5"
       inkscape:connector-curvature="0" />
    <path
       d="m 1.8956124,3.7466667 c -2.71836684,0.7016666 0,6.1716666 0,6.1716666 H 64.402527 c 0,0 2.661446,-5.4166666 0,-6.1716666 C 56.83905,1.6 45.458476,0.6 33.99166,0.6 21.940118,0.6 9.7919852,1.705 1.8956124,3.7466667 Z"
       id="path-7"
       inkscape:connector-curvature="0" />
    <path
       d="m 1.5145263,0.36201951 c 0,0 -2.6799473,4.65119999 0,5.29849759 15.6211577,3.7786829 47.4244737,3.4183317 62.9431577,0 2.735527,-0.6022537 0,-5.29849759 0,-5.29849759"
       id="path-9"
       inkscape:connector-curvature="0" />
    <path
       d="m 1.5145263,0.36201951 c 0,0 -2.6799473,4.65119999 0,5.29849759 15.6211577,3.7786829 47.4244737,3.4183317 62.9431577,0 2.735527,-0.6022537 0,-5.29849759 0,-5.29849759 z"
       id="path-11"
       inkscape:connector-curvature="0" />
  </defs>
  <g
     id="WORK_instance_grand"
     style="opacity:0.80005583;fill:none;fill-rule:evenodd;stroke:none;stroke-width:1"
     transform="translate(-1.5924506,-2.5629753)">
    <polygon
       style="fill:#ffffff;stroke:#152631;stroke-width:2.29999995"
       points="61,10 3,10 3,42 61,42 "
       id="Stroke-5"
       transform="translate(3,3)" />
    <g
       transform="translate(19,10)"
       id="Group-9">
      <mask
         fill="white"
         id="mask-2">
        <use
           height="100%"
           width="100%"
           y="0"
           x="0"
           id="use15"
           xlink:href="#path-1" />
      </mask>
      <g
         id="Clip-7" />
      <polygon
         style="stroke:#b6b5b6;stroke-width:1.20000005"
         points="36.368448,0.83156303 0.08815047,0.83156303 0.08815047,25.890611 36.368448,25.890611 "
         mask="url(#mask-2)"
         id="Stroke-6" />
      <polygon
         style="stroke:#b6b5b6;stroke-width:1.20000005"
         points="290.33227,-730.05626 -1623.4765,-730.05626 -1623.4765,848.65894 290.33227,848.65894 "
         mask="url(#mask-2)"
         id="Stroke-8" />
    </g>
    <polygon
       style="fill:#ffffff;stroke:#152631;stroke-width:2.4000001"
       points="16,10 16,35 52,35 52,10 "
       id="Stroke-10"
       transform="translate(1,3)" />
    <g
       transform="translate(28,13)"
       id="Group-14">
      <mask
         fill="white"
         id="mask-4">
        <use
           height="100%"
           width="100%"
           y="0"
           x="0"
           id="use23"
           xlink:href="#path-3" />
      </mask>
      <g
         id="Clip-12" />
      <polygon
         style="stroke:#b6b5b6;stroke-width:1.20000005"
         points="18.0272,0.39078788 0.41715556,0.39078788 0.41715556,12.713212 18.0272,12.713212 "
         mask="url(#mask-4)"
         id="Stroke-11" />
      <polygon
         style="stroke:#b6b5b6;stroke-width:1.20000005"
         points="273.36187,-718.41467 -1584.4311,-718.41467 -1584.4311,834.20606 273.36187,834.20606 "
         mask="url(#mask-4)"
         id="Stroke-13" />
    </g>
    <polygon
       style="stroke:#152631;stroke-width:2.20000005"
       points="25,10 25,22 43,22 43,10 "
       id="Stroke-15"
       transform="translate(1,3)" />
    <g
       id="Group-18"
       transform="translate(3,3)">
      <mask
         fill="white"
         id="mask-6">
        <use
           height="100%"
           width="100%"
           y="0"
           x="0"
           id="use31"
           xlink:href="#path-5" />
      </mask>
      <g
         id="Clip-17" />
      <polyline
         style="stroke:#b6b5b6;stroke-width:1.20000005"
         points="64.4025266 3.74583333 64.4025266 9.91916667 1.89561243 9.91916667 1.89561243 3.74583333"
         mask="url(#mask-6)"
         id="Stroke-16" />
    </g>
    <g
       id="Group-21"
       transform="translate(3,3)">
      <mask
         fill="white"
         id="mask-8">
        <use
           height="100%"
           width="100%"
           y="0"
           x="0"
           id="use37"
           xlink:href="#path-7" />
      </mask>
      <g
         id="Clip-20" />
      <polygon
         style="stroke:#b6b5b6;stroke-width:1.20000005"
         points="253.75851,-94.471667 -1297.8615,-94.471667 -1297.8615,117.67833 253.75851,117.67833 "
         mask="url(#mask-8)"
         id="Stroke-19" />
    </g>
    <path
       style="stroke:#152631;stroke-width:2.4000001"
       inkscape:connector-curvature="0"
       id="Stroke-22"
       d="m 4.210063,7.0380211 c 15.434062,-3.8453475 47.067496,-4.2509681 62.605212,0 2.665632,0.7291514 0,5.9619789 0,5.9619789 H 4.210063 c 0,0 -2.7226417,-5.2843349 0,-5.9619789 z" />
    <g
       transform="translate(3,43)"
       id="Group-29">
      <g
         id="Group-26">
        <mask
           fill="white"
           id="mask-10">
          <use
             height="100%"
             width="100%"
             y="0"
             x="0"
             id="use44"
             xlink:href="#path-9" />
        </mask>
        <g
           id="Clip-25" />
        <polyline
           style="stroke:#b6b5b6;stroke-width:1.20000005"
           points="1.51574211 5.66051707 1.51574211 0.362019512 64.4571632 0.362019512 64.4571632 5.66051707"
           mask="url(#mask-10)"
           id="Stroke-24" />
      </g>
      <mask
         fill="white"
         id="mask-12">
        <use
           height="100%"
           width="100%"
           y="0"
           x="0"
           id="use50"
           xlink:href="#path-11" />
      </mask>
      <g
         id="Clip-28" />
      <polygon
         style="stroke:#b6b5b6;stroke-width:1.20000005"
         points="1373.2481,-92.116449 -189.15774,-92.116449 -189.15774,89.951005 1373.2481,89.951005 "
         mask="url(#mask-12)"
         id="Stroke-27" />
    </g>
    <path
       style="stroke:#0f0f0f;stroke-width:2.4000001"
       inkscape:connector-curvature="0"
       id="Stroke-30"
       d="m 66.79069,49.636726 c -15.435971,2.991389 -47.068052,3.306733 -62.6059506,0 -2.6656636,-0.567911 0,-4.636726 0,-4.636726 H 66.79069 c 0,0 2.720947,4.109693 0,4.636726 z" />
  </g>
</svg>
