<?xml version="1.0" encoding="UTF-8" standalone="no"?>
<svg
   xmlns:dc="http://purl.org/dc/elements/1.1/"
   xmlns:cc="http://creativecommons.org/ns#"
   xmlns:rdf="http://www.w3.org/1999/02/22-rdf-syntax-ns#"
   xmlns:svg="http://www.w3.org/2000/svg"
   xmlns="http://www.w3.org/2000/svg"
   xmlns:sodipodi="http://sodipodi.sourceforge.net/DTD/sodipodi-0.dtd"
   xmlns:inkscape="http://www.inkscape.org/namespaces/inkscape"
   width="60.799999"
   height="58.799999"
   viewBox="0 0 60.799999 58.799999"
   version="1.1"
   id="svg23"
   sodipodi:docname="corporation_.svg"
   inkscape:version="0.92.4 (5da689c313, 2019-01-14)">
  <metadata
     id="metadata27">
    <rdf:RDF>
      <cc:Work
         rdf:about="">
        <dc:format>image/svg+xml</dc:format>
        <dc:type
           rdf:resource="http://purl.org/dc/dcmitype/StillImage" />
        <dc:title>WORKSEARCH_Corporation_moyen_outlinegris</dc:title>
      </cc:Work>
    </rdf:RDF>
  </metadata>
  <sodipodi:namedview
     pagecolor="#ffffff"
     bordercolor="#666666"
     borderopacity="1"
     objecttolerance="10"
     gridtolerance="10"
     guidetolerance="10"
     inkscape:pageopacity="0"
     inkscape:pageshadow="2"
     inkscape:window-width="836"
     inkscape:window-height="480"
     id="namedview25"
     showgrid="false"
     inkscape:zoom="2.247619"
     inkscape:cx="30.9"
     inkscape:cy="18.9"
     inkscape:window-x="1"
     inkscape:window-y="1"
     inkscape:window-maximized="0"
     inkscape:current-layer="svg23" />
  <!-- Generator: Sketch 50.2 (55047) - http://www.bohemiancoding.com/sketch -->
  <title
     id="title2">WORKSEARCH_Corporation_moyen_outlinegris</title>
  <desc
     id="desc4">Created with Sketch.</desc>
  <defs
     id="defs6" />
  <g
     id="WORKSEARCH_Corporation_moyen_outlinegris"
     style="fill:none;fill-rule:evenodd;stroke:none;stroke-width:1"
     transform="translate(-14.6,-12.6)">
    <g
       id="Group"
       transform="translate(15,13)"
       style="fill:#000000;fill-rule:nonzero;stroke:#f5f5f5;stroke-width:0.80000001">
      <path
         d="M 31.000534,12 C 34.308042,12 37,9.3082814 37,6.0010686 37,2.6917186 34.306973,0 31.000534,0 27.691958,0 25,2.6927872 25,6.0010686 25,9.3082814 27.693027,12 31.000534,12 Z m 0,-9.2826358 c 1.808176,0 3.280791,1.4724844 3.280791,3.2826358 0,1.8090828 -1.472615,3.2804987 -3.280791,3.2804987 -1.809244,0 -3.281859,-1.4714159 -3.281859,-3.2804987 0,-1.8101514 1.472615,-3.2826358 3.281859,-3.2826358 z"
         id="Shape"
         inkscape:connector-curvature="0" />
      <path
         d="M 39.676308,12 H 22.324774 C 20.492093,12 19,13.460688 19,15.255853 V 37 h 2.750642 V 15.255853 c 0,-0.310131 0.257332,-0.563106 0.574132,-0.563106 h 17.351534 c 0.315718,0 0.57305,0.252975 0.57305,0.563106 V 37 H 43 V 15.255853 C 43,13.460688 41.508988,12 39.676308,12 Z"
         id="path9"
         inkscape:connector-curvature="0" />
      <path
         d="M 11,2 C 7.6919288,2 5,4.6930656 5,8.0011368 5,11.309208 7.6919288,14 11,14 14.308071,14 17,11.309208 17,8.0011368 17,4.6930656 14.308071,2 11,2 Z m 0,9.109132 c -1.7142857,0 -3.1079955,-1.3937095 -3.1079955,-3.1068584 0,-1.7131489 1.3948466,-3.1091323 3.1079955,-3.1091323 1.713149,0 3.107995,1.3959834 3.107995,3.1091323 0,1.7131489 -1.393709,3.1068584 -3.107995,3.1068584 z"
         id="path11"
         inkscape:connector-curvature="0" />
      <path
         d="M 0,18.169017 V 29 H 2.511683 V 18.169017 c 0,-0.233063 0.172777,-0.424046 0.3860331,-0.424046 H 15 V 15 H 2.8977161 C 1.3002699,15 0,16.422119 0,18.169017 Z"
         id="path13"
         inkscape:connector-curvature="0" />
      <path
         d="M 50.999431,14 C 54.308953,14 57,11.309208 57,8.0011368 57,4.6930656 54.308953,2 50.999431,2 47.691047,2 45,4.6930656 45,8.0011368 45,11.309208 47.691047,14 50.999431,14 Z m 0,-9.1079955 c 1.714449,0 3.10829,1.3959834 3.10829,3.1091323 0,1.7131489 -1.394978,3.1068582 -3.10829,3.1068582 -1.713311,0 -3.107152,-1.3937093 -3.107152,-3.1068582 0,-1.7131489 1.393841,-3.1091323 3.107152,-3.1091323 z"
         id="path15"
         inkscape:connector-curvature="0" />
      <path
         d="M 57.101487,15 H 45 v 2.744971 h 12.101487 c 0.213242,0 0.386995,0.190983 0.386995,0.424046 V 29 H 60 V 18.169017 C 59.999013,16.422119 58.698828,15 57.101487,15 Z"
         id="path17"
         inkscape:connector-curvature="0" />
      <path
         d="m 33.974828,54.900056 c 0,0.29528 -0.251111,0.536141 -0.560253,0.536141 H 32.342603 V 33.750695 h -2.684151 v 21.68651 h -1.073027 c -0.308087,0 -0.559199,-0.240861 -0.561309,-0.60064 L 26.682041,29.001008 24,29.128996 25.342075,54.900056 C 25.342075,56.60825 26.795991,58 28.585425,58 h 4.828095 c 1.788379,0 3.244404,-1.39175 3.243349,-3.036454 L 38,29.127989 35.317959,29 Z"
         id="path19"
         inkscape:connector-curvature="0" />
    </g>
  </g>
</svg>
