<?xml version="1.0" encoding="UTF-8" standalone="no"?>
<svg
   xmlns:dc="http://purl.org/dc/elements/1.1/"
   xmlns:cc="http://creativecommons.org/ns#"
   xmlns:rdf="http://www.w3.org/1999/02/22-rdf-syntax-ns#"
   xmlns:svg="http://www.w3.org/2000/svg"
   xmlns="http://www.w3.org/2000/svg"
   xmlns:xlink="http://www.w3.org/1999/xlink"
   xmlns:sodipodi="http://sodipodi.sourceforge.net/DTD/sodipodi-0.dtd"
   xmlns:inkscape="http://www.inkscape.org/namespaces/inkscape"
   width="72.084099"
   height="50.5"
   viewBox="0 0 72.084099 50.5"
   version="1.1"
   id="svg49"
   sodipodi:docname="etext.svg"
   inkscape:version="0.92.4 (5da689c313, 2019-01-14)">
  <metadata
     id="metadata53">
    <rdf:RDF>
      <cc:Work
         rdf:about="">
        <dc:format>image/svg+xml</dc:format>
        <dc:type
           rdf:resource="http://purl.org/dc/dcmitype/StillImage" />
      </cc:Work>
    </rdf:RDF>
  </metadata>
  <sodipodi:namedview
     pagecolor="#ffffff"
     bordercolor="#666666"
     borderopacity="1"
     objecttolerance="10"
     gridtolerance="10"
     guidetolerance="10"
     inkscape:pageopacity="0"
     inkscape:pageshadow="2"
     inkscape:window-width="640"
     inkscape:window-height="480"
     id="namedview51"
     showgrid="false"
     inkscape:zoom="4.1403509"
     inkscape:cx="39.137146"
     inkscape:cy="23.09322"
     inkscape:window-x="1"
     inkscape:window-y="1"
     inkscape:window-maximized="0"
     inkscape:current-layer="svg49" />
  <!-- Generator: Sketch 50.2 (55047) - http://www.bohemiancoding.com/sketch -->
  <title
     id="title2">WORKSEARCH_Work_etext_moyen</title>
  <desc
     id="desc4">Created with Sketch.</desc>
  <defs
     id="defs12">
    <path
       d="M 8.1612632,0 C 7.7014737,0 7.3414737,0.37125 7.3414737,0.87625 V 35.1075 L 0.13136842,48.72 c -0.22989474,0.4375 -0.06568421,0.9425 0.3271579,1.17875 C 0.58989474,49.96625 0.72126316,50 0.85263158,50 H 70.792421 c 0.45979,0 0.81979,-0.37125 0.81979,-0.87625 0,-0.16875 -0.03284,-0.33625 -0.130106,-0.47125 L 64.303579,35.1075 V 0.87625 C 64.303579,0.37125 63.943579,0 63.483789,0 Z M 9.0138947,34.4675 H 62.633684 V 1.71875 H 9.0138947 Z M 8.6526316,36.185 H 62.993684 L 69.384,48.28125 H 45.55579 l -1.671158,-3.2 C 43.721684,44.7775 43.426105,44.6425 43.131789,44.6425 H 28.514526 c -0.361263,0 -0.656842,0.20125 -0.786947,0.50625 l -1.638316,3.1325 H 2.2623158 Z"
       id="path-1"
       inkscape:connector-curvature="0" />
    <path
       d="m 1.5067,0.8655 c -0.4732,0 -0.8437,0.444 -0.8437,1.011 0,0.5655 0.3705,1.05 0.8437,1.05 h 22.7682 c 0.4719,0 0.8437,-0.4845 0.8437,-1.05 0,-0.567 -0.3718,-1.011 -0.8437,-1.011 z"
       id="path-3"
       inkscape:connector-curvature="0" />
    <path
       d="M 1.2226667,0.8655 C 0.798,0.8655 0.4655,1.3095 0.4655,1.8765 c 0,0.5655 0.3325,1.05 0.7571667,1.05 H 4.067 c 0.4538333,0 0.7875,-0.4845 0.7875,-1.05 0,-0.567 -0.3336667,-1.011 -0.7875,-1.011 z"
       id="path-5"
       inkscape:connector-curvature="0" />
    <path
       d="m 1.647,0.89866667 c -0.4455,0 -0.82840909,0.43200003 -0.82840909,0.93466663 C 0.81859091,2.336 1.2015,2.732 1.647,2.732 h 23.724409 c 0.4455,0 0.7965,-0.396 0.7965,-0.8986667 0,-0.5026666 -0.351,-0.93466663 -0.7965,-0.93466663 z"
       id="path-7"
       inkscape:connector-curvature="0" />
    <path
       d="m 1.0028571,0.105 c -0.45066662,0 -0.80352377,0.444 -0.80352377,1.011 0,0.567 0.35285715,1.0515 0.80352377,1.0515 H 24.357048 c 0.449428,0 0.803523,-0.4845 0.803523,-1.0515 0,-0.567 -0.354095,-1.011 -0.803523,-1.011 z"
       id="path-9"
       inkscape:connector-curvature="0" />
    <path
       d="m 1.4886818,0.279 c -0.4467273,0 -0.82840907,0.486 -0.82840907,1.0515 0,0.5655 0.38168177,1.0095 0.82840907,1.0095 H 25.371409 c 0.4455,0 0.7965,-0.444 0.7965,-1.0095 0,-0.5655 -0.351,-1.0515 -0.7965,-1.0515 z"
       id="path-11"
       inkscape:connector-curvature="0" />
    <mask
       fill="white"
       id="mask-2">
      <use
         height="100%"
         width="100%"
         y="0"
         x="0"
         id="use14"
         xlink:href="#path-1" />
    </mask>
  </defs>
  <use
     height="100%"
     width="100%"
     y="0"
     x="0"
     style="fill:#000000;fill-rule:evenodd;stroke:#ffffff;stroke-width:0.5"
     xlink:href="#path-1"
     id="Clip-2"
     transform="translate(0.22189158,0.25)" />
  <polygon
     style="fill:none;fill-rule:evenodd;stroke:none;stroke-width:1"
     points="-6.2892632,56.25 77.929263,56.25 77.929263,-6.25 -6.2892632,-6.25 "
     mask="url(#mask-2)"
     id="Fill-1"
     transform="translate(0.22189158,0.25)" />
  <g
     style="fill:none;fill-rule:evenodd;stroke:none;stroke-width:1"
     id="Group-6"
     transform="translate(26.221892,7.25)">
    <mask
       id="mask-4"
       fill="white">
      <use
         xlink:href="#path-3"
         id="use20"
         x="0"
         y="0"
         width="100%"
         height="100%" />
    </mask>
    <use
       id="Clip-5"
       xlink:href="#path-3"
       style="fill:#000000;stroke:#ffffff"
       x="0"
       y="0"
       width="100%"
       height="100%" />
  </g>
  <g
     style="fill:none;fill-rule:evenodd;stroke:none;stroke-width:1"
     id="Group-9"
     transform="translate(20.221892,7.25)">
    <mask
       id="mask-6"
       fill="white">
      <use
         xlink:href="#path-5"
         id="use25"
         x="0"
         y="0"
         width="100%"
         height="100%" />
    </mask>
    <use
       id="Clip-8"
       xlink:href="#path-5"
       style="fill:#000000;stroke:#ffffff;stroke-width:0.80000001"
       x="0"
       y="0"
       width="100%"
       height="100%" />
  </g>
  <g
     style="fill:none;fill-rule:evenodd;stroke:none;stroke-width:1"
     id="Group-12"
     transform="translate(24.221892,13.25)">
    <mask
       id="mask-8"
       fill="white">
      <use
         xlink:href="#path-7"
         id="use30"
         x="0"
         y="0"
         width="100%"
         height="100%" />
    </mask>
    <g
       id="Clip-11" />
    <polygon
       id="Fill-10"
       mask="url(#mask-8)"
       points="32.303046,-5.768 -5.3165454,-5.768 -5.3165454,9.3986667 32.303046,9.3986667 "
       style="fill:#343434" />
  </g>
  <path
     d="m 26.070389,16.25 c -0.45698,0 -0.848497,-0.432 -0.848497,-0.980364 0,-0.548363 0.391517,-1.019636 0.848497,-1.019636 h 24.335738 c 0.456979,0 0.815765,0.471273 0.815765,1.019636 0,0.548364 -0.358786,0.980364 -0.815765,0.980364 z"
     id="Stroke-13"
     inkscape:connector-curvature="0"
     style="fill:#000000;fill-rule:evenodd;stroke:#fefefe;stroke-width:0.80000001" />
  <g
     style="fill:none;fill-rule:evenodd;stroke:none;stroke-width:1"
     id="Group-17"
     transform="translate(25.221892,20.25)">
    <mask
       id="mask-10"
       fill="white">
      <use
         xlink:href="#path-9"
         id="use37"
         x="0"
         y="0"
         width="100%"
         height="100%" />
    </mask>
    <use
       id="Clip-16"
       xlink:href="#path-9"
       style="fill:#000000;stroke:#ffffff;stroke-width:0.80000001"
       x="0"
       y="0"
       width="100%"
       height="100%" />
  </g>
  <g
     style="fill:none;fill-rule:evenodd;stroke:none;stroke-width:1"
     id="Group-20"
     transform="translate(24.221892,26.25)">
    <mask
       id="mask-12"
       fill="white">
      <use
         xlink:href="#path-11"
         id="use42"
         x="0"
         y="0"
         width="100%"
         height="100%" />
    </mask>
    <use
       id="Clip-19"
       xlink:href="#path-11"
       style="fill:#000000;stroke:#ffffff;stroke-width:0.80000001"
       x="0"
       y="0"
       width="100%"
       height="100%" />
  </g>
</svg>
