<?xml version="1.0" encoding="UTF-8" standalone="no"?>
<svg
   xmlns:dc="http://purl.org/dc/elements/1.1/"
   xmlns:cc="http://creativecommons.org/ns#"
   xmlns:rdf="http://www.w3.org/1999/02/22-rdf-syntax-ns#"
   xmlns:svg="http://www.w3.org/2000/svg"
   xmlns="http://www.w3.org/2000/svg"
   xmlns:xlink="http://www.w3.org/1999/xlink"
   xmlns:sodipodi="http://sodipodi.sourceforge.net/DTD/sodipodi-0.dtd"
   xmlns:inkscape="http://www.inkscape.org/namespaces/inkscape"
   width="39.914551"
   height="31.270487"
   viewBox="0 0 39.914551 31.270487"
   version="1.1"
   id="svg74"
   sodipodi:docname="images_b.svg"
   inkscape:version="0.92.4 (5da689c313, 2019-01-14)">
  <metadata
     id="metadata78">
    <rdf:RDF>
      <cc:Work
         rdf:about="">
        <dc:format>image/svg+xml</dc:format>
        <dc:type
           rdf:resource="http://purl.org/dc/dcmitype/StillImage" />
        <dc:title>WORKMENU_Image_moyen_blanc</dc:title>
      </cc:Work>
    </rdf:RDF>
  </metadata>
  <sodipodi:namedview
     pagecolor="#ffffff"
     bordercolor="#666666"
     borderopacity="1"
     objecttolerance="10"
     gridtolerance="10"
     guidetolerance="10"
     inkscape:pageopacity="0"
     inkscape:pageshadow="2"
     inkscape:window-width="1410"
     inkscape:window-height="663"
     id="namedview76"
     showgrid="false"
     inkscape:zoom="9.8163058"
     inkscape:cx="-1.2452793"
     inkscape:cy="15.25487"
     inkscape:window-x="1"
     inkscape:window-y="1"
     inkscape:window-maximized="0"
     inkscape:current-layer="svg74" />
  <!-- Generator: Sketch 50.2 (55047) - http://www.bohemiancoding.com/sketch -->
  <title
     id="title2">WORKMENU_Image_moyen_blanc</title>
  <desc
     id="desc4">Created with Sketch.</desc>
  <defs
     id="defs12">
    <path
       d="M 1.0652632,0.89473684 C 0.58105263,0.89473684 0.15894737,1.2989474 0.15894737,1.76 v 21.336842 c 0,0.46 0.42210526,0.864211 0.90631583,0.864211 H 31.918947 c 0.483158,0 0.906316,-0.404211 0.906316,-0.864211 V 1.76 c 0,-0.4610526 -0.423158,-0.86526316 -0.906316,-0.86526316 z M 1.9726316,22.231579 H 31.010526 V 2.6252632 H 1.9726316 Z"
       id="path-1"
       inkscape:connector-curvature="0" />
    <path
       d="m 29.096842,1.7410526 c -0.05789,0.4621053 0.286316,0.8663158 0.746316,0.9242106 L 30.989474,2.78 28.982105,22.208421 1.9052632,19.383158 V 19.037895 C 1.9631579,18.574737 1.62,18.172632 1.16,18.114737 0.70210526,18.056842 0.3,18.403158 0.24210526,18.86421 l -0.11473684,1.209474 c -0.0568421,0.462105 0.28736842,0.924211 0.74526316,0.982105 L 29.612632,24.052632 h 0.115789 c 0.457895,0 0.802105,-0.345264 0.86,-0.749474 l 2.18,-21.1568422 c 0.05684,-0.2305263 0,-0.4621053 -0.172631,-0.6347368 C 32.481053,1.3389474 32.251579,1.2231579 32.023158,1.2231579 L 30.014737,0.99157895 c -0.03368,-0.004211 -0.06632,-0.006316 -0.1,-0.006316 -0.41579,0 -0.765263,0.32947364 -0.817895,0.75578944 z"
       id="path-3"
       inkscape:connector-curvature="0" />
    <path
       d="m 29.096842,1.7410526 c -0.05789,0.4621053 0.286316,0.8663158 0.746316,0.9242106 L 30.989474,2.78 28.982105,22.208421 1.9052632,19.383158 V 19.037895 C 1.9631579,18.574737 1.62,18.172632 1.16,18.114737 0.70210526,18.056842 0.3,18.403158 0.24210526,18.86421 l -0.11473684,1.209474 c -0.0568421,0.462105 0.28736842,0.924211 0.74526316,0.982105 L 29.612632,24.052632 h 0.115789 c 0.457895,0 0.802105,-0.345264 0.86,-0.749474 l 2.18,-21.1568422 c 0.05684,-0.2305263 0,-0.4621053 -0.172631,-0.6347368 C 32.481053,1.3389474 32.251579,1.2231579 32.023158,1.2231579 L 30.014737,0.99157895 c -0.03368,-0.003158 -0.06632,-0.006316 -0.1,-0.006316 -0.41579,0 -0.764211,0.32947364 -0.817895,0.75578944 z"
       id="path-5"
       inkscape:connector-curvature="0" />
    <path
       d="m 29.096842,1.7410526 c -0.05789,0.4621053 0.286316,0.8663158 0.746316,0.9242106 L 30.989474,2.78 28.982105,22.208421 1.9052632,19.383158 V 19.037895 C 1.9631579,18.574737 1.62,18.172632 1.16,18.114737 0.70210526,18.056842 0.3,18.403158 0.24210526,18.86421 l -0.11473684,1.209474 c -0.0568421,0.462105 0.28736842,0.924211 0.74526316,0.982105 L 29.612632,24.052632 h 0.115789 c 0.457895,0 0.802105,-0.345264 0.86,-0.749474 l 2.18,-21.1568422 c 0.05684,-0.2305263 0,-0.4621053 -0.172631,-0.6347368 C 32.481053,1.3389474 32.251579,1.2231579 32.023158,1.2231579 L 30.014737,0.99157895 c -0.03368,-0.004211 -0.06632,-0.006316 -0.1,-0.006316 -0.41579,0 -0.765263,0.32947364 -0.817895,0.75578944 z"
       id="path-7"
       inkscape:connector-curvature="0" />
    <path
       d="m 10.225263,0.96421053 c -2.8715788,0 -8.8536841,3.89052627 -9.52421037,4.34631577 -0.33473684,0.2073684 -0.38315789,0.4968421 -0.14315789,0.7863158 0.24,0.2905263 0.67052626,0.3726316 1.00526316,0.1663158 1.7221053,-1.1589474 6.6526316,-4.0568421 8.6621051,-4.0568421 1.387369,0 4.11579,1.78 5.886316,3.0631579 1.722105,1.2421052 2.58421,1.7378947 3.254737,1.78 h 0.190526 c 1.818947,0 5.6,-2.0284211 6.366316,-2.4421053 C 26.256842,4.4 26.352632,4.0284211 26.161053,3.7378947 25.923158,3.4484211 25.491579,3.4063158 25.156842,3.5726316 23.337895,4.5652632 20.418947,5.9315789 19.556842,5.848421 19.223158,5.8073684 18.026316,4.9789474 17.068421,4.3178947 14.771579,2.7031579 12.187368,0.96421053 10.272632,0.96421053 Z"
       id="path-9"
       inkscape:connector-curvature="0" />
    <path
       d="m 0.012,3.329 c 0,1.678 1.391,3.043 3.104,3.043 1.658,0 3.103,-1.365 3.103,-3.043 0,-1.681 -1.391,-3.044 -3.103,-3.044 -1.713,0 -3.104,1.363 -3.104,3.044 z m 1.605,0.052 c 0,-0.84 0.696,-1.47 1.499,-1.47 0.803,0 1.497,0.63 1.497,1.47 C 4.613,4.22 3.972,4.85 3.116,4.85 2.26,4.85 1.617,4.22 1.617,3.381 Z"
       id="path-11"
       inkscape:connector-curvature="0" />
  </defs>
  <path
     style="fill:#ffffff;fill-rule:evenodd;stroke:none;stroke-width:1;fill-opacity:1"
     inkscape:connector-curvature="0"
     id="Fill-1"
     d="m 32.913089,22.427932 c 0,0.46 -0.423158,0.86421 -0.907368,0.86421 H 1.1530894 c -0.48421,0 -0.907368,-0.40421 -0.907368,-0.86421 V 1.0910904 c 0,-0.46105299 0.423158,-0.86526399 0.907368,-0.86526399 H 32.005721 c 0.48421,0 0.907368,0.404211 0.907368,0.86526399 z M 2.0604584,21.562669 H 31.098352 V 1.9563534 H 2.0604584 Z" />
  <g
     style="fill:none;fill-rule:evenodd;stroke:none;stroke-width:1"
     transform="translate(0.0874054,-0.66859459)"
     id="Group-8">
    <mask
       fill="white"
       id="mask-2">
      <use
         height="100%"
         width="100%"
         y="0"
         x="0"
         id="use15"
         xlink:href="#path-1" />
    </mask>
    <g
       id="Clip-4" />
    <polygon
       style="fill:#b6b5b6"
       points="-670.36842,244.05263 218.05263,244.05263 218.05263,-551.73684 -670.36842,-551.73684 "
       mask="url(#mask-2)"
       id="Fill-3" />
    <polygon
       style="fill:#152631"
       points="-5.1052632,29.224211 38.088421,29.224211 38.088421,-4.3684211 -5.1052632,-4.3684211 "
       mask="url(#mask-2)"
       id="Fill-5" />
    <polygon
       style="stroke:#fefefe;stroke-width:0.2"
       points="-5.1052632,29.224211 38.088421,29.224211 38.088421,-4.3684211 -5.1052632,-4.3684211 "
       mask="url(#mask-2)"
       id="Stroke-6" />
    <polygon
       style="stroke:#fefefe;stroke-width:0.2"
       points="-670.36842,244.05263 218.05263,244.05263 218.05263,-551.73684 -670.36842,-551.73684 "
       mask="url(#mask-2)"
       id="Stroke-7" />
  </g>
  <g
     style="fill:none;fill-rule:evenodd;stroke:none;stroke-width:1"
     transform="translate(0.0874054,-0.66859459)"
     id="Group-13">
    <path
       style="stroke:#fefefe;stroke-width:0.5"
       inkscape:connector-curvature="0"
       id="Stroke-9"
       d="m 33.712865,23.720757 c 0,0.472432 -0.434595,0.887567 -0.931892,0.887567 H 1.0944865 c -0.49729731,0 -0.9318919,-0.415135 -0.9318919,-0.887567 V 1.8072432 c 0,-0.4735135 0.43459459,-0.88864861 0.9318919,-0.88864861 H 32.780973 c 0.497297,0 0.931892,0.41513511 0.931892,0.88864861 z M 2.0263784,22.832108 H 31.849081 V 2.6958919 H 2.0263784 Z" />
    <path
       style="fill:#152631;stroke:#ffffff;stroke-width:1.5"
       inkscape:connector-curvature="0"
       id="Fill-11"
       d="M 35.936757,31.189081 H 35.818919 L 6.3021622,28.110162 C 5.8308108,28.051784 5.4783784,27.577189 5.5367568,27.103676 l 0.1178378,-1.243244 c 0.058378,-0.473513 0.4713513,-0.828108 0.9427027,-0.769729 0.4713513,0.05946 0.8248649,0.473513 0.7654054,0.947027 v 0.355675 L 35.171351,29.295027 37.232973,9.3415135 36.054595,9.2236757 C 35.583243,9.1642162 35.22973,8.7490811 35.288108,8.2755676 35.347568,7.802054 35.759459,7.4463784 36.230811,7.5058378 l 2.062703,0.2378379 c 0.234594,0 0.471351,0.1178378 0.589189,0.2951351 0.176216,0.1772973 0.234594,0.4151352 0.176216,0.6508108 L 36.82,30.419351 c -0.05838,0.415135 -0.411892,0.76973 -0.883243,0.76973" />
  </g>
  <g
     style="fill:none;fill-rule:evenodd;stroke:none;stroke-width:1"
     transform="translate(5.3505634,5.6471954)"
     id="Group-16">
    <mask
       fill="white"
       id="mask-4">
      <use
         height="100%"
         width="100%"
         y="0"
         x="0"
         id="use27"
         xlink:href="#path-3" />
    </mask>
    <g
       id="Clip-15" />
    <polygon
       style="fill:#b6b5b6"
       points="-675.63158,237.73684 212.78947,237.73684 212.78947,-558.05263 -675.63158,-558.05263 "
       mask="url(#mask-4)"
       id="Fill-14" />
  </g>
  <g
     style="fill:none;fill-rule:evenodd;stroke:none;stroke-width:1"
     transform="translate(5.3505634,5.6471954)"
     id="Group-20">
    <mask
       fill="white"
       id="mask-6">
      <use
         height="100%"
         width="100%"
         y="0"
         x="0"
         id="use33"
         xlink:href="#path-5" />
    </mask>
    <g
       id="Clip-18" />
    <polygon
       style="fill:#b6b5b6"
       points="-5.1410526,29.31579 38.053684,29.31579 38.053684,-4.2768421 -5.1410526,-4.2768421 "
       mask="url(#mask-6)"
       id="Fill-17" />
    <polygon
       style="stroke:#fefefe;stroke-width:0.30000001"
       points="-5.1410526,29.31579 38.053684,29.31579 38.053684,-4.2768421 -5.1410526,-4.2768421 "
       mask="url(#mask-6)"
       id="Stroke-19" />
  </g>
  <g
     style="fill:none;fill-rule:evenodd;stroke:none;stroke-width:1"
     transform="translate(5.3505634,5.6471954)"
     id="Group-23">
    <mask
       fill="white"
       id="mask-8">
      <use
         height="100%"
         width="100%"
         y="0"
         x="0"
         id="use40"
         xlink:href="#path-7" />
    </mask>
    <g
       id="Clip-22" />
    <polygon
       style="stroke:#fefefe;stroke-width:0.30000001"
       points="-675.63158,237.73684 212.78947,237.73684 212.78947,-558.05263 -675.63158,-558.05263 "
       mask="url(#mask-8)"
       id="Stroke-21" />
  </g>
  <g
     style="fill:none;fill-rule:evenodd;stroke:none;stroke-width:1"
     transform="translate(3.2453004,5.6471954)"
     id="Group-28">
    <path
       style="fill:#152631;stroke:#ffffff;stroke-width:0.5"
       inkscape:connector-curvature="0"
       id="Stroke-24"
       d="M 31.833158,24.052526 H 31.718421 L 2.9784211,21.054632 c -0.4589474,-0.05684 -0.8021053,-0.518948 -0.7452632,-0.98 l 0.1147368,-1.210527 c 0.056842,-0.461052 0.4589474,-0.806316 0.9178948,-0.749473 0.4589473,0.05789 0.8031579,0.461052 0.7452631,0.922105 v 0.346316 L 31.087895,22.208316 33.095263,2.7798947 31.947895,2.6651579 C 31.488947,2.6072632 31.144737,2.2030526 31.201579,1.742 c 0.0579,-0.4610526 0.458947,-0.80736842 0.917895,-0.74947368 l 2.008421,0.23157898 c 0.228421,0 0.458947,0.1147368 0.573684,0.2873684 0.171579,0.1726316 0.228421,0.4042105 0.171579,0.6336842 l -2.18,21.1578951 c -0.05684,0.40421 -0.401053,0.749473 -0.86,0.749473 z" />
    <path
       style="fill:#b6b5b6"
       inkscape:connector-curvature="0"
       id="Fill-26"
       d="M 19.557263,9.1542105 H 19.365684 C 18.69621,9.1131579 17.834105,8.6163158 16.112,7.3752632 14.340421,6.0921053 11.613053,4.3110526 10.225684,4.3110526 c -2.0105261,0 -6.9399998,2.8978948 -8.6631577,4.0568421 -0.3347368,0.2063158 -0.76526314,0.1242106 -1.00421051,-0.1652631 -0.24,-0.2905263 -0.19157895,-0.58 0.14315789,-0.7863158 C 1.372,6.9605263 7.3541053,3.07 10.225684,3.07 h 0.04737 c 1.914736,0 4.498947,1.7378947 6.795789,3.3526316 0.956842,0.6621052 2.153684,1.4894737 2.488421,1.5305263 0.862105,0.083158 3.781053,-1.2821053 5.6,-2.2757895 0.334737,-0.1652631 0.765263,-0.1242105 1.004211,0.1652632 0.191579,0.2905263 0.09579,0.6621052 -0.238948,0.8694737 -0.765263,0.4136842 -4.546316,2.4421052 -6.365263,2.4421052" />
  </g>
  <g
     style="fill:none;fill-rule:evenodd;stroke:none;stroke-width:1"
     transform="translate(3.2453004,7.7524584)"
     id="Group-34">
    <mask
       fill="white"
       id="mask-10">
      <use
         height="100%"
         width="100%"
         y="0"
         x="0"
         id="use49"
         xlink:href="#path-9" />
    </mask>
    <g
       id="Clip-30" />
    <polygon
       style="fill:#b6b5b6"
       points="-530.19895,187.2979 172.83368,187.2979 172.83368,-442.43263 -530.19895,-442.43263 "
       mask="url(#mask-10)"
       id="Fill-29" />
    <polygon
       style="fill:#b6b5b6"
       points="-3.7568421,11.214737 30.424211,11.214737 30.424211,-3.1989474 -3.7568421,-3.1989474 "
       mask="url(#mask-10)"
       id="Fill-31" />
    <polygon
       style="stroke:#fefefe;stroke-width:0.1"
       points="-3.7568421,11.214737 30.424211,11.214737 30.424211,-3.1989474 -3.7568421,-3.1989474 "
       mask="url(#mask-10)"
       id="Stroke-32" />
    <polygon
       style="stroke:#fefefe;stroke-width:0.1"
       points="-530.19895,187.2979 172.83368,187.2979 172.83368,-442.43263 -530.19895,-442.43263 "
       mask="url(#mask-10)"
       id="Stroke-33" />
  </g>
  <g
     style="fill:none;fill-rule:evenodd;stroke:none;stroke-width:1"
     transform="translate(3.2453004,2.4893004)"
     id="Group-39">
    <path
       style="fill:#ffffff;stroke:#152631;stroke-width:0.1;fill-opacity:0.94117647"
       inkscape:connector-curvature="0"
       id="Stroke-35"
       d="M 19.557263,12.312105 H 19.365684 C 18.69621,12.271053 17.834105,11.774211 16.112,10.533158 14.340421,9.25 11.613053,7.4689474 10.225684,7.4689474 8.2151579,7.4689474 3.2856842,10.366842 1.5625263,11.52579 1.2277895,11.732105 0.79726316,11.65 0.55831579,11.360526 0.31831579,11.07 0.36673684,10.780526 0.70147368,10.574211 1.372,10.118421 7.3541053,6.2278947 10.225684,6.2278947 h 0.04737 c 1.914736,0 4.498947,1.7378948 6.795789,3.3526316 0.956842,0.6621057 2.153684,1.4894737 2.488421,1.5305267 0.862105,0.08316 3.781053,-1.2821056 5.6,-2.2757898 C 25.492,8.67 25.922526,8.7110526 26.161474,9.0005263 26.353053,9.2910526 26.257263,9.6626316 25.922526,9.87 c -0.765263,0.413684 -4.546316,2.442105 -6.365263,2.442105 z" />
    <path
       style="fill:#ffffff;fill-opacity:1"
       inkscape:connector-curvature="0"
       id="Fill-37"
       d="m 21.17421,6.7066316 c -1.802105,0 -3.267368,-1.4357895 -3.267368,-3.2031579 0,-1.7684211 1.465263,-3.20421054 3.267368,-3.20421054 1.802106,0 3.267369,1.43578944 3.267369,3.20421054 0,1.7673684 -1.521053,3.2031579 -3.267369,3.2031579 m 0,-4.6947369 c -0.845263,0 -1.576842,0.6631579 -1.576842,1.5473685 0,0.8831578 0.67579,1.5463157 1.576842,1.5463157 0.901053,0 1.576843,-0.6631579 1.576843,-1.5463157 0,-0.8842106 -0.731579,-1.5473685 -1.576843,-1.5473685" />
  </g>
  <g
     style="fill:none;fill-rule:evenodd;stroke:none;stroke-width:1"
     id="Group-45"
     transform="translate(20.087405,2.0156164)">
    <mask
       id="mask-12"
       fill="white">
      <use
         xlink:href="#path-11"
         id="use62"
         x="0"
         y="0"
         width="100%"
         height="100%" />
    </mask>
    <g
       id="Clip-41" />
    <polygon
       id="Fill-40"
       mask="url(#mask-12)"
       points="187.15,-527.15 -656.85,-527.15 -656.85,228.85 187.15,228.85 "
       style="fill:#b6b5b6" />
    <polygon
       id="Fill-42"
       mask="url(#mask-12)"
       points="11.219,-4.716 -4.988,-4.716 -4.988,11.371 11.219,11.371 "
       style="fill:#b6b5b6" />
    <polygon
       id="Stroke-43"
       mask="url(#mask-12)"
       points="11.219,-4.716 -4.988,-4.716 -4.988,11.371 11.219,11.371 "
       style="stroke:#fefefe;stroke-width:0.30000001" />
    <polygon
       id="Stroke-44"
       mask="url(#mask-12)"
       points="187.15,-527.15 -656.85,-527.15 -656.85,228.85 187.15,228.85 "
       style="stroke:#fefefe;stroke-width:0.30000001" />
  </g>
  <path
     d="m 23.087405,9.0156164 c -1.654639,0 -3,-1.344505 -3,-2.999507 0,-1.655988 1.345361,-3.000493 3,-3.000493 1.654639,0 3,1.344505 3,3.000493 0,1.655002 -1.396585,2.999507 -3,2.999507 z m 0,-4.396254 c -0.776095,0 -1.447809,0.620995 -1.447809,1.448989 0,0.827009 0.620489,1.448004 1.447809,1.448004 0.82732,0 1.447809,-0.620995 1.447809,-1.448004 0,-0.827994 -0.671714,-1.448989 -1.447809,-1.448989 z"
     id="Stroke-46"
     inkscape:connector-curvature="0"
     style="fill:#152631;fill-rule:evenodd;stroke:#fefefe;stroke-width:0.30000001" />
</svg>
