<?xml version="1.0" encoding="UTF-8" standalone="no"?>
<svg
   xmlns:dc="http://purl.org/dc/elements/1.1/"
   xmlns:cc="http://creativecommons.org/ns#"
   xmlns:rdf="http://www.w3.org/1999/02/22-rdf-syntax-ns#"
   xmlns:svg="http://www.w3.org/2000/svg"
   xmlns="http://www.w3.org/2000/svg"
   xmlns:xlink="http://www.w3.org/1999/xlink"
   xmlns:sodipodi="http://sodipodi.sourceforge.net/DTD/sodipodi-0.dtd"
   xmlns:inkscape="http://www.inkscape.org/namespaces/inkscape"
   width="56.509544"
   height="43.53521"
   viewBox="0 0 56.509545 43.53521"
   version="1.1"
   id="svg59"
   sodipodi:docname="instance_.svg"
   inkscape:version="0.92.4 (5da689c313, 2019-01-14)">
  <metadata
     id="metadata63">
    <rdf:RDF>
      <cc:Work
         rdf:about="">
        <dc:format>image/svg+xml</dc:format>
        <dc:type
           rdf:resource="http://purl.org/dc/dcmitype/StillImage" />
        <dc:title>WORKSEARCH_Work_moyen_outlinegris</dc:title>
      </cc:Work>
    </rdf:RDF>
  </metadata>
  <sodipodi:namedview
     pagecolor="#ffffff"
     bordercolor="#666666"
     borderopacity="1"
     objecttolerance="10"
     gridtolerance="10"
     guidetolerance="10"
     inkscape:pageopacity="0"
     inkscape:pageshadow="2"
     inkscape:window-width="640"
     inkscape:window-height="480"
     id="namedview61"
     showgrid="false"
     inkscape:zoom="4.1403509"
     inkscape:cx="28.75462"
     inkscape:cy="22.265244"
     inkscape:window-x="1"
     inkscape:window-y="1"
     inkscape:window-maximized="0"
     inkscape:current-layer="svg59"
     fit-margin-bottom="1"
     fit-margin-top="0"
     fit-margin-left="0"
     fit-margin-right="0" />
  <!-- Generator: Sketch 50.2 (55047) - http://www.bohemiancoding.com/sketch -->
  <title
     id="title2">WORKSEARCH_Work_moyen_outlinegris</title>
  <desc
     id="desc4">Created with Sketch.</desc>
  <defs
     id="defs12">
    <polygon
       id="path-1"
       points="0.073855799,21.90744 0.073855799,0.70498599 30.470862,0.70498599 30.470862,21.90744 " />
    <polygon
       id="path-3"
       points="0.35128889,10.757333 0.35128889,0.33066667 15.1808,0.33066667 15.1808,10.757333 " />
    <path
       d="m 1.6083984,2.9973333 c -2.30649307,0.5613334 0,4.9373334 0,4.9373334 H 54.644568 c 0,0 2.258197,-4.3333334 0,-4.9373334 C 48.227073,1.28 38.570828,0.48 28.842872,0.48 18.615858,0.48133333 8.3083511,1.364 1.6083984,2.9973333"
       id="path-5"
       inkscape:connector-curvature="0" />
    <path
       d="m 1.6083984,2.9973333 c -2.30649307,0.5613334 0,4.9373334 0,4.9373334 H 54.644568 c 0,0 2.258197,-4.3333334 0,-4.9373334 C 48.227073,1.28 38.570828,0.48 28.841408,0.48 18.615858,0.48 8.3083511,1.364 1.6083984,2.9973333 Z"
       id="path-7"
       inkscape:connector-curvature="0" />
    <path
       d="m 1.2850526,0.28933333 c 0,0 -2.27389471,3.71733337 0,4.23466667 13.2543154,3.02 40.2389474,2.732 53.4063154,0 2.321053,-0.4813333 0,-4.23466667 0,-4.23466667"
       id="path-9"
       inkscape:connector-curvature="0" />
    <path
       d="m 1.2850526,0.28933333 c 0,0 -2.27389471,3.71733337 0,4.23466667 13.2543154,3.02 40.2389474,2.732 53.4063154,0 2.321053,-0.4813333 0,-4.23466667 0,-4.23466667 z"
       id="path-11"
       inkscape:connector-curvature="0" />
  </defs>
  <polygon
     id="Stroke-5"
     points="53,8 3,8 3,36 53,36 "
     style="fill:none;fill-rule:evenodd;stroke:#152631;stroke-width:1.5"
     transform="translate(0.75461955,-0.22999432)" />
  <g
     style="fill:none;fill-rule:evenodd;stroke:none;stroke-width:1"
     id="Group-9"
     transform="translate(13.75462,5.7700057)">
    <mask
       id="mask-2"
       fill="white">
      <use
         xlink:href="#path-1"
         id="use15"
         x="0"
         y="0"
         width="100%"
         height="100%" />
    </mask>
    <g
       id="Clip-7" />
    <polygon
       id="Stroke-6"
       mask="url(#mask-2)"
       points="30.470862,0.70363025 0.073855799,0.70363025 0.073855799,21.90744 30.470862,21.90744 "
       style="stroke:#b6b5b6;stroke-width:1.20000005" />
    <polygon
       id="Stroke-8"
       mask="url(#mask-2)"
       points="243.25136,-617.73991 -1360.21,-617.73991 -1360.21,718.09602 243.25136,718.09602 "
       style="stroke:#b6b5b6;stroke-width:1.20000005" />
  </g>
  <polygon
     id="Stroke-10"
     points="43,8 13,8 13,29 43,29 "
     style="fill:none;fill-rule:evenodd;stroke:#152631;stroke-width:1.5"
     transform="translate(0.75461955,-0.22999432)" />
  <g
     style="fill:none;fill-rule:evenodd;stroke:none;stroke-width:1"
     id="Group-14"
     transform="translate(20.75462,7.7700057)">
    <mask
       id="mask-4"
       fill="white">
      <use
         xlink:href="#path-3"
         id="use23"
         x="0"
         y="0"
         width="100%"
         height="100%" />
    </mask>
    <g
       id="Clip-12" />
    <polygon
       id="Stroke-11"
       mask="url(#mask-4)"
       points="15.1808,0.33066667 0.35128889,0.33066667 0.35128889,10.757333 15.1808,10.757333 "
       style="stroke:#b6b5b6;stroke-width:1.20000005" />
    <polygon
       id="Stroke-13"
       mask="url(#mask-4)"
       points="230.19947,-607.88933 -1334.2578,-607.88933 -1334.2578,705.86667 230.19947,705.86667 "
       style="stroke:#b6b5b6;stroke-width:1.20000005" />
  </g>
  <polygon
     id="Stroke-15"
     points="35,8 20,8 20,18 35,18 "
     style="fill:none;fill-rule:evenodd;stroke:#152631;stroke-width:1.5"
     transform="translate(0.75461955,-0.22999432)" />
  <g
     style="fill:none;fill-rule:evenodd;stroke:none;stroke-width:1"
     id="Group-18"
     transform="translate(0.75461955,-0.22999432)">
    <mask
       id="mask-6"
       fill="white">
      <use
         xlink:href="#path-5"
         id="use31"
         x="0"
         y="0"
         width="100%"
         height="100%" />
    </mask>
    <g
       id="Clip-17" />
    <polyline
       id="Stroke-16"
       mask="url(#mask-6)"
       points="54.644568 2.99666667 54.644568 7.93533333 1.60839842 7.93533333 1.60839842 2.99666667"
       style="stroke:#b6b5b6;stroke-width:1.20000005" />
  </g>
  <g
     style="fill:none;fill-rule:evenodd;stroke:none;stroke-width:1"
     id="Group-21"
     transform="translate(0.75461955,-0.22999432)">
    <mask
       id="mask-8"
       fill="white">
      <use
         xlink:href="#path-7"
         id="use37"
         x="0"
         y="0"
         width="100%"
         height="100%" />
    </mask>
    <g
       id="Clip-20" />
    <polygon
       id="Stroke-19"
       mask="url(#mask-8)"
       points="215.31025,-75.577333 -1101.2158,-75.577333 -1101.2158,94.142667 215.31025,94.142667 "
       style="stroke:#b6b5b6;stroke-width:1.20000005" />
  </g>
  <path
     d="m 1.7785196,3.1329157 c 13.0596004,-2.99083002 39.8263004,-3.30631002 52.9736004,0 2.2556,0.56711 0,4.63709 0,4.63709 H 1.7785196 c 0,0 -2.30380005,-4.11004 0,-4.63709 z"
     id="Stroke-22"
     inkscape:connector-curvature="0"
     style="fill:none;fill-rule:evenodd;stroke:#152631;stroke-width:1.5" />
  <g
     style="fill:none;fill-rule:evenodd;stroke:none;stroke-width:1"
     id="Group-29"
     transform="translate(0.75461955,33.770006)">
    <g
       id="Group-26">
      <mask
         id="mask-10"
         fill="white">
        <use
           xlink:href="#path-9"
           id="use44"
           x="0"
           y="0"
           width="100%"
           height="100%" />
      </mask>
      <g
         id="Clip-25" />
      <polyline
         id="Stroke-24"
         mask="url(#mask-10)"
         points="1.28608421 4.524 1.28608421 0.289333333 54.6909263 0.289333333 54.6909263 4.524"
         style="stroke:#b6b5b6;stroke-width:1.20000005" />
    </g>
    <mask
       id="mask-12"
       fill="white">
      <use
         xlink:href="#path-11"
         id="use50"
         x="0"
         y="0"
         width="100%"
         height="100%" />
    </mask>
    <g
       id="Clip-28" />
    <polygon
       id="Stroke-27"
       mask="url(#mask-12)"
       points="1165.1802,-73.621333 -160.49747,-73.621333 -160.49747,71.890667 1165.1802,71.890667 "
       style="stroke:#b6b5b6;stroke-width:1.20000005" />
  </g>
  <path
     d="m 54.73132,39.744346 c -13.0612,2.56404 -39.8268,2.83434 -52.9742004,0 -2.25560005,-0.48679 0,-3.97434 0,-3.97434 H 54.73132 c 0,0 2.3024,3.52259 0,3.97434 z"
     id="Stroke-30"
     inkscape:connector-curvature="0"
     style="fill:none;fill-rule:evenodd;stroke:#152631;stroke-width:1.5" />
</svg>
