<?xml version="1.0" encoding="UTF-8" standalone="no"?>
<svg
   xmlns:dc="http://purl.org/dc/elements/1.1/"
   xmlns:cc="http://creativecommons.org/ns#"
   xmlns:rdf="http://www.w3.org/1999/02/22-rdf-syntax-ns#"
   xmlns:svg="http://www.w3.org/2000/svg"
   xmlns="http://www.w3.org/2000/svg"
   xmlns:sodipodi="http://sodipodi.sourceforge.net/DTD/sodipodi-0.dtd"
   xmlns:inkscape="http://www.inkscape.org/namespaces/inkscape"
   width="61.290001"
   height="49.468765"
   viewBox="0 0 61.290001 49.468765"
   version="1.1"
   id="svg10"
   sodipodi:docname="lineage.svg"
   inkscape:version="0.92.4 (5da689c313, 2019-01-14)">
  <metadata
     id="metadata14">
    <rdf:RDF>
      <cc:Work
         rdf:about="">
        <dc:format>image/svg+xml</dc:format>
        <dc:type
           rdf:resource="http://purl.org/dc/dcmitype/StillImage" />
      </cc:Work>
    </rdf:RDF>
  </metadata>
  <sodipodi:namedview
     pagecolor="#ffffff"
     bordercolor="#666666"
     borderopacity="1"
     objecttolerance="10"
     gridtolerance="10"
     guidetolerance="10"
     inkscape:pageopacity="0"
     inkscape:pageshadow="2"
     inkscape:window-width="640"
     inkscape:window-height="480"
     id="namedview12"
     showgrid="false"
     inkscape:zoom="4.72"
     inkscape:cx="31"
     inkscape:cy="24.968764"
     inkscape:window-x="1"
     inkscape:window-y="1"
     inkscape:window-maximized="0"
     inkscape:current-layer="svg10" />
  <!-- Generator: Sketch 50.2 (55047) - http://www.bohemiancoding.com/sketch -->
  <title
     id="title2">WORKSEARCH_Lineage_moyen</title>
  <desc
     id="desc4">Created with Sketch.</desc>
  <defs
     id="defs6" />
  <g
     id="WORKSEARCH_Lineage_moyen"
     style="fill:none;fill-rule:evenodd;stroke:none;stroke-width:1"
     transform="translate(0.5,-0.5)">
    <path
       d="m 60.290001,45.609964 v -4.805592 c 0,-2.099354 -1.704748,-3.8588 -3.887451,-3.8588 h -3.681683 v -7.78532 c 0,-0.675909 -0.545676,-1.285399 -1.297119,-1.285399 H 31.440817 v -5.416384 h 7.98067 c 2.794797,0 5.114245,-2.301215 5.114245,-5.076477 V 6.0777793 C 44.535732,3.3012147 42.216284,1 39.421487,1 H 20.868514 C 18.073716,1 15.754269,3.3012147 15.754269,6.0777793 V 17.381992 c 0,2.775262 2.319447,5.076477 5.114245,5.076477 h 7.980669 v 5.416384 H 8.8662532 c -0.6824202,0 -1.295817,0.540467 -1.295817,1.285399 v 7.78532 H 3.8861486 C 1.7724693,36.945572 0,38.637297 0,40.804372 v 4.805592 c 0,2.098052 1.7047482,3.8588 3.8861486,3.8588 h 9.9589074 c 2.113679,0 3.88745,-1.691725 3.88745,-3.8588 v -4.805592 c 0,-2.099354 -1.704748,-3.8588 -3.88745,-3.8588 H 10.16207 v -6.49862 h 18.687113 v 6.49862 h -3.682985 c -2.114982,0 -3.887451,1.691725 -3.887451,3.8588 v 4.805592 c 0,2.098052 1.704748,3.8588 3.887451,3.8588 h 9.957605 c 2.114981,0 3.887451,-1.691725 3.887451,-3.8588 v -4.805592 c 0,-2.099354 -1.704749,-3.8588 -3.887451,-3.8588 h -3.682986 v -6.49862 h 18.687114 v 6.49862 h -3.682986 c -2.113679,0 -3.887451,1.691725 -3.887451,3.8588 v 4.805592 c 0,2.098052 1.704749,3.8588 3.887451,3.8588 h 9.957605 c 2.114982,0 3.887451,-1.760748 3.887451,-3.8588 z M 18.414927,17.517434 V 6.2132214 c 0,-1.4221428 1.15777,-2.5056802 2.52261,-2.5056802 h 18.550369 c 1.432561,0 2.523913,1.1499562 2.523913,2.5056802 V 17.517434 c 0,1.422143 -1.159073,2.504378 -2.523913,2.504378 H 20.937537 c -1.36484,0 -2.52261,-1.151259 -2.52261,-2.504378 z m -3.13731,23.286938 v 4.805592 c 0,0.744932 -0.614699,1.286701 -1.297119,1.286701 H 4.0241954 c -0.7501413,0 -1.2958169,-0.60949 -1.2958169,-1.286701 v -4.805592 c 0,-0.744932 0.6120944,-1.286701 1.2958169,-1.286701 h 9.9563026 c 0.68242,0 1.297119,0.60949 1.297119,1.286701 z m 21.211026,0 v 4.805592 c 0,0.744932 -0.614699,1.286701 -1.295817,1.286701 h -9.958907 c -0.748839,0 -1.294514,-0.60949 -1.294514,-1.286701 v -4.805592 c 0,-0.744932 0.613396,-1.286701 1.294514,-1.286701 h 9.958907 c 0.681118,0 1.295817,0.60949 1.295817,1.286701 z m 21.209724,4.805592 c 0,0.744932 -0.613397,1.286701 -1.295817,1.286701 h -9.957605 c -0.750141,0 -1.295817,-0.60949 -1.295817,-1.286701 v -4.805592 c 0,-0.744932 0.614699,-1.286701 1.295817,-1.286701 h 9.957605 c 0.750141,0 1.295817,0.60949 1.295817,1.286701 z"
       id="Stroke-6"
       inkscape:connector-curvature="0"
       style="fill:#152631;stroke:#fefefe" />
  </g>
</svg>
