<?xml version="1.0" encoding="UTF-8" standalone="no"?>
<svg
   xmlns:dc="http://purl.org/dc/elements/1.1/"
   xmlns:cc="http://creativecommons.org/ns#"
   xmlns:rdf="http://www.w3.org/1999/02/22-rdf-syntax-ns#"
   xmlns:svg="http://www.w3.org/2000/svg"
   xmlns="http://www.w3.org/2000/svg"
   xmlns:sodipodi="http://sodipodi.sourceforge.net/DTD/sodipodi-0.dtd"
   xmlns:inkscape="http://www.inkscape.org/namespaces/inkscape"
   width="58.599998"
   height="58.599998"
   viewBox="0 0 58.599998 58.599998"
   version="1.1"
   id="svg14"
   sodipodi:docname="topic_.svg"
   inkscape:version="0.92.4 (5da689c313, 2019-01-14)">
  <metadata
     id="metadata18">
    <rdf:RDF>
      <cc:Work
         rdf:about="">
        <dc:format>image/svg+xml</dc:format>
        <dc:type
           rdf:resource="http://purl.org/dc/dcmitype/StillImage" />
      </cc:Work>
    </rdf:RDF>
  </metadata>
  <sodipodi:namedview
     pagecolor="#ffffff"
     bordercolor="#666666"
     borderopacity="1"
     objecttolerance="10"
     gridtolerance="10"
     guidetolerance="10"
     inkscape:pageopacity="0"
     inkscape:pageshadow="2"
     inkscape:window-width="640"
     inkscape:window-height="480"
     id="namedview16"
     showgrid="false"
     inkscape:zoom="4.0689655"
     inkscape:cx="28.8"
     inkscape:cy="28.8"
     inkscape:window-x="1"
     inkscape:window-y="1"
     inkscape:window-maximized="0"
     inkscape:current-layer="svg14" />
  <!-- Generator: Sketch 50.2 (55047) - http://www.bohemiancoding.com/sketch -->
  <title
     id="title2">WORKSEARCH_Topic_outlinegris</title>
  <desc
     id="desc4">Created with Sketch.</desc>
  <defs
     id="defs6" />
  <g
     id="WORKSEARCH_Topic_outlinegris"
     style="fill:none;fill-rule:evenodd;stroke:none;stroke-width:1"
     transform="translate(-0.19999999,0.80000001)">
    <g
       id="Group-26"
       transform="translate(1)"
       style="fill:#152631">
      <path
         d="m 24.682176,32.775222 h 7.593269 l 1.304976,-7.593269 h -7.593269 z m -6.524877,2.373368 c -1.543065,0 -1.543065,-2.373368 0,-2.373368 h 4.033972 l 1.42402,-7.593269 h -5.457992 c -1.543065,0 -1.543065,-2.371861 0,-2.371861 h 5.812114 l 0.831808,-4.864273 c 0.355629,-1.541559 2.609951,-1.066885 2.371861,0.474674 l -0.711257,4.389599 h 7.593269 l 0.830302,-4.864273 c 0.236584,-1.541559 2.608444,-1.066885 2.371861,0.474674 l -0.830302,4.389599 h 3.678343 c 1.541559,0 1.541559,2.371861 0,2.371861 h -4.033971 l -1.424021,7.593269 h 5.457992 c 1.541559,0 1.541559,2.373368 0,2.373368 h -5.81362 l -0.949347,4.864273 c -0.236584,1.541559 -2.490906,1.18593 -2.254323,-0.357136 l 0.712764,-4.507137 h -7.593269 l -0.830302,4.864273 c -0.236583,1.541559 -2.609951,1.18593 -2.373368,-0.357136 l 0.830302,-4.507137 z"
         id="Fill-1"
         inkscape:connector-curvature="0"
         style="stroke:#f5f5f5" />
      <path
         d="M 28.5,0 C 12.78454,0 0,12.78454 0,28.5 0,44.213953 12.78454,57 28.5,57 36.869323,57 44.780548,53.341247 50.209908,46.964046 50.791572,46.279913 50.708692,45.255221 50.026067,44.673558 49.343441,44.091895 48.317242,44.17176 47.735579,44.8574 42.924047,50.508275 35.913948,53.74811 28.5,53.74811 14.577751,53.74811 3.2503833,42.422249 3.2503833,28.5 3.2503833,14.576244 14.577751,3.2488764 28.5,3.2488764 c 13.922249,0 25.249617,11.3273676 25.249617,25.2511236 0,2.899276 -0.488236,5.742796 -1.448131,8.449188 -0.299873,0.845371 0.141648,1.775129 0.988526,2.073495 0.843864,0.30138 1.773622,-0.140142 2.075002,-0.98702 C 56.449981,34.981177 57,31.77148 57,28.5 57,12.78454 44.21546,0 28.5,0"
         id="Fill-3"
         inkscape:connector-curvature="0" />
      <path
         d="M 28.5,0 C 12.78454,0 0,12.78454 0,28.5 0,44.213953 12.78454,57 28.5,57 36.869323,57 44.780548,53.341247 50.209908,46.964046 50.791572,46.279913 50.708692,45.255221 50.026067,44.673558 49.343441,44.091895 48.317242,44.17176 47.735579,44.8574 42.924047,50.508275 35.913948,53.74811 28.5,53.74811 14.577751,53.74811 3.2503833,42.422249 3.2503833,28.5 3.2503833,14.576244 14.577751,3.2488764 28.5,3.2488764 c 13.922249,0 25.249617,11.3273676 25.249617,25.2511236 0,2.899276 -0.488236,5.742796 -1.448131,8.449188 -0.299873,0.845371 0.141648,1.775129 0.988526,2.073495 0.843864,0.30138 1.773622,-0.140142 2.075002,-0.98702 C 56.449981,34.981177 57,31.77148 57,28.5 57,12.78454 44.21546,0 28.5,0 Z"
         id="Stroke-5"
         inkscape:connector-curvature="0"
         style="stroke:#f5f5f5;stroke-width:1.60000002" />
      <path
         d="m 51.624438,41 c 0.896606,0 1.624438,0.726326 1.624438,1.624438 0,0.896606 -0.727832,1.624438 -1.624438,1.624438 C 50.726326,44.248876 50,43.521044 50,42.624438 50,41.726326 50.726326,41 51.624438,41"
         id="Fill-7"
         inkscape:connector-curvature="0" />
    </g>
  </g>
</svg>
