<?xml version="1.0" encoding="UTF-8"?>
<svg width="103px" height="105px" viewBox="0 0 103 105" version="1.1" xmlns="http://www.w3.org/2000/svg" xmlns:xlink="http://www.w3.org/1999/xlink">
    <!-- Generator: Sketch 50.2 (55047) - http://www.bohemiancoding.com/sketch -->
    <title>Group 9</title>
    <desc>Created with Sketch.</desc>
    <defs>
        <path d="M36.9571066,5.86827411 C36.9593909,6.73857868 37.2357868,7.58832487 37.7474619,8.28959391 C37.2357868,8.98857868 36.9593909,9.83832487 36.9571066,10.7109137 C36.9593909,11.0489848 37.0073604,11.3847716 37.0895939,11.7114213 C31.5845178,12.4058376 26.3672589,14.598731 21.9951777,18.0593909 C21.8261421,17.7624365 21.6205584,17.4883249 21.3829949,17.2439086 C20.7730964,16.6317259 19.9827411,16.234264 19.1284264,16.1109137 C19.0119289,15.2451777 18.6190355,14.443401 18.0091371,13.8220812 C16.4192893,12.2116751 13.8426396,12.2116751 12.2550761,13.8220812 C10.6675127,15.4347716 10.6675127,18.0456853 12.2550761,19.6606599 C12.8626904,20.2774112 13.6553299,20.6748731 14.5119289,20.7959391 C14.6307107,21.6616751 15.0236041,22.4611675 15.6266497,23.0824873 C15.8687817,23.322335 16.1383249,23.530203 16.4284264,23.6992386 C13.0180203,28.1375635 10.8571066,33.4279188 10.1741117,39.0106599 C9.84974619,38.9238579 9.51852792,38.8781726 9.18502538,38.8758883 C8.32614213,38.8781726 7.48553299,39.1568528 6.79796954,39.6799492 C6.10583756,39.1568528 5.26751269,38.8781726 4.40862944,38.8758883 C2.16091371,38.8758883 0.34035533,40.7215736 0.34035533,43.001269 C0.34035533,45.2809645 2.16091371,47.128934 4.40862944,47.128934 C5.26751269,47.128934 6.10583756,46.8456853 6.79796954,46.3248731 C7.48553299,46.8456853 8.32614213,47.128934 9.18502538,47.128934 C9.51852792,47.1266497 9.84974619,47.0786802 10.1741117,46.9918782 C10.8571066,52.5769036 13.0180203,57.8672589 16.4284264,62.3032995 C16.1383249,62.472335 15.8687817,62.680203 15.6266497,62.922335 C15.0236041,63.5413706 14.6307107,64.3431472 14.5119289,65.206599 C13.6553299,65.327665 12.8626904,65.7251269 12.2550761,66.3441624 C10.6629442,67.9568528 10.6629442,70.5700508 12.2550761,72.1827411 C13.8426396,73.7954315 16.4192893,73.7954315 18.0091371,72.1827411 C18.6190355,71.5637056 19.0119289,70.7573604 19.1284264,69.8916244 C19.9827411,69.7705584 20.7730964,69.3753807 21.3829949,68.7609137 C21.6205584,68.5142132 21.8261421,68.2423858 21.9951777,67.9454315 C26.3672589,71.4060914 31.5845178,73.5989848 37.0895939,74.2911168 C37.0073604,74.6200508 36.9593909,74.9535533 36.9571066,75.2939086 C36.9593909,76.1664975 37.2357868,77.0139594 37.7474619,77.7152284 C37.2357868,78.4164975 36.9593909,79.2662437 36.9571066,80.1365482 C36.9571066,82.4162437 38.777665,84.2619289 41.0253807,84.2619289 C43.2730964,84.2619289 45.0936548,82.4162437 45.0936548,80.1365482 C45.0936548,79.2662437 44.8149746,78.4164975 44.3032995,77.7152284 C44.8149746,77.0139594 45.0936548,76.1664975 45.0936548,75.2939086 C45.0913706,74.9535533 45.0456853,74.6200508 44.9611675,74.2911168 C50.4662437,73.5989848 55.6835025,71.4060914 60.057868,67.9454315 C60.2246193,68.2423858 60.430203,68.5142132 60.6677665,68.7609137 C61.277665,69.3753807 62.0680203,69.7705584 62.922335,69.8916244 C63.0388325,70.7573604 63.4317259,71.5637056 64.0416244,72.1827411 C65.6314721,73.7931472 68.2081218,73.7931472 69.7979695,72.1827411 L69.1720812,71.55 L69.7979695,72.1827411 C71.385533,70.5677665 71.385533,67.9568528 69.7979695,66.3441624 C69.1880711,65.7251269 68.3977157,65.327665 67.5411168,65.206599 C67.4200508,64.3431472 67.0271574,63.5413706 66.4241117,62.922335 C66.1819797,62.680203 65.9124365,62.472335 65.622335,62.3032995 C69.0350254,57.8672589 71.1936548,52.5769036 71.8766497,46.9918782 C72.2010152,47.0786802 72.5322335,47.1266497 72.865736,47.128934 C73.7269036,47.128934 74.5652284,46.8456853 75.2550761,46.3248731 C75.9426396,46.8456853 76.7809645,47.128934 77.642132,47.128934 C79.8898477,47.128934 81.7104061,45.2809645 81.7104061,43.001269 C81.7104061,40.7215736 79.8898477,38.8758883 77.642132,38.8758883 C76.7809645,38.8781726 75.9426396,39.1568528 75.2550761,39.6799492 C74.5652284,39.1568528 73.7269036,38.8781726 72.865736,38.8758883 C72.5322335,38.8781726 72.2010152,38.9238579 71.8766497,39.0106599 C71.1936548,33.4279188 69.0350254,28.1375635 65.622335,23.6992386 C65.9124365,23.530203 66.1819797,23.322335 66.4241117,23.0824873 C67.0271574,22.4611675 67.4200508,21.6616751 67.5411168,20.7959391 C68.3977157,20.6748731 69.1880711,20.2774112 69.7979695,19.6606599 C71.385533,18.0456853 71.385533,15.4347716 69.7979695,13.8220812 C68.2081218,12.2116751 65.6314721,12.2116751 64.0416244,13.8220812 C63.4317259,14.4411168 63.0388325,15.2451777 62.922335,16.1109137 C62.0680203,16.234264 61.277665,16.6294416 60.6677665,17.2461929 L60.6677665,17.2439086 C60.430203,17.4883249 60.2246193,17.7624365 60.057868,18.0593909 C55.6835025,14.598731 50.4662437,12.4058376 44.9611675,11.7114213 C45.0456853,11.3847716 45.0913706,11.0489848 45.0936548,10.7109137 C45.0936548,9.83832487 44.8149746,8.98857868 44.3032995,8.28959391 C44.8149746,7.58832487 45.0936548,6.73857868 45.0936548,5.86827411 C45.0936548,3.58857868 43.2730964,1.74060914 41.0253807,1.74060914 C38.777665,1.74060914 36.9571066,3.58857868 36.9571066,5.86827411 Z M38.7274112,10.7109137 C38.7296954,10.0370558 39.0220812,9.39974619 39.5246193,8.96116751 C39.7164975,8.79213198 39.8238579,8.54543147 39.8238579,8.28959391 C39.8238579,8.03147208 39.7164975,7.78477157 39.5246193,7.61573604 C39.0403553,7.19543147 38.7525381,6.59010152 38.7274112,5.94593909 C38.7045685,5.29949239 38.9489848,4.67588832 39.401269,4.2213198 C39.9928934,3.61142132 40.8654822,3.38299492 41.6718274,3.62055838 C42.4804569,3.85812183 43.0949239,4.52741117 43.2753807,5.35888325 C43.451269,6.19492386 43.165736,7.0606599 42.5261421,7.61573604 C42.334264,7.78477157 42.2269036,8.03147208 42.2269036,8.28959391 C42.2269036,8.54543147 42.334264,8.79213198 42.5261421,8.96116751 C43.0286802,9.39974619 43.321066,10.0370558 43.3256345,10.7109137 C43.3187817,10.9873096 43.2639594,11.2591371 43.1588832,11.5149746 C42.4461929,11.4601523 41.7335025,11.4281726 41.0253807,11.4281726 C40.3172589,11.4281726 39.6045685,11.4601523 38.8918782,11.5149746 C38.786802,11.2591371 38.7319797,10.9873096 38.7274112,10.7109137 Z M38.4647208,72.657868 L38.4418782,72.6555838 C32.4571066,72.1439086 26.7761421,69.7568528 22.1870558,65.8233503 L22.1824873,65.821066 C20.8484772,64.7040609 19.6263959,63.4614213 18.5253807,62.1137056 L18.5230964,62.1045685 C14.6444162,57.4515228 12.2916244,51.6928934 11.7845178,45.6213198 L11.7822335,45.6007614 C11.6200508,43.8715736 11.6200508,42.1332487 11.7822335,40.4040609 L11.7845178,40.3812183 C12.2916244,34.3119289 14.6444162,28.5510152 18.5230964,23.9002538 L18.5253807,23.8911168 C19.6263959,22.543401 20.8484772,21.3007614 22.1824873,20.1860406 L22.1870558,20.1814721 C26.7761421,16.2479695 32.4571066,13.8609137 38.4418782,13.3469543 L38.4647208,13.3446701 C40.1687817,13.180203 41.884264,13.180203 43.5883249,13.3446701 L43.6088832,13.3469543 C49.5936548,13.8609137 55.2746193,16.2479695 59.8614213,20.1814721 L59.8682741,20.1860406 C61.2,21.3007614 62.4243655,22.543401 63.5253807,23.8911168 L63.5299492,23.9002538 C67.4063452,28.5510152 69.7614213,34.3119289 70.2662437,40.3812183 L70.2685279,40.4040609 C70.4307107,42.1332487 70.4307107,43.8715736 70.2685279,45.6007614 L70.2662437,45.6213198 C69.7614213,51.6928934 67.4063452,57.4515228 63.5299492,62.1045685 L63.5253807,62.1137056 C62.4243655,63.4614213 61.2,64.7040609 59.8682741,65.821066 L59.8614213,65.8233503 C55.2746193,69.7568528 49.5936548,72.1439086 43.6088832,72.6555838 L43.5883249,72.657868 C42.7362944,72.7423858 41.8796954,72.7835025 41.0253807,72.7835025 C40.171066,72.7835025 39.314467,72.7423858 38.4647208,72.657868 Z M13.5045685,18.3928934 C12.6045685,17.4814721 12.6045685,16.0035533 13.5045685,15.0898477 C14.4022843,14.1784264 15.8596447,14.1784264 16.7573604,15.0898477 C17.186802,15.5192893 17.4220812,16.1040609 17.4152284,16.7116751 L17.4106599,16.8944162 C17.3923858,17.1548223 17.4837563,17.4083756 17.6664975,17.5911168 C17.8446701,17.7761421 18.0982234,17.8720812 18.3540609,17.8538071 L18.5230964,17.8469543 C19.1261421,17.8423858 19.7063452,18.0845178 20.1335025,18.5139594 L20.1335025,18.5162437 C20.3299492,18.7149746 20.4829949,18.9479695 20.5949239,19.2083756 C19.5121827,20.1563452 18.4979695,21.184264 17.5637056,22.2807107 C17.307868,22.171066 17.0771574,22.0111675 16.8784264,21.8147208 C16.4535533,21.3807107 16.2182741,20.7936548 16.2228426,20.1814721 L16.2274112,20.0101523 C16.2456853,19.7497462 16.1520305,19.4961929 15.9715736,19.3111675 C15.7888325,19.1284264 15.5398477,19.0324873 15.2817259,19.0507614 L15.1035533,19.0576142 C15.0944162,19.0576142 15.0898477,19.0576142 15.0807107,19.0576142 C14.4890863,19.0576142 13.9180203,18.8177665 13.5045685,18.3928934 Z M64.3865482,17.5911168 C64.5692893,17.4083756 64.6606599,17.1548223 64.6401015,16.8944162 L64.635533,16.7116751 C64.6286802,16.1040609 64.8662437,15.5170051 65.293401,15.0898477 C66.193401,14.1807107 67.6461929,14.1829949 68.5439086,15.0944162 C69.4439086,16.0035533 69.4461929,17.4791878 68.5461929,18.3928934 C68.1258883,18.8246193 67.5479695,19.064467 66.9472081,19.0576142 L66.7713198,19.0507614 C66.513198,19.0324873 66.2596447,19.1284264 66.0791878,19.3111675 C65.898731,19.4961929 65.8073604,19.7497462 65.8256345,20.0101523 L65.8279188,20.1814721 C65.8324873,20.7936548 65.5972081,21.3807107 65.172335,21.8147208 C64.9736041,22.0111675 64.7406091,22.171066 64.4893401,22.2807107 C63.5527919,21.184264 62.5385787,20.1563452 61.4558376,19.2083756 C61.5654822,18.9479695 61.7230964,18.7149746 61.9195431,18.5162437 L61.9195431,18.5139594 C62.3467005,18.0845178 62.9269036,17.8423858 63.527665,17.8469543 L63.6967005,17.8538071 C63.7172589,17.8560914 63.7378173,17.8560914 63.7606599,17.8560914 C63.9936548,17.8560914 64.219797,17.7624365 64.3865482,17.5911168 Z M72.0730964,45.164467 C72.1279188,44.4426396 72.1598985,43.7185279 72.1598985,43.001269 C72.1598985,42.2840102 72.1279188,41.5598985 72.0730964,40.8380711 C72.3243655,40.7307107 72.5939086,40.6758883 72.865736,40.6690355 C73.5304569,40.6736041 74.1586294,40.9682741 74.5903553,41.4799492 C74.7571066,41.6741117 75.0015228,41.7837563 75.2550761,41.7837563 C75.5109137,41.7837563 75.7507614,41.6741117 75.9175127,41.4799492 C76.5456853,40.7398477 77.5598985,40.4748731 78.4598985,40.8175127 C79.3621827,41.1532995 79.9606599,42.0281726 79.9606599,43.001269 C79.9606599,43.9766497 79.3621827,44.8492386 78.4598985,45.1895939 C77.5598985,45.527665 76.543401,45.2626904 75.9175127,44.5225888 C75.7507614,44.3307107 75.5109137,44.2187817 75.2550761,44.2187817 C75.0015228,44.2187817 74.7571066,44.3307107 74.5903553,44.5225888 C74.1586294,45.0365482 73.5304569,45.3312183 72.865736,45.3335025 C72.5939086,45.328934 72.3243655,45.2718274 72.0730964,45.164467 Z M7.46040609,41.4799492 C7.89213198,40.9682741 8.52030457,40.6736041 9.18502538,40.6690355 C9.45685279,40.6758883 9.72639594,40.7307107 9.97766497,40.8380711 C9.92284264,41.5598985 9.89086294,42.2840102 9.89086294,43.001269 C9.89086294,43.7185279 9.92284264,44.4426396 9.97766497,45.164467 C9.72639594,45.2718274 9.45685279,45.328934 9.18502538,45.3335025 C8.52030457,45.3312183 7.89213198,45.0365482 7.46040609,44.5225888 C7.29137056,44.3307107 7.05152284,44.2187817 6.79796954,44.2187817 C6.54213198,44.2187817 6.3,44.3307107 6.13324873,44.5225888 C5.58502538,45.1667513 4.73071066,45.4545685 3.91294416,45.2741117 C3.09060914,45.0936548 2.43502538,44.472335 2.20203046,43.6545685 C1.96675127,42.836802 2.19060914,41.9550761 2.78451777,41.3543147 C3.2322335,40.8974619 3.84898477,40.6484772 4.48401015,40.6736041 C5.1213198,40.6964467 5.71751269,40.9888325 6.13324873,41.4799492 C6.3,41.6741117 6.54213198,41.7837563 6.79796954,41.7837563 C7.05152284,41.7837563 7.29137056,41.6741117 7.46040609,41.4799492 Z M61.9195431,67.4908629 C61.7230964,67.2898477 61.5677665,67.0545685 61.4558376,66.7964467 C62.5385787,65.8484772 63.5527919,64.8205584 64.4893401,63.7241117 C64.7406091,63.8337563 64.9736041,63.9913706 65.172335,64.1901015 C65.5972081,64.6241117 65.8324873,65.2111675 65.8279188,65.821066 L65.8256345,65.9946701 C65.8073604,66.2550761 65.898731,66.5086294 66.0791878,66.6936548 C66.2596447,66.8763959 66.513198,66.972335 66.7713198,66.9517766 L66.9472081,66.9472081 C67.5479695,66.9403553 68.1258883,67.180203 68.5461929,67.6119289 C69.4461929,68.5256345 69.4461929,70.001269 68.5461929,70.9149746 C67.6484772,71.8241117 66.193401,71.8241117 65.293401,70.9149746 C64.8662437,70.485533 64.6286802,69.9007614 64.635533,69.2908629 L64.6401015,69.1104061 C64.6606599,68.85 64.5692893,68.5964467 64.3865482,68.4114213 C64.2038071,68.2263959 63.9525381,68.1327411 63.6967005,68.1510152 L63.527665,68.157868 C63.5253807,68.157868 63.5185279,68.157868 63.5139594,68.157868 C62.9154822,68.157868 62.342132,67.9180203 61.9195431,67.4908629 Z M15.9715736,66.6913706 C16.1520305,66.5086294 16.2456853,66.2527919 16.2274112,65.9946701 L16.2228426,65.821066 C16.2182741,65.2111675 16.4535533,64.6241117 16.8784264,64.1901015 C17.0771574,63.9913706 17.307868,63.8337563 17.5637056,63.7241117 C18.4979695,64.8205584 19.5121827,65.8484772 20.5949239,66.7964467 C20.4829949,67.0545685 20.3299492,67.2898477 20.1335025,67.4908629 C19.7063452,67.9203046 19.1261421,68.1624365 18.5230964,68.157868 L18.3540609,68.1510152 C18.0959391,68.1327411 17.8446701,68.2263959 17.6664975,68.4114213 C17.4837563,68.5964467 17.3923858,68.85 17.4106599,69.1104061 L17.4152284,69.2908629 C17.4220812,69.9007614 17.186802,70.485533 16.7573604,70.9149746 C15.8596447,71.8241117 14.4022843,71.8241117 13.5045685,70.9149746 C12.6045685,70.0035533 12.6045685,68.5256345 13.5045685,67.6119289 C13.9248731,67.1779188 14.5027919,66.9403553 15.1035533,66.9472081 L15.2817259,66.9517766 C15.3045685,66.9540609 15.3274112,66.9540609 15.3502538,66.9540609 C15.5832487,66.9540609 15.8071066,66.8604061 15.9715736,66.6913706 Z M41.0893401,74.5766497 C41.7746193,74.5766497 42.4667513,74.5423858 43.1588832,74.4898477 C43.2639594,74.743401 43.3187817,75.0175127 43.3256345,75.2939086 C43.321066,75.9677665 43.0286802,76.6050761 42.5261421,77.0436548 C42.334264,77.2126904 42.2269036,77.4571066 42.2269036,77.7152284 C42.2269036,77.9733503 42.334264,78.2177665 42.5261421,78.3890863 C43.0104061,78.8071066 43.3005076,79.4124365 43.3233503,80.0588832 C43.3461929,80.7053299 43.1040609,81.3312183 42.6494924,81.7835025 C42.057868,82.3911168 41.1852792,82.6218274 40.378934,82.384264 C39.5703046,82.1444162 38.9558376,81.4796954 38.777665,80.6436548 C38.5994924,79.8098985 38.8873096,78.9441624 39.5246193,78.3890863 C39.7164975,78.2177665 39.8238579,77.9733503 39.8238579,77.7152284 C39.8238579,77.4571066 39.7164975,77.2126904 39.5246193,77.0436548 C39.0220812,76.6050761 38.7296954,75.9677665 38.7274112,75.2939086 C38.7319797,75.0175127 38.786802,74.743401 38.8918782,74.4898477 C39.6045685,74.5446701 40.3172589,74.5766497 41.0253807,74.5766497 C41.0459391,74.5766497 41.0664975,74.5766497 41.0893401,74.5766497 Z" id="path-1"></path>
        <path d="M22.0979695,1.08096447 L22.0956853,1.08096447 C17.5819797,1.62005076 13.301269,3.4177665 9.7286802,6.27309645 C8.18451777,7.50659898 6.78883249,8.92284264 5.5713198,10.4898477 L5.56903553,10.4898477 C2.7571066,14.1104061 0.984517766,18.4505076 0.452284264,23.0304569 L0.452284264,23.0327411 C0.210152284,25.0109137 0.210152284,27.0142132 0.452284264,28.9923858 L0.452284264,28.9946701 C0.984517766,33.5746193 2.7571066,37.9124365 5.56903553,41.5329949 L5.5713198,41.5329949 C9.62817259,46.7708122 15.5741117,50.1560914 22.0956853,50.9441624 L22.0979695,50.9464467 L22.0979695,50.9441624 C24.048731,51.1908629 26.022335,51.1908629 27.9730964,50.9441624 L27.9730964,50.9464467 L27.9753807,50.9441624 C32.4890863,50.4050761 36.769797,48.6073604 40.3401015,45.7520305 C41.5005076,44.8269036 42.5763959,43.801269 43.5540609,42.684264 C43.8784264,42.3119289 44.1936548,41.9258883 44.4997462,41.5329949 C47.3139594,37.9124365 49.0865482,33.5746193 49.6187817,28.9946701 L49.6187817,28.9923858 C49.8609137,27.0142132 49.8609137,25.0109137 49.6187817,23.0327411 L49.6187817,23.0304569 C49.0865482,18.4505076 47.3139594,14.1104061 44.4997462,10.4898477 C43.2845178,8.92284264 41.8888325,7.50659898 40.3401015,6.27309645 C36.769797,3.4177665 32.4913706,1.62005076 27.9753807,1.08096447 L27.9730964,1.08096447 C26.9977157,0.957614213 26.0154822,0.895939086 25.035533,0.895939086 C24.0555838,0.895939086 23.071066,0.957614213 22.0979695,1.08096447 Z M23.5347716,16.1890863 C23.7266497,16.0200508 23.8340102,15.7756345 23.8340102,15.5175127 C23.8340102,15.2593909 23.7266497,15.0126904 23.5347716,14.8436548 C23.0299492,14.4096447 22.7375635,13.7677665 22.7375635,13.0961929 C22.7375635,12.4200508 23.0299492,11.7827411 23.5347716,11.3464467 C23.7266497,11.1774112 23.8340102,10.9307107 23.8340102,10.6748731 C23.8340102,10.4167513 23.7266497,10.1700508 23.5347716,10.0010152 C23.0299492,9.56472081 22.7375635,8.9251269 22.7375635,8.25126904 C22.7375635,7.57741117 23.0299492,6.93781726 23.5347716,6.50152284 C23.7266497,6.33248731 23.8340102,6.08807107 23.8340102,5.82994924 C23.8340102,5.57411168 23.7266497,5.32969543 23.5347716,5.15837563 C23.0322335,4.71979695 22.7398477,4.08020305 22.7375635,3.40862944 C22.7398477,3.20761421 22.7672589,3.00659898 22.8243655,2.81472081 C23.5530457,2.7393401 24.2954315,2.69137056 25.035533,2.69137056 C25.7779188,2.69137056 26.5180203,2.7393401 27.2467005,2.81472081 C27.3038071,3.00659898 27.3312183,3.20761421 27.3357868,3.40862944 C27.3312183,4.08020305 27.0388325,4.71979695 26.5362944,5.15837563 C26.3444162,5.32969543 26.2370558,5.57411168 26.2370558,5.82994924 C26.2370558,6.08807107 26.3444162,6.33248731 26.5362944,6.50152284 C27.0411168,6.93781726 27.3357868,7.57741117 27.3357868,8.25126904 C27.3357868,8.9251269 27.0411168,9.56472081 26.5362944,10.0010152 C26.3444162,10.1700508 26.2370558,10.4167513 26.2370558,10.6748731 C26.2370558,10.9307107 26.3444162,11.1774112 26.5362944,11.3464467 C27.0411168,11.7827411 27.3357868,12.4200508 27.3357868,13.0961929 C27.3357868,13.7677665 27.0411168,14.4096447 26.5362944,14.8436548 C26.3444162,15.0126904 26.2370558,15.2593909 26.2370558,15.5175127 C26.2370558,15.7756345 26.3444162,16.0200508 26.5362944,16.1890863 C26.878934,16.4928934 27.1256345,16.8949239 27.2467005,17.3380711 C25.7984772,16.9428934 24.2725888,16.9428934 22.8243655,17.3380711 C22.9477157,16.8949239 23.1944162,16.4928934 23.5347716,16.1890863 Z M28.3134518,15.5175127 C29.3687817,14.0807107 29.3687817,12.1116751 28.3134518,10.6748731 C29.3687817,9.2357868 29.3687817,7.26675127 28.3134518,5.82994924 C28.8274112,5.13096447 29.1038071,4.28121827 29.1038071,3.40862944 C29.1060914,3.29213198 29.0946701,3.18020305 29.0832487,3.06827411 C32.3520305,3.65532995 35.4563452,4.95736041 38.1791878,6.88527919 C38.0969543,6.95609137 38.0147208,7.02918782 37.9347716,7.11142132 L37.930203,7.11827411 L37.9142132,7.1319797 L37.9142132,7.13426396 C37.3134518,7.7464467 36.9205584,8.53908629 36.7972081,9.39568528 C35.9428934,9.52360406 35.1502538,9.92106599 34.5357868,10.5401015 C33.9281726,11.1591371 33.5375635,11.963198 33.4187817,12.828934 C31.6621827,13.0687817 30.280203,14.4713198 30.0426396,16.2530457 C29.6406091,16.3147208 29.2522843,16.4380711 28.886802,16.6185279 C28.7520305,16.2233503 28.557868,15.8532995 28.3134518,15.5175127 Z M11.8941624,6.88527919 C14.6147208,4.95736041 17.7190355,3.65532995 20.9878173,3.06827411 C20.9786802,3.18020305 20.9672589,3.29213198 20.9672589,3.40862944 C20.9695431,4.28121827 21.2459391,5.13096447 21.7576142,5.82994924 C20.7045685,7.26675127 20.7045685,9.2357868 21.7576142,10.6748731 C20.7045685,12.1116751 20.7045685,14.0807107 21.7576142,15.5175127 C21.513198,15.8532995 21.3213198,16.2233503 21.184264,16.6185279 C20.821066,16.4380711 20.4304569,16.3147208 20.0284264,16.2530457 C19.7908629,14.4713198 18.4088832,13.0687817 16.6545685,12.828934 C16.5335025,11.963198 16.1428934,11.1591371 15.5352792,10.5401015 C14.9230964,9.92106599 14.1304569,9.52360406 13.2738579,9.39568528 C13.1505076,8.53908629 12.7598985,7.7464467 12.1568528,7.13426396 L12.1568528,7.1319797 L12.1431472,7.11827411 L12.1362944,7.11142132 L12.1340102,7.11142132 C12.0586294,7.02918782 11.9763959,6.95609137 11.8941624,6.88527919 Z M38.2545685,10.8736041 C38.4304569,10.6931472 38.5263959,10.4441624 38.5104061,10.1883249 L38.5104061,10.0489848 C38.4967005,9.42766497 38.7365482,8.83147208 39.1705584,8.3928934 L39.1911168,8.37233503 C39.3258883,8.23071066 39.478934,8.1142132 39.6456853,8.02055838 C40.7901015,8.97309645 41.8385787,10.0375635 42.7751269,11.193401 C42.6837563,11.3647208 42.5649746,11.5200508 42.430203,11.6571066 L42.4073604,11.677665 C41.9779188,12.1162437 41.3885787,12.3606599 40.7763959,12.3492386 L40.6393401,12.3446701 C40.3857868,12.3309645 40.1413706,12.4246193 39.9654822,12.6073604 C39.7850254,12.7878173 39.6936548,13.0345178 39.7050761,13.2880711 L39.7096447,13.4296954 C39.7187817,14.0601523 39.478934,14.663198 39.0426396,15.1109137 C38.613198,15.5403553 38.0352792,15.780203 37.4322335,15.7756345 L37.2609137,15.771066 C37.0050761,15.7505076 36.7560914,15.8464467 36.5733503,16.0314721 C36.3928934,16.2142132 36.2969543,16.4700508 36.3152284,16.7281726 L36.3220812,16.9063452 C36.3266497,17.5162437 36.0890863,18.1010152 35.6664975,18.5327411 C35.2393401,18.9621827 34.6591371,19.2043147 34.0560914,19.1997462 L33.8870558,19.1906091 C33.6312183,19.1746193 33.3799492,19.2682741 33.1994924,19.4510152 C33.0167513,19.6383249 32.9230964,19.8895939 32.9413706,20.15 L32.9482234,20.3213198 C32.9436548,20.721066 32.8385787,21.1139594 32.6467005,21.4588832 C31.8860406,20.1522843 30.8124365,19.0672589 29.5263959,18.2951777 C29.8667513,18.0964467 30.2527919,17.9913706 30.6456853,17.9890863 L30.8170051,17.9936548 C31.0705584,18.0142132 31.3218274,17.9182741 31.5045685,17.7332487 C31.6850254,17.5505076 31.7786802,17.2946701 31.7604061,17.0365482 L31.7535533,16.8629442 C31.7467005,16.2530457 31.984264,15.6659898 32.4091371,15.234264 C32.8340102,14.8025381 33.4142132,14.5604061 34.0149746,14.5649746 L34.1908629,14.5718274 C34.4444162,14.5901015 34.6956853,14.4964467 34.8784264,14.3114213 C35.0588832,14.1263959 35.1548223,13.8728426 35.1365482,13.6124365 L35.1296954,13.4411168 C35.1251269,12.8312183 35.3626904,12.2418782 35.7875635,11.807868 C36.2284264,11.3670051 36.822335,11.1225888 37.4413706,11.1294416 L37.5807107,11.1317259 C37.5989848,11.1340102 37.6172589,11.1340102 37.635533,11.1340102 C37.8662437,11.1340102 38.0878173,11.0403553 38.2545685,10.8736041 Z M7.66142132,11.677665 L7.64086294,11.6571066 C7.50380711,11.5200508 7.38730964,11.3647208 7.29365482,11.193401 C8.23477157,10.0375635 9.28324873,8.97309645 10.4253807,8.02055838 C10.592132,8.1142132 10.7451777,8.23071066 10.8822335,8.37233503 L10.9005076,8.3928934 C11.3345178,8.83147208 11.5743655,9.42766497 11.5629442,10.0489848 L11.5606599,10.1883249 C11.5446701,10.4464467 11.6406091,10.6931472 11.8187817,10.8736041 C11.9946701,11.0517766 12.2390863,11.1477157 12.4903553,11.1317259 L12.6296954,11.1294416 C13.248731,11.1225888 13.8449239,11.3670051 14.2857868,11.807868 C14.7106599,12.2418782 14.9459391,12.8312183 14.9413706,13.4411168 L14.9345178,13.6124365 C14.9162437,13.8728426 15.0121827,14.1263959 15.1926396,14.3114213 C15.3753807,14.4964467 15.6266497,14.5901015 15.8824873,14.5718274 L16.0560914,14.5649746 C16.6568528,14.5604061 17.2370558,14.8025381 17.6642132,15.234264 C18.086802,15.6659898 18.3220812,16.2530457 18.3175127,16.8629442 L18.3106599,17.0365482 C18.2923858,17.2946701 18.3860406,17.5505076 18.5687817,17.7332487 C18.7492386,17.9182741 19.0005076,18.0142132 19.2563452,17.9936548 L19.4253807,17.9890863 C19.8182741,17.9913706 20.2043147,18.0964467 20.5446701,18.2951777 C19.2609137,19.0672589 18.1873096,20.1522843 17.4266497,21.4588832 C17.230203,21.1139594 17.1274112,20.721066 17.1251269,20.3213198 L17.1296954,20.15 C17.1502538,19.8895939 17.0543147,19.6383249 16.8738579,19.4510152 C16.693401,19.2682741 16.4398477,19.1746193 16.1840102,19.1906091 L16.0149746,19.1997462 C15.4119289,19.2043147 14.8317259,18.9621827 14.4045685,18.5327411 C13.9819797,18.1010152 13.742132,17.5162437 13.7489848,16.9063452 L13.7558376,16.7304569 C13.7741117,16.4700508 13.6781726,16.2142132 13.4977157,16.0314721 C13.3172589,15.8464467 13.0659898,15.7505076 12.8101523,15.771066 L12.6411168,15.7756345 C12.0380711,15.780203 11.457868,15.5403553 11.0307107,15.1109137 C10.5944162,14.663198 10.3522843,14.0601523 10.3614213,13.4296954 L10.3659898,13.2903553 C10.3774112,13.0345178 10.2860406,12.7878173 10.107868,12.6073604 C9.92969543,12.4246193 9.68527919,12.3309645 9.43401015,12.3446701 L9.29467005,12.3492386 C9.28096447,12.3492386 9.26954315,12.3492386 9.25812183,12.3492386 C8.65964467,12.3492386 8.08629442,12.1093909 7.66142132,11.677665 Z M43.6659898,12.9362944 L43.6751269,12.9317259 L43.6728426,12.9294416 C43.7527919,12.8540609 43.8236041,12.7695431 43.8967005,12.6850254 C45.7972081,15.4444162 47.0832487,18.5898477 47.6611675,21.906599 C47.5492386,21.8974619 47.4373096,21.8860406 47.3253807,21.8860406 C46.4642132,21.8883249 45.6258883,22.1670051 44.9360406,22.6901015 C43.519797,21.6187817 41.5781726,21.6187817 40.1596447,22.6901015 C38.743401,21.6187817 36.8040609,21.6187817 35.3832487,22.6901015 C35.0543147,22.4411168 34.6888325,22.2446701 34.2959391,22.1053299 C34.4763959,21.7352792 34.5997462,21.3423858 34.6591371,20.9335025 C35.5111675,20.8124365 36.3060914,20.4149746 36.9159898,19.8027919 L36.9182741,19.8027919 C37.5258883,19.1814721 37.9164975,18.3774112 38.0375635,17.5116751 C38.8895939,17.3906091 39.6799492,16.9908629 40.292132,16.3763959 L40.2944162,16.3763959 C40.9020305,15.7550761 41.2972081,14.9510152 41.4228426,14.0829949 C42.265736,13.9596447 43.0492386,13.5621827 43.65,12.95 L43.6522843,12.9522843 L43.6659898,12.9362944 Z M6.17436548,12.6850254 C6.24746193,12.7695431 6.31827411,12.8540609 6.39822335,12.9294416 L6.39822335,12.9317259 L6.40507614,12.9362944 L6.41878173,12.9522843 L6.42106599,12.95 C7.02411168,13.5621827 7.80532995,13.9596447 8.65050761,14.0829949 C8.77385787,14.9510152 9.1713198,15.7550761 9.77893401,16.3763959 C10.3911168,16.9908629 11.1837563,17.3906091 12.0335025,17.5116751 C12.1545685,18.3774112 12.5451777,19.1814721 13.1550761,19.8027919 C13.7672589,20.4149746 14.5598985,20.8124365 15.4119289,20.9335025 C15.4736041,21.3423858 15.5946701,21.7352792 15.7751269,22.1053299 C15.3845178,22.2446701 15.0167513,22.4411168 14.685533,22.6901015 C13.2692893,21.6187817 11.3299492,21.6187817 9.91142132,22.6901015 C8.49517766,21.6187817 6.55126904,21.6187817 5.13502538,22.6901015 C4.44517766,22.1670051 3.60685279,21.8883249 2.74568528,21.8860406 C2.63375635,21.8860406 2.52182741,21.8974619 2.40989848,21.906599 C2.99010152,18.5898477 4.27614213,15.4444162 6.17436548,12.6850254 Z M27.6715736,19.3527919 L27.6692893,19.3527919 L27.813198,19.4121827 C29.4898477,20.1408629 30.8261421,21.4954315 31.543401,23.1949239 L31.6027919,23.3388325 C32.2812183,25.0543147 32.2812183,26.9708122 31.6027919,28.6840102 L31.543401,28.8279188 C30.8261421,30.5296954 29.4898477,31.884264 27.813198,32.6129442 L27.6670051,32.672335 L27.6715736,32.6700508 C25.978934,33.3621827 24.092132,33.3621827 22.3994924,32.6700508 L22.4040609,32.672335 L22.257868,32.6129442 C20.5812183,31.884264 19.2472081,30.5296954 18.527665,28.8279188 L18.4705584,28.6840102 C17.7898477,26.9708122 17.7898477,25.0543147 18.4705584,23.3388325 L18.527665,23.1949239 C19.2472081,21.4954315 20.5812183,20.1408629 22.257868,19.4121827 L22.4017766,19.3527919 L22.3994924,19.3527919 C24.092132,18.6652284 25.978934,18.6652284 27.6715736,19.3527919 Z M45.6007614,24.4901015 C46.030203,23.9784264 46.6629442,23.6837563 47.3253807,23.6791878 C47.5218274,23.6837563 47.7205584,23.7111675 47.9101523,23.7705584 C47.9832487,24.5106599 48.0312183,25.2598985 48.0312183,26.0114213 C48.0312183,26.7652284 47.9832487,27.514467 47.9101523,28.2522843 C47.7205584,28.3116751 47.5218274,28.3413706 47.3253807,28.3436548 C46.6629442,28.3413706 46.030203,28.0467005 45.6007614,27.5327411 C45.4340102,27.3408629 45.1895939,27.228934 44.9360406,27.228934 C44.6824873,27.228934 44.4403553,27.3408629 44.2713198,27.5327411 C43.8418782,28.0467005 43.2137056,28.3436548 42.5489848,28.3436548 C41.8819797,28.3436548 41.2515228,28.0467005 40.8243655,27.5327411 C40.6576142,27.3408629 40.413198,27.228934 40.1596447,27.228934 C39.9083756,27.228934 39.6639594,27.3408629 39.4972081,27.5327411 C39.0654822,28.0467005 38.4373096,28.3436548 37.7725888,28.3436548 C37.107868,28.3436548 36.4774112,28.0467005 36.0479695,27.5327411 C35.8812183,27.3408629 35.636802,27.228934 35.3832487,27.228934 C35.1319797,27.228934 34.8898477,27.3408629 34.7208122,27.5327411 C34.4192893,27.8799492 34.0286802,28.1312183 33.5878173,28.2545685 C33.9784264,26.7857868 33.9784264,25.2393401 33.5878173,23.7705584 C34.0286802,23.8916244 34.4192893,24.1428934 34.7208122,24.4901015 C34.8898477,24.6819797 35.1319797,24.7939086 35.3832487,24.7939086 C35.636802,24.7939086 35.8812183,24.6819797 36.0479695,24.4901015 C36.4774112,23.9761421 37.107868,23.6791878 37.7725888,23.6791878 C38.4373096,23.6791878 39.0654822,23.9761421 39.4972081,24.4901015 C39.6639594,24.684264 39.9060914,24.7939086 40.1596447,24.7939086 C40.413198,24.7939086 40.6576142,24.684264 40.8243655,24.4901015 C41.2538071,23.9761421 41.8819797,23.6791878 42.5489848,23.6791878 C43.2137056,23.6791878 43.8418782,23.9761421 44.2713198,24.4901015 C44.4403553,24.684264 44.6824873,24.7939086 44.9360406,24.7939086 C45.1895939,24.7939086 45.4340102,24.684264 45.6007614,24.4901015 Z M10.5738579,24.4901015 C11.0055838,23.9761421 11.6360406,23.6791878 12.2984772,23.6791878 C12.963198,23.6791878 13.5936548,23.9761421 14.0230964,24.4901015 C14.1898477,24.684264 14.434264,24.7939086 14.6878173,24.7939086 C14.9413706,24.7939086 15.1835025,24.684264 15.3525381,24.4901015 C15.6517766,24.1428934 16.0446701,23.8916244 16.4832487,23.7705584 C16.0926396,25.2393401 16.0926396,26.7857868 16.4832487,28.2545685 C16.0446701,28.1312183 15.6517766,27.8799492 15.3502538,27.5327411 C15.1835025,27.3431472 14.9413706,27.2312183 14.685533,27.228934 C14.434264,27.2312183 14.1898477,27.3431472 14.0253807,27.5327411 C13.5936548,28.0467005 12.963198,28.3436548 12.2984772,28.3436548 C11.6360406,28.3436548 11.0055838,28.0467005 10.5738579,27.5327411 C10.4071066,27.3408629 10.1649746,27.228934 9.91142132,27.228934 C9.65786802,27.228934 9.41573604,27.3408629 9.24670051,27.5327411 C8.81725888,28.0467005 8.18908629,28.3436548 7.52208122,28.3436548 C6.85964467,28.3436548 6.22918782,28.0467005 5.79974619,27.5327411 C5.63071066,27.3408629 5.39086294,27.228934 5.13502538,27.228934 C4.88147208,27.228934 4.6393401,27.3408629 4.47030457,27.5327411 C4.03857868,28.0467005 3.41040609,28.3413706 2.74568528,28.3436548 C2.54923858,28.3413706 2.35050761,28.3116751 2.16091371,28.2522843 C2.08781726,27.514467 2.03984772,26.7652284 2.03984772,26.0114213 C2.03984772,25.2598985 2.08781726,24.5106599 2.16091371,23.7705584 C2.35050761,23.7111675 2.54923858,23.6837563 2.74568528,23.6791878 C3.41040609,23.6837563 4.03857868,23.9784264 4.47030457,24.4901015 C4.6393401,24.684264 4.88147208,24.7939086 5.13502538,24.7939086 C5.39086294,24.7939086 5.63071066,24.684264 5.79974619,24.4901015 C6.22918782,23.9761421 6.85964467,23.6791878 7.52208122,23.6791878 C8.18908629,23.6791878 8.81725888,23.9761421 9.24670051,24.4901015 C9.41573604,24.684264 9.65786802,24.7939086 9.91142132,24.7939086 C10.1649746,24.7939086 10.4071066,24.684264 10.5738579,24.4901015 Z M44.9360406,29.3350254 C45.6258883,29.8558376 46.4642132,30.1390863 47.3253807,30.1390863 C47.4373096,30.1390863 47.5492386,30.1253807 47.6611675,30.1185279 C47.0832487,33.4329949 45.7972081,36.5784264 43.8967005,39.3401015 C43.8236041,39.2555838 43.7527919,39.1733503 43.6728426,39.093401 L43.6751269,39.093401 L43.6659898,39.084264 L43.6522843,39.0705584 L43.65,39.0751269 C43.0492386,38.4629442 42.265736,38.0654822 41.4228426,37.9398477 C41.2972081,37.0718274 40.8997462,36.2677665 40.2944162,35.6464467 L40.292132,35.6464467 C39.6799492,35.0319797 38.8895939,34.6345178 38.0375635,34.5134518 C37.7954315,32.7340102 36.415736,31.3314721 34.6591371,31.0893401 C34.5997462,30.6827411 34.4763959,30.2875635 34.2959391,29.9175127 C34.6888325,29.7804569 35.0543147,29.5840102 35.3832487,29.3350254 C36.7994924,30.4063452 38.743401,30.4063452 40.1596447,29.3350254 C40.8677665,29.8718274 41.7083756,30.1390863 42.5467005,30.1390863 C43.3873096,30.1390863 44.2256345,29.8718274 44.9360406,29.3350254 Z M14.6878173,29.3350254 C15.0167513,29.5840102 15.3845178,29.7804569 15.7751269,29.9175127 C15.5946701,30.2875635 15.4736041,30.6827411 15.4119289,31.0893401 C13.6553299,31.3314721 12.2733503,32.7340102 12.0335025,34.5134518 C10.2791878,34.757868 8.89492386,36.1581218 8.65050761,37.9398477 C7.80532995,38.0654822 7.02411168,38.4629442 6.42106599,39.0751269 L6.41878173,39.0705584 L6.40507614,39.084264 L6.39822335,39.093401 C6.31827411,39.1733503 6.24746193,39.2555838 6.17436548,39.3401015 C4.27614213,36.5784264 2.99010152,33.4329949 2.40989848,30.1185279 C2.52182741,30.1253807 2.63375635,30.1390863 2.74568528,30.1390863 C3.60685279,30.1390863 4.44517766,29.8558376 5.13502538,29.3350254 C6.55126904,30.4063452 8.49517766,30.4063452 9.91142132,29.3350254 C10.6195431,29.8718274 11.457868,30.1390863 12.2984772,30.1390863 C13.1390863,30.1390863 13.9796954,29.8718274 14.6878173,29.3350254 Z M29.5263959,33.7299492 C30.8124365,32.9601523 31.8860406,31.8682741 32.6467005,30.5662437 C32.8385787,30.9111675 32.9436548,31.3040609 32.9482234,31.7038071 L32.9413706,31.8728426 C32.9230964,32.135533 33.0167513,32.3890863 33.1994924,32.5718274 C33.3799492,32.7545685 33.6312183,32.8505076 33.8870558,32.8322335 L34.0560914,32.8253807 C34.6591371,32.8185279 35.2393401,33.0606599 35.6642132,33.4901015 C36.0890863,33.9218274 36.3266497,34.506599 36.3220812,35.1187817 L36.3152284,35.2946701 C36.2969543,35.5550761 36.3928934,35.8109137 36.5733503,35.9959391 C36.7560914,36.1786802 37.0050761,36.272335 37.2609137,36.2563452 L37.4322335,36.2472081 C38.0352792,36.2449239 38.613198,36.4847716 39.0426396,36.9142132 C39.478934,37.3596447 39.7187817,37.9649746 39.7096447,38.5931472 L39.7050761,38.7370558 C39.6936548,38.9883249 39.7850254,39.2373096 39.9654822,39.4177665 C40.1413706,39.5982234 40.3857868,39.6941624 40.6393401,39.6804569 L40.7741117,39.6758883 C41.3885787,39.664467 41.9779188,39.9088832 42.4073604,40.3474619 L42.430203,40.3680203 C42.5672589,40.5050761 42.6837563,40.6604061 42.7751269,40.8294416 C41.8385787,41.9875635 40.7901015,43.0520305 39.6456853,44.0045685 C39.478934,43.9109137 39.3258883,43.792132 39.1911168,43.6527919 L39.1705584,43.6299492 C38.7365482,43.1936548 38.4967005,42.5951777 38.5104061,41.9761421 L38.5104061,41.836802 C38.5263959,41.5809645 38.4327411,41.3319797 38.2545685,41.1515228 C38.0763959,40.9733503 37.8319797,40.8751269 37.5807107,40.8911168 L37.4413706,40.8956853 C36.822335,40.9025381 36.2284264,40.6581218 35.7875635,40.2172589 C35.3626904,39.7832487 35.1251269,39.1939086 35.1296954,38.5840102 L35.1365482,38.4104061 C35.1548223,38.1522843 35.0588832,37.8964467 34.8784264,37.7137056 C34.6956853,37.5286802 34.4444162,37.4350254 34.1908629,37.4532995 L34.0149746,37.4601523 C33.4142132,37.4647208 32.8340102,37.2225888 32.4091371,36.7908629 C31.984264,36.3568528 31.7467005,35.7720812 31.7535533,35.1598985 L31.7604061,34.9885787 C31.7786802,34.7281726 31.6850254,34.4746193 31.5045685,34.2918782 C31.3218274,34.1068528 31.0705584,34.0109137 30.8170051,34.0291878 L30.6456853,34.0360406 C30.2527919,34.0337563 29.8667513,33.9263959 29.5263959,33.7299492 Z M16.8738579,32.5718274 C17.0543147,32.386802 17.1502538,32.1332487 17.1296954,31.8728426 L17.1251269,31.7038071 C17.1274112,31.3040609 17.230203,30.9111675 17.4266497,30.5662437 C18.1873096,31.8682741 19.2609137,32.9601523 20.5446701,33.7299492 C20.2043147,33.9263959 19.8182741,34.0337563 19.4253807,34.0360406 L19.2540609,34.0291878 C19.0005076,34.0109137 18.7492386,34.1068528 18.5687817,34.2918782 C18.3860406,34.4746193 18.2923858,34.7281726 18.3106599,34.9885787 L18.3175127,35.1598985 C18.3220812,35.7720812 18.0845178,36.3591371 17.6619289,36.7931472 C17.2347716,37.2225888 16.6568528,37.4647208 16.0560914,37.4601523 L15.8824873,37.4532995 C15.6266497,37.4350254 15.3753807,37.5286802 15.1926396,37.7114213 C15.0121827,37.8964467 14.9162437,38.1522843 14.9345178,38.4104061 L14.9413706,38.5840102 C14.9459391,39.1939086 14.7106599,39.7832487 14.2857868,40.2172589 C13.8449239,40.6581218 13.248731,40.9025381 12.6296954,40.8956853 L12.4903553,40.8911168 C12.2390863,40.8774112 11.9946701,40.9733503 11.8187817,41.1515228 C11.6406091,41.3319797 11.5446701,41.5809645 11.5606599,41.8345178 L11.5629442,41.9761421 C11.5743655,42.5951777 11.3345178,43.1936548 10.9005076,43.6299492 L10.8822335,43.6527919 C10.7451777,43.792132 10.592132,43.9109137 10.4253807,44.0045685 C9.85203046,43.5248731 9.29923858,43.0291878 8.7784264,42.4992386 C8.45406091,42.1725888 8.14340102,41.8390863 7.83959391,41.4918782 C7.65228426,41.2771574 7.47411168,41.0510152 7.29365482,40.8294416 C7.38730964,40.6604061 7.50380711,40.5027919 7.64086294,40.3680203 L7.66370558,40.3474619 C8.09543147,39.9088832 8.68248731,39.664467 9.29695431,39.6758883 L9.43401015,39.6804569 C9.68527919,39.6941624 9.92969543,39.5982234 10.107868,39.4177665 C10.2860406,39.2373096 10.3774112,38.9883249 10.3659898,38.7347716 L10.3614213,38.5931472 C10.3522843,37.9649746 10.5944162,37.3596447 11.0307107,36.9142132 C11.457868,36.4847716 12.0380711,36.2449239 12.6411168,36.2472081 L12.8101523,36.2563452 C13.0659898,36.272335 13.3172589,36.1786802 13.4977157,35.9959391 C13.6781726,35.8109137 13.7741117,35.5550761 13.7558376,35.2946701 L13.7489848,35.1187817 C13.742132,34.506599 13.9819797,33.9218274 14.4091371,33.4901015 C14.8340102,33.0606599 15.4119289,32.8185279 16.0149746,32.8253807 L16.1840102,32.8322335 C16.2045685,32.8345178 16.2274112,32.8345178 16.2479695,32.8345178 C16.4809645,32.8345178 16.7071066,32.7408629 16.8738579,32.5718274 Z M27.2467005,34.6847716 C27.1256345,35.130203 26.878934,35.5299492 26.5362944,35.8337563 C26.3444162,36.0027919 26.2370558,36.2494924 26.2370558,36.5076142 C26.2370558,36.7634518 26.3444162,37.007868 26.5362944,37.1791878 C27.043401,37.6154822 27.3357868,38.2550761 27.3357868,38.928934 C27.3357868,39.6027919 27.043401,40.2423858 26.5362944,40.6786802 C26.3444162,40.8477157 26.2370558,41.092132 26.2370558,41.3502538 C26.2370558,41.6083756 26.3444162,41.8550761 26.5362944,42.0263959 C27.043401,42.4581218 27.3357868,43.1 27.3357868,43.7715736 C27.3357868,44.4477157 27.043401,45.0873096 26.5362944,45.5213198 C26.3444162,45.6903553 26.2370558,45.9370558 26.2370558,46.1951777 C26.2370558,46.4510152 26.3444162,46.6977157 26.5362944,46.8667513 C27.0388325,47.3053299 27.3312183,47.9449239 27.3357868,48.6164975 C27.3335025,48.8175127 27.3038071,49.0185279 27.2467005,49.2126904 C26.5180203,49.2835025 25.7779188,49.3337563 25.035533,49.3337563 C24.2954315,49.3337563 23.5553299,49.2835025 22.8243655,49.2126904 C22.7672589,49.0185279 22.7398477,48.8175127 22.7375635,48.6164975 C22.7398477,47.9449239 23.0322335,47.3053299 23.5347716,46.8667513 C23.7266497,46.6977157 23.8340102,46.4510152 23.8340102,46.1951777 C23.8340102,45.9370558 23.7266497,45.6903553 23.5347716,45.5213198 C23.0299492,45.0873096 22.7375635,44.4477157 22.7375635,43.7715736 C22.7375635,43.1 23.0299492,42.4581218 23.5347716,42.0263959 C23.7266497,41.8550761 23.8340102,41.6083756 23.8340102,41.3502538 C23.8340102,41.092132 23.7266497,40.8477157 23.5347716,40.6786802 C23.0299492,40.2423858 22.7375635,39.6027919 22.7375635,38.928934 C22.7375635,38.2550761 23.0299492,37.6154822 23.5347716,37.1791878 C23.7266497,37.007868 23.8340102,36.7634518 23.8340102,36.5076142 C23.8340102,36.2494924 23.7266497,36.0027919 23.5347716,35.8337563 C23.1944162,35.5299492 22.9477157,35.130203 22.8243655,34.6847716 C23.5484772,34.8835025 24.2908629,34.9817259 25.035533,34.9817259 C25.780203,34.9817259 26.5225888,34.8835025 27.2467005,34.6847716 Z M29.1038071,48.6164975 C29.1038071,47.7439086 28.8251269,46.8964467 28.3134518,46.1951777 C29.3687817,44.7583756 29.3687817,42.7870558 28.3134518,41.3502538 C29.3687817,39.9134518 29.3687817,37.9444162 28.3134518,36.5076142 C28.557868,36.1695431 28.7520305,35.7994924 28.886802,35.406599 C29.2522843,35.5870558 29.6406091,35.7104061 30.0426396,35.7743655 C30.280203,37.5538071 31.6621827,38.9540609 33.4187817,39.1961929 C33.6609137,40.9779188 35.0383249,42.3804569 36.7972081,42.6294416 C36.9205584,43.4860406 37.3134518,44.2809645 37.9142132,44.8908629 L37.9142132,44.8931472 L37.930203,44.9045685 L37.9347716,44.9159898 L37.9347716,44.9137056 C38.0147208,44.9936548 38.0969543,45.0690355 38.1791878,45.1398477 C35.4563452,47.0654822 32.3520305,48.3720812 29.0832487,48.9568528 C29.0946701,48.8449239 29.1060914,48.7307107 29.1038071,48.6164975 Z M12.1431472,44.9045685 L12.1568528,44.8931472 L12.1568528,44.8908629 C12.7598985,44.2809645 13.1505076,43.4860406 13.2738579,42.6294416 C14.1304569,42.5038071 14.9230964,42.1017766 15.5352792,41.4850254 C16.1428934,40.8637056 16.5335025,40.0619289 16.6545685,39.1961929 C17.506599,39.0774112 18.2992386,38.677665 18.9114213,38.0609137 C19.5167513,37.4395939 19.9073604,36.6378173 20.0284264,35.7743655 C20.4304569,35.7104061 20.821066,35.5870558 21.184264,35.406599 C21.3213198,35.7994924 21.513198,36.1718274 21.7576142,36.5076142 C20.7045685,37.9444162 20.7045685,39.9134518 21.7576142,41.3502538 C20.7045685,42.7870558 20.7045685,44.7583756 21.7576142,46.1951777 C21.2459391,46.8964467 20.9695431,47.7439086 20.9672589,48.6164975 C20.9672589,48.7307107 20.9786802,48.8449239 20.9878173,48.9568528 C17.7190355,48.3720812 14.6147208,47.0654822 11.8941624,45.1398477 C11.9763959,45.0690355 12.0586294,44.9936548 12.1340102,44.9137056 L12.1362944,44.9159898 L12.1431472,44.9045685 Z" id="path-3"></path>
        <path d="M0.408883249,4.16878173 C0.408883249,6.44847716 2.22944162,8.2964467 4.47715736,8.2964467 C6.7248731,8.2964467 8.54543147,6.44847716 8.54543147,4.16878173 C8.54543147,1.88908629 6.7248731,0.0434010152 4.47715736,0.0434010152 C2.22944162,0.0434010152 0.408883249,1.88908629 0.408883249,4.16878173 Z M2.17918782,4.16878173 C2.17918782,2.88274112 3.20939086,1.84111675 4.47715736,1.83654822 C5.74720812,1.83654822 6.77741117,2.88045685 6.77741117,4.16878173 C6.77741117,5.45939086 5.74720812,6.50101523 4.47715736,6.50101523 C3.2071066,6.50101523 2.17918782,5.45939086 2.17918782,4.16878173 Z" id="path-5"></path>
        <path d="M0,15.0046701 C0.07803227,15.7105076 0.135153932,16.4346193 0.162694733,17.1907107 L0.162694733,22.1635533 L11,22.1635533 L11,18.2917259 L0.643128709,18.2917259 C0.692600148,11.8592386 4.93082344,4.73918782 11,4.73918782 L11,0.867360406 C6.14516877,0.867360406 1.02002967,5.79908629 0,15.0046701 Z" id="path-7"></path>
    </defs>
    <g id="Group-9" stroke="none" stroke-width="1" fill="none" fill-rule="evenodd">
        <g>
            <g id="Group-4" transform="translate(10.096447, 0.020305)">
                <mask id="mask-2" fill="white">
                    <use xlink:href="#path-1"></use>
                </mask>
                <use id="Clip-2" fill="#5E5E5E" xlink:href="#path-1"></use>
                <polygon id="Fill-1" fill="#152631" mask="url(#mask-2)" points="-10.3088832 94.9111675 92.3573604 94.9111675 92.3573604 -8.90862944 -10.3088832 -8.90862944"></polygon>
                <polygon id="Stroke-3" stroke="#B6B5B6" stroke-width="0.3" mask="url(#mask-2)" points="-10.3088832 94.9111675 92.3573604 94.9111675 92.3573604 -8.90862944 -10.3088832 -8.90862944"></polygon>
            </g>
            <path d="M14.5053046,47.1490102 C15.3641878,47.1490102 16.2025127,46.8657614 16.8923604,46.3449492 C17.5844924,46.8657614 18.420533,47.1490102 19.2817005,47.1490102 C19.615203,47.1467259 19.9464213,47.1010406 20.2685025,47.0119543 C20.9514975,52.5969797 23.1146954,57.887335 26.5273858,62.3233756 C26.235,62.4946954 25.9654569,62.7025635 25.7256091,62.9424112 C25.1179949,63.5614467 24.7273858,64.3632234 24.6063198,65.2289594 C23.7520051,65.3477411 22.9593655,65.7474873 22.349467,66.3642386 C20.7596193,67.9769289 20.7596193,70.5901269 22.349467,72.2028173 C23.9393147,73.8132234 26.5159645,73.8132234 28.1058122,72.2028173 C28.7157107,71.5837817 29.1086041,70.7797208 29.2251015,69.9139848 C30.0794162,69.7906345 30.8697716,69.3931726 31.4819543,68.7787056 C31.7172335,68.5342893 31.9228173,68.2624619 32.0895685,67.9655076 C36.463934,71.4261675 41.6811929,73.6190609 47.1885533,74.3111929 C47.1017513,74.6378426 47.056066,74.9759137 47.0537817,75.3139848 C47.056066,76.1865736 47.3324619,77.0340355 47.8464213,77.7353046 C47.3324619,78.4365736 47.056066,79.2840355 47.0537817,80.1566244 C47.0537817,82.4363198 48.8743401,84.2842893 51.1220558,84.2842893 C53.3697716,84.2842893 55.1903299,82.4363198 55.1903299,80.1566244 C55.1903299,79.2840355 54.9116497,78.4365736 54.3976904,77.7353046 C54.9116497,77.0340355 55.1903299,76.1865736 55.1903299,75.3139848 C55.1880457,74.9759137 55.1446447,74.6378426 55.0555584,74.3111929 C60.5629188,73.6190609 65.7801777,71.4261675 70.1545431,67.9655076 C70.3212944,68.2624619 70.5268782,68.5342893 70.7621574,68.7787056 C71.3743401,69.3931726 72.1669797,69.7906345 73.0190102,69.9139848 C73.1355076,70.7797208 73.528401,71.5837817 74.1382995,72.2028173 C75.7281472,73.8109391 78.304797,73.8109391 79.8946447,72.2028173 L79.2687563,71.5677919 L79.8946447,72.2028173 C81.4822081,70.5901269 81.4822081,67.9769289 79.8946447,66.3642386 C79.2847462,65.7474873 78.4921066,65.3477411 77.6377919,65.2289594 C77.5167259,64.3632234 77.1261168,63.5614467 76.5207868,62.9424112 C76.2786548,62.7025635 76.0091117,62.4946954 75.7167259,62.3233756 C79.1317005,57.887335 81.2926142,52.5969797 81.9756091,47.0119543 C82.2976904,47.1010406 82.6289086,47.1467259 82.9624112,47.1490102 C83.8235787,47.1490102 84.6596193,46.8657614 85.3517513,46.3449492 C86.041599,46.8657614 86.8776396,47.1490102 87.7388071,47.1490102 C89.9842386,47.1490102 91.8070812,45.3010406 91.8070812,43.0213452 C91.8070812,40.743934 89.9842386,38.8959645 87.7388071,38.8959645 C86.8776396,38.8982487 86.041599,39.1792132 85.3517513,39.7000254 C84.6596193,39.1792132 83.8235787,38.8982487 82.9624112,38.8959645 C82.6289086,38.8982487 82.2976904,38.943934 81.9756091,39.0330203 C81.2926142,33.4479949 79.1317005,28.1576396 75.7167259,23.721599 C76.0091117,23.5502792 76.2786548,23.3424112 76.5207868,23.1025635 C77.1261168,22.4835279 77.5167259,21.6817513 77.6377919,20.8160152 C78.4921066,20.6972335 79.2847462,20.2974873 79.8946447,19.680736 C81.4822081,18.0680457 81.4822081,15.4548477 79.8946447,13.8421574 C78.304797,12.2317513 75.7281472,12.2317513 74.1382995,13.8421574 C73.528401,14.4611929 73.1355076,15.2652538 73.0190102,16.1309898 C72.1669797,16.2543401 71.3743401,16.6495178 70.7621574,17.266269 L70.7621574,17.2639848 C70.5268782,17.508401 70.3212944,17.7825127 70.1545431,18.079467 C65.7801777,14.6188071 60.5629188,12.4259137 55.0555584,11.7337817 C55.1446447,11.407132 55.1880457,11.0690609 55.1903299,10.7309898 C55.1903299,9.85840102 54.9116497,9.00865482 54.3976904,8.30967005 C54.9116497,7.60840102 55.1903299,6.75865482 55.1903299,5.88606599 C55.1903299,3.60865482 53.3697716,1.76068528 51.1220558,1.76068528 C48.8743401,1.76068528 47.0537817,3.60865482 47.0537817,5.88606599 C47.056066,6.75865482 47.3324619,7.60840102 47.8464213,8.30967005 C47.3324619,9.00865482 47.056066,9.85840102 47.0537817,10.7309898 C47.056066,11.0690609 47.1017513,11.407132 47.1885533,11.7337817 C41.6811929,12.4259137 36.463934,14.6188071 32.0895685,18.079467 C31.9228173,17.7825127 31.7172335,17.508401 31.4819543,17.2639848 C30.8697716,16.651802 30.0794162,16.2543401 29.2251015,16.1309898 C29.1086041,15.2652538 28.7157107,14.4611929 28.1058122,13.8421574 C26.5159645,12.2317513 23.9393147,12.2317513 22.349467,13.8421574 C20.7619036,15.4548477 20.7619036,18.0680457 22.349467,19.680736 C22.9593655,20.2974873 23.7520051,20.6972335 24.6063198,20.8160152 C24.7273858,21.6817513 25.1179949,22.4835279 25.7256091,23.1025635 C25.9654569,23.3424112 26.235,23.5502792 26.5273858,23.721599 C23.1146954,28.1576396 20.9514975,33.4479949 20.2685025,39.0330203 C19.9464213,38.943934 19.615203,38.8982487 19.2817005,38.8959645 C18.420533,38.8982487 17.5844924,39.1792132 16.8923604,39.7000254 C16.2025127,39.1792132 15.3641878,38.8982487 14.5053046,38.8959645 C12.2575888,38.8959645 10.4370305,40.743934 10.4370305,43.0213452 C10.4370305,45.3010406 12.2575888,47.1490102 14.5053046,47.1490102 Z M28.6197716,68.1779442 L28.450736,68.1710914 C28.1948985,68.1528173 27.9436294,68.2464721 27.7631726,68.4314975 C27.5804315,68.6142386 27.4867766,68.8700761 27.5050508,69.1304822 L27.5119036,69.3109391 C27.5187563,69.9208376 27.2811929,70.5056091 26.8540355,70.9350508 C25.9563198,71.8464721 24.4989594,71.8464721 23.5989594,70.9350508 C22.7012437,70.0236294 22.7012437,68.5457107 23.5989594,67.6320051 C24.0238325,67.2002792 24.599467,66.9604315 25.2002284,66.9672843 L25.378401,66.9741371 C25.6342386,66.9924112 25.8855076,66.8964721 26.0682487,66.7114467 C26.2487056,66.5287056 26.3423604,66.2751523 26.3240863,66.0147462 L26.3172335,65.8434264 C26.312665,65.2312437 26.5502284,64.6441878 26.9751015,64.2101777 C27.1715482,64.0114467 27.4045431,63.8538325 27.6603807,63.7419036 C28.5946447,64.8429188 29.6065736,65.8685533 30.691599,66.8165228 C30.5819543,67.0746447 30.4243401,67.3099239 30.2301777,67.5109391 C29.8030203,67.942665 29.2228173,68.1825127 28.6197716,68.1779442 Z M52.7461675,81.8035787 C52.1545431,82.4111929 51.2842386,82.6419036 50.4756091,82.4043401 C49.6669797,82.1667766 49.0525127,81.4997716 48.8743401,80.663731 C48.6961675,79.8299746 48.9839848,78.9642386 49.6212944,78.4091624 C49.8131726,78.2378426 49.920533,77.9934264 49.920533,77.7353046 C49.920533,77.4771827 49.8131726,77.2327665 49.6212944,77.063731 C49.1164721,76.6251523 48.8263706,75.9878426 48.821802,75.3139848 C48.8263706,75.0375888 48.8834772,74.7634772 48.9885533,74.5099239 C49.7012437,74.5647462 50.4162183,74.5967259 51.1220558,74.5967259 C51.8301777,74.5967259 52.542868,74.5647462 53.2555584,74.5099239 C53.3606345,74.7634772 53.4177411,75.0375888 53.4223096,75.3139848 C53.4200254,75.9878426 53.1276396,76.6251523 52.6228173,77.063731 C52.4332234,77.2327665 52.3235787,77.4771827 52.3235787,77.7353046 C52.3235787,77.9934264 52.4332234,78.2378426 52.6228173,78.4091624 C53.1070812,78.8271827 53.3971827,79.4325127 53.4200254,80.0789594 C53.442868,80.7254061 53.1984518,81.3512944 52.7461675,81.8035787 Z M76.1781472,66.713731 C76.3586041,66.8964721 76.6098731,66.9924112 76.8657107,66.9741371 L77.0438832,66.9672843 C77.6446447,66.9604315 78.2225635,67.2002792 78.6451523,67.6342893 C79.5405838,68.5457107 79.5405838,70.0213452 78.6451523,70.9350508 C77.7451523,71.8441878 76.2877919,71.8441878 75.3900761,70.9350508 C74.9629188,70.5056091 74.7253553,69.9208376 74.7322081,69.3109391 L74.7390609,69.1304822 C74.757335,68.8700761 74.6636802,68.6142386 74.4809391,68.4314975 C74.3004822,68.2464721 74.0492132,68.1528173 73.7956599,68.1710914 L73.6243401,68.1779442 C73.0235787,68.1825127 72.4433756,67.942665 72.013934,67.5109391 C71.8197716,67.3099239 71.6644416,67.0746447 71.5525127,66.8165228 C72.6375381,65.8685533 73.649467,64.8429188 74.583731,63.7419036 C74.8395685,63.8538325 75.0702792,64.0114467 75.2690102,64.2101777 C75.6938832,64.6441878 75.9291624,65.2312437 75.9245939,65.8434264 L75.9200254,66.0147462 C75.9017513,66.2751523 75.9954061,66.5287056 76.1781472,66.713731 Z M84.6870305,41.5000254 C84.8537817,41.6941878 85.098198,41.8038325 85.3517513,41.8038325 C85.6053046,41.8038325 85.8474365,41.6941878 86.0141878,41.5000254 C86.6446447,40.7622081 87.6565736,40.4949492 88.5565736,40.8353046 C89.4588579,41.1756599 90.057335,42.0482487 90.057335,43.0213452 C90.057335,43.9967259 89.4588579,44.8693147 88.5565736,45.2096701 C87.6565736,45.5477411 86.6423604,45.2827665 86.0141878,44.5449492 C85.8474365,44.3507868 85.6053046,44.2411421 85.3517513,44.2411421 C85.098198,44.2411421 84.8537817,44.3507868 84.6870305,44.5449492 C84.2575888,45.0543401 83.627132,45.3512944 82.9624112,45.3535787 C82.6905838,45.3490102 82.4210406,45.2941878 82.1697716,45.1868274 C82.2245939,44.4627157 82.2565736,43.7386041 82.2565736,43.0213452 C82.2565736,42.3040863 82.2245939,41.5799746 82.1697716,40.8581472 C82.4210406,40.7507868 82.6905838,40.6936802 82.9624112,40.6891117 C83.627132,40.6936802 84.2575888,40.9883503 84.6870305,41.5000254 Z M72.013934,18.5340355 C72.4433756,18.1023096 73.0235787,17.8624619 73.6243401,17.8670305 L73.7956599,17.8738832 C74.0492132,17.8921574 74.3004822,17.7962183 74.4809391,17.6134772 C74.6636802,17.4284518 74.757335,17.1748985 74.7390609,16.9144924 L74.7322081,16.7340355 C74.7253553,16.1241371 74.9629188,15.5393655 75.3900761,15.1099239 C76.2877919,14.2030711 77.742868,14.2030711 78.642868,15.1144924 C79.5382995,16.0236294 79.5405838,17.499264 78.6451523,18.4106853 C78.2225635,18.8446954 77.6446447,19.0845431 77.0438832,19.0776904 L76.8657107,19.0708376 C76.6098731,19.0525635 76.3586041,19.1485025 76.1781472,19.3312437 C75.9954061,19.516269 75.9017513,19.7698223 75.9200254,20.0302284 L75.9245939,20.2015482 C75.9291624,20.813731 75.6938832,21.4007868 75.2690102,21.834797 C75.0702792,22.0312437 74.8395685,22.1911421 74.583731,22.3030711 C73.649467,21.2043401 72.6375381,20.1741371 71.5525127,19.2284518 C71.6621574,18.9703299 71.8197716,18.7350508 72.013934,18.5340355 Z M49.4979442,4.24139594 C50.0895685,3.63378173 50.9598731,3.40307107 51.7685025,3.64063452 C52.577132,3.87819797 53.191599,4.54748731 53.3697716,5.37895939 C53.5479442,6.215 53.2624112,7.07845178 52.6228173,7.63581218 C52.4332234,7.80484772 52.3235787,8.05154822 52.3235787,8.30967005 C52.3235787,8.56550761 52.4332234,8.81220812 52.6228173,8.98124365 C53.1276396,9.41982234 53.4200254,10.057132 53.4223096,10.7309898 C53.4177411,11.0073858 53.3606345,11.2792132 53.2555584,11.5350508 C52.542868,11.4802284 51.8301777,11.4482487 51.1220558,11.4482487 C50.4162183,11.4482487 49.7012437,11.4802284 48.9885533,11.5350508 C48.8834772,11.2792132 48.8263706,11.0073858 48.821802,10.7309898 C48.8263706,10.057132 49.1164721,9.41982234 49.6212944,8.98124365 C49.8131726,8.81220812 49.920533,8.56550761 49.920533,8.30967005 C49.920533,8.05154822 49.8131726,7.80484772 49.6212944,7.63581218 C49.1370305,7.21779188 48.8469289,6.61017766 48.8240863,5.96601523 C48.8012437,5.31956853 49.0456599,4.69596447 49.4979442,4.24139594 Z M26.0682487,19.3312437 C25.8855076,19.1485025 25.6365228,19.0525635 25.378401,19.0708376 L25.2002284,19.0776904 C24.599467,19.0845431 24.0238325,18.8446954 23.5989594,18.4106853 C22.7012437,17.499264 22.7012437,16.0236294 23.5989594,15.1099239 C24.4989594,14.1985025 25.9563198,14.1985025 26.8540355,15.1099239 C27.2811929,15.5393655 27.5187563,16.1241371 27.5119036,16.7340355 L27.5050508,16.9144924 C27.4867766,17.1748985 27.5804315,17.4284518 27.7631726,17.6134772 C27.9436294,17.7962183 28.1948985,17.8921574 28.450736,17.8738832 L28.6197716,17.8670305 C29.2228173,17.8624619 29.8030203,18.1023096 30.2301777,18.5340355 C30.4243401,18.7350508 30.5819543,18.9703299 30.691599,19.2284518 C29.6065736,20.1741371 28.5946447,21.2043401 27.6603807,22.3030711 C27.4045431,22.1911421 27.1715482,22.0312437 26.9751015,21.834797 C26.5502284,21.4007868 26.312665,20.813731 26.3172335,20.2015482 L26.3240863,20.0302284 C26.3423604,19.7698223 26.2487056,19.516269 26.0682487,19.3312437 Z M21.8811929,40.4012944 C22.3882995,34.3320051 24.7410914,28.5733756 28.6174873,23.9203299 L28.6243401,23.9111929 C29.7230711,22.5611929 30.9474365,21.3208376 32.2791624,20.2061168 L32.2860152,20.199264 C36.8728173,16.2680457 42.5537817,13.8809898 48.5385533,13.3670305 L48.5591117,13.3647462 C50.2631726,13.2002792 51.9809391,13.2002792 53.685,13.3647462 L53.7055584,13.3670305 C59.6903299,13.8809898 65.3712944,16.2680457 69.9580964,20.199264 L69.9672335,20.2061168 C71.2966751,21.3208376 72.5210406,22.5611929 73.6197716,23.9111929 L73.6266244,23.9203299 C77.5030203,28.5733756 79.8580964,34.3320051 80.3629188,40.4012944 L80.365203,40.4241371 C80.5273858,42.1510406 80.5273858,43.8916497 80.365203,45.6208376 L80.3629188,45.6413959 C79.8580964,51.7129695 77.5030203,57.471599 73.6266244,62.1246447 L73.6197716,62.1337817 C72.5210406,63.4814975 71.2966751,64.7241371 69.9672335,65.8388579 L69.9580964,65.8457107 C65.3712944,69.7769289 59.6903299,72.1639848 53.7055584,72.6756599 L53.685,72.6779442 C51.9809391,72.8446954 50.2631726,72.8446954 48.5591117,72.6779442 L48.5385533,72.6756599 C42.5537817,72.1639848 36.8728173,69.7769289 32.2860152,65.8457107 L32.2791624,65.8388579 C30.9474365,64.7241371 29.7230711,63.4814975 28.6243401,62.1337817 L28.6174873,62.1246447 C24.7410914,57.471599 22.3882995,51.7129695 21.8811929,45.6413959 L21.8811929,45.6208376 C21.7167259,43.8916497 21.7167259,42.1510406 21.8811929,40.4241371 L21.8811929,40.4012944 Z M12.8811929,41.3766751 C13.3289086,40.9152538 13.9456599,40.6685533 14.5829695,40.6913959 C15.2179949,40.7165228 15.8164721,41.0089086 16.2299239,41.5000254 C16.3966751,41.6941878 16.6388071,41.8038325 16.8923604,41.8038325 C17.148198,41.8038325 17.3880457,41.6941878 17.5570812,41.5000254 C17.9888071,40.9883503 18.6169797,40.6936802 19.2817005,40.6891117 C19.5535279,40.6936802 19.8230711,40.7507868 20.0743401,40.8581472 C20.0195178,41.5799746 19.9875381,42.3040863 19.9875381,43.0213452 C19.9875381,43.7386041 20.0195178,44.4627157 20.0743401,45.1868274 C19.8230711,45.2941878 19.5535279,45.3490102 19.2817005,45.3535787 C18.6169797,45.3512944 17.9888071,45.0543401 17.5570812,44.5449492 C17.3880457,44.3507868 17.148198,44.2411421 16.8923604,44.2411421 C16.6388071,44.2411421 16.3966751,44.3507868 16.2299239,44.5449492 C15.6817005,45.1891117 14.8296701,45.4769289 14.0096193,45.2941878 C13.1872843,45.113731 12.5317005,44.4924112 12.2964213,43.6746447 C12.0634264,42.8591624 12.2872843,41.9751523 12.8811929,41.3766751 Z" id="Stroke-8"></path>
            <g id="Group-12" transform="translate(26.086294, 17.010152)">
                <mask id="mask-4" fill="white">
                    <use xlink:href="#path-3"></use>
                </mask>
                <use id="Clip-11" fill="#152631" xlink:href="#path-3"></use>
                <polygon id="Fill-10" fill="#152631" mask="url(#mask-4)" points="-10.3774112 61.7761421 60.4507614 61.7761421 60.4507614 -9.75101523 -10.3774112 -9.75101523"></polygon>
            </g>
            <g id="Group-15" transform="translate(46.644670, 38.852792)">
                <mask id="mask-6" fill="white">
                    <use xlink:href="#path-5"></use>
                </mask>
                <use id="Clip-14" fill="#152631" xlink:href="#path-5"></use>
                <polygon id="Fill-13" fill="#152631" mask="url(#mask-6)" points="-10.2403553 18.943401 19.1946701 18.943401 19.1946701 -10.6058376 -10.2403553 -10.6058376"></polygon>
            </g>
            <g id="Group-30" transform="translate(0.000000, 82.000000)">
                <polygon id="Fill-16" stroke="#FFFFFF" stroke-width="0.8" fill="#152631" points="34.732868 12.446066 0.174238579 10.6277919 0.0371827411 13.2478426 34.5935279 15.0661168"></polygon>
                <path d="M51.2152538,15.0046701 C46.6467259,5.79908629 23.6921574,0.867360406 1.94824873,0.867360406 L1.94824873,4.73918782 C29.1309898,4.73918782 48.1132234,11.8592386 48.3370812,18.2917259 L1.94824873,18.2917259 L1.94824873,22.1635533 L50.4865736,22.1635533 L50.4865736,17.1907107 C50.6122081,16.4346193 50.8657614,15.7105076 51.2152538,15.0046701" id="Fill-18" fill="#152631"></path>
                <path d="M51.2152538,15.0046701 C46.6467259,5.79908629 23.6921574,0.867360406 1.94824873,0.867360406 L1.94824873,4.73918782 C29.1309898,4.73918782 48.1132234,11.8592386 48.3370812,18.2917259 L1.94824873,18.2917259 L1.94824873,22.1635533 L50.4865736,22.1635533 L50.4865736,17.1907107 C50.6122081,16.4346193 50.8657614,15.7105076 51.2152538,15.0046701 Z" id="Stroke-20" stroke="#FEFEFE" stroke-width="2"></path>
                <polygon id="Fill-22" stroke="#FFFFFF" stroke-width="0.8" fill="#152631" points="67.8356091 15.0672589 102.394239 13.2489848 102.254898 10.6266497 67.696269 12.4472081"></polygon>
                <path d="M50.2152538,15.0046701 C50.5647462,15.7105076 50.8205838,16.4346193 50.943934,17.1907107 L50.943934,22.1635533 L99.4822589,22.1635533 L99.4822589,18.2917259 L53.0957107,18.2917259 C53.3172843,11.8592386 72.2995178,4.73918782 99.4822589,4.73918782 L99.4822589,0.867360406 C77.7383503,0.867360406 54.7837817,5.79908629 50.2152538,15.0046701" id="Fill-24" stroke="#FFFFFF" stroke-width="2" fill="#152631"></path>
                <g id="Group-11" transform="translate(51.000000, 0.000000)">
                    <mask id="mask-8" fill="white">
                        <use xlink:href="#path-7"></use>
                    </mask>
                    <use id="Stroke-26" stroke="#FEFEFE" stroke-width="0.5" xlink:href="#path-7"></use>
                </g>
                <rect id="Rectangle-4" fill="#58646C" x="49" y="19" width="17" height="1"></rect>
                <rect id="Rectangle-4" fill="#58646C" x="50" y="15" width="2" height="4"></rect>
                <rect id="Rectangle-4" fill="#152631" x="49" y="20" width="17" height="1"></rect>
                <rect id="Rectangle-4" fill="#D9DCDD" x="49" y="21" width="16" height="1"></rect>
            </g>
        </g>
    </g>
</svg>